solid stepper_stabilizer
facet normal -3.838001050550253e-32 3.168795822327973e-32 1.0
  outer loop
    vertex -19.938441702975688 -15.782172325201154 6.0
    vertex -20.0 -5.0 6.0
    vertex -20.0 -15.0 6.0
  endloop
endfacet
facet normal -3.838001050550253e-32 3.168795822327973e-32 1.0
  outer loop
    vertex -20.0 -5.0 6.0
    vertex -19.938441702975688 -15.782172325201154 6.0
    vertex -19.938441702975688 -4.217827674798845 6.0
  endloop
endfacet
facet normal -3.838001050550253e-32 3.168795822327973e-32 1.0
  outer loop
    vertex -19.938441702975688 -4.217827674798845 6.0
    vertex -19.938441702975688 -15.782172325201154 6.0
    vertex -19.755282581475768 -16.545084971874736 6.0
  endloop
endfacet
facet normal -3.838001050550253e-32 3.168795822327973e-32 1.0
  outer loop
    vertex -19.938441702975688 -4.217827674798845 6.0
    vertex -19.755282581475768 -16.545084971874736 6.0
    vertex -19.755282581475768 -3.4549150281252636 6.0
  endloop
endfacet
facet normal -3.838001050550253e-32 3.168795822327973e-32 1.0
  outer loop
    vertex -19.755282581475768 -3.4549150281252636 6.0
    vertex -19.755282581475768 -16.545084971874736 6.0
    vertex -19.45503262094184 -17.269952498697737 6.0
  endloop
endfacet
facet normal -3.838001050550253e-32 3.168795822327973e-32 1.0
  outer loop
    vertex -19.755282581475768 -3.4549150281252636 6.0
    vertex -19.45503262094184 -17.269952498697737 6.0
    vertex -19.45503262094184 -2.7300475013022667 6.0
  endloop
endfacet
facet normal -3.838001050550253e-32 3.168795822327973e-32 1.0
  outer loop
    vertex -19.45503262094184 -2.7300475013022667 6.0
    vertex -19.45503262094184 -17.269952498697737 6.0
    vertex -19.04508497187474 -17.938926261462367 6.0
  endloop
endfacet
facet normal -3.838001050550253e-32 3.168795822327973e-32 1.0
  outer loop
    vertex -19.45503262094184 -2.7300475013022667 6.0
    vertex -19.04508497187474 -17.938926261462367 6.0
    vertex -19.04508497187474 -2.0610737385376345 6.0
  endloop
endfacet
facet normal -3.838001050550253e-32 3.168795822327973e-32 1.0
  outer loop
    vertex -19.04508497187474 -2.0610737385376345 6.0
    vertex -19.04508497187474 -17.938926261462367 6.0
    vertex -18.535533905932734 -18.535533905932734 6.0
  endloop
endfacet
facet normal -3.838001050550253e-32 3.168795822327973e-32 1.0
  outer loop
    vertex -19.04508497187474 -2.0610737385376345 6.0
    vertex -18.535533905932734 -18.535533905932734 6.0
    vertex -18.535533905932734 -1.4644660940672634 6.0
  endloop
endfacet
facet normal -3.838001050550253e-32 3.168795822327973e-32 1.0
  outer loop
    vertex -18.535533905932734 -1.4644660940672634 6.0
    vertex -18.535533905932734 -18.535533905932734 6.0
    vertex -17.938926261462367 -19.04508497187474 6.0
  endloop
endfacet
facet normal -3.838001050550253e-32 3.168795822327973e-32 1.0
  outer loop
    vertex -18.535533905932734 -1.4644660940672634 6.0
    vertex -17.938926261462367 -19.04508497187474 6.0
    vertex -17.938926261462367 -0.9549150281252632 6.0
  endloop
endfacet
facet normal -3.838001050550253e-32 3.168795822327973e-32 1.0
  outer loop
    vertex -17.938926261462367 -0.9549150281252632 6.0
    vertex -17.938926261462367 -19.04508497187474 6.0
    vertex -17.269952498697737 -19.45503262094184 6.0
  endloop
endfacet
facet normal -3.838001050550253e-32 3.168795822327973e-32 1.0
  outer loop
    vertex -17.938926261462367 -0.9549150281252632 6.0
    vertex -17.269952498697737 -19.45503262094184 6.0
    vertex -17.269952498697737 -0.5449673790581614 6.0
  endloop
endfacet
facet normal -3.838001050550253e-32 3.168795822327973e-32 1.0
  outer loop
    vertex -17.269952498697737 -0.5449673790581614 6.0
    vertex -17.269952498697737 -19.45503262094184 6.0
    vertex -16.545084971874736 -19.755282581475768 6.0
  endloop
endfacet
facet normal -3.838001050550253e-32 3.168795822327973e-32 1.0
  outer loop
    vertex -17.269952498697737 -0.5449673790581614 6.0
    vertex -16.545084971874736 -19.755282581475768 6.0
    vertex -16.545084971874736 -0.2447174185242333 6.0
  endloop
endfacet
facet normal -3.838001050550253e-32 3.168795822327973e-32 1.0
  outer loop
    vertex -16.545084971874736 -0.2447174185242333 6.0
    vertex -16.545084971874736 -19.755282581475768 6.0
    vertex -15.782172325201154 -19.938441702975688 6.0
  endloop
endfacet
facet normal -3.838001050550253e-32 3.168795822327973e-32 1.0
  outer loop
    vertex -16.545084971874736 -0.2447174185242333 6.0
    vertex -15.782172325201154 -19.938441702975688 6.0
    vertex -15.782172325201154 -0.06155829702431218 6.0
  endloop
endfacet
facet normal -3.838001050550253e-32 3.168795822327973e-32 1.0
  outer loop
    vertex -15.782172325201154 -0.06155829702431218 6.0
    vertex -15.782172325201154 -19.938441702975688 6.0
    vertex -15.0 -20.0 6.0
  endloop
endfacet
facet normal -3.838001050550253e-32 3.168795822327973e-32 1.0
  outer loop
    vertex -15.782172325201154 -0.06155829702431218 6.0
    vertex -15.0 -20.0 6.0
    vertex -15.0 0.0 6.0
  endloop
endfacet
facet normal -3.838001050550253e-32 3.168795822327973e-32 1.0
  outer loop
    vertex -15.0 0.0 6.0
    vertex -15.0 -20.0 6.0
    vertex 57.3 -19.999999999999996 6.0
  endloop
endfacet
facet normal -3.838001050550253e-32 3.168795822327973e-32 1.0
  outer loop
    vertex -15.0 0.0 6.0
    vertex 57.3 -19.999999999999996 6.0
    vertex -12.653483024396538 0.18467489107293444 6.0
  endloop
endfacet
facet normal -3.838001050550253e-32 3.168795822327973e-32 1.0
  outer loop
    vertex -12.653483024396538 0.18467489107293444 6.0
    vertex 57.3 -19.999999999999996 6.0
    vertex -10.36474508437579 0.7341522555726957 6.0
  endloop
endfacet
facet normal -3.838001050550253e-32 3.168795822327973e-32 1.0
  outer loop
    vertex -10.36474508437579 0.7341522555726957 6.0
    vertex 57.3 -19.999999999999996 6.0
    vertex -8.190142503906799 1.634902137174482 6.0
  endloop
endfacet
facet normal -3.838001050550253e-32 3.168795822327973e-32 1.0
  outer loop
    vertex -8.190142503906799 1.634902137174482 6.0
    vertex 57.3 -19.999999999999996 6.0
    vertex -6.183221215612904 2.8647450843757882 6.0
  endloop
endfacet
facet normal -3.838001050550253e-32 3.168795822327973e-32 1.0
  outer loop
    vertex -6.183221215612904 2.8647450843757882 6.0
    vertex 57.3 -19.999999999999996 6.0
    vertex -4.3933982822017885 4.393398282201787 6.0
  endloop
endfacet
facet normal -3.838001050550253e-32 3.168795822327973e-32 1.0
  outer loop
    vertex -4.3933982822017885 4.393398282201787 6.0
    vertex 57.3 -19.999999999999996 6.0
    vertex 12.000000000000004 -0.8482648892552243 6.0
  endloop
endfacet
facet normal -3.838001050550253e-32 3.168795822327973e-32 1.0
  outer loop
    vertex -4.3933982822017885 4.393398282201787 6.0
    vertex 12.000000000000004 -0.8482648892552243 6.0
    vertex -2.8647450843757882 6.183221215612904 6.0
  endloop
endfacet
facet normal -3.838001050550253e-32 3.168795822327973e-32 1.0
  outer loop
    vertex -2.8647450843757882 6.183221215612904 6.0
    vertex 12.000000000000004 -0.8482648892552243 6.0
    vertex -1.634902137174482 8.190142503906797 6.0
  endloop
endfacet
facet normal -3.838001050550253e-32 3.168795822327973e-32 1.0
  outer loop
    vertex -1.634902137174482 8.190142503906797 6.0
    vertex 12.000000000000004 -0.8482648892552243 6.0
    vertex 8.209945904286181 2.0599459042861814 6.0
  endloop
endfacet
facet normal -3.838001050550253e-32 3.168795822327973e-32 1.0
  outer loop
    vertex -1.634902137174482 8.190142503906797 6.0
    vertex 8.209945904286181 2.0599459042861814 6.0
    vertex -0.7341522555726957 10.36474508437579 6.0
  endloop
endfacet
facet normal -3.838001050550253e-32 3.168795822327973e-32 1.0
  outer loop
    vertex -0.7341522555726957 10.36474508437579 6.0
    vertex 8.209945904286181 2.0599459042861814 6.0
    vertex -0.18467489107293444 12.653483024396536 6.0
  endloop
endfacet
facet normal -3.838001050550253e-32 3.168795822327973e-32 1.0
  outer loop
    vertex -0.18467489107293444 12.653483024396536 6.0
    vertex 8.209945904286181 2.0599459042861814 6.0
    vertex 5.301735110744776 5.849999999999996 6.0
  endloop
endfacet
facet normal -3.838001050550253e-32 3.168795822327973e-32 1.0
  outer loop
    vertex -0.18467489107293444 12.653483024396536 6.0
    vertex 5.301735110744776 5.849999999999996 6.0
    vertex 0.0 15.0 6.0
  endloop
endfacet
facet normal -3.838001050550253e-32 3.168795822327973e-32 1.0
  outer loop
    vertex 0.0 15.0 6.0
    vertex 5.301735110744776 5.849999999999996 6.0
    vertex 3.473557378910051 10.263611474623866 6.0
  endloop
endfacet
facet normal -3.838001050550253e-32 3.168795822327973e-32 1.0
  outer loop
    vertex 0.0 15.0 6.0
    vertex 3.473557378910051 10.263611474623866 6.0
    vertex 0.7206687739862063 20.474022803918306 6.0
  endloop
endfacet
facet normal -3.838001050550253e-32 3.168795822327973e-32 1.0
  outer loop
    vertex 0.7206687739862063 20.474022803918306 6.0
    vertex 3.473557378910051 10.263611474623866 6.0
    vertex 2.8500000000000005 14.999999999999998 6.0
  endloop
endfacet
facet normal -3.838001050550253e-32 3.168795822327973e-32 1.0
  outer loop
    vertex 0.7206687739862063 20.474022803918306 6.0
    vertex 2.8500000000000005 14.999999999999998 6.0
    vertex 2.833562709959121 25.574999999999992 6.0
  endloop
endfacet
facet normal -3.838001050550253e-32 3.168795822327973e-32 1.0
  outer loop
    vertex 12.000000000000004 -0.8482648892552243 6.0
    vertex 57.3 -19.999999999999996 6.0
    vertex 16.41361147462387 -2.6764426210899463 6.0
  endloop
endfacet
facet normal -3.838001050550253e-32 3.168795822327973e-32 1.0
  outer loop
    vertex 16.41361147462387 -2.6764426210899463 6.0
    vertex 57.3 -19.999999999999996 6.0
    vertex 21.15 -3.2999999999999967 6.0
  endloop
endfacet
facet normal -3.838001050550253e-32 3.168795822327973e-32 1.0
  outer loop
    vertex 21.15 -3.2999999999999967 6.0
    vertex 57.3 -19.999999999999996 6.0
    vertex 25.88638852537613 -2.6764426210899463 6.0
  endloop
endfacet
facet normal -3.838001050550253e-32 3.168795822327973e-32 1.0
  outer loop
    vertex 25.88638852537613 -2.6764426210899463 6.0
    vertex 57.3 -19.999999999999996 6.0
    vertex 30.3 -0.8482648892552243 6.0
  endloop
endfacet
facet normal -3.838001050550253e-32 3.168795822327973e-32 1.0
  outer loop
    vertex 30.3 -0.8482648892552243 6.0
    vertex 57.3 -19.999999999999996 6.0
    vertex 34.09005409571382 2.059945904286184 6.0
  endloop
endfacet
facet normal -3.838001050550253e-32 3.168795822327973e-32 1.0
  outer loop
    vertex 34.09005409571382 2.059945904286184 6.0
    vertex 57.3 -19.999999999999996 6.0
    vertex 36.998264889255225 5.850000000000003 6.0
  endloop
endfacet
facet normal -3.838001050550253e-32 3.168795822327973e-32 1.0
  outer loop
    vertex 36.998264889255225 5.850000000000003 6.0
    vertex 57.3 -19.999999999999996 6.0
    vertex 38.826442621089946 10.263611474623872 6.0
  endloop
endfacet
facet normal -3.838001050550253e-32 3.168795822327973e-32 1.0
  outer loop
    vertex 38.826442621089946 10.263611474623872 6.0
    vertex 57.3 -19.999999999999996 6.0
    vertex 39.449999999999996 15.0 6.0
  endloop
endfacet
facet normal -3.838001050550253e-32 3.168795822327973e-32 1.0
  outer loop
    vertex 39.449999999999996 15.0 6.0
    vertex 57.3 -19.999999999999996 6.0
    vertex 43.93490213717448 8.190142503906799 6.0
  endloop
endfacet
facet normal -3.838001050550253e-32 3.168795822327973e-32 1.0
  outer loop
    vertex 39.449999999999996 15.0 6.0
    vertex 43.93490213717448 8.190142503906799 6.0
    vertex 43.03415225557269 10.36474508437579 6.0
  endloop
endfacet
facet normal -3.838001050550253e-32 3.168795822327973e-32 1.0
  outer loop
    vertex 39.449999999999996 15.0 6.0
    vertex 43.03415225557269 10.36474508437579 6.0
    vertex 42.484674891072935 12.653483024396538 6.0
  endloop
endfacet
facet normal -3.838001050550253e-32 3.168795822327973e-32 1.0
  outer loop
    vertex 39.449999999999996 15.0 6.0
    vertex 42.484674891072935 12.653483024396538 6.0
    vertex 39.466437290040865 25.57500000000001 6.0
  endloop
endfacet
facet normal -3.838001050550253e-32 3.168795822327973e-32 1.0
  outer loop
    vertex 39.466437290040865 25.57500000000001 6.0
    vertex 42.484674891072935 12.653483024396538 6.0
    vertex 41.579331226013785 20.47402280391833 6.0
  endloop
endfacet
facet normal -3.838001050550253e-32 3.168795822327973e-32 1.0
  outer loop
    vertex 41.579331226013785 20.47402280391833 6.0
    vertex 42.484674891072935 12.653483024396538 6.0
    vertex 42.3 15.0 6.0
  endloop
endfacet
facet normal -3.838001050550253e-32 3.168795822327973e-32 1.0
  outer loop
    vertex 43.93490213717448 8.190142503906799 6.0
    vertex 57.3 -19.999999999999996 6.0
    vertex 45.16474508437578 6.183221215612904 6.0
  endloop
endfacet
facet normal -3.838001050550253e-32 3.168795822327973e-32 1.0
  outer loop
    vertex 45.16474508437578 6.183221215612904 6.0
    vertex 57.3 -19.999999999999996 6.0
    vertex 46.693398282201784 4.393398282201787 6.0
  endloop
endfacet
facet normal -3.838001050550253e-32 3.168795822327973e-32 1.0
  outer loop
    vertex 46.693398282201784 4.393398282201787 6.0
    vertex 57.3 -19.999999999999996 6.0
    vertex 48.4832212156129 2.8647450843757896 6.0
  endloop
endfacet
facet normal -3.838001050550253e-32 3.168795822327973e-32 1.0
  outer loop
    vertex 48.4832212156129 2.8647450843757896 6.0
    vertex 57.3 -19.999999999999996 6.0
    vertex 50.490142503906796 1.634902137174482 6.0
  endloop
endfacet
facet normal -3.838001050550253e-32 3.168795822327973e-32 1.0
  outer loop
    vertex 50.490142503906796 1.634902137174482 6.0
    vertex 57.3 -19.999999999999996 6.0
    vertex 52.66474508437578 0.7341522555726957 6.0
  endloop
endfacet
facet normal -3.838001050550253e-32 3.168795822327973e-32 1.0
  outer loop
    vertex 52.66474508437578 0.7341522555726957 6.0
    vertex 57.3 -19.999999999999996 6.0
    vertex 54.95348302439653 0.18467489107293444 6.0
  endloop
endfacet
facet normal -3.838001050550253e-32 3.168795822327973e-32 1.0
  outer loop
    vertex 54.95348302439653 0.18467489107293444 6.0
    vertex 57.3 -19.999999999999996 6.0
    vertex 57.3 0.0 6.0
  endloop
endfacet
facet normal -3.838001050550253e-32 3.168795822327973e-32 1.0
  outer loop
    vertex 57.3 0.0 6.0
    vertex 57.3 -19.999999999999996 6.0
    vertex 58.08217232520115 -19.938441702975677 6.0
  endloop
endfacet
facet normal -3.838001050550253e-32 3.168795822327973e-32 1.0
  outer loop
    vertex 57.3 0.0 6.0
    vertex 58.08217232520115 -19.938441702975677 6.0
    vertex 58.08217232520115 -0.06155829702431148 6.0
  endloop
endfacet
facet normal -3.838001050550253e-32 3.168795822327973e-32 1.0
  outer loop
    vertex 58.08217232520115 -0.06155829702431148 6.0
    vertex 58.08217232520115 -19.938441702975677 6.0
    vertex 58.84508497187474 -19.75528258147576 6.0
  endloop
endfacet
facet normal -3.838001050550253e-32 3.168795822327973e-32 1.0
  outer loop
    vertex 58.08217232520115 -0.06155829702431148 6.0
    vertex 58.84508497187474 -19.75528258147576 6.0
    vertex 58.84508497187474 -0.2447174185242319 6.0
  endloop
endfacet
facet normal -3.838001050550253e-32 3.168795822327973e-32 1.0
  outer loop
    vertex 58.84508497187474 -0.2447174185242319 6.0
    vertex 58.84508497187474 -19.75528258147576 6.0
    vertex 59.569952498697724 -19.455032620941832 6.0
  endloop
endfacet
facet normal -3.838001050550253e-32 3.168795822327973e-32 1.0
  outer loop
    vertex 58.84508497187474 -0.2447174185242319 6.0
    vertex 59.569952498697724 -19.455032620941832 6.0
    vertex 59.569952498697724 -0.54496737905816 6.0
  endloop
endfacet
facet normal -3.838001050550253e-32 3.168795822327973e-32 1.0
  outer loop
    vertex 59.569952498697724 -0.54496737905816 6.0
    vertex 59.569952498697724 -19.455032620941832 6.0
    vertex 60.23892626146236 -19.045084971874733 6.0
  endloop
endfacet
facet normal -3.838001050550253e-32 3.168795822327973e-32 1.0
  outer loop
    vertex 59.569952498697724 -0.54496737905816 6.0
    vertex 60.23892626146236 -19.045084971874733 6.0
    vertex 60.23892626146237 -0.9549150281252624 6.0
  endloop
endfacet
facet normal -3.838001050550253e-32 3.168795822327973e-32 1.0
  outer loop
    vertex 60.23892626146237 -0.9549150281252624 6.0
    vertex 60.23892626146236 -19.045084971874733 6.0
    vertex 60.835533905932735 -18.535533905932734 6.0
  endloop
endfacet
facet normal -3.838001050550253e-32 3.168795822327973e-32 1.0
  outer loop
    vertex 60.23892626146237 -0.9549150281252624 6.0
    vertex 60.835533905932735 -18.535533905932734 6.0
    vertex 60.835533905932735 -1.4644660940672614 6.0
  endloop
endfacet
facet normal -3.838001050550253e-32 3.168795822327973e-32 1.0
  outer loop
    vertex 60.835533905932735 -1.4644660940672614 6.0
    vertex 60.835533905932735 -18.535533905932734 6.0
    vertex 61.34508497187473 -17.938926261462363 6.0
  endloop
endfacet
facet normal -3.838001050550253e-32 3.168795822327973e-32 1.0
  outer loop
    vertex 60.835533905932735 -1.4644660940672614 6.0
    vertex 61.34508497187473 -17.938926261462363 6.0
    vertex 61.34508497187473 -2.061073738537633 6.0
  endloop
endfacet
facet normal -3.838001050550253e-32 3.168795822327973e-32 1.0
  outer loop
    vertex 61.34508497187473 -2.061073738537633 6.0
    vertex 61.34508497187473 -17.938926261462363 6.0
    vertex 61.75503262094184 -17.26995249869773 6.0
  endloop
endfacet
facet normal -3.838001050550253e-32 3.168795822327973e-32 1.0
  outer loop
    vertex 61.34508497187473 -2.061073738537633 6.0
    vertex 61.75503262094184 -17.26995249869773 6.0
    vertex 61.75503262094184 -2.730047501302264 6.0
  endloop
endfacet
facet normal -3.838001050550253e-32 3.168795822327973e-32 1.0
  outer loop
    vertex 61.75503262094184 -2.730047501302264 6.0
    vertex 61.75503262094184 -17.26995249869773 6.0
    vertex 62.055282581475765 -16.545084971874733 6.0
  endloop
endfacet
facet normal -3.838001050550253e-32 3.168795822327973e-32 1.0
  outer loop
    vertex 61.75503262094184 -2.730047501302264 6.0
    vertex 62.055282581475765 -16.545084971874733 6.0
    vertex 62.05528258147577 -3.4549150281252605 6.0
  endloop
endfacet
facet normal -3.838001050550253e-32 3.168795822327973e-32 1.0
  outer loop
    vertex 62.05528258147577 -3.4549150281252605 6.0
    vertex 62.055282581475765 -16.545084971874733 6.0
    vertex 62.23844170297569 -15.782172325201152 6.0
  endloop
endfacet
facet normal -3.838001050550253e-32 3.168795822327973e-32 1.0
  outer loop
    vertex 62.05528258147577 -3.4549150281252605 6.0
    vertex 62.23844170297569 -15.782172325201152 6.0
    vertex 62.23844170297569 -4.217827674798843 6.0
  endloop
endfacet
facet normal -3.838001050550253e-32 3.168795822327973e-32 1.0
  outer loop
    vertex 62.23844170297569 -4.217827674798843 6.0
    vertex 62.23844170297569 -15.782172325201152 6.0
    vertex 62.3 -14.999999999999998 6.0
  endloop
endfacet
facet normal -3.838001050550253e-32 3.168795822327973e-32 1.0
  outer loop
    vertex 62.23844170297569 -4.217827674798843 6.0
    vertex 62.3 -14.999999999999998 6.0
    vertex 62.3 -5.0 6.0
  endloop
endfacet
facet normal -3.838001050550253e-32 3.168795822327973e-32 1.0
  outer loop
    vertex 2.833562709959121 25.574999999999992 6.0
    vertex 3.4735573789100482 19.73638852537612 6.0
    vertex 6.194691577904514 29.95530842209547 6.0
  endloop
endfacet
facet normal -3.838001050550253e-32 3.168795822327973e-32 1.0
  outer loop
    vertex 3.4735573789100482 19.73638852537612 6.0
    vertex 2.833562709959121 25.574999999999992 6.0
    vertex 2.8500000000000005 14.999999999999998 6.0
  endloop
endfacet
facet normal -3.838001050550253e-32 3.168795822327973e-32 1.0
  outer loop
    vertex 6.194691577904514 29.95530842209547 6.0
    vertex 3.4735573789100482 19.73638852537612 6.0
    vertex 5.3017351107447706 24.149999999999995 6.0
  endloop
endfacet
facet normal -3.838001050550253e-32 3.168795822327973e-32 1.0
  outer loop
    vertex 6.194691577904514 29.95530842209547 6.0
    vertex 5.3017351107447706 24.149999999999995 6.0
    vertex 8.209945904286172 27.94005409571381 6.0
  endloop
endfacet
facet normal -3.838001050550253e-32 3.168795822327973e-32 1.0
  outer loop
    vertex 6.194691577904514 29.95530842209547 6.0
    vertex 8.209945904286172 27.94005409571381 6.0
    vertex 10.57499999999999 33.31643729004087 6.0
  endloop
endfacet
facet normal -3.838001050550253e-32 3.168795822327973e-32 1.0
  outer loop
    vertex 10.57499999999999 33.31643729004087 6.0
    vertex 8.209945904286172 27.94005409571381 6.0
    vertex 11.999999999999991 30.84826488925522 6.0
  endloop
endfacet
facet normal -3.838001050550253e-32 3.168795822327973e-32 1.0
  outer loop
    vertex 10.57499999999999 33.31643729004087 6.0
    vertex 11.999999999999991 30.84826488925522 6.0
    vertex 15.675977196081671 35.42933122601379 6.0
  endloop
endfacet
facet normal -3.838001050550253e-32 3.168795822327973e-32 1.0
  outer loop
    vertex 15.675977196081671 35.42933122601379 6.0
    vertex 11.999999999999991 30.84826488925522 6.0
    vertex 16.413611474623853 32.67644262108995 6.0
  endloop
endfacet
facet normal -3.838001050550253e-32 3.168795822327973e-32 1.0
  outer loop
    vertex 15.675977196081671 35.42933122601379 6.0
    vertex 16.413611474623853 32.67644262108995 6.0
    vertex 21.149999999999995 36.15 6.0
  endloop
endfacet
facet normal -3.838001050550253e-32 3.168795822327973e-32 1.0
  outer loop
    vertex 21.149999999999995 36.15 6.0
    vertex 16.413611474623853 32.67644262108995 6.0
    vertex 21.149999999999995 33.3 6.0
  endloop
endfacet
facet normal -3.838001050550253e-32 3.168795822327973e-32 1.0
  outer loop
    vertex 21.149999999999995 36.15 6.0
    vertex 21.149999999999995 33.3 6.0
    vertex 25.88638852537612 32.67644262108995 6.0
  endloop
endfacet
facet normal -3.838001050550253e-32 3.168795822327973e-32 1.0
  outer loop
    vertex 21.149999999999995 36.15 6.0
    vertex 25.88638852537612 32.67644262108995 6.0
    vertex 26.6240228039183 35.429331226013794 6.0
  endloop
endfacet
facet normal -3.838001050550253e-32 3.168795822327973e-32 1.0
  outer loop
    vertex 26.6240228039183 35.429331226013794 6.0
    vertex 25.88638852537612 32.67644262108995 6.0
    vertex 30.299999999999983 30.848264889255237 6.0
  endloop
endfacet
facet normal -3.838001050550253e-32 3.168795822327973e-32 1.0
  outer loop
    vertex 26.6240228039183 35.429331226013794 6.0
    vertex 30.299999999999983 30.848264889255237 6.0
    vertex 31.72499999999998 33.31643729004089 6.0
  endloop
endfacet
facet normal -3.838001050550253e-32 3.168795822327973e-32 1.0
  outer loop
    vertex 31.72499999999998 33.31643729004089 6.0
    vertex 30.299999999999983 30.848264889255237 6.0
    vertex 34.09005409571381 27.94005409571382 6.0
  endloop
endfacet
facet normal -3.838001050550253e-32 3.168795822327973e-32 1.0
  outer loop
    vertex 31.72499999999998 33.31643729004089 6.0
    vertex 34.09005409571381 27.94005409571382 6.0
    vertex 36.10530842209547 29.95530842209548 6.0
  endloop
endfacet
facet normal -3.838001050550253e-32 3.168795822327973e-32 1.0
  outer loop
    vertex 36.10530842209547 29.95530842209548 6.0
    vertex 34.09005409571381 27.94005409571382 6.0
    vertex 36.99826488925522 24.150000000000006 6.0
  endloop
endfacet
facet normal -3.838001050550253e-32 3.168795822327973e-32 1.0
  outer loop
    vertex 36.10530842209547 29.95530842209548 6.0
    vertex 36.99826488925522 24.150000000000006 6.0
    vertex 39.466437290040865 25.57500000000001 6.0
  endloop
endfacet
facet normal -3.838001050550253e-32 3.168795822327973e-32 1.0
  outer loop
    vertex 39.466437290040865 25.57500000000001 6.0
    vertex 36.99826488925522 24.150000000000006 6.0
    vertex 38.826442621089946 19.736388525376146 6.0
  endloop
endfacet
facet normal -3.838001050550253e-32 3.168795822327973e-32 1.0
  outer loop
    vertex 39.466437290040865 25.57500000000001 6.0
    vertex 38.826442621089946 19.736388525376146 6.0
    vertex 39.449999999999996 15.0 6.0
  endloop
endfacet
facet normal -0.15643446504023076 -0.9876883405951378 0.0
  outer loop
    vertex -15.782172325201154 -19.938441702975688 6.0
    vertex -16.545084971874736 -19.755282581475768 0.0
    vertex -15.782172325201154 -19.938441702975688 0.0
  endloop
endfacet
facet normal -0.30901699437494695 -0.9510565162951538 0.0
  outer loop
    vertex -16.545084971874736 -19.755282581475768 0.0
    vertex -15.782172325201154 -19.938441702975688 6.0
    vertex -16.545084971874736 -19.755282581475768 6.0
  endloop
endfacet
facet normal -0.9969173337331279 0.07845909572784504 0.0
  outer loop
    vertex 0.0 15.0 6.0
    vertex -0.18467489107293444 12.653483024396536 0.0
    vertex -0.18467489107293444 12.653483024396536 6.0
  endloop
endfacet
facet normal -0.9876883405951378 0.15643446504023073 0.0
  outer loop
    vertex -0.18467489107293444 12.653483024396536 0.0
    vertex 0.0 15.0 6.0
    vertex 0.0 15.0 0.0
  endloop
endfacet
facet normal -0.9510565162951538 -0.30901699437494695 0.0
  outer loop
    vertex -19.755282581475768 -16.545084971874736 6.0
    vertex -19.45503262094184 -17.269952498697737 0.0
    vertex -19.45503262094184 -17.269952498697737 6.0
  endloop
endfacet
facet normal -0.891006524188368 -0.4539904997395467 0.0
  outer loop
    vertex -19.45503262094184 -17.269952498697737 0.0
    vertex -19.755282581475768 -16.545084971874736 6.0
    vertex -19.755282581475768 -16.545084971874736 0.0
  endloop
endfacet
facet normal -0.8090169943749469 0.587785252292474 0.0
  outer loop
    vertex -19.04508497187474 -2.0610737385376345 6.0
    vertex -19.45503262094184 -2.7300475013022667 0.0
    vertex -19.45503262094184 -2.7300475013022667 6.0
  endloop
endfacet
facet normal -0.8910065241883681 0.4539904997395463 0.0
  outer loop
    vertex -19.45503262094184 -2.7300475013022667 0.0
    vertex -19.04508497187474 -2.0610737385376345 6.0
    vertex -19.04508497187474 -2.0610737385376345 0.0
  endloop
endfacet
facet normal -0.9510565162951536 0.30901699437494756 0.0
  outer loop
    vertex -19.755282581475768 -3.4549150281252636 6.0
    vertex -19.938441702975688 -4.217827674798845 0.0
    vertex -19.938441702975688 -4.217827674798845 6.0
  endloop
endfacet
facet normal -0.9876883405951378 0.1564344650402308 0.0
  outer loop
    vertex -19.938441702975688 -4.217827674798845 0.0
    vertex -19.755282581475768 -3.4549150281252636 6.0
    vertex -19.755282581475768 -3.4549150281252636 0.0
  endloop
endfacet
facet normal -0.309016994374947 0.9510565162951538 0.0
  outer loop
    vertex -16.545084971874736 -0.2447174185242333 6.0
    vertex -15.782172325201154 -0.06155829702431218 0.0
    vertex -16.545084971874736 -0.2447174185242333 0.0
  endloop
endfacet
facet normal -0.15643446504023167 0.9876883405951377 0.0
  outer loop
    vertex -15.782172325201154 -0.06155829702431218 0.0
    vertex -16.545084971874736 -0.2447174185242333 6.0
    vertex -15.782172325201154 -0.06155829702431218 6.0
  endloop
endfacet
facet normal -0.45399049973954675 0.8910065241883679 0.0
  outer loop
    vertex -8.190142503906799 1.634902137174482 6.0
    vertex -6.183221215612904 2.8647450843757882 0.0
    vertex -8.190142503906799 1.634902137174482 0.0
  endloop
endfacet
facet normal -0.5877852522924731 0.8090169943749473 0.0
  outer loop
    vertex -6.183221215612904 2.8647450843757882 0.0
    vertex -8.190142503906799 1.634902137174482 6.0
    vertex -6.183221215612904 2.8647450843757882 6.0
  endloop
endfacet
facet normal -0.9510565162951535 0.30901699437494734 0.0
  outer loop
    vertex -0.7341522555726957 10.36474508437579 6.0
    vertex -1.634902137174482 8.190142503906797 0.0
    vertex -1.634902137174482 8.190142503906797 6.0
  endloop
endfacet
facet normal -0.8910065241883677 0.45399049973954697 0.0
  outer loop
    vertex -1.634902137174482 8.190142503906797 0.0
    vertex -0.7341522555726957 10.36474508437579 6.0
    vertex -0.7341522555726957 10.36474508437579 0.0
  endloop
endfacet
facet normal -0.891006524188368 -0.4539904997395467 0.0
  outer loop
    vertex -19.45503262094184 -17.269952498697737 6.0
    vertex -19.04508497187474 -17.938926261462367 0.0
    vertex -19.04508497187474 -17.938926261462367 6.0
  endloop
endfacet
facet normal -0.8090169943749463 -0.5877852522924748 0.0
  outer loop
    vertex -19.04508497187474 -17.938926261462367 0.0
    vertex -19.45503262094184 -17.269952498697737 6.0
    vertex -19.45503262094184 -17.269952498697737 0.0
  endloop
endfacet
facet normal -0.707106781186547 0.707106781186548 0.0
  outer loop
    vertex -18.535533905932734 -1.4644660940672634 6.0
    vertex -19.04508497187474 -2.0610737385376345 0.0
    vertex -19.04508497187474 -2.0610737385376345 6.0
  endloop
endfacet
facet normal -0.8090169943749469 0.587785252292474 0.0
  outer loop
    vertex -19.04508497187474 -2.0610737385376345 0.0
    vertex -18.535533905932734 -1.4644660940672634 6.0
    vertex -18.535533905932734 -1.4644660940672634 0.0
  endloop
endfacet
facet normal -0.9876883405951378 -0.15643446504023076 0.0
  outer loop
    vertex -19.938441702975688 -15.782172325201154 6.0
    vertex -19.755282581475768 -16.545084971874736 0.0
    vertex -19.755282581475768 -16.545084971874736 6.0
  endloop
endfacet
facet normal -0.9510565162951538 -0.30901699437494695 0.0
  outer loop
    vertex -19.755282581475768 -16.545084971874736 0.0
    vertex -19.938441702975688 -15.782172325201154 6.0
    vertex -19.938441702975688 -15.782172325201154 0.0
  endloop
endfacet
facet normal -0.30901699437494695 -0.9510565162951538 0.0
  outer loop
    vertex -16.545084971874736 -19.755282581475768 6.0
    vertex -17.269952498697737 -19.45503262094184 0.0
    vertex -16.545084971874736 -19.755282581475768 0.0
  endloop
endfacet
facet normal -0.4539904997395467 -0.891006524188368 0.0
  outer loop
    vertex -17.269952498697737 -19.45503262094184 0.0
    vertex -16.545084971874736 -19.755282581475768 6.0
    vertex -17.269952498697737 -19.45503262094184 6.0
  endloop
endfacet
facet normal 3.9003685789044224e-17 -1.0 0.0
  outer loop
    vertex 57.3 -19.999999999999996 6.0
    vertex -15.0 -20.0 0.0
    vertex 57.3 -19.999999999999996 0.0
  endloop
endfacet
facet normal 3.9003685789044224e-17 -1.0 0.0
  outer loop
    vertex -15.0 -20.0 0.0
    vertex 57.3 -19.999999999999996 6.0
    vertex -15.0 -20.0 6.0
  endloop
endfacet
facet normal -0.4539904997395467 0.891006524188368 0.0
  outer loop
    vertex -17.269952498697737 -0.5449673790581614 6.0
    vertex -16.545084971874736 -0.2447174185242333 0.0
    vertex -17.269952498697737 -0.5449673790581614 0.0
  endloop
endfacet
facet normal -0.309016994374947 0.9510565162951538 0.0
  outer loop
    vertex -16.545084971874736 -0.2447174185242333 0.0
    vertex -17.269952498697737 -0.5449673790581614 6.0
    vertex -16.545084971874736 -0.2447174185242333 6.0
  endloop
endfacet
facet normal -0.9969173337331281 -0.07845909572784514 -0.0
  outer loop
    vertex -20.0 -15.0 6.0
    vertex -19.938441702975688 -15.782172325201154 0.0
    vertex -19.938441702975688 -15.782172325201154 6.0
  endloop
endfacet
facet normal -0.9876883405951378 -0.15643446504023076 0.0
  outer loop
    vertex -19.938441702975688 -15.782172325201154 0.0
    vertex -20.0 -15.0 6.0
    vertex -20.0 -15.0 0.0
  endloop
endfacet
facet normal -0.8090169943749475 0.5877852522924732 0.0
  outer loop
    vertex -2.8647450843757882 6.183221215612904 6.0
    vertex -4.3933982822017885 4.393398282201787 0.0
    vertex -4.3933982822017885 4.393398282201787 6.0
  endloop
endfacet
facet normal -0.7071067811865476 0.7071067811865476 0.0
  outer loop
    vertex -4.3933982822017885 4.393398282201787 0.0
    vertex -2.8647450843757882 6.183221215612904 6.0
    vertex -2.8647450843757882 6.183221215612904 0.0
  endloop
endfacet
facet normal -0.30901699437494734 0.9510565162951535 0.0
  outer loop
    vertex -10.36474508437579 0.7341522555726957 6.0
    vertex -8.190142503906799 1.634902137174482 0.0
    vertex -10.36474508437579 0.7341522555726957 0.0
  endloop
endfacet
facet normal -0.45399049973954675 0.8910065241883679 0.0
  outer loop
    vertex -8.190142503906799 1.634902137174482 0.0
    vertex -10.36474508437579 0.7341522555726957 6.0
    vertex -8.190142503906799 1.634902137174482 6.0
  endloop
endfacet
facet normal -0.5877852522924731 0.8090169943749473 0.0
  outer loop
    vertex -6.183221215612904 2.8647450843757882 6.0
    vertex -4.3933982822017885 4.393398282201787 0.0
    vertex -6.183221215612904 2.8647450843757882 0.0
  endloop
endfacet
facet normal -0.7071067811865476 0.7071067811865476 0.0
  outer loop
    vertex -4.3933982822017885 4.393398282201787 0.0
    vertex -6.183221215612904 2.8647450843757882 6.0
    vertex -4.3933982822017885 4.393398282201787 6.0
  endloop
endfacet
facet normal -1.0 0.0 0.0
  outer loop
    vertex -20.0 -5.0 6.0
    vertex -20.0 -15.0 0.0
    vertex -20.0 -15.0 6.0
  endloop
endfacet
facet normal -1.0 0.0 0.0
  outer loop
    vertex -20.0 -15.0 0.0
    vertex -20.0 -5.0 6.0
    vertex -20.0 -5.0 0.0
  endloop
endfacet
facet normal 0.15643446504023353 -0.9876883405951374 0.0
  outer loop
    vertex 58.08217232520115 -19.938441702975677 6.0
    vertex 57.3 -19.999999999999996 0.0
    vertex 58.08217232520115 -19.938441702975677 0.0
  endloop
endfacet
facet normal 0.07845909572785585 -0.9969173337331272 0.0
  outer loop
    vertex 57.3 -19.999999999999996 0.0
    vertex 58.08217232520115 -19.938441702975677 6.0
    vertex 57.3 -19.999999999999996 6.0
  endloop
endfacet
facet normal -0.07845909572784514 -0.9969173337331281 -0.0
  outer loop
    vertex -15.0 -20.0 6.0
    vertex -15.782172325201154 -19.938441702975688 0.0
    vertex -15.0 -20.0 0.0
  endloop
endfacet
facet normal -0.15643446504023076 -0.9876883405951378 0.0
  outer loop
    vertex -15.782172325201154 -19.938441702975688 0.0
    vertex -15.0 -20.0 6.0
    vertex -15.782172325201154 -19.938441702975688 6.0
  endloop
endfacet
facet normal -0.707106781186547 0.707106781186548 0.0
  outer loop
    vertex -18.535533905932734 -1.4644660940672634 6.0
    vertex -17.938926261462367 -0.9549150281252632 0.0
    vertex -18.535533905932734 -1.4644660940672634 0.0
  endloop
endfacet
facet normal -0.5877852522924742 0.8090169943749468 0.0
  outer loop
    vertex -17.938926261462367 -0.9549150281252632 0.0
    vertex -18.535533905932734 -1.4644660940672634 6.0
    vertex -17.938926261462367 -0.9549150281252632 6.0
  endloop
endfacet
facet normal -0.15643446504023076 0.9876883405951378 0.0
  outer loop
    vertex -12.653483024396538 0.18467489107293444 6.0
    vertex -10.36474508437579 0.7341522555726957 0.0
    vertex -12.653483024396538 0.18467489107293444 0.0
  endloop
endfacet
facet normal -0.30901699437494734 0.9510565162951535 0.0
  outer loop
    vertex -10.36474508437579 0.7341522555726957 0.0
    vertex -12.653483024396538 0.18467489107293444 6.0
    vertex -10.36474508437579 0.7341522555726957 6.0
  endloop
endfacet
facet normal -0.9876883405951378 0.15643446504023073 0.0
  outer loop
    vertex -0.18467489107293444 12.653483024396536 6.0
    vertex -0.7341522555726957 10.36474508437579 0.0
    vertex -0.7341522555726957 10.36474508437579 6.0
  endloop
endfacet
facet normal -0.9510565162951535 0.30901699437494734 0.0
  outer loop
    vertex -0.7341522555726957 10.36474508437579 0.0
    vertex -0.18467489107293444 12.653483024396536 6.0
    vertex -0.18467489107293444 12.653483024396536 0.0
  endloop
endfacet
facet normal -0.5877852522924742 0.8090169943749468 0.0
  outer loop
    vertex -17.938926261462367 -0.9549150281252632 6.0
    vertex -17.269952498697737 -0.5449673790581614 0.0
    vertex -17.938926261462367 -0.9549150281252632 0.0
  endloop
endfacet
facet normal -0.4539904997395467 0.891006524188368 0.0
  outer loop
    vertex -17.269952498697737 -0.5449673790581614 0.0
    vertex -17.938926261462367 -0.9549150281252632 6.0
    vertex -17.269952498697737 -0.5449673790581614 6.0
  endloop
endfacet
facet normal -0.07845909572784508 0.996917333733128 0.0
  outer loop
    vertex -15.0 0.0 6.0
    vertex -12.653483024396538 0.18467489107293444 0.0
    vertex -15.0 0.0 0.0
  endloop
endfacet
facet normal -0.15643446504023076 0.9876883405951378 0.0
  outer loop
    vertex -12.653483024396538 0.18467489107293444 0.0
    vertex -15.0 0.0 6.0
    vertex -12.653483024396538 0.18467489107293444 6.0
  endloop
endfacet
facet normal -0.8090169943749463 -0.5877852522924748 0.0
  outer loop
    vertex -19.04508497187474 -17.938926261462367 6.0
    vertex -18.535533905932734 -18.535533905932734 0.0
    vertex -18.535533905932734 -18.535533905932734 6.0
  endloop
endfacet
facet normal -0.7071067811865475 -0.7071067811865475 0.0
  outer loop
    vertex -18.535533905932734 -18.535533905932734 0.0
    vertex -19.04508497187474 -17.938926261462367 6.0
    vertex -19.04508497187474 -17.938926261462367 0.0
  endloop
endfacet
facet normal -0.4539904997395467 -0.891006524188368 0.0
  outer loop
    vertex -17.269952498697737 -19.45503262094184 6.0
    vertex -17.938926261462367 -19.04508497187474 0.0
    vertex -17.269952498697737 -19.45503262094184 0.0
  endloop
endfacet
facet normal -0.5877852522924748 -0.8090169943749463 0.0
  outer loop
    vertex -17.938926261462367 -19.04508497187474 0.0
    vertex -17.269952498697737 -19.45503262094184 6.0
    vertex -17.938926261462367 -19.04508497187474 6.0
  endloop
endfacet
facet normal -0.8910065241883681 0.4539904997395463 0.0
  outer loop
    vertex -19.45503262094184 -2.7300475013022667 6.0
    vertex -19.755282581475768 -3.4549150281252636 0.0
    vertex -19.755282581475768 -3.4549150281252636 6.0
  endloop
endfacet
facet normal -0.9510565162951536 0.30901699437494756 0.0
  outer loop
    vertex -19.755282581475768 -3.4549150281252636 0.0
    vertex -19.45503262094184 -2.7300475013022667 6.0
    vertex -19.45503262094184 -2.7300475013022667 0.0
  endloop
endfacet
facet normal -0.5877852522924748 -0.8090169943749463 0.0
  outer loop
    vertex -17.938926261462367 -19.04508497187474 6.0
    vertex -18.535533905932734 -18.535533905932734 0.0
    vertex -17.938926261462367 -19.04508497187474 0.0
  endloop
endfacet
facet normal -0.7071067811865475 -0.7071067811865475 0.0
  outer loop
    vertex -18.535533905932734 -18.535533905932734 0.0
    vertex -17.938926261462367 -19.04508497187474 6.0
    vertex -18.535533905932734 -18.535533905932734 6.0
  endloop
endfacet
facet normal -0.15643446504023167 0.9876883405951377 0.0
  outer loop
    vertex -15.782172325201154 -0.06155829702431218 6.0
    vertex -15.0 0.0 0.0
    vertex -15.782172325201154 -0.06155829702431218 0.0
  endloop
endfacet
facet normal -0.07845909572784603 0.9969173337331279 0.0
  outer loop
    vertex -15.0 0.0 0.0
    vertex -15.782172325201154 -0.06155829702431218 6.0
    vertex -15.0 0.0 6.0
  endloop
endfacet
facet normal -0.8910065241883677 0.45399049973954697 0.0
  outer loop
    vertex -1.634902137174482 8.190142503906797 6.0
    vertex -2.8647450843757882 6.183221215612904 0.0
    vertex -2.8647450843757882 6.183221215612904 6.0
  endloop
endfacet
facet normal -0.8090169943749475 0.5877852522924732 0.0
  outer loop
    vertex -2.8647450843757882 6.183221215612904 0.0
    vertex -1.634902137174482 8.190142503906797 6.0
    vertex -1.634902137174482 8.190142503906797 0.0
  endloop
endfacet
facet normal -0.9876883405951378 0.1564344650402308 0.0
  outer loop
    vertex -19.938441702975688 -4.217827674798845 6.0
    vertex -20.0 -5.0 0.0
    vertex -20.0 -5.0 6.0
  endloop
endfacet
facet normal -0.9969173337331281 0.07845909572784507 0.0
  outer loop
    vertex -20.0 -5.0 0.0
    vertex -19.938441702975688 -4.217827674798845 6.0
    vertex -19.938441702975688 -4.217827674798845 0.0
  endloop
endfacet
facet normal 0.9969173337331279 0.07845909572784628 -0.0
  outer loop
    vertex 42.3 15.0 0.0
    vertex 42.484674891072935 12.653483024396538 6.0
    vertex 42.484674891072935 12.653483024396538 0.0
  endloop
endfacet
facet normal 0.9876883405951378 0.15643446504023126 0.0
  outer loop
    vertex 42.484674891072935 12.653483024396538 6.0
    vertex 42.3 15.0 0.0
    vertex 42.3 15.0 6.0
  endloop
endfacet
facet normal 0.9876883405951378 0.15643446504023126 0.0
  outer loop
    vertex 42.484674891072935 12.653483024396538 0.0
    vertex 43.03415225557269 10.36474508437579 6.0
    vertex 43.03415225557269 10.36474508437579 0.0
  endloop
endfacet
facet normal 0.9510565162951535 0.30901699437494795 0.0
  outer loop
    vertex 43.03415225557269 10.36474508437579 6.0
    vertex 42.484674891072935 12.653483024396538 0.0
    vertex 42.484674891072935 12.653483024396538 6.0
  endloop
endfacet
facet normal 0.9876883405951387 0.15643446504022543 0.0
  outer loop
    vertex 62.23844170297569 -4.217827674798843 0.0
    vertex 62.3 -5.0 6.0
    vertex 62.3 -5.0 0.0
  endloop
endfacet
facet normal 0.9969173337331282 0.07845909572784127 0.0
  outer loop
    vertex 62.3 -5.0 6.0
    vertex 62.23844170297569 -4.217827674798843 0.0
    vertex 62.23844170297569 -4.217827674798843 6.0
  endloop
endfacet
facet normal 0.9969173337331283 -0.07845909572784156 0.0
  outer loop
    vertex 62.3 -14.999999999999998 0.0
    vertex 62.23844170297569 -15.782172325201152 6.0
    vertex 62.23844170297569 -15.782172325201152 0.0
  endloop
endfacet
facet normal 0.9876883405951377 -0.15643446504023245 0.0
  outer loop
    vertex 62.23844170297569 -15.782172325201152 6.0
    vertex 62.3 -14.999999999999998 0.0
    vertex 62.3 -14.999999999999998 6.0
  endloop
endfacet
facet normal 0.809016994374946 -0.5877852522924751 0.0
  outer loop
    vertex 61.34508497187473 -17.938926261462363 0.0
    vertex 60.835533905932735 -18.535533905932734 6.0
    vertex 60.835533905932735 -18.535533905932734 0.0
  endloop
endfacet
facet normal 0.7071067811865458 -0.7071067811865493 0.0
  outer loop
    vertex 60.835533905932735 -18.535533905932734 6.0
    vertex 61.34508497187473 -17.938926261462363 0.0
    vertex 61.34508497187473 -17.938926261462363 6.0
  endloop
endfacet
facet normal 0.3090169943749485 0.9510565162951533 0.0
  outer loop
    vertex 58.84508497187474 -0.2447174185242319 6.0
    vertex 59.569952498697724 -0.54496737905816 0.0
    vertex 58.84508497187474 -0.2447174185242319 0.0
  endloop
endfacet
facet normal 0.4539904997395452 0.8910065241883687 0.0
  outer loop
    vertex 59.569952498697724 -0.54496737905816 0.0
    vertex 58.84508497187474 -0.2447174185242319 6.0
    vertex 59.569952498697724 -0.54496737905816 6.0
  endloop
endfacet
facet normal 0.5877852522924707 -0.8090169943749493 0.0
  outer loop
    vertex 60.23892626146236 -19.045084971874733 6.0
    vertex 59.569952498697724 -19.455032620941832 0.0
    vertex 60.23892626146236 -19.045084971874733 0.0
  endloop
endfacet
facet normal 0.45399049973954686 -0.891006524188368 0.0
  outer loop
    vertex 59.569952498697724 -19.455032620941832 0.0
    vertex 60.23892626146236 -19.045084971874733 6.0
    vertex 59.569952498697724 -19.455032620941832 6.0
  endloop
endfacet
facet normal 0.9510565162951535 0.30901699437494795 0.0
  outer loop
    vertex 43.03415225557269 10.36474508437579 0.0
    vertex 43.93490213717448 8.190142503906799 6.0
    vertex 43.93490213717448 8.190142503906799 0.0
  endloop
endfacet
facet normal 0.891006524188368 0.4539904997395466 0.0
  outer loop
    vertex 43.93490213717448 8.190142503906799 6.0
    vertex 43.03415225557269 10.36474508437579 0.0
    vertex 43.03415225557269 10.36474508437579 6.0
  endloop
endfacet
facet normal 0.809016994374946 0.5877852522924754 0.0
  outer loop
    vertex 61.34508497187473 -2.061073738537633 0.0
    vertex 61.75503262094184 -2.730047501302264 6.0
    vertex 61.75503262094184 -2.730047501302264 0.0
  endloop
endfacet
facet normal 0.891006524188365 0.45399049973955247 0.0
  outer loop
    vertex 61.75503262094184 -2.730047501302264 6.0
    vertex 61.34508497187473 -2.061073738537633 0.0
    vertex 61.34508497187473 -2.061073738537633 6.0
  endloop
endfacet
facet normal 1.0 0.0 0.0
  outer loop
    vertex 62.3 -5.0 0.0
    vertex 62.3 -14.999999999999998 6.0
    vertex 62.3 -14.999999999999998 0.0
  endloop
endfacet
facet normal 1.0 0.0 0.0
  outer loop
    vertex 62.3 -14.999999999999998 6.0
    vertex 62.3 -5.0 0.0
    vertex 62.3 -5.0 6.0
  endloop
endfacet
facet normal 0.9510565162951529 -0.3090169943749494 0.0
  outer loop
    vertex 62.055282581475765 -16.545084971874733 0.0
    vertex 61.75503262094184 -17.26995249869773 6.0
    vertex 61.75503262094184 -17.26995249869773 0.0
  endloop
endfacet
facet normal 0.891006524188368 -0.45399049973954625 0.0
  outer loop
    vertex 61.75503262094184 -17.26995249869773 6.0
    vertex 62.055282581475765 -16.545084971874733 0.0
    vertex 62.055282581475765 -16.545084971874733 6.0
  endloop
endfacet
facet normal 0.891006524188368 -0.45399049973954625 0.0
  outer loop
    vertex 61.75503262094184 -17.26995249869773 0.0
    vertex 61.34508497187473 -17.938926261462363 6.0
    vertex 61.34508497187473 -17.938926261462363 0.0
  endloop
endfacet
facet normal 0.809016994374946 -0.5877852522924751 0.0
  outer loop
    vertex 61.34508497187473 -17.938926261462363 6.0
    vertex 61.75503262094184 -17.26995249869773 0.0
    vertex 61.75503262094184 -17.26995249869773 6.0
  endloop
endfacet
facet normal 0.45399049973954686 -0.891006524188368 0.0
  outer loop
    vertex 59.569952498697724 -19.455032620941832 6.0
    vertex 58.84508497187474 -19.75528258147576 0.0
    vertex 59.569952498697724 -19.455032620941832 0.0
  endloop
endfacet
facet normal 0.3090169943749472 -0.9510565162951536 0.0
  outer loop
    vertex 58.84508497187474 -19.75528258147576 0.0
    vertex 59.569952498697724 -19.455032620941832 6.0
    vertex 58.84508497187474 -19.75528258147576 6.0
  endloop
endfacet
facet normal 0.3090169943749477 0.9510565162951536 0.0
  outer loop
    vertex 52.66474508437578 0.7341522555726957 6.0
    vertex 54.95348302439653 0.18467489107293444 0.0
    vertex 52.66474508437578 0.7341522555726957 0.0
  endloop
endfacet
facet normal 0.15643446504023048 0.9876883405951378 0.0
  outer loop
    vertex 54.95348302439653 0.18467489107293444 0.0
    vertex 52.66474508437578 0.7341522555726957 6.0
    vertex 54.95348302439653 0.18467489107293444 6.0
  endloop
endfacet
facet normal 0.7071067811865458 -0.7071067811865493 0.0
  outer loop
    vertex 60.835533905932735 -18.535533905932734 6.0
    vertex 60.23892626146236 -19.045084971874733 0.0
    vertex 60.835533905932735 -18.535533905932734 0.0
  endloop
endfacet
facet normal 0.5877852522924707 -0.8090169943749493 0.0
  outer loop
    vertex 60.23892626146236 -19.045084971874733 0.0
    vertex 60.835533905932735 -18.535533905932734 6.0
    vertex 60.23892626146236 -19.045084971874733 6.0
  endloop
endfacet
facet normal 0.5877852522924731 0.8090169943749475 0.0
  outer loop
    vertex 60.23892626146237 -0.9549150281252624 6.0
    vertex 60.835533905932735 -1.4644660940672614 0.0
    vertex 60.23892626146237 -0.9549150281252624 0.0
  endloop
endfacet
facet normal 0.7071067811865492 0.7071067811865458 0.0
  outer loop
    vertex 60.835533905932735 -1.4644660940672614 0.0
    vertex 60.23892626146237 -0.9549150281252624 6.0
    vertex 60.835533905932735 -1.4644660940672614 6.0
  endloop
endfacet
facet normal 0.3090169943749472 -0.9510565162951536 0.0
  outer loop
    vertex 58.84508497187474 -19.75528258147576 6.0
    vertex 58.08217232520115 -19.938441702975677 0.0
    vertex 58.84508497187474 -19.75528258147576 0.0
  endloop
endfacet
facet normal 0.15643446504023353 -0.9876883405951374 0.0
  outer loop
    vertex 58.08217232520115 -19.938441702975677 0.0
    vertex 58.84508497187474 -19.75528258147576 6.0
    vertex 58.08217232520115 -19.938441702975677 6.0
  endloop
endfacet
facet normal 0.891006524188368 0.4539904997395466 0.0
  outer loop
    vertex 43.93490213717448 8.190142503906799 0.0
    vertex 45.16474508437578 6.183221215612904 6.0
    vertex 45.16474508437578 6.183221215612904 0.0
  endloop
endfacet
facet normal 0.8090169943749479 0.5877852522924725 0.0
  outer loop
    vertex 45.16474508437578 6.183221215612904 6.0
    vertex 43.93490213717448 8.190142503906799 0.0
    vertex 43.93490213717448 8.190142503906799 6.0
  endloop
endfacet
facet normal 0.4539904997395452 0.8910065241883687 0.0
  outer loop
    vertex 59.569952498697724 -0.54496737905816 6.0
    vertex 60.23892626146237 -0.9549150281252624 0.0
    vertex 59.569952498697724 -0.54496737905816 0.0
  endloop
endfacet
facet normal 0.5877852522924731 0.8090169943749475 0.0
  outer loop
    vertex 60.23892626146237 -0.9549150281252624 0.0
    vertex 59.569952498697724 -0.54496737905816 6.0
    vertex 60.23892626146237 -0.9549150281252624 6.0
  endloop
endfacet
facet normal 0.7071067811865492 0.7071067811865458 0.0
  outer loop
    vertex 60.835533905932735 -1.4644660940672614 0.0
    vertex 61.34508497187473 -2.061073738537633 6.0
    vertex 61.34508497187473 -2.061073738537633 0.0
  endloop
endfacet
facet normal 0.809016994374946 0.5877852522924754 0.0
  outer loop
    vertex 61.34508497187473 -2.061073738537633 6.0
    vertex 60.835533905932735 -1.4644660940672614 0.0
    vertex 60.835533905932735 -1.4644660940672614 6.0
  endloop
endfacet
facet normal 0.8090169943749479 0.5877852522924725 0.0
  outer loop
    vertex 45.16474508437578 6.183221215612904 0.0
    vertex 46.693398282201784 4.393398282201787 6.0
    vertex 46.693398282201784 4.393398282201787 0.0
  endloop
endfacet
facet normal 0.7071067811865474 0.7071067811865478 0.0
  outer loop
    vertex 46.693398282201784 4.393398282201787 6.0
    vertex 45.16474508437578 6.183221215612904 0.0
    vertex 45.16474508437578 6.183221215612904 6.0
  endloop
endfacet
facet normal 0.07845909572784514 0.9969173337331281 0.0
  outer loop
    vertex 57.3 0.0 6.0
    vertex 58.08217232520115 -0.06155829702431148 0.0
    vertex 57.3 0.0 0.0
  endloop
endfacet
facet normal 0.15643446504022995 0.987688340595138 0.0
  outer loop
    vertex 58.08217232520115 -0.06155829702431148 0.0
    vertex 57.3 0.0 6.0
    vertex 58.08217232520115 -0.06155829702431148 6.0
  endloop
endfacet
facet normal 0.5877852522924731 0.8090169943749476 0.0
  outer loop
    vertex 48.4832212156129 2.8647450843757896 6.0
    vertex 50.490142503906796 1.634902137174482 0.0
    vertex 48.4832212156129 2.8647450843757896 0.0
  endloop
endfacet
facet normal 0.45399049973954725 0.8910065241883676 0.0
  outer loop
    vertex 50.490142503906796 1.634902137174482 0.0
    vertex 48.4832212156129 2.8647450843757896 6.0
    vertex 50.490142503906796 1.634902137174482 6.0
  endloop
endfacet
facet normal 0.15643446504022995 0.987688340595138 0.0
  outer loop
    vertex 58.08217232520115 -0.06155829702431148 6.0
    vertex 58.84508497187474 -0.2447174185242319 0.0
    vertex 58.08217232520115 -0.06155829702431148 0.0
  endloop
endfacet
facet normal 0.3090169943749485 0.9510565162951533 0.0
  outer loop
    vertex 58.84508497187474 -0.2447174185242319 0.0
    vertex 58.08217232520115 -0.06155829702431148 6.0
    vertex 58.84508497187474 -0.2447174185242319 6.0
  endloop
endfacet
facet normal 0.9876883405951377 -0.15643446504023245 0.0
  outer loop
    vertex 62.23844170297569 -15.782172325201152 0.0
    vertex 62.055282581475765 -16.545084971874733 6.0
    vertex 62.055282581475765 -16.545084971874733 0.0
  endloop
endfacet
facet normal 0.9510565162951529 -0.3090169943749494 0.0
  outer loop
    vertex 62.055282581475765 -16.545084971874733 6.0
    vertex 62.23844170297569 -15.782172325201152 0.0
    vertex 62.23844170297569 -15.782172325201152 6.0
  endloop
endfacet
facet normal 0.15643446504023048 0.9876883405951378 0.0
  outer loop
    vertex 54.95348302439653 0.18467489107293444 6.0
    vertex 57.3 0.0 0.0
    vertex 54.95348302439653 0.18467489107293444 0.0
  endloop
endfacet
facet normal 0.07845909572784514 0.996917333733128 0.0
  outer loop
    vertex 57.3 0.0 0.0
    vertex 54.95348302439653 0.18467489107293444 6.0
    vertex 57.3 0.0 6.0
  endloop
endfacet
facet normal 0.45399049973954725 0.8910065241883676 0.0
  outer loop
    vertex 50.490142503906796 1.634902137174482 6.0
    vertex 52.66474508437578 0.7341522555726957 0.0
    vertex 50.490142503906796 1.634902137174482 0.0
  endloop
endfacet
facet normal 0.3090169943749477 0.9510565162951536 0.0
  outer loop
    vertex 52.66474508437578 0.7341522555726957 0.0
    vertex 50.490142503906796 1.634902137174482 6.0
    vertex 52.66474508437578 0.7341522555726957 6.0
  endloop
endfacet
facet normal 0.7071067811865474 0.7071067811865478 0.0
  outer loop
    vertex 46.693398282201784 4.393398282201787 6.0
    vertex 48.4832212156129 2.8647450843757896 0.0
    vertex 46.693398282201784 4.393398282201787 0.0
  endloop
endfacet
facet normal 0.5877852522924731 0.8090169943749476 0.0
  outer loop
    vertex 48.4832212156129 2.8647450843757896 0.0
    vertex 46.693398282201784 4.393398282201787 6.0
    vertex 48.4832212156129 2.8647450843757896 6.0
  endloop
endfacet
facet normal 0.891006524188365 0.45399049973955247 0.0
  outer loop
    vertex 61.75503262094184 -2.730047501302264 0.0
    vertex 62.05528258147577 -3.4549150281252605 6.0
    vertex 62.05528258147577 -3.4549150281252605 0.0
  endloop
endfacet
facet normal 0.9510565162951532 0.30901699437494884 0.0
  outer loop
    vertex 62.05528258147577 -3.4549150281252605 6.0
    vertex 61.75503262094184 -2.730047501302264 0.0
    vertex 61.75503262094184 -2.730047501302264 6.0
  endloop
endfacet
facet normal 0.9510565162951532 0.30901699437494884 0.0
  outer loop
    vertex 62.05528258147577 -3.4549150281252605 0.0
    vertex 62.23844170297569 -4.217827674798843 6.0
    vertex 62.23844170297569 -4.217827674798843 0.0
  endloop
endfacet
facet normal 0.9876883405951387 0.15643446504022543 0.0
  outer loop
    vertex 62.23844170297569 -4.217827674798843 6.0
    vertex 62.05528258147577 -3.4549150281252605 0.0
    vertex 62.05528258147577 -3.4549150281252605 6.0
  endloop
endfacet
facet normal -0.8660254037844389 0.4999999999999996 -7.263483514364983e-33
  outer loop
    vertex 2.833562709959121 25.574999999999992 6.0
    vertex 0.7206687739862063 20.474022803918306 0.0
    vertex 0.7206687739862063 20.474022803918306 6.0
  endloop
endfacet
facet normal -0.9659258262890684 0.2588190451025207 -3.664012501000381e-33
  outer loop
    vertex 0.7206687739862063 20.474022803918306 0.0
    vertex 2.833562709959121 25.574999999999992 6.0
    vertex 2.833562709959121 25.574999999999992 0.0
  endloop
endfacet
facet normal -0.25881904510252074 0.9659258262890682 -3.120591959558361e-32
  outer loop
    vertex 25.88638852537613 -2.6764426210899463 6.0
    vertex 30.3 -0.8482648892552243 0.0
    vertex 25.88638852537613 -2.6764426210899463 0.0
  endloop
endfacet
facet normal -0.5000000000000001 0.8660254037844386 -2.0195452800345185e-32
  outer loop
    vertex 30.3 -0.8482648892552243 0.0
    vertex 25.88638852537613 -2.6764426210899463 6.0
    vertex 30.3 -0.8482648892552243 6.0
  endloop
endfacet
facet normal 7.128887916517525e-17 1.0 -4.0089754540603457e-32
  outer loop
    vertex 21.15 -3.2999999999999967 6.0
    vertex 25.88638852537613 -2.6764426210899463 0.0
    vertex 21.15 -3.2999999999999967 0.0
  endloop
endfacet
facet normal -0.25881904510252074 0.9659258262890682 -3.120591959558361e-32
  outer loop
    vertex 25.88638852537613 -2.6764426210899463 0.0
    vertex 21.15 -3.2999999999999967 6.0
    vertex 25.88638852537613 -2.6764426210899463 6.0
  endloop
endfacet
facet normal -0.8660254037844388 0.4999999999999997 5.110204208546445e-33
  outer loop
    vertex 36.998264889255225 5.850000000000003 6.0
    vertex 34.09005409571382 2.059945904286184 0.0
    vertex 34.09005409571382 2.059945904286184 6.0
  endloop
endfacet
facet normal -0.7071067811865477 0.7071067811865475 -7.808699271326994e-33
  outer loop
    vertex 34.09005409571382 2.059945904286184 0.0
    vertex 36.998264889255225 5.850000000000003 6.0
    vertex 36.998264889255225 5.850000000000003 0.0
  endloop
endfacet
facet normal -0.7071067811865479 0.7071067811865471 -6.889102537939726e-33
  outer loop
    vertex 6.194691577904514 29.95530842209547 6.0
    vertex 2.833562709959121 25.574999999999992 0.0
    vertex 2.833562709959121 25.574999999999992 6.0
  endloop
endfacet
facet normal -0.8660254037844389 0.4999999999999996 -7.263483514364983e-33
  outer loop
    vertex 2.833562709959121 25.574999999999992 0.0
    vertex 6.194691577904514 29.95530842209547 6.0
    vertex 6.194691577904514 29.95530842209547 0.0
  endloop
endfacet
facet normal 0.9914448613738105 0.1305261922200516 -0.0
  outer loop
    vertex 2.8500000000000005 14.999999999999998 0.0
    vertex 3.473557378910051 10.263611474623866 6.0
    vertex 3.473557378910051 10.263611474623866 0.0
  endloop
endfacet
facet normal 0.9659258262890682 0.2588190451025209 -2.1270588474038038e-32
  outer loop
    vertex 3.473557378910051 10.263611474623866 6.0
    vertex 2.8500000000000005 14.999999999999998 0.0
    vertex 2.8500000000000005 14.999999999999998 6.0
  endloop
endfacet
facet normal -0.5000000000000001 0.8660254037844386 -2.0195452800345185e-32
  outer loop
    vertex 30.3 -0.8482648892552243 6.0
    vertex 34.09005409571382 2.059945904286184 0.0
    vertex 30.3 -0.8482648892552243 0.0
  endloop
endfacet
facet normal -0.7071067811865477 0.7071067811865475 -7.808699271326994e-33
  outer loop
    vertex 34.09005409571382 2.059945904286184 0.0
    vertex 30.3 -0.8482648892552243 6.0
    vertex 34.09005409571382 2.059945904286184 6.0
  endloop
endfacet
facet normal 0.49999999999999983 0.8660254037844388 -4.924203892694509e-32
  outer loop
    vertex 12.000000000000004 -0.8482648892552243 6.0
    vertex 16.41361147462387 -2.6764426210899463 0.0
    vertex 12.000000000000004 -0.8482648892552243 0.0
  endloop
endfacet
facet normal 0.25881904510252085 0.9659258262890682 -4.624153896513303e-32
  outer loop
    vertex 16.41361147462387 -2.6764426210899463 0.0
    vertex 12.000000000000004 -0.8482648892552243 6.0
    vertex 16.41361147462387 -2.6764426210899463 6.0
  endloop
endfacet
facet normal -0.7071067811865479 0.7071067811865471 -6.889102537939726e-33
  outer loop
    vertex 6.194691577904514 29.95530842209547 6.0
    vertex 10.57499999999999 33.31643729004087 0.0
    vertex 6.194691577904514 29.95530842209547 0.0
  endloop
endfacet
facet normal -0.5000000000000007 0.8660254037844384 -6.045240608334114e-33
  outer loop
    vertex 10.57499999999999 33.31643729004087 0.0
    vertex 6.194691577904514 29.95530842209547 6.0
    vertex 10.57499999999999 33.31643729004087 6.0
  endloop
endfacet
facet normal -0.9914448613738105 0.13052619222005163 0.0
  outer loop
    vertex 39.449999999999996 15.0 6.0
    vertex 38.826442621089946 10.263611474623872 0.0
    vertex 38.826442621089946 10.263611474623872 6.0
  endloop
endfacet
facet normal -0.9659258262890684 0.2588190451025206 5.7965208097872725e-33
  outer loop
    vertex 38.826442621089946 10.263611474623872 0.0
    vertex 39.449999999999996 15.0 6.0
    vertex 39.449999999999996 15.0 0.0
  endloop
endfacet
facet normal 0.25881904510252085 0.9659258262890682 -4.624153896513303e-32
  outer loop
    vertex 16.41361147462387 -2.6764426210899463 6.0
    vertex 21.15 -3.2999999999999967 0.0
    vertex 16.41361147462387 -2.6764426210899463 0.0
  endloop
endfacet
facet normal 7.128887916517525e-17 1.0 -4.0089754540603457e-32
  outer loop
    vertex 21.15 -3.2999999999999967 0.0
    vertex 16.41361147462387 -2.6764426210899463 6.0
    vertex 21.15 -3.2999999999999967 6.0
  endloop
endfacet
facet normal 0.7071067811865472 0.7071067811865478 -4.8886775312202787e-32
  outer loop
    vertex 8.209945904286181 2.0599459042861814 6.0
    vertex 12.000000000000004 -0.8482648892552243 0.0
    vertex 8.209945904286181 2.0599459042861814 0.0
  endloop
endfacet
facet normal 0.49999999999999983 0.8660254037844388 -4.924203892694509e-32
  outer loop
    vertex 12.000000000000004 -0.8482648892552243 0.0
    vertex 8.209945904286181 2.0599459042861814 6.0
    vertex 12.000000000000004 -0.8482648892552243 6.0
  endloop
endfacet
facet normal -0.9659258262890684 0.2588190451025206 5.7965208097872725e-33
  outer loop
    vertex 38.826442621089946 10.263611474623872 6.0
    vertex 36.998264889255225 5.850000000000003 0.0
    vertex 36.998264889255225 5.850000000000003 6.0
  endloop
endfacet
facet normal -0.8660254037844388 0.4999999999999997 5.110204208546445e-33
  outer loop
    vertex 36.998264889255225 5.850000000000003 0.0
    vertex 38.826442621089946 10.263611474623872 6.0
    vertex 38.826442621089946 10.263611474623872 0.0
  endloop
endfacet
facet normal 0.8660254037844385 0.5000000000000003 -4.51999587491499e-32
  outer loop
    vertex 5.301735110744776 5.849999999999996 0.0
    vertex 8.209945904286181 2.0599459042861814 6.0
    vertex 8.209945904286181 2.0599459042861814 0.0
  endloop
endfacet
facet normal 0.7071067811865472 0.7071067811865478 -4.8886775312202787e-32
  outer loop
    vertex 8.209945904286181 2.0599459042861814 6.0
    vertex 5.301735110744776 5.849999999999996 0.0
    vertex 5.301735110744776 5.849999999999996 6.0
  endloop
endfacet
facet normal 0.9659258262890682 0.2588190451025209 -2.1270588474038038e-32
  outer loop
    vertex 3.473557378910051 10.263611474623866 0.0
    vertex 5.301735110744776 5.849999999999996 6.0
    vertex 5.301735110744776 5.849999999999996 0.0
  endloop
endfacet
facet normal 0.8660254037844385 0.5000000000000003 -4.51999587491499e-32
  outer loop
    vertex 5.301735110744776 5.849999999999996 6.0
    vertex 3.473557378910051 10.263611474623866 0.0
    vertex 3.473557378910051 10.263611474623866 6.0
  endloop
endfacet
facet normal -0.8660254037844379 -0.5000000000000012 -4.056303151116687e-33
  outer loop
    vertex 36.99826488925522 24.150000000000006 6.0
    vertex 38.826442621089946 19.736388525376146 0.0
    vertex 38.826442621089946 19.736388525376146 6.0
  endloop
endfacet
facet normal -0.965925826289068 -0.2588190451025216 -2.4260870878603085e-33
  outer loop
    vertex 38.826442621089946 19.736388525376146 0.0
    vertex 36.99826488925522 24.150000000000006 6.0
    vertex 36.99826488925522 24.150000000000006 0.0
  endloop
endfacet
facet normal 3.475332859302292e-16 -1.0 3.207180363248289e-33
  outer loop
    vertex 21.149999999999995 33.3 6.0
    vertex 16.413611474623853 32.67644262108995 0.0
    vertex 21.149999999999995 33.3 0.0
  endloop
endfacet
facet normal 0.25881904510252113 -0.9659258262890682 4.7894055215029894e-33
  outer loop
    vertex 16.413611474623853 32.67644262108995 0.0
    vertex 21.149999999999995 33.3 6.0
    vertex 16.413611474623853 32.67644262108995 6.0
  endloop
endfacet
facet normal -0.7071067811865477 -0.7071067811865474 -2.353464571257331e-33
  outer loop
    vertex 34.09005409571381 27.94005409571382 6.0
    vertex 36.99826488925522 24.150000000000006 0.0
    vertex 36.99826488925522 24.150000000000006 6.0
  endloop
endfacet
facet normal -0.8660254037844379 -0.5000000000000012 -4.056303151116687e-33
  outer loop
    vertex 36.99826488925522 24.150000000000006 0.0
    vertex 34.09005409571381 27.94005409571382 6.0
    vertex 34.09005409571381 27.94005409571382 0.0
  endloop
endfacet
facet normal 0.9659258262890681 0.2588190451025216 2.426087087860312e-33
  outer loop
    vertex 41.579331226013785 20.47402280391833 0.0
    vertex 42.3 15.0 6.0
    vertex 42.3 15.0 0.0
  endloop
endfacet
facet normal 0.9914448613738103 0.13052619222005232 -0.0
  outer loop
    vertex 42.3 15.0 6.0
    vertex 41.579331226013785 20.47402280391833 0.0
    vertex 41.579331226013785 20.47402280391833 6.0
  endloop
endfacet
facet normal -3.029777364519948e-16 1.0 -3.2071803632482874e-33
  outer loop
    vertex 21.149999999999995 36.15 6.0
    vertex 26.6240228039183 35.429331226013794 0.0
    vertex 21.149999999999995 36.15 0.0
  endloop
endfacet
facet normal 0.25881904510252046 0.9659258262890683 -1.406391163354365e-33
  outer loop
    vertex 26.6240228039183 35.429331226013794 0.0
    vertex 21.149999999999995 36.15 6.0
    vertex 26.6240228039183 35.429331226013794 6.0
  endloop
endfacet
facet normal 0.8660254037844387 -0.4999999999999999 7.263483514364982e-33
  outer loop
    vertex 5.3017351107447706 24.149999999999995 0.0
    vertex 3.4735573789100482 19.73638852537612 6.0
    vertex 3.4735573789100482 19.73638852537612 0.0
  endloop
endfacet
facet normal 0.9659258262890684 -0.25881904510252046 3.664012501000381e-33
  outer loop
    vertex 3.4735573789100482 19.73638852537612 6.0
    vertex 5.3017351107447706 24.149999999999995 0.0
    vertex 5.3017351107447706 24.149999999999995 6.0
  endloop
endfacet
facet normal -0.2588190451025216 0.965925826289068 -4.7894055215029915e-33
  outer loop
    vertex 15.675977196081671 35.42933122601379 6.0
    vertex 21.149999999999995 36.15 0.0
    vertex 15.675977196081671 35.42933122601379 0.0
  endloop
endfacet
facet normal -3.029777364519948e-16 1.0 -3.2071803632482874e-33
  outer loop
    vertex 21.149999999999995 36.15 0.0
    vertex 15.675977196081671 35.42933122601379 6.0
    vertex 21.149999999999995 36.15 6.0
  endloop
endfacet
facet normal 0.5000000000000008 -0.8660254037844383 6.0452406083341145e-33
  outer loop
    vertex 11.999999999999991 30.84826488925522 6.0
    vertex 8.209945904286172 27.94005409571381 0.0
    vertex 11.999999999999991 30.84826488925522 0.0
  endloop
endfacet
facet normal 0.7071067811865478 -0.7071067811865472 6.889102537939726e-33
  outer loop
    vertex 8.209945904286172 27.94005409571381 0.0
    vertex 11.999999999999991 30.84826488925522 6.0
    vertex 8.209945904286172 27.94005409571381 6.0
  endloop
endfacet
facet normal 0.4999999999999997 0.8660254037844389 4.9024127015086905e-34
  outer loop
    vertex 31.72499999999998 33.31643729004089 6.0
    vertex 36.10530842209547 29.95530842209548 0.0
    vertex 31.72499999999998 33.31643729004089 0.0
  endloop
endfacet
facet normal 0.7071067811865475 0.7071067811865477 2.353464571257329e-33
  outer loop
    vertex 36.10530842209547 29.95530842209548 0.0
    vertex 31.72499999999998 33.31643729004089 6.0
    vertex 36.10530842209547 29.95530842209548 6.0
  endloop
endfacet
facet normal -0.5000000000000007 0.8660254037844384 -6.045240608334114e-33
  outer loop
    vertex 10.57499999999999 33.31643729004087 6.0
    vertex 15.675977196081671 35.42933122601379 0.0
    vertex 10.57499999999999 33.31643729004087 0.0
  endloop
endfacet
facet normal -0.2588190451025216 0.965925826289068 -4.7894055215029915e-33
  outer loop
    vertex 15.675977196081671 35.42933122601379 0.0
    vertex 10.57499999999999 33.31643729004087 6.0
    vertex 15.675977196081671 35.42933122601379 6.0
  endloop
endfacet
facet normal 0.25881904510252113 -0.9659258262890682 4.7894055215029894e-33
  outer loop
    vertex 16.413611474623853 32.67644262108995 6.0
    vertex 11.999999999999991 30.84826488925522 0.0
    vertex 16.413611474623853 32.67644262108995 0.0
  endloop
endfacet
facet normal 0.5000000000000008 -0.8660254037844383 6.0452406083341145e-33
  outer loop
    vertex 11.999999999999991 30.84826488925522 0.0
    vertex 16.413611474623853 32.67644262108995 6.0
    vertex 11.999999999999991 30.84826488925522 6.0
  endloop
endfacet
facet normal 0.8660254037844384 0.5000000000000006 4.056303151116692e-33
  outer loop
    vertex 39.466437290040865 25.57500000000001 0.0
    vertex 41.579331226013785 20.47402280391833 6.0
    vertex 41.579331226013785 20.47402280391833 0.0
  endloop
endfacet
facet normal 0.9659258262890681 0.2588190451025216 2.426087087860312e-33
  outer loop
    vertex 41.579331226013785 20.47402280391833 6.0
    vertex 39.466437290040865 25.57500000000001 0.0
    vertex 39.466437290040865 25.57500000000001 6.0
  endloop
endfacet
facet normal 0.25881904510252046 0.9659258262890683 -1.406391163354365e-33
  outer loop
    vertex 26.6240228039183 35.429331226013794 6.0
    vertex 31.72499999999998 33.31643729004089 0.0
    vertex 26.6240228039183 35.429331226013794 0.0
  endloop
endfacet
facet normal 0.4999999999999997 0.8660254037844389 4.9024127015086905e-34
  outer loop
    vertex 31.72499999999998 33.31643729004089 0.0
    vertex 26.6240228039183 35.429331226013794 6.0
    vertex 31.72499999999998 33.31643729004089 6.0
  endloop
endfacet
facet normal -0.965925826289068 -0.2588190451025216 -2.4260870878603085e-33
  outer loop
    vertex 38.826442621089946 19.736388525376146 6.0
    vertex 39.449999999999996 15.0 0.0
    vertex 39.449999999999996 15.0 6.0
  endloop
endfacet
facet normal -0.9914448613738105 -0.13052619222005124 0.0
  outer loop
    vertex 39.449999999999996 15.0 0.0
    vertex 38.826442621089946 19.736388525376146 6.0
    vertex 38.826442621089946 19.736388525376146 0.0
  endloop
endfacet
facet normal -0.2588190451025197 -0.9659258262890686 1.4063911633543711e-33
  outer loop
    vertex 25.88638852537612 32.67644262108995 6.0
    vertex 21.149999999999995 33.3 0.0
    vertex 25.88638852537612 32.67644262108995 0.0
  endloop
endfacet
facet normal 3.475332859302292e-16 -1.0 3.207180363248289e-33
  outer loop
    vertex 21.149999999999995 33.3 0.0
    vertex 25.88638852537612 32.67644262108995 6.0
    vertex 21.149999999999995 33.3 6.0
  endloop
endfacet
facet normal -0.4999999999999999 -0.8660254037844387 -4.9024127015087085e-34
  outer loop
    vertex 30.299999999999983 30.848264889255237 6.0
    vertex 25.88638852537612 32.67644262108995 0.0
    vertex 30.299999999999983 30.848264889255237 0.0
  endloop
endfacet
facet normal -0.2588190451025197 -0.9659258262890686 1.4063911633543711e-33
  outer loop
    vertex 25.88638852537612 32.67644262108995 0.0
    vertex 30.299999999999983 30.848264889255237 6.0
    vertex 25.88638852537612 32.67644262108995 6.0
  endloop
endfacet
facet normal 0.7071067811865475 0.7071067811865477 2.353464571257329e-33
  outer loop
    vertex 36.10530842209547 29.95530842209548 0.0
    vertex 39.466437290040865 25.57500000000001 6.0
    vertex 39.466437290040865 25.57500000000001 0.0
  endloop
endfacet
facet normal 0.8660254037844384 0.5000000000000006 4.056303151116692e-33
  outer loop
    vertex 39.466437290040865 25.57500000000001 6.0
    vertex 36.10530842209547 29.95530842209548 0.0
    vertex 36.10530842209547 29.95530842209548 6.0
  endloop
endfacet
facet normal 0.7071067811865478 -0.7071067811865472 6.889102537939726e-33
  outer loop
    vertex 8.209945904286172 27.94005409571381 0.0
    vertex 5.3017351107447706 24.149999999999995 6.0
    vertex 5.3017351107447706 24.149999999999995 0.0
  endloop
endfacet
facet normal 0.8660254037844387 -0.4999999999999999 7.263483514364982e-33
  outer loop
    vertex 5.3017351107447706 24.149999999999995 6.0
    vertex 8.209945904286172 27.94005409571381 0.0
    vertex 8.209945904286172 27.94005409571381 6.0
  endloop
endfacet
facet normal 0.0 0.0 -1.0
  outer loop
    vertex 2.833562709959121 25.574999999999992 0.0
    vertex 3.4735573789100482 19.73638852537612 0.0
    vertex 2.8500000000000005 14.999999999999998 0.0
  endloop
endfacet
facet normal 0.0 0.0 -1.0
  outer loop
    vertex 3.4735573789100482 19.73638852537612 0.0
    vertex 2.833562709959121 25.574999999999992 0.0
    vertex 6.194691577904514 29.95530842209547 0.0
  endloop
endfacet
facet normal 0.0 0.0 -1.0
  outer loop
    vertex 3.4735573789100482 19.73638852537612 0.0
    vertex 6.194691577904514 29.95530842209547 0.0
    vertex 5.3017351107447706 24.149999999999995 0.0
  endloop
endfacet
facet normal 0.0 0.0 -1.0
  outer loop
    vertex 5.3017351107447706 24.149999999999995 0.0
    vertex 6.194691577904514 29.95530842209547 0.0
    vertex 8.209945904286172 27.94005409571381 0.0
  endloop
endfacet
facet normal 0.0 0.0 -1.0
  outer loop
    vertex 8.209945904286172 27.94005409571381 0.0
    vertex 6.194691577904514 29.95530842209547 0.0
    vertex 10.57499999999999 33.31643729004087 0.0
  endloop
endfacet
facet normal 0.0 0.0 -1.0
  outer loop
    vertex 8.209945904286172 27.94005409571381 0.0
    vertex 10.57499999999999 33.31643729004087 0.0
    vertex 11.999999999999991 30.84826488925522 0.0
  endloop
endfacet
facet normal 0.0 0.0 -1.0
  outer loop
    vertex 11.999999999999991 30.84826488925522 0.0
    vertex 10.57499999999999 33.31643729004087 0.0
    vertex 15.675977196081671 35.42933122601379 0.0
  endloop
endfacet
facet normal 0.0 0.0 -1.0
  outer loop
    vertex 11.999999999999991 30.84826488925522 0.0
    vertex 15.675977196081671 35.42933122601379 0.0
    vertex 16.413611474623853 32.67644262108995 0.0
  endloop
endfacet
facet normal 0.0 0.0 -1.0
  outer loop
    vertex 16.413611474623853 32.67644262108995 0.0
    vertex 15.675977196081671 35.42933122601379 0.0
    vertex 21.149999999999995 36.15 0.0
  endloop
endfacet
facet normal 0.0 0.0 -1.0
  outer loop
    vertex 16.413611474623853 32.67644262108995 0.0
    vertex 21.149999999999995 36.15 0.0
    vertex 21.149999999999995 33.3 0.0
  endloop
endfacet
facet normal 0.0 0.0 -1.0
  outer loop
    vertex 21.149999999999995 33.3 0.0
    vertex 21.149999999999995 36.15 0.0
    vertex 26.6240228039183 35.429331226013794 0.0
  endloop
endfacet
facet normal 0.0 0.0 -1.0
  outer loop
    vertex 21.149999999999995 33.3 0.0
    vertex 26.6240228039183 35.429331226013794 0.0
    vertex 25.88638852537612 32.67644262108995 0.0
  endloop
endfacet
facet normal 0.0 0.0 -1.0
  outer loop
    vertex 25.88638852537612 32.67644262108995 0.0
    vertex 26.6240228039183 35.429331226013794 0.0
    vertex 30.299999999999983 30.848264889255237 0.0
  endloop
endfacet
facet normal 0.0 0.0 -1.0
  outer loop
    vertex 30.299999999999983 30.848264889255237 0.0
    vertex 26.6240228039183 35.429331226013794 0.0
    vertex 31.72499999999998 33.31643729004089 0.0
  endloop
endfacet
facet normal 0.0 0.0 -1.0
  outer loop
    vertex 30.299999999999983 30.848264889255237 0.0
    vertex 31.72499999999998 33.31643729004089 0.0
    vertex 34.09005409571381 27.94005409571382 0.0
  endloop
endfacet
facet normal 0.0 0.0 -1.0
  outer loop
    vertex 34.09005409571381 27.94005409571382 0.0
    vertex 31.72499999999998 33.31643729004089 0.0
    vertex 36.10530842209547 29.95530842209548 0.0
  endloop
endfacet
facet normal 0.0 0.0 -1.0
  outer loop
    vertex 34.09005409571381 27.94005409571382 0.0
    vertex 36.10530842209547 29.95530842209548 0.0
    vertex 36.99826488925522 24.150000000000006 0.0
  endloop
endfacet
facet normal 0.0 0.0 -1.0
  outer loop
    vertex 36.99826488925522 24.150000000000006 0.0
    vertex 36.10530842209547 29.95530842209548 0.0
    vertex 39.466437290040865 25.57500000000001 0.0
  endloop
endfacet
facet normal 0.0 0.0 -1.0
  outer loop
    vertex 36.99826488925522 24.150000000000006 0.0
    vertex 39.466437290040865 25.57500000000001 0.0
    vertex 38.826442621089946 19.736388525376146 0.0
  endloop
endfacet
facet normal 0.0 0.0 -1.0
  outer loop
    vertex 38.826442621089946 19.736388525376146 0.0
    vertex 39.466437290040865 25.57500000000001 0.0
    vertex 39.449999999999996 15.0 0.0
  endloop
endfacet
facet normal 0.0 0.0 -1.0
  outer loop
    vertex -19.938441702975688 -4.217827674798845 0.0
    vertex -20.0 -15.0 0.0
    vertex -20.0 -5.0 0.0
  endloop
endfacet
facet normal 0.0 0.0 -1.0
  outer loop
    vertex -20.0 -15.0 0.0
    vertex -19.938441702975688 -4.217827674798845 0.0
    vertex -19.938441702975688 -15.782172325201154 0.0
  endloop
endfacet
facet normal 0.0 0.0 -1.0
  outer loop
    vertex -19.938441702975688 -15.782172325201154 0.0
    vertex -19.938441702975688 -4.217827674798845 0.0
    vertex -19.755282581475768 -3.4549150281252636 0.0
  endloop
endfacet
facet normal 0.0 0.0 -1.0
  outer loop
    vertex -19.938441702975688 -15.782172325201154 0.0
    vertex -19.755282581475768 -3.4549150281252636 0.0
    vertex -19.755282581475768 -16.545084971874736 0.0
  endloop
endfacet
facet normal 0.0 0.0 -1.0
  outer loop
    vertex -19.755282581475768 -16.545084971874736 0.0
    vertex -19.755282581475768 -3.4549150281252636 0.0
    vertex -19.45503262094184 -2.7300475013022667 0.0
  endloop
endfacet
facet normal 0.0 0.0 -1.0
  outer loop
    vertex -19.755282581475768 -16.545084971874736 0.0
    vertex -19.45503262094184 -2.7300475013022667 0.0
    vertex -19.45503262094184 -17.269952498697737 0.0
  endloop
endfacet
facet normal 0.0 0.0 -1.0
  outer loop
    vertex -19.45503262094184 -17.269952498697737 0.0
    vertex -19.45503262094184 -2.7300475013022667 0.0
    vertex -19.04508497187474 -2.0610737385376345 0.0
  endloop
endfacet
facet normal 0.0 0.0 -1.0
  outer loop
    vertex -19.45503262094184 -17.269952498697737 0.0
    vertex -19.04508497187474 -2.0610737385376345 0.0
    vertex -19.04508497187474 -17.938926261462367 0.0
  endloop
endfacet
facet normal 0.0 0.0 -1.0
  outer loop
    vertex -19.04508497187474 -17.938926261462367 0.0
    vertex -19.04508497187474 -2.0610737385376345 0.0
    vertex -18.535533905932734 -1.4644660940672634 0.0
  endloop
endfacet
facet normal 0.0 0.0 -1.0
  outer loop
    vertex -19.04508497187474 -17.938926261462367 0.0
    vertex -18.535533905932734 -1.4644660940672634 0.0
    vertex -18.535533905932734 -18.535533905932734 0.0
  endloop
endfacet
facet normal 0.0 0.0 -1.0
  outer loop
    vertex -18.535533905932734 -18.535533905932734 0.0
    vertex -18.535533905932734 -1.4644660940672634 0.0
    vertex -17.938926261462367 -0.9549150281252632 0.0
  endloop
endfacet
facet normal 0.0 0.0 -1.0
  outer loop
    vertex -18.535533905932734 -18.535533905932734 0.0
    vertex -17.938926261462367 -0.9549150281252632 0.0
    vertex -17.938926261462367 -19.04508497187474 0.0
  endloop
endfacet
facet normal 0.0 0.0 -1.0
  outer loop
    vertex -17.938926261462367 -19.04508497187474 0.0
    vertex -17.938926261462367 -0.9549150281252632 0.0
    vertex -17.269952498697737 -0.5449673790581614 0.0
  endloop
endfacet
facet normal 0.0 0.0 -1.0
  outer loop
    vertex -17.938926261462367 -19.04508497187474 0.0
    vertex -17.269952498697737 -0.5449673790581614 0.0
    vertex -17.269952498697737 -19.45503262094184 0.0
  endloop
endfacet
facet normal 0.0 0.0 -1.0
  outer loop
    vertex -17.269952498697737 -19.45503262094184 0.0
    vertex -17.269952498697737 -0.5449673790581614 0.0
    vertex -16.545084971874736 -0.2447174185242333 0.0
  endloop
endfacet
facet normal 0.0 0.0 -1.0
  outer loop
    vertex -17.269952498697737 -19.45503262094184 0.0
    vertex -16.545084971874736 -0.2447174185242333 0.0
    vertex -16.545084971874736 -19.755282581475768 0.0
  endloop
endfacet
facet normal 0.0 0.0 -1.0
  outer loop
    vertex -16.545084971874736 -19.755282581475768 0.0
    vertex -16.545084971874736 -0.2447174185242333 0.0
    vertex -15.782172325201154 -0.06155829702431218 0.0
  endloop
endfacet
facet normal 0.0 0.0 -1.0
  outer loop
    vertex -16.545084971874736 -19.755282581475768 0.0
    vertex -15.782172325201154 -0.06155829702431218 0.0
    vertex -15.782172325201154 -19.938441702975688 0.0
  endloop
endfacet
facet normal 0.0 0.0 -1.0
  outer loop
    vertex -15.782172325201154 -19.938441702975688 0.0
    vertex -15.782172325201154 -0.06155829702431218 0.0
    vertex -15.0 0.0 0.0
  endloop
endfacet
facet normal 0.0 0.0 -1.0
  outer loop
    vertex -15.782172325201154 -19.938441702975688 0.0
    vertex -15.0 0.0 0.0
    vertex -15.0 -20.0 0.0
  endloop
endfacet
facet normal 0.0 0.0 -1.0
  outer loop
    vertex -15.0 -20.0 0.0
    vertex -15.0 0.0 0.0
    vertex -12.653483024396538 0.18467489107293444 0.0
  endloop
endfacet
facet normal 0.0 0.0 -1.0
  outer loop
    vertex -15.0 -20.0 0.0
    vertex -12.653483024396538 0.18467489107293444 0.0
    vertex 57.3 -19.999999999999996 0.0
  endloop
endfacet
facet normal 0.0 0.0 -1.0
  outer loop
    vertex 57.3 -19.999999999999996 0.0
    vertex -12.653483024396538 0.18467489107293444 0.0
    vertex -10.36474508437579 0.7341522555726957 0.0
  endloop
endfacet
facet normal 0.0 0.0 -1.0
  outer loop
    vertex 57.3 -19.999999999999996 0.0
    vertex -10.36474508437579 0.7341522555726957 0.0
    vertex -8.190142503906799 1.634902137174482 0.0
  endloop
endfacet
facet normal 0.0 0.0 -1.0
  outer loop
    vertex 57.3 -19.999999999999996 0.0
    vertex -8.190142503906799 1.634902137174482 0.0
    vertex -6.183221215612904 2.8647450843757882 0.0
  endloop
endfacet
facet normal 0.0 0.0 -1.0
  outer loop
    vertex 57.3 -19.999999999999996 0.0
    vertex -6.183221215612904 2.8647450843757882 0.0
    vertex -4.3933982822017885 4.393398282201787 0.0
  endloop
endfacet
facet normal 0.0 0.0 -1.0
  outer loop
    vertex 57.3 -19.999999999999996 0.0
    vertex -4.3933982822017885 4.393398282201787 0.0
    vertex 12.000000000000004 -0.8482648892552243 0.0
  endloop
endfacet
facet normal 0.0 0.0 -1.0
  outer loop
    vertex 12.000000000000004 -0.8482648892552243 0.0
    vertex -4.3933982822017885 4.393398282201787 0.0
    vertex -2.8647450843757882 6.183221215612904 0.0
  endloop
endfacet
facet normal 0.0 0.0 -1.0
  outer loop
    vertex 12.000000000000004 -0.8482648892552243 0.0
    vertex -2.8647450843757882 6.183221215612904 0.0
    vertex -1.634902137174482 8.190142503906797 0.0
  endloop
endfacet
facet normal 0.0 0.0 -1.0
  outer loop
    vertex 12.000000000000004 -0.8482648892552243 0.0
    vertex -1.634902137174482 8.190142503906797 0.0
    vertex 8.209945904286181 2.0599459042861814 0.0
  endloop
endfacet
facet normal 0.0 0.0 -1.0
  outer loop
    vertex 8.209945904286181 2.0599459042861814 0.0
    vertex -1.634902137174482 8.190142503906797 0.0
    vertex -0.7341522555726957 10.36474508437579 0.0
  endloop
endfacet
facet normal 0.0 0.0 -1.0
  outer loop
    vertex 8.209945904286181 2.0599459042861814 0.0
    vertex -0.7341522555726957 10.36474508437579 0.0
    vertex -0.18467489107293444 12.653483024396536 0.0
  endloop
endfacet
facet normal 0.0 0.0 -1.0
  outer loop
    vertex 8.209945904286181 2.0599459042861814 0.0
    vertex -0.18467489107293444 12.653483024396536 0.0
    vertex 5.301735110744776 5.849999999999996 0.0
  endloop
endfacet
facet normal 0.0 0.0 -1.0
  outer loop
    vertex 5.301735110744776 5.849999999999996 0.0
    vertex -0.18467489107293444 12.653483024396536 0.0
    vertex 0.0 15.0 0.0
  endloop
endfacet
facet normal 0.0 0.0 -1.0
  outer loop
    vertex 5.301735110744776 5.849999999999996 0.0
    vertex 0.0 15.0 0.0
    vertex 3.473557378910051 10.263611474623866 0.0
  endloop
endfacet
facet normal 0.0 0.0 -1.0
  outer loop
    vertex 3.473557378910051 10.263611474623866 0.0
    vertex 0.0 15.0 0.0
    vertex 0.7206687739862063 20.474022803918306 0.0
  endloop
endfacet
facet normal 0.0 0.0 -1.0
  outer loop
    vertex 3.473557378910051 10.263611474623866 0.0
    vertex 0.7206687739862063 20.474022803918306 0.0
    vertex 2.8500000000000005 14.999999999999998 0.0
  endloop
endfacet
facet normal 0.0 0.0 -1.0
  outer loop
    vertex 2.8500000000000005 14.999999999999998 0.0
    vertex 0.7206687739862063 20.474022803918306 0.0
    vertex 2.833562709959121 25.574999999999992 0.0
  endloop
endfacet
facet normal 0.0 0.0 -1.0
  outer loop
    vertex 57.3 -19.999999999999996 0.0
    vertex 12.000000000000004 -0.8482648892552243 0.0
    vertex 16.41361147462387 -2.6764426210899463 0.0
  endloop
endfacet
facet normal 0.0 0.0 -1.0
  outer loop
    vertex 57.3 -19.999999999999996 0.0
    vertex 16.41361147462387 -2.6764426210899463 0.0
    vertex 21.15 -3.2999999999999967 0.0
  endloop
endfacet
facet normal 0.0 0.0 -1.0
  outer loop
    vertex 57.3 -19.999999999999996 0.0
    vertex 21.15 -3.2999999999999967 0.0
    vertex 25.88638852537613 -2.6764426210899463 0.0
  endloop
endfacet
facet normal 0.0 0.0 -1.0
  outer loop
    vertex 57.3 -19.999999999999996 0.0
    vertex 25.88638852537613 -2.6764426210899463 0.0
    vertex 30.3 -0.8482648892552243 0.0
  endloop
endfacet
facet normal 0.0 0.0 -1.0
  outer loop
    vertex 57.3 -19.999999999999996 0.0
    vertex 30.3 -0.8482648892552243 0.0
    vertex 34.09005409571382 2.059945904286184 0.0
  endloop
endfacet
facet normal 0.0 0.0 -1.0
  outer loop
    vertex 57.3 -19.999999999999996 0.0
    vertex 34.09005409571382 2.059945904286184 0.0
    vertex 36.998264889255225 5.850000000000003 0.0
  endloop
endfacet
facet normal 0.0 0.0 -1.0
  outer loop
    vertex 57.3 -19.999999999999996 0.0
    vertex 36.998264889255225 5.850000000000003 0.0
    vertex 38.826442621089946 10.263611474623872 0.0
  endloop
endfacet
facet normal 0.0 0.0 -1.0
  outer loop
    vertex 57.3 -19.999999999999996 0.0
    vertex 38.826442621089946 10.263611474623872 0.0
    vertex 39.449999999999996 15.0 0.0
  endloop
endfacet
facet normal 0.0 0.0 -1.0
  outer loop
    vertex 57.3 -19.999999999999996 0.0
    vertex 39.449999999999996 15.0 0.0
    vertex 43.93490213717448 8.190142503906799 0.0
  endloop
endfacet
facet normal 0.0 0.0 -1.0
  outer loop
    vertex 43.93490213717448 8.190142503906799 0.0
    vertex 39.449999999999996 15.0 0.0
    vertex 43.03415225557269 10.36474508437579 0.0
  endloop
endfacet
facet normal 0.0 0.0 -1.0
  outer loop
    vertex 43.03415225557269 10.36474508437579 0.0
    vertex 39.449999999999996 15.0 0.0
    vertex 42.484674891072935 12.653483024396538 0.0
  endloop
endfacet
facet normal 0.0 0.0 -1.0
  outer loop
    vertex 42.484674891072935 12.653483024396538 0.0
    vertex 39.449999999999996 15.0 0.0
    vertex 39.466437290040865 25.57500000000001 0.0
  endloop
endfacet
facet normal 0.0 0.0 -1.0
  outer loop
    vertex 42.484674891072935 12.653483024396538 0.0
    vertex 39.466437290040865 25.57500000000001 0.0
    vertex 41.579331226013785 20.47402280391833 0.0
  endloop
endfacet
facet normal 0.0 0.0 -1.0
  outer loop
    vertex 42.484674891072935 12.653483024396538 0.0
    vertex 41.579331226013785 20.47402280391833 0.0
    vertex 42.3 15.0 0.0
  endloop
endfacet
facet normal 0.0 0.0 -1.0
  outer loop
    vertex 57.3 -19.999999999999996 0.0
    vertex 43.93490213717448 8.190142503906799 0.0
    vertex 45.16474508437578 6.183221215612904 0.0
  endloop
endfacet
facet normal 0.0 0.0 -1.0
  outer loop
    vertex 57.3 -19.999999999999996 0.0
    vertex 45.16474508437578 6.183221215612904 0.0
    vertex 46.693398282201784 4.393398282201787 0.0
  endloop
endfacet
facet normal 0.0 0.0 -1.0
  outer loop
    vertex 57.3 -19.999999999999996 0.0
    vertex 46.693398282201784 4.393398282201787 0.0
    vertex 48.4832212156129 2.8647450843757896 0.0
  endloop
endfacet
facet normal 0.0 0.0 -1.0
  outer loop
    vertex 57.3 -19.999999999999996 0.0
    vertex 48.4832212156129 2.8647450843757896 0.0
    vertex 50.490142503906796 1.634902137174482 0.0
  endloop
endfacet
facet normal 0.0 0.0 -1.0
  outer loop
    vertex 57.3 -19.999999999999996 0.0
    vertex 50.490142503906796 1.634902137174482 0.0
    vertex 52.66474508437578 0.7341522555726957 0.0
  endloop
endfacet
facet normal 0.0 0.0 -1.0
  outer loop
    vertex 57.3 -19.999999999999996 0.0
    vertex 52.66474508437578 0.7341522555726957 0.0
    vertex 54.95348302439653 0.18467489107293444 0.0
  endloop
endfacet
facet normal 0.0 0.0 -1.0
  outer loop
    vertex 57.3 -19.999999999999996 0.0
    vertex 54.95348302439653 0.18467489107293444 0.0
    vertex 57.3 0.0 0.0
  endloop
endfacet
facet normal 0.0 0.0 -1.0
  outer loop
    vertex 57.3 -19.999999999999996 0.0
    vertex 57.3 0.0 0.0
    vertex 58.08217232520115 -0.06155829702431148 0.0
  endloop
endfacet
facet normal 0.0 0.0 -1.0
  outer loop
    vertex 57.3 -19.999999999999996 0.0
    vertex 58.08217232520115 -0.06155829702431148 0.0
    vertex 58.08217232520115 -19.938441702975677 0.0
  endloop
endfacet
facet normal 0.0 0.0 -1.0
  outer loop
    vertex 58.08217232520115 -19.938441702975677 0.0
    vertex 58.08217232520115 -0.06155829702431148 0.0
    vertex 58.84508497187474 -0.2447174185242319 0.0
  endloop
endfacet
facet normal 0.0 0.0 -1.0
  outer loop
    vertex 58.08217232520115 -19.938441702975677 0.0
    vertex 58.84508497187474 -0.2447174185242319 0.0
    vertex 58.84508497187474 -19.75528258147576 0.0
  endloop
endfacet
facet normal 0.0 0.0 -1.0
  outer loop
    vertex 58.84508497187474 -19.75528258147576 0.0
    vertex 58.84508497187474 -0.2447174185242319 0.0
    vertex 59.569952498697724 -0.54496737905816 0.0
  endloop
endfacet
facet normal 0.0 0.0 -1.0
  outer loop
    vertex 58.84508497187474 -19.75528258147576 0.0
    vertex 59.569952498697724 -0.54496737905816 0.0
    vertex 59.569952498697724 -19.455032620941832 0.0
  endloop
endfacet
facet normal 0.0 0.0 -1.0
  outer loop
    vertex 59.569952498697724 -19.455032620941832 0.0
    vertex 59.569952498697724 -0.54496737905816 0.0
    vertex 60.23892626146237 -0.9549150281252624 0.0
  endloop
endfacet
facet normal 0.0 0.0 -1.0
  outer loop
    vertex 59.569952498697724 -19.455032620941832 0.0
    vertex 60.23892626146237 -0.9549150281252624 0.0
    vertex 60.23892626146236 -19.045084971874733 0.0
  endloop
endfacet
facet normal 0.0 0.0 -1.0
  outer loop
    vertex 60.23892626146236 -19.045084971874733 0.0
    vertex 60.23892626146237 -0.9549150281252624 0.0
    vertex 60.835533905932735 -18.535533905932734 0.0
  endloop
endfacet
facet normal 0.0 0.0 -1.0
  outer loop
    vertex 60.835533905932735 -18.535533905932734 0.0
    vertex 60.23892626146237 -0.9549150281252624 0.0
    vertex 60.835533905932735 -1.4644660940672614 0.0
  endloop
endfacet
facet normal 0.0 0.0 -1.0
  outer loop
    vertex 60.835533905932735 -18.535533905932734 0.0
    vertex 60.835533905932735 -1.4644660940672614 0.0
    vertex 61.34508497187473 -2.061073738537633 0.0
  endloop
endfacet
facet normal 0.0 0.0 -1.0
  outer loop
    vertex 60.835533905932735 -18.535533905932734 0.0
    vertex 61.34508497187473 -2.061073738537633 0.0
    vertex 61.34508497187473 -17.938926261462363 0.0
  endloop
endfacet
facet normal 0.0 0.0 -1.0
  outer loop
    vertex 61.34508497187473 -17.938926261462363 0.0
    vertex 61.34508497187473 -2.061073738537633 0.0
    vertex 61.75503262094184 -2.730047501302264 0.0
  endloop
endfacet
facet normal 0.0 0.0 -1.0
  outer loop
    vertex 61.34508497187473 -17.938926261462363 0.0
    vertex 61.75503262094184 -2.730047501302264 0.0
    vertex 61.75503262094184 -17.26995249869773 0.0
  endloop
endfacet
facet normal 0.0 0.0 -1.0
  outer loop
    vertex 61.75503262094184 -17.26995249869773 0.0
    vertex 61.75503262094184 -2.730047501302264 0.0
    vertex 62.05528258147577 -3.4549150281252605 0.0
  endloop
endfacet
facet normal 0.0 0.0 -1.0
  outer loop
    vertex 61.75503262094184 -17.26995249869773 0.0
    vertex 62.05528258147577 -3.4549150281252605 0.0
    vertex 62.055282581475765 -16.545084971874733 0.0
  endloop
endfacet
facet normal 0.0 0.0 -1.0
  outer loop
    vertex 62.055282581475765 -16.545084971874733 0.0
    vertex 62.05528258147577 -3.4549150281252605 0.0
    vertex 62.23844170297569 -15.782172325201152 0.0
  endloop
endfacet
facet normal 0.0 0.0 -1.0
  outer loop
    vertex 62.23844170297569 -15.782172325201152 0.0
    vertex 62.05528258147577 -3.4549150281252605 0.0
    vertex 62.23844170297569 -4.217827674798843 0.0
  endloop
endfacet
facet normal 0.0 0.0 -1.0
  outer loop
    vertex 62.23844170297569 -15.782172325201152 0.0
    vertex 62.23844170297569 -4.217827674798843 0.0
    vertex 62.3 -5.0 0.0
  endloop
endfacet
facet normal 0.0 0.0 -1.0
  outer loop
    vertex 62.23844170297569 -15.782172325201152 0.0
    vertex 62.3 -5.0 0.0
    vertex 62.3 -14.999999999999998 0.0
  endloop
endfacet
facet normal -0.9659258262890684 0.2588190451025207 -3.664012501000381e-33
  outer loop
    vertex 0.7206687739862063 20.474022803918306 6.0
    vertex 0.0 15.0 0.0
    vertex 0.0 15.0 6.0
  endloop
endfacet
facet normal -0.9914448613738105 0.1305261922200519 0.0
  outer loop
    vertex 0.0 15.0 0.0
    vertex 0.7206687739862063 20.474022803918306 6.0
    vertex 0.7206687739862063 20.474022803918306 0.0
  endloop
endfacet
facet normal 0.9659258262890684 -0.25881904510252046 3.664012501000381e-33
  outer loop
    vertex 3.4735573789100482 19.73638852537612 0.0
    vertex 2.8500000000000005 14.999999999999998 6.0
    vertex 2.8500000000000005 14.999999999999998 0.0
  endloop
endfacet
facet normal 0.9914448613738105 -0.1305261922200512 -0.0
  outer loop
    vertex 2.8500000000000005 14.999999999999998 6.0
    vertex 3.4735573789100482 19.73638852537612 0.0
    vertex 3.4735573789100482 19.73638852537612 6.0
  endloop
endfacet
facet normal -0.7071067811865477 -0.7071067811865474 -2.353464571257331e-33
  outer loop
    vertex 34.09005409571381 27.94005409571382 6.0
    vertex 30.299999999999983 30.848264889255237 0.0
    vertex 34.09005409571381 27.94005409571382 0.0
  endloop
endfacet
facet normal -0.4999999999999999 -0.8660254037844387 -4.9024127015087085e-34
  outer loop
    vertex 30.299999999999983 30.848264889255237 0.0
    vertex 34.09005409571381 27.94005409571382 6.0
    vertex 30.299999999999983 30.848264889255237 6.0
  endloop
endfacet
endsolid stepper_stabilizer
