solid stepper_stabilizer
facet normal -3.271144702837364e-30 0.5000000000000007 -0.8660254037844384
  outer loop
    vertex 102.11686746236037 7.675687570545442 0.5358983848622466
    vertex 92.11686746236037 7.2064213000058 0.30448186995485377
    vertex 92.11686746236037 7.675687570545442 0.5358983848622466
  endloop
endfacet
facet normal -3.260567754684952e-30 0.3826834323650901 -0.9238795325112867
  outer loop
    vertex 92.11686746236037 7.2064213000058 0.30448186995485377
    vertex 102.11686746236037 7.675687570545442 0.5358983848622466
    vertex 102.11686746236037 7.2064213000058 0.30448186995485377
  endloop
endfacet
facet normal -3.194201588249714e-30 0.25881904510252224 -0.9659258262890679
  outer loop
    vertex 102.11686746236037 6.710963750955525 0.13629669484372772
    vertex 92.11686746236037 6.197792339425649 0.03422055450475798
    vertex 92.11686746236037 6.710963750955525 0.13629669484372772
  endloop
endfacet
facet normal -1.5735769181592242e-30 0.1305261922200524 -0.9914448613738102
  outer loop
    vertex 92.11686746236037 6.197792339425649 0.03422055450475798
    vertex 102.11686746236037 6.710963750955525 0.13629669484372772
    vertex 102.11686746236037 6.197792339425649 0.03422055450475798
  endloop
endfacet
facet normal -1.5735769181592242e-30 0.1305261922200524 -0.9914448613738102
  outer loop
    vertex 102.11686746236037 6.197792339425649 0.03422055450475798
    vertex 92.11686746236037 5.675687570545441 1.8847262941588586e-29
    vertex 92.11686746236037 6.197792339425649 0.03422055450475798
  endloop
endfacet
facet normal 0.0 0.06540312923014216 -0.9978589232386036
  outer loop
    vertex 92.11686746236037 5.675687570545441 1.8847262941588586e-29
    vertex 102.11686746236037 6.197792339425649 0.03422055450475798
    vertex 102.11686746236037 5.675687570545441 -2.6198215099944534e-30
  endloop
endfacet
facet normal -2.21874247452067e-30 0.9659258262890682 -0.25881904510252135
  outer loop
    vertex 92.11686746236037 9.539390875701713 2.964723819589917
    vertex 102.11686746236037 9.371205700590586 2.469266270539641
    vertex 92.11686746236037 9.371205700590586 2.469266270539641
  endloop
endfacet
facet normal -2.513983671137674e-30 0.9238795325112866 -0.38268343236509006
  outer loop
    vertex 102.11686746236037 9.371205700590586 2.469266270539641
    vertex 92.11686746236037 9.539390875701713 2.964723819589917
    vertex 102.11686746236037 9.539390875701713 2.964723819589917
  endloop
endfacet
facet normal 0.0 0.9999999999999999 0.0
  outer loop
    vertex 92.11686746236037 0.1756875705454413 17.999999999999996
    vertex 102.11686746236037 0.1756875705454413 12.999999999999998
    vertex 92.11686746236037 0.1756875705454413 12.999999999999998
  endloop
endfacet
facet normal 0.0 0.9999999999999999 0.0
  outer loop
    vertex 102.11686746236037 0.1756875705454413 12.999999999999998
    vertex 92.11686746236037 0.1756875705454413 17.999999999999996
    vertex 102.11686746236037 0.1756875705454413 17.999999999999996
  endloop
endfacet
facet normal -3.756300434840055e-31 0.9978589232386034 -0.06540312923014366
  outer loop
    vertex 92.11686746236037 9.67568757054544 3.9999999999999996
    vertex 102.11686746236037 9.641467016040682 3.4778952311197933
    vertex 92.11686746236037 9.641467016040682 3.4778952311197933
  endloop
endfacet
facet normal -1.218696065639291e-30 0.9914448613738104 -0.13052619222005185
  outer loop
    vertex 102.11686746236037 9.641467016040682 3.4778952311197933
    vertex 92.11686746236037 9.67568757054544 3.9999999999999996
    vertex 102.11686746236037 9.67568757054544 3.9999999999999996
  endloop
endfacet
facet normal -2.97110553062878e-30 0.7933533402912354 -0.6087614290087205
  outer loop
    vertex 92.11686746236037 8.84910093171038 1.564954283965118
    vertex 102.11686746236037 8.504114695291632 1.1715728752538106
    vertex 92.11686746236037 8.504114695291632 1.1715728752538106
  endloop
endfacet
facet normal -3.1251647117488662e-30 0.7071067811865477 -0.7071067811865474
  outer loop
    vertex 102.11686746236037 8.504114695291632 1.1715728752538106
    vertex 92.11686746236037 8.84910093171038 1.564954283965118
    vertex 102.11686746236037 8.84910093171038 1.564954283965118
  endloop
endfacet
facet normal -0.0 1.0 -0.0
  outer loop
    vertex 92.11686746236037 9.67568757054544 17.999999999999996
    vertex 102.11686746236037 9.67568757054544 3.9999999999999996
    vertex 92.11686746236037 9.67568757054544 3.9999999999999996
  endloop
endfacet
facet normal -0.0 1.0 -0.0
  outer loop
    vertex 102.11686746236037 9.67568757054544 3.9999999999999996
    vertex 92.11686746236037 9.67568757054544 17.999999999999996
    vertex 102.11686746236037 9.67568757054544 17.999999999999996
  endloop
endfacet
facet normal -1.218696065639291e-30 0.9914448613738104 -0.13052619222005185
  outer loop
    vertex 92.11686746236037 9.641467016040682 3.4778952311197933
    vertex 102.11686746236037 9.539390875701713 2.964723819589917
    vertex 92.11686746236037 9.539390875701713 2.964723819589917
  endloop
endfacet
facet normal -2.21874247452067e-30 0.9659258262890682 -0.25881904510252135
  outer loop
    vertex 102.11686746236037 9.539390875701713 2.964723819589917
    vertex 92.11686746236037 9.641467016040682 3.4778952311197933
    vertex 102.11686746236037 9.641467016040682 3.4778952311197933
  endloop
endfacet
facet normal -3.260567754684952e-30 0.3826834323650901 -0.9238795325112867
  outer loop
    vertex 102.11686746236037 7.2064213000058 0.30448186995485377
    vertex 92.11686746236037 6.710963750955525 0.13629669484372772
    vertex 92.11686746236037 7.2064213000058 0.30448186995485377
  endloop
endfacet
facet normal -3.194201588249714e-30 0.25881904510252224 -0.9659258262890679
  outer loop
    vertex 92.11686746236037 6.710963750955525 0.13629669484372772
    vertex 102.11686746236037 7.2064213000058 0.30448186995485377
    vertex 102.11686746236037 6.710963750955525 0.13629669484372772
  endloop
endfacet
facet normal 0.0 0.0 1.0
  outer loop
    vertex 102.11686746236037 -2.824312429454559 17.999999999999996
    vertex 92.11686746236037 0.1756875705454413 17.999999999999996
    vertex 92.11686746236037 -2.824312429454559 17.999999999999996
  endloop
endfacet
facet normal 0.0 0.0 1.0
  outer loop
    vertex 92.11686746236037 0.1756875705454413 17.999999999999996
    vertex 102.11686746236037 -2.824312429454559 17.999999999999996
    vertex 102.11686746236037 0.1756875705454413 17.999999999999996
  endloop
endfacet
facet normal -0.0 -0.0 1.0
  outer loop
    vertex 102.11686746236037 0.1756875705454413 12.999999999999998
    vertex 92.11686746236037 6.675687570545441 12.999999999999998
    vertex 92.11686746236037 0.1756875705454413 12.999999999999998
  endloop
endfacet
facet normal -0.0 -0.0 1.0
  outer loop
    vertex 92.11686746236037 6.675687570545441 12.999999999999998
    vertex 102.11686746236037 0.1756875705454413 12.999999999999998
    vertex 102.11686746236037 6.675687570545441 12.999999999999998
  endloop
endfacet
facet normal 0.0 0.0 1.0
  outer loop
    vertex 102.11686746236037 6.675687570545441 17.999999999999996
    vertex 92.11686746236037 9.67568757054544 17.999999999999996
    vertex 92.11686746236037 6.675687570545441 17.999999999999996
  endloop
endfacet
facet normal 0.0 0.0 1.0
  outer loop
    vertex 92.11686746236037 9.67568757054544 17.999999999999996
    vertex 102.11686746236037 6.675687570545441 17.999999999999996
    vertex 102.11686746236037 9.67568757054544 17.999999999999996
  endloop
endfacet
facet normal -1.0 -9.524114379513475e-16 -4.462415877771846e-16
  outer loop
    vertex 92.11686746236037 9.67568757054544 17.999999999999996
    vertex 92.11686746236037 6.675687570545441 12.999999999999998
    vertex 92.11686746236037 6.675687570545441 17.999999999999996
  endloop
endfacet
facet normal -1.0 -9.524114379513475e-16 -4.462415877771846e-16
  outer loop
    vertex 92.11686746236037 6.675687570545441 12.999999999999998
    vertex 92.11686746236037 9.67568757054544 17.999999999999996
    vertex 92.11686746236037 6.710963750955525 0.13629669484372772
  endloop
endfacet
facet normal -1.0 -9.524114379513475e-16 -4.462415877771846e-16
  outer loop
    vertex 92.11686746236037 6.710963750955525 0.13629669484372772
    vertex 92.11686746236037 9.67568757054544 17.999999999999996
    vertex 92.11686746236037 7.2064213000058 0.30448186995485377
  endloop
endfacet
facet normal -1.0 -9.524114379513475e-16 -4.462415877771846e-16
  outer loop
    vertex 92.11686746236037 7.2064213000058 0.30448186995485377
    vertex 92.11686746236037 9.67568757054544 17.999999999999996
    vertex 92.11686746236037 7.675687570545442 0.5358983848622466
  endloop
endfacet
facet normal -1.0 -9.524114379513475e-16 -4.462415877771846e-16
  outer loop
    vertex 92.11686746236037 7.675687570545442 0.5358983848622466
    vertex 92.11686746236037 9.67568757054544 17.999999999999996
    vertex 92.11686746236037 8.110733286580324 0.8265866388350602
  endloop
endfacet
facet normal -1.0 -9.524114379513475e-16 -4.462415877771846e-16
  outer loop
    vertex 92.11686746236037 8.110733286580324 0.8265866388350602
    vertex 92.11686746236037 9.67568757054544 17.999999999999996
    vertex 92.11686746236037 8.504114695291632 1.1715728752538106
  endloop
endfacet
facet normal -1.0 -9.524114379513475e-16 -4.462415877771846e-16
  outer loop
    vertex 92.11686746236037 8.504114695291632 1.1715728752538106
    vertex 92.11686746236037 9.67568757054544 17.999999999999996
    vertex 92.11686746236037 8.84910093171038 1.564954283965118
  endloop
endfacet
facet normal -1.0 -9.524114379513475e-16 -4.462415877771846e-16
  outer loop
    vertex 92.11686746236037 8.84910093171038 1.564954283965118
    vertex 92.11686746236037 9.67568757054544 17.999999999999996
    vertex 92.11686746236037 9.139789185683195 2.0
  endloop
endfacet
facet normal -1.0 -9.524114379513475e-16 -4.462415877771846e-16
  outer loop
    vertex 92.11686746236037 9.139789185683195 2.0
    vertex 92.11686746236037 9.67568757054544 17.999999999999996
    vertex 92.11686746236037 9.371205700590586 2.469266270539641
  endloop
endfacet
facet normal -1.0 -9.524114379513475e-16 -4.462415877771846e-16
  outer loop
    vertex 92.11686746236037 9.371205700590586 2.469266270539641
    vertex 92.11686746236037 9.67568757054544 17.999999999999996
    vertex 92.11686746236037 9.539390875701713 2.964723819589917
  endloop
endfacet
facet normal -1.0 -9.524114379513475e-16 -4.462415877771846e-16
  outer loop
    vertex 92.11686746236037 9.539390875701713 2.964723819589917
    vertex 92.11686746236037 9.67568757054544 17.999999999999996
    vertex 92.11686746236037 9.641467016040682 3.4778952311197933
  endloop
endfacet
facet normal -1.0 -9.524114379513475e-16 -4.462415877771846e-16
  outer loop
    vertex 92.11686746236037 9.641467016040682 3.4778952311197933
    vertex 92.11686746236037 9.67568757054544 17.999999999999996
    vertex 92.11686746236037 9.67568757054544 3.9999999999999996
  endloop
endfacet
facet normal -1.0 -9.524114379513475e-16 -4.462415877771846e-16
  outer loop
    vertex 92.11686746236037 0.1756875705454413 17.999999999999996
    vertex 92.11686746236039 -2.824312429454559 3.999999999999999
    vertex 92.11686746236037 -2.824312429454559 17.999999999999996
  endloop
endfacet
facet normal -1.0 -9.524114379513475e-16 -4.462415877771846e-16
  outer loop
    vertex 92.11686746236039 -2.824312429454559 3.999999999999999
    vertex 92.11686746236037 0.1756875705454413 17.999999999999996
    vertex 92.11686746236039 -2.7900918749498005 3.4778952311197924
  endloop
endfacet
facet normal -1.0 -9.524114379513475e-16 -4.462415877771846e-16
  outer loop
    vertex 92.11686746236039 -2.7900918749498005 3.4778952311197924
    vertex 92.11686746236037 0.1756875705454413 17.999999999999996
    vertex 92.11686746236039 -2.6880157346108313 2.9647238195899166
  endloop
endfacet
facet normal -1.0 -9.524114379513475e-16 -4.462415877771846e-16
  outer loop
    vertex 92.11686746236039 -2.6880157346108313 2.9647238195899166
    vertex 92.11686746236037 0.1756875705454413 17.999999999999996
    vertex 92.11686746236039 -2.5198305594997064 2.46926627053964
  endloop
endfacet
facet normal -1.0 -9.524114379513475e-16 -4.462415877771846e-16
  outer loop
    vertex 92.11686746236039 -2.5198305594997064 2.46926627053964
    vertex 92.11686746236037 0.1756875705454413 17.999999999999996
    vertex 92.11686746236039 -2.2884140445923133 1.9999999999999998
  endloop
endfacet
facet normal -1.0 -9.524114379513475e-16 -4.462415877771846e-16
  outer loop
    vertex 92.11686746236039 -2.2884140445923133 1.9999999999999998
    vertex 92.11686746236037 0.1756875705454413 17.999999999999996
    vertex 92.11686746236039 -1.997725790619499 1.564954283965117
  endloop
endfacet
facet normal -1.0 -9.524114379513475e-16 -4.462415877771846e-16
  outer loop
    vertex 92.11686746236039 -1.997725790619499 1.564954283965117
    vertex 92.11686746236037 0.1756875705454413 17.999999999999996
    vertex 92.11686746236039 -1.6527395542007486 1.17157287525381
  endloop
endfacet
facet normal -1.0 -9.524114379513475e-16 -4.462415877771846e-16
  outer loop
    vertex 92.11686746236039 -1.6527395542007486 1.17157287525381
    vertex 92.11686746236037 0.1756875705454413 17.999999999999996
    vertex 92.11686746236039 -1.259358145489441 0.8265866388350592
  endloop
endfacet
facet normal -1.0 -9.524114379513475e-16 -4.462415877771846e-16
  outer loop
    vertex 92.11686746236039 -1.259358145489441 0.8265866388350592
    vertex 92.11686746236037 0.1756875705454413 17.999999999999996
    vertex 92.11686746236039 -0.8243124294545586 0.5358983848622452
  endloop
endfacet
facet normal -1.0 -9.524114379513475e-16 -4.462415877771846e-16
  outer loop
    vertex 92.11686746236039 -0.8243124294545586 0.5358983848622452
    vertex 92.11686746236037 0.1756875705454413 17.999999999999996
    vertex 92.11686746236039 -0.3550461589149184 0.30448186995485305
  endloop
endfacet
facet normal -1.0 -9.524114379513475e-16 -4.462415877771846e-16
  outer loop
    vertex 92.11686746236039 -0.3550461589149184 0.30448186995485305
    vertex 92.11686746236037 0.1756875705454413 17.999999999999996
    vertex 92.11686746236039 0.1404113901353574 0.136296694843727
  endloop
endfacet
facet normal -1.0 -9.524114379513475e-16 -4.462415877771846e-16
  outer loop
    vertex 92.11686746236039 0.1404113901353574 0.136296694843727
    vertex 92.11686746236037 0.1756875705454413 17.999999999999996
    vertex 92.11686746236037 0.1756875705454413 12.999999999999998
  endloop
endfacet
facet normal -1.0 -9.524114379513475e-16 -4.462415877771846e-16
  outer loop
    vertex 92.11686746236039 0.1404113901353574 0.136296694843727
    vertex 92.11686746236037 0.1756875705454413 12.999999999999998
    vertex 92.11686746236039 0.6535828016652335 0.03422055450475868
  endloop
endfacet
facet normal -1.0 -9.524114379513475e-16 -4.462415877771846e-16
  outer loop
    vertex 92.11686746236039 0.6535828016652335 0.03422055450475868
    vertex 92.11686746236037 0.1756875705454413 12.999999999999998
    vertex 92.11686746236037 6.675687570545441 12.999999999999998
  endloop
endfacet
facet normal -1.0 -9.524114379513475e-16 -4.462415877771846e-16
  outer loop
    vertex 92.11686746236039 0.6535828016652335 0.03422055450475868
    vertex 92.11686746236037 6.675687570545441 12.999999999999998
    vertex 92.11686746236039 1.1756875705454408 -3.0521086840661657e-29
  endloop
endfacet
facet normal -1.0 -9.524114379513475e-16 -4.462415877771846e-16
  outer loop
    vertex 92.11686746236039 1.1756875705454408 -3.0521086840661657e-29
    vertex 92.11686746236037 6.675687570545441 12.999999999999998
    vertex 92.11686746236037 5.675687570545441 1.8847262941588586e-29
  endloop
endfacet
facet normal -1.0 -9.524114379513475e-16 -4.462415877771846e-16
  outer loop
    vertex 92.11686746236037 5.675687570545441 1.8847262941588586e-29
    vertex 92.11686746236037 6.675687570545441 12.999999999999998
    vertex 92.11686746236037 6.197792339425649 0.03422055450475798
  endloop
endfacet
facet normal -1.0 -9.524114379513475e-16 -4.462415877771846e-16
  outer loop
    vertex 92.11686746236037 6.197792339425649 0.03422055450475798
    vertex 92.11686746236037 6.675687570545441 12.999999999999998
    vertex 92.11686746236037 6.710963750955525 0.13629669484372772
  endloop
endfacet
facet normal -2.513983671137674e-30 0.9238795325112866 -0.38268343236509006
  outer loop
    vertex 92.11686746236037 9.371205700590586 2.469266270539641
    vertex 102.11686746236037 9.139789185683195 2.0
    vertex 92.11686746236037 9.139789185683195 2.0
  endloop
endfacet
facet normal -2.7662099101335596e-30 0.8660254037844386 -0.5000000000000003
  outer loop
    vertex 102.11686746236037 9.139789185683195 2.0
    vertex 92.11686746236037 9.371205700590586 2.469266270539641
    vertex 102.11686746236037 9.371205700590586 2.469266270539641
  endloop
endfacet
facet normal -3.1251647117488662e-30 0.7071067811865477 -0.7071067811865474
  outer loop
    vertex 102.11686746236037 8.504114695291632 1.1715728752538106
    vertex 92.11686746236037 8.110733286580324 0.8265866388350602
    vertex 92.11686746236037 8.504114695291632 1.1715728752538106
  endloop
endfacet
facet normal -3.225751458191578e-30 0.6087614290087207 -0.7933533402912353
  outer loop
    vertex 92.11686746236037 8.110733286580324 0.8265866388350602
    vertex 102.11686746236037 8.504114695291632 1.1715728752538106
    vertex 102.11686746236037 8.110733286580324 0.8265866388350602
  endloop
endfacet
facet normal 1.0 0.0 0.0
  outer loop
    vertex 102.11686746236037 0.6535828016652335 0.03422055450475868
    vertex 102.11686746236037 0.1756875705454413 12.999999999999998
    vertex 102.11686746236037 0.1404113901353574 0.136296694843727
  endloop
endfacet
facet normal 1.0 0.0 0.0
  outer loop
    vertex 102.11686746236037 0.1756875705454413 12.999999999999998
    vertex 102.11686746236037 0.6535828016652335 0.03422055450475868
    vertex 102.11686746236037 6.675687570545441 12.999999999999998
  endloop
endfacet
facet normal 1.0 0.0 0.0
  outer loop
    vertex 102.11686746236037 6.675687570545441 12.999999999999998
    vertex 102.11686746236037 0.6535828016652335 0.03422055450475868
    vertex 102.11686746236037 1.1756875705454408 -2.6198215099944534e-30
  endloop
endfacet
facet normal 1.0 0.0 0.0
  outer loop
    vertex 102.11686746236037 6.675687570545441 12.999999999999998
    vertex 102.11686746236037 1.1756875705454408 -2.6198215099944534e-30
    vertex 102.11686746236037 5.675687570545441 -2.6198215099944534e-30
  endloop
endfacet
facet normal 1.0 0.0 0.0
  outer loop
    vertex 102.11686746236037 6.675687570545441 12.999999999999998
    vertex 102.11686746236037 5.675687570545441 -2.6198215099944534e-30
    vertex 102.11686746236037 6.197792339425649 0.03422055450475798
  endloop
endfacet
facet normal 1.0 0.0 0.0
  outer loop
    vertex 102.11686746236037 6.675687570545441 12.999999999999998
    vertex 102.11686746236037 6.197792339425649 0.03422055450475798
    vertex 102.11686746236037 6.710963750955525 0.13629669484372772
  endloop
endfacet
facet normal 1.0 0.0 0.0
  outer loop
    vertex 102.11686746236037 6.675687570545441 12.999999999999998
    vertex 102.11686746236037 6.710963750955525 0.13629669484372772
    vertex 102.11686746236037 6.675687570545441 17.999999999999996
  endloop
endfacet
facet normal 1.0 0.0 0.0
  outer loop
    vertex 102.11686746236037 6.675687570545441 17.999999999999996
    vertex 102.11686746236037 6.710963750955525 0.13629669484372772
    vertex 102.11686746236037 9.67568757054544 17.999999999999996
  endloop
endfacet
facet normal 1.0 0.0 0.0
  outer loop
    vertex 102.11686746236037 9.67568757054544 17.999999999999996
    vertex 102.11686746236037 6.710963750955525 0.13629669484372772
    vertex 102.11686746236037 7.2064213000058 0.30448186995485377
  endloop
endfacet
facet normal 1.0 0.0 0.0
  outer loop
    vertex 102.11686746236037 9.67568757054544 17.999999999999996
    vertex 102.11686746236037 7.2064213000058 0.30448186995485377
    vertex 102.11686746236037 7.675687570545442 0.5358983848622466
  endloop
endfacet
facet normal 1.0 0.0 0.0
  outer loop
    vertex 102.11686746236037 9.67568757054544 17.999999999999996
    vertex 102.11686746236037 7.675687570545442 0.5358983848622466
    vertex 102.11686746236037 8.110733286580324 0.8265866388350602
  endloop
endfacet
facet normal 1.0 0.0 0.0
  outer loop
    vertex 102.11686746236037 9.67568757054544 17.999999999999996
    vertex 102.11686746236037 8.110733286580324 0.8265866388350602
    vertex 102.11686746236037 8.504114695291632 1.1715728752538106
  endloop
endfacet
facet normal 1.0 0.0 0.0
  outer loop
    vertex 102.11686746236037 9.67568757054544 17.999999999999996
    vertex 102.11686746236037 8.504114695291632 1.1715728752538106
    vertex 102.11686746236037 8.84910093171038 1.564954283965118
  endloop
endfacet
facet normal 1.0 0.0 0.0
  outer loop
    vertex 102.11686746236037 9.67568757054544 17.999999999999996
    vertex 102.11686746236037 8.84910093171038 1.564954283965118
    vertex 102.11686746236037 9.139789185683195 2.0
  endloop
endfacet
facet normal 1.0 0.0 0.0
  outer loop
    vertex 102.11686746236037 9.67568757054544 17.999999999999996
    vertex 102.11686746236037 9.139789185683195 2.0
    vertex 102.11686746236037 9.371205700590586 2.469266270539641
  endloop
endfacet
facet normal 1.0 0.0 0.0
  outer loop
    vertex 102.11686746236037 9.67568757054544 17.999999999999996
    vertex 102.11686746236037 9.371205700590586 2.469266270539641
    vertex 102.11686746236037 9.539390875701713 2.964723819589917
  endloop
endfacet
facet normal 1.0 0.0 0.0
  outer loop
    vertex 102.11686746236037 9.67568757054544 17.999999999999996
    vertex 102.11686746236037 9.539390875701713 2.964723819589917
    vertex 102.11686746236037 9.641467016040682 3.4778952311197933
  endloop
endfacet
facet normal 1.0 0.0 0.0
  outer loop
    vertex 102.11686746236037 9.67568757054544 17.999999999999996
    vertex 102.11686746236037 9.641467016040682 3.4778952311197933
    vertex 102.11686746236037 9.67568757054544 3.9999999999999996
  endloop
endfacet
facet normal 1.0 0.0 0.0
  outer loop
    vertex 102.11686746236037 -2.7900918749498005 3.4778952311197924
    vertex 102.11686746236037 -2.824312429454559 17.999999999999996
    vertex 102.11686746236037 -2.824312429454559 3.999999999999999
  endloop
endfacet
facet normal 1.0 0.0 0.0
  outer loop
    vertex 102.11686746236037 -2.824312429454559 17.999999999999996
    vertex 102.11686746236037 -2.7900918749498005 3.4778952311197924
    vertex 102.11686746236037 0.1756875705454413 17.999999999999996
  endloop
endfacet
facet normal 1.0 0.0 0.0
  outer loop
    vertex 102.11686746236037 0.1756875705454413 17.999999999999996
    vertex 102.11686746236037 -2.7900918749498005 3.4778952311197924
    vertex 102.11686746236037 -2.6880157346108313 2.9647238195899166
  endloop
endfacet
facet normal 1.0 0.0 0.0
  outer loop
    vertex 102.11686746236037 0.1756875705454413 17.999999999999996
    vertex 102.11686746236037 -2.6880157346108313 2.9647238195899166
    vertex 102.11686746236037 -2.5198305594997064 2.46926627053964
  endloop
endfacet
facet normal 1.0 0.0 0.0
  outer loop
    vertex 102.11686746236037 0.1756875705454413 17.999999999999996
    vertex 102.11686746236037 -2.5198305594997064 2.46926627053964
    vertex 102.11686746236037 -2.2884140445923133 1.9999999999999998
  endloop
endfacet
facet normal 1.0 0.0 0.0
  outer loop
    vertex 102.11686746236037 0.1756875705454413 17.999999999999996
    vertex 102.11686746236037 -2.2884140445923133 1.9999999999999998
    vertex 102.11686746236037 -1.997725790619499 1.564954283965117
  endloop
endfacet
facet normal 1.0 0.0 0.0
  outer loop
    vertex 102.11686746236037 0.1756875705454413 17.999999999999996
    vertex 102.11686746236037 -1.997725790619499 1.564954283965117
    vertex 102.11686746236037 -1.6527395542007486 1.17157287525381
  endloop
endfacet
facet normal 1.0 0.0 0.0
  outer loop
    vertex 102.11686746236037 0.1756875705454413 17.999999999999996
    vertex 102.11686746236037 -1.6527395542007486 1.17157287525381
    vertex 102.11686746236037 -1.259358145489441 0.8265866388350592
  endloop
endfacet
facet normal 1.0 0.0 0.0
  outer loop
    vertex 102.11686746236037 0.1756875705454413 17.999999999999996
    vertex 102.11686746236037 -1.259358145489441 0.8265866388350592
    vertex 102.11686746236037 -0.8243124294545586 0.5358983848622452
  endloop
endfacet
facet normal 1.0 0.0 0.0
  outer loop
    vertex 102.11686746236037 0.1756875705454413 17.999999999999996
    vertex 102.11686746236037 -0.8243124294545586 0.5358983848622452
    vertex 102.11686746236037 -0.3550461589149184 0.30448186995485305
  endloop
endfacet
facet normal 1.0 0.0 0.0
  outer loop
    vertex 102.11686746236037 0.1756875705454413 17.999999999999996
    vertex 102.11686746236037 -0.3550461589149184 0.30448186995485305
    vertex 102.11686746236037 0.1404113901353574 0.136296694843727
  endloop
endfacet
facet normal 1.0 0.0 0.0
  outer loop
    vertex 102.11686746236037 0.1756875705454413 17.999999999999996
    vertex 102.11686746236037 0.1404113901353574 0.136296694843727
    vertex 102.11686746236037 0.1756875705454413 12.999999999999998
  endloop
endfacet
facet normal 0.0 -0.9999999999999999 0.0
  outer loop
    vertex 102.11686746236037 6.675687570545441 17.999999999999996
    vertex 92.11686746236037 6.675687570545441 12.999999999999998
    vertex 102.11686746236037 6.675687570545441 12.999999999999998
  endloop
endfacet
facet normal 0.0 -0.9999999999999999 0.0
  outer loop
    vertex 92.11686746236037 6.675687570545441 12.999999999999998
    vertex 102.11686746236037 6.675687570545441 17.999999999999996
    vertex 92.11686746236037 6.675687570545441 17.999999999999996
  endloop
endfacet
facet normal -2.7662099101335596e-30 0.8660254037844386 -0.5000000000000003
  outer loop
    vertex 92.11686746236037 9.139789185683195 2.0
    vertex 102.11686746236037 8.84910093171038 1.564954283965118
    vertex 92.11686746236037 8.84910093171038 1.564954283965118
  endloop
endfacet
facet normal -2.97110553062878e-30 0.7933533402912354 -0.6087614290087205
  outer loop
    vertex 102.11686746236037 8.84910093171038 1.564954283965118
    vertex 92.11686746236037 9.139789185683195 2.0
    vertex 102.11686746236037 9.139789185683195 2.0
  endloop
endfacet
facet normal 0.0 -1.0 0.0
  outer loop
    vertex 102.11686746236037 -2.824312429454559 17.999999999999996
    vertex 92.11686746236039 -2.824312429454559 3.999999999999999
    vertex 102.11686746236037 -2.824312429454559 3.999999999999999
  endloop
endfacet
facet normal 0.0 -1.0 0.0
  outer loop
    vertex 92.11686746236039 -2.824312429454559 3.999999999999999
    vertex 102.11686746236037 -2.824312429454559 17.999999999999996
    vertex 92.11686746236037 -2.824312429454559 17.999999999999996
  endloop
endfacet
facet normal -3.225751458191578e-30 0.6087614290087207 -0.7933533402912353
  outer loop
    vertex 102.11686746236037 8.110733286580324 0.8265866388350602
    vertex 92.11686746236037 7.675687570545442 0.5358983848622466
    vertex 92.11686746236037 8.110733286580324 0.8265866388350602
  endloop
endfacet
facet normal -3.271144702837364e-30 0.5000000000000007 -0.8660254037844384
  outer loop
    vertex 92.11686746236037 7.675687570545442 0.5358983848622466
    vertex 102.11686746236037 8.110733286580324 0.8265866388350602
    vertex 102.11686746236037 7.675687570545442 0.5358983848622466
  endloop
endfacet
facet normal 5.217852240024573e-30 -0.9659258262890682 -0.2588190451025207
  outer loop
    vertex 102.11686746236037 -2.6880157346108313 2.9647238195899166
    vertex 92.11686746236039 -2.5198305594997064 2.46926627053964
    vertex 102.11686746236037 -2.5198305594997064 2.46926627053964
  endloop
endfacet
facet normal 5.625234609113169e-30 -0.9238795325112868 -0.3826834323650895
  outer loop
    vertex 92.11686746236039 -2.5198305594997064 2.46926627053964
    vertex 102.11686746236037 -2.6880157346108313 2.9647238195899166
    vertex 92.11686746236039 -2.6880157346108313 2.9647238195899166
  endloop
endfacet
facet normal 5.625234609113169e-30 -0.9238795325112868 -0.3826834323650895
  outer loop
    vertex 102.11686746236037 -2.5198305594997064 2.46926627053964
    vertex 92.11686746236039 -2.2884140445923133 1.9999999999999998
    vertex 102.11686746236037 -2.2884140445923133 1.9999999999999998
  endloop
endfacet
facet normal 5.936367654430164e-30 -0.8660254037844384 -0.5000000000000007
  outer loop
    vertex 92.11686746236039 -2.2884140445923133 1.9999999999999998
    vertex 102.11686746236037 -2.5198305594997064 2.46926627053964
    vertex 92.11686746236039 -2.5198305594997064 2.46926627053964
  endloop
endfacet
facet normal 6.24778617433292e-30 -0.6087614290087209 -0.793353340291235
  outer loop
    vertex 102.11686746236037 -1.259358145489441 0.8265866388350592
    vertex 92.11686746236039 -1.6527395542007486 1.17157287525381
    vertex 92.11686746236039 -1.259358145489441 0.8265866388350592
  endloop
endfacet
facet normal 6.2503294234977345e-30 -0.7071067811865474 -0.7071067811865477
  outer loop
    vertex 92.11686746236039 -1.6527395542007486 1.17157287525381
    vertex 102.11686746236037 -1.259358145489441 0.8265866388350592
    vertex 102.11686746236037 -1.6527395542007486 1.17157287525381
  endloop
endfacet
facet normal 1.8781502174200341e-31 -0.9978589232386036 -0.065403129230143
  outer loop
    vertex 102.11686746236037 -2.824312429454559 3.999999999999999
    vertex 92.11686746236039 -2.7900918749498005 3.4778952311197924
    vertex 102.11686746236037 -2.7900918749498005 3.4778952311197924
  endloop
endfacet
facet normal 2.5895442056286017e-30 -0.9914448613738103 -0.13052619222005216
  outer loop
    vertex 92.11686746236039 -2.7900918749498005 3.4778952311197924
    vertex 102.11686746236037 -2.824312429454559 3.999999999999999
    vertex 92.11686746236039 -2.824312429454559 3.999999999999999
  endloop
endfacet
facet normal 2.5895442056286017e-30 -0.9914448613738103 -0.13052619222005216
  outer loop
    vertex 102.11686746236037 -2.7900918749498005 3.4778952311197924
    vertex 92.11686746236039 -2.6880157346108313 2.9647238195899166
    vertex 102.11686746236037 -2.6880157346108313 2.9647238195899166
  endloop
endfacet
facet normal 5.217852240024573e-30 -0.9659258262890682 -0.2588190451025207
  outer loop
    vertex 92.11686746236039 -2.6880157346108313 2.9647238195899166
    vertex 102.11686746236037 -2.7900918749498005 3.4778952311197924
    vertex 92.11686746236039 -2.7900918749498005 3.4778952311197924
  endloop
endfacet
facet normal 6.1459278033078e-30 -0.7933533402912348 -0.608761429008721
  outer loop
    vertex 102.11686746236037 -1.997725790619499 1.564954283965117
    vertex 92.11686746236039 -1.6527395542007486 1.17157287525381
    vertex 102.11686746236037 -1.6527395542007486 1.17157287525381
  endloop
endfacet
facet normal 6.2503294234977345e-30 -0.7071067811865474 -0.7071067811865477
  outer loop
    vertex 92.11686746236039 -1.6527395542007486 1.17157287525381
    vertex 102.11686746236037 -1.997725790619499 1.564954283965117
    vertex 92.11686746236039 -1.997725790619499 1.564954283965117
  endloop
endfacet
facet normal 5.936367654430164e-30 -0.8660254037844384 -0.5000000000000007
  outer loop
    vertex 102.11686746236037 -2.2884140445923133 1.9999999999999998
    vertex 92.11686746236039 -1.997725790619499 1.564954283965117
    vertex 102.11686746236037 -1.997725790619499 1.564954283965117
  endloop
endfacet
facet normal 6.1459278033078e-30 -0.7933533402912348 -0.608761429008721
  outer loop
    vertex 92.11686746236039 -1.997725790619499 1.564954283965117
    vertex 102.11686746236037 -2.2884140445923133 1.9999999999999998
    vertex 92.11686746236039 -2.2884140445923133 1.9999999999999998
  endloop
endfacet
facet normal 6.155023446845126e-33 -0.06540312923014355 -0.9978589232386034
  outer loop
    vertex 102.11686746236037 1.1756875705454408 -2.6198215099944534e-30
    vertex 92.11686746236039 0.6535828016652335 0.03422055450475868
    vertex 92.11686746236039 1.1756875705454408 -3.0521086840661657e-29
  endloop
endfacet
facet normal 2.7157588605919267e-30 -0.1305261922200518 -0.9914448613738104
  outer loop
    vertex 92.11686746236039 0.6535828016652335 0.03422055450475868
    vertex 102.11686746236037 1.1756875705454408 -2.6198215099944534e-30
    vertex 102.11686746236037 0.6535828016652335 0.03422055450475868
  endloop
endfacet
facet normal 2.7157588605919267e-30 -0.1305261922200518 -0.9914448613738104
  outer loop
    vertex 102.11686746236037 0.6535828016652335 0.03422055450475868
    vertex 92.11686746236039 0.1404113901353574 0.136296694843727
    vertex 92.11686746236039 0.6535828016652335 0.03422055450475868
  endloop
endfacet
facet normal 5.608035885516191e-30 -0.25881904510252074 -0.9659258262890682
  outer loop
    vertex 92.11686746236039 0.1404113901353574 0.136296694843727
    vertex 102.11686746236037 0.6535828016652335 0.03422055450475868
    vertex 102.11686746236037 0.1404113901353574 0.136296694843727
  endloop
endfacet
facet normal 5.608035885516191e-30 -0.25881904510252074 -0.9659258262890682
  outer loop
    vertex 102.11686746236037 0.1404113901353574 0.136296694843727
    vertex 92.11686746236039 -0.3550461589149184 0.30448186995485305
    vertex 92.11686746236039 0.1404113901353574 0.136296694843727
  endloop
endfacet
facet normal 5.923868242532083e-30 -0.3826834323650898 -0.9238795325112868
  outer loop
    vertex 92.11686746236039 -0.3550461589149184 0.30448186995485305
    vertex 102.11686746236037 0.1404113901353574 0.136296694843727
    vertex 102.11686746236037 -0.3550461589149184 0.30448186995485305
  endloop
endfacet
facet normal 5.923868242532083e-30 -0.3826834323650898 -0.9238795325112868
  outer loop
    vertex 102.11686746236037 -0.3550461589149184 0.30448186995485305
    vertex 92.11686746236039 -0.8243124294545586 0.5358983848622452
    vertex 92.11686746236039 -0.3550461589149184 0.30448186995485305
  endloop
endfacet
facet normal 6.138341571511686e-30 -0.5000000000000002 -0.8660254037844385
  outer loop
    vertex 92.11686746236039 -0.8243124294545586 0.5358983848622452
    vertex 102.11686746236037 -0.3550461589149184 0.30448186995485305
    vertex 102.11686746236037 -0.8243124294545586 0.5358983848622452
  endloop
endfacet
facet normal 6.138341571511686e-30 -0.5000000000000002 -0.8660254037844385
  outer loop
    vertex 102.11686746236037 -0.8243124294545586 0.5358983848622452
    vertex 92.11686746236039 -1.259358145489441 0.8265866388350592
    vertex 92.11686746236039 -0.8243124294545586 0.5358983848622452
  endloop
endfacet
facet normal 6.24778617433292e-30 -0.6087614290087209 -0.793353340291235
  outer loop
    vertex 92.11686746236039 -1.259358145489441 0.8265866388350592
    vertex 102.11686746236037 -0.8243124294545586 0.5358983848622452
    vertex 102.11686746236037 -1.259358145489441 0.8265866388350592
  endloop
endfacet
facet normal 8.97986453774849e-31 5.485372198027807e-30 -1.0
  outer loop
    vertex 102.11686746236037 5.675687570545441 -2.6198215099944534e-30
    vertex 92.11686746236039 1.1756875705454408 -3.0521086840661657e-29
    vertex 92.11686746236037 5.675687570545441 1.8847262941588586e-29
  endloop
endfacet
facet normal 8.97986453774849e-31 5.485372198027807e-30 -1.0
  outer loop
    vertex 92.11686746236039 1.1756875705454408 -3.0521086840661657e-29
    vertex 102.11686746236037 5.675687570545441 -2.6198215099944534e-30
    vertex 102.11686746236037 1.1756875705454408 -2.6198215099944534e-30
  endloop
endfacet
endsolid stepper_stabilizer
