solid breadboard_holder
facet normal -0.9914448613738104 -0.13052619222005155 -1.2391240106987726e-16
  outer loop
    vertex 34.52878231985236 2.4727309955304984 4.999999999999999
    vertex 35.7035180498328 -6.450272756833806 9.999999999999998
    vertex 34.52878231985236 2.4727309955304984 9.999999999999998
  endloop
endfacet
facet normal -0.9914448613738104 -0.13052619222005155 -1.2391240106987726e-16
  outer loop
    vertex 35.7035180498328 -6.450272756833806 9.999999999999998
    vertex 34.52878231985236 2.4727309955304984 4.999999999999999
    vertex 35.7035180498328 -6.450272756833806 4.999999999999999
  endloop
endfacet
facet normal -0.13052619222005155 0.9914448613738104 6.156006061359182e-19
  outer loop
    vertex 35.7035180498328 -6.450272756833806 9.999999999999998
    vertex 32.7291834657114 -6.841851333493952 4.999999999999999
    vertex 32.7291834657114 -6.841851333493952 9.999999999999998
  endloop
endfacet
facet normal -0.13052619222005155 0.9914448613738104 6.156006061359182e-19
  outer loop
    vertex 32.7291834657114 -6.841851333493952 4.999999999999999
    vertex 35.7035180498328 -6.450272756833806 9.999999999999998
    vertex 35.7035180498328 -6.450272756833806 4.999999999999999
  endloop
endfacet
facet normal 0.13052619222005155 -0.9914448613738104 -6.156006061359182e-19
  outer loop
    vertex 34.52878231985236 2.4727309955304984 4.999999999999999
    vertex 31.554447735730914 2.0811524188703387 9.999999999999998
    vertex 31.554447735730903 2.0811524188703374 4.999999999999999
  endloop
endfacet
facet normal 0.13052619222005155 -0.9914448613738104 -6.156006061359182e-19
  outer loop
    vertex 31.554447735730914 2.0811524188703387 9.999999999999998
    vertex 34.52878231985236 2.4727309955304984 4.999999999999999
    vertex 34.52878231985236 2.4727309955304984 9.999999999999998
  endloop
endfacet
facet normal 0.9914448613738104 0.13052619222005155 1.2391240106987726e-16
  outer loop
    vertex 32.7291834657114 -6.841851333493952 4.999999999999999
    vertex 31.554447735730914 2.0811524188703387 9.999999999999998
    vertex 32.7291834657114 -6.841851333493952 9.999999999999998
  endloop
endfacet
facet normal 0.9914448613738104 0.13052619222005155 1.2391240106987726e-16
  outer loop
    vertex 31.554447735730914 2.0811524188703387 9.999999999999998
    vertex 32.7291834657114 -6.841851333493952 4.999999999999999
    vertex 31.554447735730903 2.0811524188703374 4.999999999999999
  endloop
endfacet
facet normal -1.2277196129817318e-16 -1.6784147938106948e-17 1.0
  outer loop
    vertex 34.52878231985236 2.4727309955304984 4.999999999999999
    vertex 32.7291834657114 -6.841851333493952 4.999999999999999
    vertex 35.7035180498328 -6.450272756833806 4.999999999999999
  endloop
endfacet
facet normal -1.2277196129817318e-16 -1.6784147938106948e-17 1.0
  outer loop
    vertex 32.7291834657114 -6.841851333493952 4.999999999999999
    vertex 34.52878231985236 2.4727309955304984 4.999999999999999
    vertex 31.554447735730903 2.0811524188703374 4.999999999999999
  endloop
endfacet
facet normal -0.38268343236508956 -0.923879532511287 -6.248932629843747e-17
  outer loop
    vertex 32.90865479364496 -69.49545201508457 -1.4099832412739487e-15
    vertex 23.865534927899738 -64.27440432628251 10.000000000000002
    vertex 23.865534927899706 -64.27440432628251 -2.8199664825478975e-15
  endloop
endfacet
facet normal -0.6087614290087203 -0.7933533402912356 -8.805459443271872e-17
  outer loop
    vertex 23.865534927899738 -64.27440432628251 10.000000000000002
    vertex 32.90865479364496 -69.49545201508457 -1.4099832412739487e-15
    vertex 32.90865479364496 -69.49545201508457 10.000000000000002
  endloop
endfacet
facet normal -0.2588190451025184 0.965925826289069 -2.900238102256406e-16
  outer loop
    vertex 58.739786478288494 -57.94695785869351 10.000000000000004
    vertex 51.80546237429994 -59.8050044024129 1.4099832412739487e-15
    vertex 51.80546237429992 -59.8050044024129 10.000000000000002
  endloop
endfacet
facet normal -0.13052619222005055 0.9914448613738107 -1.377987182811736e-16
  outer loop
    vertex 51.80546237429994 -59.8050044024129 1.4099832412739487e-15
    vertex 58.739786478288494 -57.94695785869351 10.000000000000004
    vertex 58.739786478288494 -57.94695785869351 9.86988268891764e-15
  endloop
endfacet
facet normal 0.6087614290087204 0.7933533402912354 8.805459443271873e-17
  outer loop
    vertex 31.475052790508705 -54.35748757264202 -1.4099832412739487e-15
    vertex 26.39877523023955 -49.281210012372924 10.000000000000002
    vertex 31.475052790508705 -54.35748757264202 10.000000000000002
  endloop
endfacet
facet normal 0.7933533402912349 0.6087614290087212 1.0761908747350784e-16
  outer loop
    vertex 26.39877523023955 -49.281210012372924 10.000000000000002
    vertex 31.475052790508705 -54.35748757264202 -1.4099832412739487e-15
    vertex 26.39877523023955 -49.281210012372924 -1.4099832412739487e-15
  endloop
endfacet
facet normal 0.9238795325112871 -0.3826834323650895 1.0700348686737196e-16
  outer loop
    vertex 22.809304944188124 -22.016476324593167 -1.4099832412739487e-15
    vertex 26.39877523023955 -15.799331416893303 10.000000000000002
    vertex 22.809304944188135 -22.016476324593167 10.000000000000002
  endloop
endfacet
facet normal 0.7933533402912353 -0.6087614290087204 8.718400370651626e-17
  outer loop
    vertex 26.39877523023955 -15.799331416893303 10.000000000000002
    vertex 22.809304944188124 -22.016476324593167 -1.4099832412739487e-15
    vertex 26.398775230239544 -15.799331416893303 -1.4099832412739487e-15
  endloop
endfacet
facet normal 0.3826834323650905 -0.9238795325112865 3.1476264797120385e-17
  outer loop
    vertex 37.692197698208524 -7.1335835705727435 0.0
    vertex 31.47505279050868 -10.723053856624164 9.999999999999998
    vertex 31.47505279050866 -10.723053856624166 7.049916206369744e-15
  endloop
endfacet
facet normal 0.6087614290087213 -0.7933533402912348 6.142307477143994e-17
  outer loop
    vertex 31.47505279050868 -10.723053856624164 9.999999999999998
    vertex 37.692197698208524 -7.1335835705727435 0.0
    vertex 37.692197698208524 -7.1335835705727435 9.999999999999998
  endloop
endfacet
facet normal 0.7933533402912349 0.6087614290087212 1.0761908747350785e-16
  outer loop
    vertex 26.39877523023955 -49.281210012372924 -1.4099832412739487e-15
    vertex 22.80930494418814 -43.06406510467314 10.000000000000002
    vertex 26.39877523023955 -49.281210012372924 10.000000000000002
  endloop
endfacet
facet normal 0.9238795325112865 0.3826834323650904 1.198495175519283e-16
  outer loop
    vertex 22.80930494418814 -43.06406510467314 10.000000000000002
    vertex 26.39877523023955 -49.281210012372924 -1.4099832412739487e-15
    vertex 22.809304944188135 -43.06406510467314 -2.8199664825478975e-15
  endloop
endfacet
facet normal -0.7933533402912346 -0.6087614290087213 -1.0761908747350779e-16
  outer loop
    vertex 16.48185847659916 -56.89072787498196 9.999999999999996
    vertex 23.865534927899706 -64.27440432628251 -2.8199664825478975e-15
    vertex 23.865534927899738 -64.27440432628251 10.000000000000002
  endloop
endfacet
facet normal -0.6087614290087205 -0.7933533402912353 -8.805459443271874e-17
  outer loop
    vertex 23.865534927899706 -64.27440432628251 -2.8199664825478975e-15
    vertex 16.48185847659916 -56.89072787498196 9.999999999999996
    vertex 16.48185847659916 -56.89072787498196 -2.8199664825478975e-15
  endloop
endfacet
facet normal 2.220446049250313e-16 1.0 1.6784147938107022e-17
  outer loop
    vertex 53.43703977705063 7.117523740319277 40.000000000000014
    vertex 42.99494439944645 7.117523740319273 10.000000000000002
    vertex 42.994944399446425 7.117523740319272 40.000000000000014
  endloop
endfacet
facet normal -0.08693379232503978 0.996214091323741 6.04757249997129e-18
  outer loop
    vertex 42.99494439944645 7.117523740319273 10.000000000000002
    vertex 53.43703977705063 7.117523740319277 40.000000000000014
    vertex 42.99494439944645 7.117523740319273 1.4099832412739487e-15
  endloop
endfacet
facet normal -0.13052619222005163 0.9914448613738104 6.156006061359275e-19
  outer loop
    vertex 42.99494439944645 7.117523740319273 1.4099832412739487e-15
    vertex 53.43703977705063 7.117523740319277 40.000000000000014
    vertex 53.437039777050636 7.117523740319279 1.4099832412739487e-15
  endloop
endfacet
facet normal -0.1305261922200502 0.9914448613738106 -1.3779871828117323e-16
  outer loop
    vertex 51.80546237429992 -59.8050044024129 10.000000000000002
    vertex 44.626521802197104 -59.805004402412905 0.0
    vertex 44.626521802197104 -59.805004402412905 9.999999999999998
  endloop
endfacet
facet normal 0.13052619222005118 0.9914448613738105 3.2665513845412095e-17
  outer loop
    vertex 44.626521802197104 -59.805004402412905 0.0
    vertex 51.80546237429992 -59.8050044024129 10.000000000000002
    vertex 51.80546237429994 -59.8050044024129 1.4099832412739487e-15
  endloop
endfacet
facet normal 0.9238795325112865 0.38268343236509034 1.198495175519283e-16
  outer loop
    vertex 22.809304944188135 -43.06406510467314 -2.8199664825478975e-15
    vertex 20.951258400468728 -36.12974100068454 10.000000000000002
    vertex 22.80930494418814 -43.06406510467314 10.000000000000002
  endloop
endfacet
facet normal 0.9914448613738104 0.1305261922200517 1.2391240106987733e-16
  outer loop
    vertex 20.951258400468728 -36.12974100068454 10.000000000000002
    vertex 22.809304944188135 -43.06406510467314 -2.8199664825478975e-15
    vertex 20.95125840046872 -36.12974100068454 -2.8199664825478975e-15
  endloop
endfacet
facet normal 0.13160618359641033 -0.991302077281352 -6.337873644004113e-05
  outer loop
    vertex 44.6265218021971 -5.275537026853331 1.4099832412739487e-15
    vertex 37.692197698208524 -7.1335835705727435 9.999999999999998
    vertex 37.692197698208524 -7.1335835705727435 0.0
  endloop
endfacet
facet normal 0.3826834323650905 -0.9238795325112866 3.1476264797120404e-17
  outer loop
    vertex 37.692197698208524 -7.1335835705727435 9.999999999999998
    vertex 44.6265218021971 -5.275537026853331 1.4099832412739487e-15
    vertex 44.6265218021971 -5.275537026853331 10.000000000000002
  endloop
endfacet
facet normal 0.9914448613738104 0.1305261922200517 1.239124010698773e-16
  outer loop
    vertex 20.95125840046872 -36.12974100068454 -2.8199664825478975e-15
    vertex 20.951258400468728 -28.950800428581708 10.000000000000002
    vertex 20.951258400468728 -36.12974100068454 10.000000000000002
  endloop
endfacet
facet normal 0.9914448613738105 -0.13052619222005118 1.1953085922983905e-16
  outer loop
    vertex 20.951258400468728 -28.950800428581708 10.000000000000002
    vertex 20.95125840046872 -36.12974100068454 -2.8199664825478975e-15
    vertex 20.95125840046872 -28.950800428581708 -2.8199664825478975e-15
  endloop
endfacet
facet normal 0.0021787829767489215 -0.9999976185504218 -0.00012569099093415328
  outer loop
    vertex 51.00959198191301 -5.257116926936634 1.2689849171465539e-14
    vertex 44.6265218021971 -5.275537026853331 10.000000000000002
    vertex 44.6265218021971 -5.275537026853331 1.4099832412739487e-15
  endloop
endfacet
facet normal 0.08838623939431066 -0.9960862741540697 -8.442508642130127e-05
  outer loop
    vertex 44.6265218021971 -5.275537026853331 10.000000000000002
    vertex 51.00959198191301 -5.257116926936634 1.2689849171465539e-14
    vertex 50.80546237429992 -5.275537026853335 40.000000000000014
  endloop
endfacet
facet normal 0.0021787829767489215 -0.9999976185504218 -0.00012569099093415328
  outer loop
    vertex 50.80546237429992 -5.275537026853335 40.000000000000014
    vertex 51.00959198191301 -5.257116926936634 1.2689849171465539e-14
    vertex 51.009591981913005 -5.257116926936634 40.000000000000014
  endloop
endfacet
facet normal 0.0021787829767489215 -0.9999976185504218 -0.00012569099093415328
  outer loop
    vertex 50.80546237429992 -5.275537026853335 40.000000000000014
    vertex 44.62652180219709 -5.275537026853332 40.000000000000014
    vertex 44.6265218021971 -5.275537026853331 10.000000000000002
  endloop
endfacet
facet normal -0.608761429008721 0.793353340291235 -6.14230747714399e-17
  outer loop
    vertex 23.865534927899695 -0.8061371029837329 10.000000000000002
    vertex 16.48185847659911 -8.189813554284305 -2.8199664825478975e-15
    vertex 16.48185847659911 -8.189813554284305 10.000000000000002
  endloop
endfacet
facet normal -0.7933533402912353 0.6087614290087205 -8.718400370651631e-17
  outer loop
    vertex 16.48185847659911 -8.189813554284305 -2.8199664825478975e-15
    vertex 23.865534927899695 -0.8061371029837329 10.000000000000002
    vertex 23.865534927899684 -0.8061371029837293 -1.4099832412739487e-15
  endloop
endfacet
facet normal -0.13052619222005124 -0.9914448613738106 -3.2665513845412095e-17
  outer loop
    vertex 42.99494439944647 -72.19806516958552 8.459899447643692e-15
    vertex 32.90865479364496 -69.49545201508457 10.000000000000002
    vertex 32.90865479364496 -69.49545201508457 -1.4099832412739487e-15
  endloop
endfacet
facet normal -0.3826834323650895 -0.923879532511287 -6.248932629843747e-17
  outer loop
    vertex 32.90865479364496 -69.49545201508457 10.000000000000002
    vertex 42.99494439944647 -72.19806516958552 8.459899447643692e-15
    vertex 42.99494439944647 -72.19806516958552 9.999999999999998
  endloop
endfacet
facet normal 0.38268343236508917 0.9238795325112871 6.248932629843742e-17
  outer loop
    vertex 37.69219769820856 -57.94695785869345 9.999999999999998
    vertex 31.475052790508705 -54.35748757264202 -1.4099832412739487e-15
    vertex 31.475052790508705 -54.35748757264202 10.000000000000002
  endloop
endfacet
facet normal 0.6087614290087204 0.7933533402912354 8.805459443271873e-17
  outer loop
    vertex 31.475052790508705 -54.35748757264202 -1.4099832412739487e-15
    vertex 37.69219769820856 -57.94695785869345 9.999999999999998
    vertex 37.69219769820856 -57.94695785869345 7.049916206369744e-15
  endloop
endfacet
facet normal -0.608761429008721 0.793353340291235 -6.14230747714399e-17
  outer loop
    vertex 23.865534927899695 -0.8061371029837329 10.000000000000002
    vertex 32.90865479364493 4.414910585818323 8.459899447643692e-15
    vertex 23.865534927899684 -0.8061371029837293 -1.4099832412739487e-15
  endloop
endfacet
facet normal -0.38268343236509045 0.9238795325112865 -3.1476264797120404e-17
  outer loop
    vertex 32.90865479364493 4.414910585818323 8.459899447643692e-15
    vertex 23.865534927899695 -0.8061371029837329 10.000000000000002
    vertex 32.90865479364493 4.4149105858183235 9.999999999999998
  endloop
endfacet
facet normal 0.13052619222005124 0.9914448613738105 3.266551384541209e-17
  outer loop
    vertex 44.626521802197104 -59.805004402412905 9.999999999999998
    vertex 37.69219769820856 -57.94695785869345 7.049916206369744e-15
    vertex 37.69219769820856 -57.94695785869345 9.999999999999998
  endloop
endfacet
facet normal 0.3826834323650892 0.923879532511287 6.248932629843744e-17
  outer loop
    vertex 37.69219769820856 -57.94695785869345 7.049916206369744e-15
    vertex 44.626521802197104 -59.805004402412905 9.999999999999998
    vertex 44.626521802197104 -59.805004402412905 0.0
  endloop
endfacet
facet normal 0.0 1.5407439555097887e-33 1.0
  outer loop
    vertex 53.43703977705063 7.117523740319277 40.000000000000014
    vertex 51.27918953677822 5.2834892966523865 40.000000000000014
    vertex 53.16293477338846 5.035489531434267 40.000000000000014
  endloop
endfacet
facet normal 0.0 1.5407439555097887e-33 1.0
  outer loop
    vertex 51.20712657258312 -5.2024517435562805 40.000000000000014
    vertex 50.80546237429992 -5.275537026853335 40.000000000000014
    vertex 51.009591981913005 -5.257116926936634 40.000000000000014
  endloop
endfacet
facet normal 0.0 1.5407439555097887e-33 1.0
  outer loop
    vertex 50.80546237429992 -5.275537026853335 40.000000000000014
    vertex 51.20712657258312 -5.2024517435562805 40.000000000000014
    vertex 44.62652180219709 -5.275537026853332 40.000000000000014
  endloop
endfacet
facet normal 0.0 1.5407439555097887e-33 1.0
  outer loop
    vertex 44.62652180219709 -5.275537026853332 40.000000000000014
    vertex 51.20712657258312 -5.2024517435562805 40.000000000000014
    vertex 51.391684201096496 -5.113307598808919 40.000000000000014
  endloop
endfacet
facet normal 0.0 1.5407439555097887e-33 1.0
  outer loop
    vertex 44.62652180219709 -5.275537026853332 40.000000000000014
    vertex 51.391684201096496 -5.113307598808919 40.000000000000014
    vertex 51.55730218177889 -4.992564560666322 40.000000000000014
  endloop
endfacet
facet normal 0.0 1.5407439555097887e-33 1.0
  outer loop
    vertex 44.62652180219709 -5.275537026853332 40.000000000000014
    vertex 51.55730218177889 -4.992564560666322 40.000000000000014
    vertex 51.69862973087368 -4.84412359377349 40.000000000000014
  endloop
endfacet
facet normal 0.0 1.5407439555097887e-33 1.0
  outer loop
    vertex 44.62652180219709 -5.275537026853332 40.000000000000014
    vertex 51.69862973087368 -4.84412359377349 40.000000000000014
    vertex 51.811100839600016 -4.672780527129158 40.000000000000014
  endloop
endfacet
facet normal 0.0 1.5407439555097887e-33 1.0
  outer loop
    vertex 44.62652180219709 -5.275537026853332 40.000000000000014
    vertex 51.811100839600016 -4.672780527129158 40.000000000000014
    vertex 51.89108179271045 -4.4840711104993405 40.000000000000014
  endloop
endfacet
facet normal 0.0 1.5407439555097887e-33 1.0
  outer loop
    vertex 44.62652180219709 -5.275537026853332 40.000000000000014
    vertex 51.89108179271045 -4.4840711104993405 40.000000000000014
    vertex 51.93598856651998 -4.284092165479524 40.000000000000014
  endloop
endfacet
facet normal 0.0 1.5407439555097887e-33 1.0
  outer loop
    vertex 44.62652180219709 -5.275537026853332 40.000000000000014
    vertex 51.93598856651998 -4.284092165479524 40.000000000000014
    vertex 50.19582214135178 -2.9455030527502295 40.000000000000014
  endloop
endfacet
facet normal 0.0 1.5407439555097887e-33 1.0
  outer loop
    vertex 44.62652180219709 -5.275537026853332 40.000000000000014
    vertex 50.19582214135178 -2.9455030527502295 40.000000000000014
    vertex 42.994944399446425 7.117523740319272 40.000000000000014
  endloop
endfacet
facet normal 0.0 1.5407439555097887e-33 1.0
  outer loop
    vertex 50.19582214135178 -2.9455030527502295 40.000000000000014
    vertex 51.93598856651998 -4.284092165479524 40.000000000000014
    vertex 52.07956737796203 -3.1935028179683282 40.000000000000014
  endloop
endfacet
facet normal 0.0 1.5407439555097887e-33 1.0
  outer loop
    vertex 42.994944399446425 7.117523740319272 40.000000000000014
    vertex 50.19582214135178 -2.9455030527502295 40.000000000000014
    vertex 51.27918953677822 5.2834892966523865 40.000000000000014
  endloop
endfacet
facet normal 0.0 1.5407439555097887e-33 1.0
  outer loop
    vertex 42.994944399446425 7.117523740319272 40.000000000000014
    vertex 51.27918953677822 5.2834892966523865 40.000000000000014
    vertex 53.43703977705063 7.117523740319277 40.000000000000014
  endloop
endfacet
facet normal -0.7933533402912353 0.6087614290087205 -8.718400370651631e-17
  outer loop
    vertex 16.48185847659911 -8.189813554284305 -2.8199664825478975e-15
    vertex 11.260810787797041 -17.232933420029557 9.999999999999996
    vertex 16.48185847659911 -8.189813554284305 10.000000000000002
  endloop
endfacet
facet normal -0.9238795325112871 0.3826834323650894 -1.0700348686737196e-16
  outer loop
    vertex 11.260810787797041 -17.232933420029557 9.999999999999996
    vertex 16.48185847659911 -8.189813554284305 -2.8199664825478975e-15
    vertex 11.260810787797041 -17.232933420029557 -2.8199664825478975e-15
  endloop
endfacet
facet normal -0.9914448613738104 -0.13052619222005155 -1.2391240106987726e-16
  outer loop
    vertex 42.99494439944645 7.117523740319273 10.000000000000002
    vertex 44.62652180219709 -5.275537026853332 40.000000000000014
    vertex 42.994944399446425 7.117523740319272 40.000000000000014
  endloop
endfacet
facet normal -0.9914448613738104 -0.13052619222005155 -1.2391240106987726e-16
  outer loop
    vertex 44.62652180219709 -5.275537026853332 40.000000000000014
    vertex 42.99494439944645 7.117523740319273 10.000000000000002
    vertex 44.6265218021971 -5.275537026853331 10.000000000000002
  endloop
endfacet
facet normal -0.9238795325112866 -0.3826834323650905 -1.1984951755192833e-16
  outer loop
    vertex 11.260810787797059 -47.84760800923673 -2.8199664825478975e-15
    vertex 16.48185847659916 -56.89072787498196 9.999999999999996
    vertex 11.260810787797059 -47.84760800923673 9.999999999999996
  endloop
endfacet
facet normal -0.7933533402912346 -0.6087614290087213 -1.0761908747350779e-16
  outer loop
    vertex 16.48185847659916 -56.89072787498196 9.999999999999996
    vertex 11.260810787797059 -47.84760800923673 -2.8199664825478975e-15
    vertex 16.48185847659916 -56.89072787498196 -2.8199664825478975e-15
  endloop
endfacet
facet normal -1.179457423130548e-16 -7.234239003919382e-18 1.0
  outer loop
    vertex 63.523329318319874 -57.946957831963395 10.000000000000004
    vertex 51.80546237429992 -59.8050044024129 10.000000000000002
    vertex 64.93631681261694 -58.762746522271954 10.000000000000004
  endloop
endfacet
facet normal -1.179457423130548e-16 -7.234239003919382e-18 1.0
  outer loop
    vertex 51.80546237429992 -59.8050044024129 10.000000000000002
    vertex 63.523329318319874 -57.946957831963395 10.000000000000004
    vertex 58.739786478288494 -57.94695785869351 10.000000000000004
  endloop
endfacet
facet normal -1.179457423130548e-16 -7.234239003919382e-18 1.0
  outer loop
    vertex 58.739786478288494 -57.94695785869351 10.000000000000004
    vertex 63.523329318319874 -57.946957831963395 10.000000000000004
    vertex 61.94734655499939 -57.52467454317258 10.000000000000004
  endloop
endfacet
facet normal -1.179457423130548e-16 -7.234239003919382e-18 1.0
  outer loop
    vertex 58.739786478288494 -57.94695785869351 10.000000000000004
    vertex 61.94734655499939 -57.52467454317258 10.000000000000004
    vertex 60.315769144554096 -57.524674564445945 10.000000000000004
  endloop
endfacet
facet normal -1.179457423130548e-16 -7.234239003919382e-18 1.0
  outer loop
    vertex 44.6265218021971 -5.275537026853331 10.000000000000002
    vertex 35.7035180498328 -6.450272756833806 9.999999999999998
    vertex 37.692197698208524 -7.1335835705727435 9.999999999999998
  endloop
endfacet
facet normal -1.179457423130548e-16 -7.234239003919382e-18 1.0
  outer loop
    vertex 35.7035180498328 -6.450272756833806 9.999999999999998
    vertex 44.6265218021971 -5.275537026853331 10.000000000000002
    vertex 34.52878231985236 2.4727309955304984 9.999999999999998
  endloop
endfacet
facet normal -1.179457423130548e-16 -7.234239003919382e-18 1.0
  outer loop
    vertex 34.52878231985236 2.4727309955304984 9.999999999999998
    vertex 44.6265218021971 -5.275537026853331 10.000000000000002
    vertex 42.99494439944645 7.117523740319273 10.000000000000002
  endloop
endfacet
facet normal -1.179457423130548e-16 -7.234239003919382e-18 1.0
  outer loop
    vertex 34.52878231985236 2.4727309955304984 9.999999999999998
    vertex 42.99494439944645 7.117523740319273 10.000000000000002
    vertex 32.90865479364493 4.4149105858183235 9.999999999999998
  endloop
endfacet
facet normal -1.179457423130548e-16 -7.234239003919382e-18 1.0
  outer loop
    vertex 63.52332938285211 -69.49545201508457 10.000000000000004
    vertex 42.99494439944647 -72.19806516958552 9.999999999999998
    vertex 53.43703977705058 -72.19806516958552 10.000000000000002
  endloop
endfacet
facet normal -1.179457423130548e-16 -7.234239003919382e-18 1.0
  outer loop
    vertex 42.99494439944647 -72.19806516958552 9.999999999999998
    vertex 63.52332938285211 -69.49545201508457 10.000000000000004
    vertex 64.93631686803207 -68.67966330898463 10.000000000000004
  endloop
endfacet
facet normal -1.179457423130548e-16 -7.234239003919382e-18 1.0
  outer loop
    vertex 42.99494439944647 -72.19806516958552 9.999999999999998
    vertex 64.93631686803207 -68.67966330898463 10.000000000000004
    vertex 32.90865479364496 -69.49545201508457 10.000000000000002
  endloop
endfacet
facet normal -1.179457423130548e-16 -7.234239003919382e-18 1.0
  outer loop
    vertex 32.90865479364496 -69.49545201508457 10.000000000000002
    vertex 64.93631686803207 -68.67966330898463 10.000000000000004
    vertex 66.09001631683972 -67.52596385587907 10.000000000000004
  endloop
endfacet
facet normal -1.179457423130548e-16 -7.234239003919382e-18 1.0
  outer loop
    vertex 32.90865479364496 -69.49545201508457 10.000000000000002
    vertex 66.09001631683972 -67.52596385587907 10.000000000000004
    vertex 66.90580501767589 -66.11297636766008 10.000000000000004
  endloop
endfacet
facet normal -1.179457423130548e-16 -7.234239003919382e-18 1.0
  outer loop
    vertex 32.90865479364496 -69.49545201508457 10.000000000000002
    vertex 66.90580501767589 -66.11297636766008 10.000000000000004
    vertex 67.32808831820867 -64.53699360748587 10.000000000000004
  endloop
endfacet
facet normal -1.179457423130548e-16 -7.234239003919382e-18 1.0
  outer loop
    vertex 32.90865479364496 -69.49545201508457 10.000000000000002
    vertex 67.32808831820867 -64.53699360748587 10.000000000000004
    vertex 23.865534927899738 -64.27440432628251 10.000000000000002
  endloop
endfacet
facet normal -1.179457423130548e-16 -7.234239003919382e-18 1.0
  outer loop
    vertex 23.865534927899738 -64.27440432628251 10.000000000000002
    vertex 67.32808831820867 -64.53699360748587 10.000000000000004
    vertex 67.32808830909153 -62.9054161970406 10.000000000000004
  endloop
endfacet
facet normal -1.179457423130548e-16 -7.234239003919382e-18 1.0
  outer loop
    vertex 23.865534927899738 -64.27440432628251 10.000000000000002
    vertex 67.32808830909153 -62.9054161970406 10.000000000000004
    vertex 66.90580499094575 -61.32943344158574 10.000000000000004
  endloop
endfacet
facet normal -1.179457423130548e-16 -7.234239003919382e-18 1.0
  outer loop
    vertex 23.865534927899738 -64.27440432628251 10.000000000000002
    vertex 66.90580499094575 -61.32943344158574 10.000000000000004
    vertex 66.09001627431824 -59.91644596248392 10.000000000000004
  endloop
endfacet
facet normal -1.179457423130548e-16 -7.234239003919382e-18 1.0
  outer loop
    vertex 23.865534927899738 -64.27440432628251 10.000000000000002
    vertex 66.09001627431824 -59.91644596248392 10.000000000000004
    vertex 64.93631681261694 -58.762746522271954 10.000000000000004
  endloop
endfacet
facet normal -1.179457423130548e-16 -7.234239003919382e-18 1.0
  outer loop
    vertex 23.865534927899738 -64.27440432628251 10.000000000000002
    vertex 64.93631681261694 -58.762746522271954 10.000000000000004
    vertex 51.80546237429992 -59.8050044024129 10.000000000000002
  endloop
endfacet
facet normal -1.179457423130548e-16 -7.234239003919382e-18 1.0
  outer loop
    vertex 23.865534927899738 -64.27440432628251 10.000000000000002
    vertex 51.80546237429992 -59.8050044024129 10.000000000000002
    vertex 44.626521802197104 -59.805004402412905 9.999999999999998
  endloop
endfacet
facet normal -1.179457423130548e-16 -7.234239003919382e-18 1.0
  outer loop
    vertex 23.865534927899738 -64.27440432628251 10.000000000000002
    vertex 44.626521802197104 -59.805004402412905 9.999999999999998
    vertex 16.48185847659916 -56.89072787498196 9.999999999999996
  endloop
endfacet
facet normal -1.179457423130548e-16 -7.234239003919382e-18 1.0
  outer loop
    vertex 16.48185847659916 -56.89072787498196 9.999999999999996
    vertex 44.626521802197104 -59.805004402412905 9.999999999999998
    vertex 37.69219769820856 -57.94695785869345 9.999999999999998
  endloop
endfacet
facet normal -1.179457423130548e-16 -7.234239003919382e-18 1.0
  outer loop
    vertex 16.48185847659916 -56.89072787498196 9.999999999999996
    vertex 37.69219769820856 -57.94695785869345 9.999999999999998
    vertex 31.475052790508705 -54.35748757264202 10.000000000000002
  endloop
endfacet
facet normal -1.179457423130548e-16 -7.234239003919382e-18 1.0
  outer loop
    vertex 16.48185847659916 -56.89072787498196 9.999999999999996
    vertex 31.475052790508705 -54.35748757264202 10.000000000000002
    vertex 11.260810787797059 -47.84760800923673 9.999999999999996
  endloop
endfacet
facet normal -1.179457423130548e-16 -7.234239003919382e-18 1.0
  outer loop
    vertex 11.260810787797059 -47.84760800923673 9.999999999999996
    vertex 31.475052790508705 -54.35748757264202 10.000000000000002
    vertex 26.39877523023955 -49.281210012372924 10.000000000000002
  endloop
endfacet
facet normal -1.179457423130548e-16 -7.234239003919382e-18 1.0
  outer loop
    vertex 11.260810787797059 -47.84760800923673 9.999999999999996
    vertex 26.39877523023955 -49.281210012372924 10.000000000000002
    vertex 22.80930494418814 -43.06406510467314 10.000000000000002
  endloop
endfacet
facet normal -1.179457423130548e-16 -7.234239003919382e-18 1.0
  outer loop
    vertex 11.260810787797059 -47.84760800923673 9.999999999999996
    vertex 22.80930494418814 -43.06406510467314 10.000000000000002
    vertex 8.55819763329612 -37.761318403435205 9.999999999999996
  endloop
endfacet
facet normal -1.179457423130548e-16 -7.234239003919382e-18 1.0
  outer loop
    vertex 8.55819763329612 -37.761318403435205 9.999999999999996
    vertex 22.80930494418814 -43.06406510467314 10.000000000000002
    vertex 20.951258400468728 -36.12974100068454 10.000000000000002
  endloop
endfacet
facet normal -1.179457423130548e-16 -7.234239003919382e-18 1.0
  outer loop
    vertex 8.55819763329612 -37.761318403435205 9.999999999999996
    vertex 20.951258400468728 -36.12974100068454 10.000000000000002
    vertex 8.558197633296102 -27.31922302583108 9.999999999999996
  endloop
endfacet
facet normal -1.179457423130548e-16 -7.234239003919382e-18 1.0
  outer loop
    vertex 8.558197633296102 -27.31922302583108 9.999999999999996
    vertex 20.951258400468728 -36.12974100068454 10.000000000000002
    vertex 20.951258400468728 -28.950800428581708 10.000000000000002
  endloop
endfacet
facet normal -1.179457423130548e-16 -7.234239003919382e-18 1.0
  outer loop
    vertex 8.558197633296102 -27.31922302583108 9.999999999999996
    vertex 20.951258400468728 -28.950800428581708 10.000000000000002
    vertex 22.809304944188135 -22.016476324593167 10.000000000000002
  endloop
endfacet
facet normal -1.179457423130548e-16 -7.234239003919382e-18 1.0
  outer loop
    vertex 8.558197633296102 -27.31922302583108 9.999999999999996
    vertex 22.809304944188135 -22.016476324593167 10.000000000000002
    vertex 11.260810787797041 -17.232933420029557 9.999999999999996
  endloop
endfacet
facet normal -1.179457423130548e-16 -7.234239003919382e-18 1.0
  outer loop
    vertex 11.260810787797041 -17.232933420029557 9.999999999999996
    vertex 22.809304944188135 -22.016476324593167 10.000000000000002
    vertex 26.39877523023955 -15.799331416893303 10.000000000000002
  endloop
endfacet
facet normal -1.179457423130548e-16 -7.234239003919382e-18 1.0
  outer loop
    vertex 11.260810787797041 -17.232933420029557 9.999999999999996
    vertex 26.39877523023955 -15.799331416893303 10.000000000000002
    vertex 31.47505279050868 -10.723053856624164 9.999999999999998
  endloop
endfacet
facet normal -1.179457423130548e-16 -7.234239003919382e-18 1.0
  outer loop
    vertex 11.260810787797041 -17.232933420029557 9.999999999999996
    vertex 31.47505279050868 -10.723053856624164 9.999999999999998
    vertex 16.48185847659911 -8.189813554284305 10.000000000000002
  endloop
endfacet
facet normal -1.179457423130548e-16 -7.234239003919382e-18 1.0
  outer loop
    vertex 16.48185847659911 -8.189813554284305 10.000000000000002
    vertex 31.47505279050868 -10.723053856624164 9.999999999999998
    vertex 37.692197698208524 -7.1335835705727435 9.999999999999998
  endloop
endfacet
facet normal -1.179457423130548e-16 -7.234239003919382e-18 1.0
  outer loop
    vertex 16.48185847659911 -8.189813554284305 10.000000000000002
    vertex 37.692197698208524 -7.1335835705727435 9.999999999999998
    vertex 32.7291834657114 -6.841851333493952 9.999999999999998
  endloop
endfacet
facet normal -1.179457423130548e-16 -7.234239003919382e-18 1.0
  outer loop
    vertex 32.7291834657114 -6.841851333493952 9.999999999999998
    vertex 37.692197698208524 -7.1335835705727435 9.999999999999998
    vertex 35.7035180498328 -6.450272756833806 9.999999999999998
  endloop
endfacet
facet normal -1.179457423130548e-16 -7.234239003919382e-18 1.0
  outer loop
    vertex 16.48185847659911 -8.189813554284305 10.000000000000002
    vertex 32.7291834657114 -6.841851333493952 9.999999999999998
    vertex 31.554447735730914 2.0811524188703387 9.999999999999998
  endloop
endfacet
facet normal -1.179457423130548e-16 -7.234239003919382e-18 1.0
  outer loop
    vertex 16.48185847659911 -8.189813554284305 10.000000000000002
    vertex 31.554447735730914 2.0811524188703387 9.999999999999998
    vertex 23.865534927899695 -0.8061371029837329 10.000000000000002
  endloop
endfacet
facet normal -1.179457423130548e-16 -7.234239003919382e-18 1.0
  outer loop
    vertex 23.865534927899695 -0.8061371029837329 10.000000000000002
    vertex 31.554447735730914 2.0811524188703387 9.999999999999998
    vertex 32.90865479364493 4.4149105858183235 9.999999999999998
  endloop
endfacet
facet normal -1.179457423130548e-16 -7.234239003919382e-18 1.0
  outer loop
    vertex 32.90865479364493 4.4149105858183235 9.999999999999998
    vertex 31.554447735730914 2.0811524188703387 9.999999999999998
    vertex 34.52878231985236 2.4727309955304984 9.999999999999998
  endloop
endfacet
facet normal -0.08693379232503978 0.996214091323741 6.04757249997129e-18
  outer loop
    vertex 42.99494439944645 7.117523740319273 10.000000000000002
    vertex 32.90865479364493 4.414910585818323 8.459899447643692e-15
    vertex 32.90865479364493 4.4149105858183235 9.999999999999998
  endloop
endfacet
facet normal -0.38268343236509045 0.9238795325112865 -3.1476264797120404e-17
  outer loop
    vertex 32.90865479364493 4.414910585818323 8.459899447643692e-15
    vertex 42.99494439944645 7.117523740319273 10.000000000000002
    vertex 42.99494439944645 7.117523740319273 1.4099832412739487e-15
  endloop
endfacet
facet normal -0.9914448613738105 0.13052619222005124 -1.195308592298391e-16
  outer loop
    vertex 8.558197633296102 -27.31922302583108 -2.8199664825478975e-15
    vertex 8.55819763329612 -37.761318403435205 9.999999999999996
    vertex 8.558197633296102 -27.31922302583108 9.999999999999996
  endloop
endfacet
facet normal -0.9914448613738104 -0.13052619222005185 -1.239124010698773e-16
  outer loop
    vertex 8.55819763329612 -37.761318403435205 9.999999999999996
    vertex 8.558197633296102 -27.31922302583108 -2.8199664825478975e-15
    vertex 8.558197633296125 -37.7613184034352 -4.229949723821846e-15
  endloop
endfacet
facet normal 0.1305261922200516 -0.9914448613738104 -1.0030186140690404e-17
  outer loop
    vertex 53.43703977705058 -72.19806516958552 1.4099832412739487e-15
    vertex 42.99494439944647 -72.19806516958552 9.999999999999998
    vertex 42.99494439944647 -72.19806516958552 8.459899447643692e-15
  endloop
endfacet
facet normal -0.13052619222005118 -0.9914448613738105 -3.266551384541208e-17
  outer loop
    vertex 42.99494439944647 -72.19806516958552 9.999999999999998
    vertex 53.43703977705058 -72.19806516958552 1.4099832412739487e-15
    vertex 53.43703977705058 -72.19806516958552 10.000000000000002
  endloop
endfacet
facet normal 0.6087614290087214 -0.7933533402912346 6.142307477143994e-17
  outer loop
    vertex 31.47505279050866 -10.723053856624166 7.049916206369744e-15
    vertex 26.39877523023955 -15.799331416893303 10.000000000000002
    vertex 26.398775230239544 -15.799331416893303 -1.4099832412739487e-15
  endloop
endfacet
facet normal 0.7933533402912353 -0.6087614290087204 8.718400370651626e-17
  outer loop
    vertex 26.39877523023955 -15.799331416893303 10.000000000000002
    vertex 31.47505279050866 -10.723053856624166 7.049916206369744e-15
    vertex 31.47505279050868 -10.723053856624164 9.999999999999998
  endloop
endfacet
facet normal -0.9238795325112871 0.38268343236508917 -1.0700348686737198e-16
  outer loop
    vertex 11.260810787797041 -17.232933420029557 -2.8199664825478975e-15
    vertex 8.558197633296102 -27.31922302583108 9.999999999999996
    vertex 11.260810787797041 -17.232933420029557 9.999999999999996
  endloop
endfacet
facet normal -0.9914448613738105 0.13052619222005124 -1.1953085922983908e-16
  outer loop
    vertex 8.558197633296102 -27.31922302583108 9.999999999999996
    vertex 11.260810787797041 -17.232933420029557 -2.8199664825478975e-15
    vertex 8.558197633296102 -27.31922302583108 -2.8199664825478975e-15
  endloop
endfacet
facet normal 0.9913338598534391 -0.13136644897228408 -0.00018545213497393872
  outer loop
    vertex 51.89108179271045 -4.484071110499341 1.2689849171465539e-14
    vertex 51.93598856651998 -4.284092165479524 40.000000000000014
    vertex 51.89108179271045 -4.4840711104993405 40.000000000000014
  endloop
endfacet
facet normal 0.9913338598534391 -0.13136644897228408 -0.00018545213497393872
  outer loop
    vertex 51.93598856651998 -4.284092165479524 40.000000000000014
    vertex 51.89108179271045 -4.484071110499341 1.2689849171465539e-14
    vertex 52.07956737796203 -3.1935028179683282 40.000000000000014
  endloop
endfacet
facet normal 0.9913338598534391 -0.13136644897228408 -0.00018545213497393872
  outer loop
    vertex 52.07956737796203 -3.1935028179683282 40.000000000000014
    vertex 51.89108179271045 -4.484071110499341 1.2689849171465539e-14
    vertex 53.16293477338846 5.035489531434267 40.000000000000014
  endloop
endfacet
facet normal 0.9913338598534391 -0.13136644897228408 -0.00018545213497393872
  outer loop
    vertex 53.16293477338846 5.035489531434267 40.000000000000014
    vertex 51.89108179271045 -4.484071110499341 1.2689849171465539e-14
    vertex 53.43703977705063 7.117523740319277 40.000000000000014
  endloop
endfacet
facet normal 0.9913338598534391 -0.13136644897228408 -0.00018545213497393872
  outer loop
    vertex 53.43703977705063 7.117523740319277 40.000000000000014
    vertex 51.89108179271045 -4.484071110499341 1.2689849171465539e-14
    vertex 53.437039777050636 7.117523740319279 1.4099832412739487e-15
  endloop
endfacet
facet normal 0.9913338598534391 -0.13136644897228408 -0.00018545213497393872
  outer loop
    vertex 52.07956737796203 -3.1935028179683282 40.000000000000014
    vertex 53.16293477338846 5.035489531434267 44.80000000000002
    vertex 52.07956737796203 -3.1935028179683282 44.80000000000002
  endloop
endfacet
facet normal 0.9913338598534391 -0.13136644897228408 -0.00018545213497393872
  outer loop
    vertex 53.16293477338846 5.035489531434267 44.80000000000002
    vertex 52.07956737796203 -3.1935028179683282 40.000000000000014
    vertex 53.16293477338846 5.035489531434267 40.000000000000014
  endloop
endfacet
facet normal 0.25881904510252063 -0.9659258262890684 -3.1046050775136377e-18
  outer loop
    vertex 63.52332938285211 -69.49545201508457 1.4099832412739487e-15
    vertex 53.43703977705058 -72.19806516958552 10.000000000000002
    vertex 53.43703977705058 -72.19806516958552 1.4099832412739487e-15
  endloop
endfacet
facet normal 0.1305261922200516 -0.9914448613738104 -1.0030186140690401e-17
  outer loop
    vertex 53.43703977705058 -72.19806516958552 10.000000000000002
    vertex 63.52332938285211 -69.49545201508457 1.4099832412739487e-15
    vertex 63.52332938285211 -69.49545201508457 10.000000000000004
  endloop
endfacet
facet normal 0.9914448613738105 -0.13052619222005113 1.1953085922983905e-16
  outer loop
    vertex 20.95125840046872 -28.950800428581708 -2.8199664825478975e-15
    vertex 22.809304944188135 -22.016476324593167 10.000000000000002
    vertex 20.951258400468728 -28.950800428581708 10.000000000000002
  endloop
endfacet
facet normal 0.923879532511287 -0.3826834323650895 1.0700348686737196e-16
  outer loop
    vertex 22.809304944188135 -22.016476324593167 10.000000000000002
    vertex 20.95125840046872 -28.950800428581708 -2.8199664825478975e-15
    vertex 22.809304944188124 -22.016476324593167 -1.4099832412739487e-15
  endloop
endfacet
facet normal -0.9914448613738104 -0.13052619222005185 -1.239124010698773e-16
  outer loop
    vertex 8.558197633296125 -37.7613184034352 -4.229949723821846e-15
    vertex 11.260810787797059 -47.84760800923673 9.999999999999996
    vertex 8.55819763329612 -37.761318403435205 9.999999999999996
  endloop
endfacet
facet normal -0.9238795325112865 -0.3826834323650905 -1.198495175519283e-16
  outer loop
    vertex 11.260810787797059 -47.84760800923673 9.999999999999996
    vertex 8.558197633296125 -37.7613184034352 -4.229949723821846e-15
    vertex 11.260810787797059 -47.84760800923673 -2.8199664825478975e-15
  endloop
endfacet
facet normal 0.0 6.162975822039155e-33 1.0
  outer loop
    vertex 53.16293477338846 5.035489531434267 44.80000000000002
    vertex 50.19582214135178 -2.9455030527502295 44.80000000000002
    vertex 52.07956737796203 -3.1935028179683282 44.80000000000002
  endloop
endfacet
facet normal 0.0 6.162975822039155e-33 1.0
  outer loop
    vertex 50.19582214135178 -2.9455030527502295 44.80000000000002
    vertex 53.16293477338846 5.035489531434267 44.80000000000002
    vertex 51.27918953677822 5.2834892966523865 44.80000000000002
  endloop
endfacet
facet normal 0.13052619222005912 0.9914448613738095 -6.162975822039155e-33
  outer loop
    vertex 53.16293477338846 5.035489531434267 44.80000000000002
    vertex 51.27918953677822 5.2834892966523865 40.000000000000014
    vertex 51.27918953677822 5.2834892966523865 44.80000000000002
  endloop
endfacet
facet normal 0.13052619222005912 0.9914448613738095 -6.162975822039155e-33
  outer loop
    vertex 51.27918953677822 5.2834892966523865 40.000000000000014
    vertex 53.16293477338846 5.035489531434267 44.80000000000002
    vertex 53.16293477338846 5.035489531434267 40.000000000000014
  endloop
endfacet
facet normal -0.9914448613738105 0.13052619222005124 0.0
  outer loop
    vertex 51.27918953677822 5.2834892966523865 40.000000000000014
    vertex 50.19582214135178 -2.9455030527502295 44.80000000000002
    vertex 51.27918953677822 5.2834892966523865 44.80000000000002
  endloop
endfacet
facet normal -0.9914448613738105 0.13052619222005124 0.0
  outer loop
    vertex 50.19582214135178 -2.9455030527502295 44.80000000000002
    vertex 51.27918953677822 5.2834892966523865 40.000000000000014
    vertex 50.19582214135178 -2.9455030527502295 40.000000000000014
  endloop
endfacet
facet normal -0.13052619222005377 -0.9914448613738103 -9.244463733058732e-33
  outer loop
    vertex 52.07956737796203 -3.1935028179683282 40.000000000000014
    vertex 50.19582214135178 -2.9455030527502295 44.80000000000002
    vertex 50.19582214135178 -2.9455030527502295 40.000000000000014
  endloop
endfacet
facet normal -0.13052619222005377 -0.9914448613738103 -9.244463733058732e-33
  outer loop
    vertex 50.19582214135178 -2.9455030527502295 44.80000000000002
    vertex 52.07956737796203 -3.1935028179683282 40.000000000000014
    vertex 52.07956737796203 -3.1935028179683282 44.80000000000002
  endloop
endfacet
facet normal 1.7728017499957304e-16 4.985774807210752e-17 -1.0
  outer loop
    vertex 42.99494439944647 -72.19806516958552 8.459899447643692e-15
    vertex 63.52332938285211 -69.49545201508457 1.4099832412739487e-15
    vertex 53.43703977705058 -72.19806516958552 1.4099832412739487e-15
  endloop
endfacet
facet normal 1.7728017499957304e-16 4.985774807210752e-17 -1.0
  outer loop
    vertex 63.52332938285211 -69.49545201508457 1.4099832412739487e-15
    vertex 42.99494439944647 -72.19806516958552 8.459899447643692e-15
    vertex 32.90865479364496 -69.49545201508457 -1.4099832412739487e-15
  endloop
endfacet
facet normal 1.7728017499957304e-16 4.985774807210752e-17 -1.0
  outer loop
    vertex 63.52332938285211 -69.49545201508457 1.4099832412739487e-15
    vertex 32.90865479364496 -69.49545201508457 -1.4099832412739487e-15
    vertex 64.93631686803204 -68.67966330898464 4.229949723821846e-15
  endloop
endfacet
facet normal 1.7728017499957304e-16 4.985774807210752e-17 -1.0
  outer loop
    vertex 64.93631686803204 -68.67966330898464 4.229949723821846e-15
    vertex 32.90865479364496 -69.49545201508457 -1.4099832412739487e-15
    vertex 66.09001631683972 -67.52596385587907 4.229949723821846e-15
  endloop
endfacet
facet normal 1.7728017499957304e-16 4.985774807210752e-17 -1.0
  outer loop
    vertex 66.09001631683972 -67.52596385587907 4.229949723821846e-15
    vertex 32.90865479364496 -69.49545201508457 -1.4099832412739487e-15
    vertex 66.90580501767587 -66.11297636766008 4.229949723821846e-15
  endloop
endfacet
facet normal 1.7728017499957304e-16 4.985774807210752e-17 -1.0
  outer loop
    vertex 66.90580501767587 -66.11297636766008 4.229949723821846e-15
    vertex 32.90865479364496 -69.49545201508457 -1.4099832412739487e-15
    vertex 67.32808831820867 -64.53699360748587 4.229949723821846e-15
  endloop
endfacet
facet normal 1.7728017499957304e-16 4.985774807210752e-17 -1.0
  outer loop
    vertex 67.32808831820867 -64.53699360748587 4.229949723821846e-15
    vertex 32.90865479364496 -69.49545201508457 -1.4099832412739487e-15
    vertex 23.865534927899706 -64.27440432628251 -2.8199664825478975e-15
  endloop
endfacet
facet normal 1.7728017499957304e-16 4.985774807210752e-17 -1.0
  outer loop
    vertex 67.32808831820867 -64.53699360748587 4.229949723821846e-15
    vertex 23.865534927899706 -64.27440432628251 -2.8199664825478975e-15
    vertex 67.3280883090915 -62.905416197040594 4.229949723821846e-15
  endloop
endfacet
facet normal 1.7728017499957304e-16 4.985774807210752e-17 -1.0
  outer loop
    vertex 67.3280883090915 -62.905416197040594 4.229949723821846e-15
    vertex 23.865534927899706 -64.27440432628251 -2.8199664825478975e-15
    vertex 66.90580499094575 -61.32943344158574 4.229949723821846e-15
  endloop
endfacet
facet normal 1.7728017499957304e-16 4.985774807210752e-17 -1.0
  outer loop
    vertex 66.90580499094575 -61.32943344158574 4.229949723821846e-15
    vertex 23.865534927899706 -64.27440432628251 -2.8199664825478975e-15
    vertex 66.09001627431824 -59.91644596248392 4.229949723821846e-15
  endloop
endfacet
facet normal 1.7728017499957304e-16 4.985774807210752e-17 -1.0
  outer loop
    vertex 66.09001627431824 -59.91644596248392 4.229949723821846e-15
    vertex 23.865534927899706 -64.27440432628251 -2.8199664825478975e-15
    vertex 64.93631681261694 -58.762746522271954 4.229949723821846e-15
  endloop
endfacet
facet normal 1.7728017499957304e-16 4.985774807210752e-17 -1.0
  outer loop
    vertex 64.93631681261694 -58.762746522271954 4.229949723821846e-15
    vertex 23.865534927899706 -64.27440432628251 -2.8199664825478975e-15
    vertex 51.80546237429994 -59.8050044024129 1.4099832412739487e-15
  endloop
endfacet
facet normal 1.7728017499957304e-16 4.985774807210752e-17 -1.0
  outer loop
    vertex 51.80546237429994 -59.8050044024129 1.4099832412739487e-15
    vertex 23.865534927899706 -64.27440432628251 -2.8199664825478975e-15
    vertex 44.626521802197104 -59.805004402412905 0.0
  endloop
endfacet
facet normal 1.7728017499957304e-16 4.985774807210752e-17 -1.0
  outer loop
    vertex 44.626521802197104 -59.805004402412905 0.0
    vertex 23.865534927899706 -64.27440432628251 -2.8199664825478975e-15
    vertex 16.48185847659916 -56.89072787498196 -2.8199664825478975e-15
  endloop
endfacet
facet normal 1.7728017499957304e-16 4.985774807210752e-17 -1.0
  outer loop
    vertex 44.626521802197104 -59.805004402412905 0.0
    vertex 16.48185847659916 -56.89072787498196 -2.8199664825478975e-15
    vertex 37.69219769820856 -57.94695785869345 7.049916206369744e-15
  endloop
endfacet
facet normal 1.7728017499957304e-16 4.985774807210752e-17 -1.0
  outer loop
    vertex 37.69219769820856 -57.94695785869345 7.049916206369744e-15
    vertex 16.48185847659916 -56.89072787498196 -2.8199664825478975e-15
    vertex 31.475052790508705 -54.35748757264202 -1.4099832412739487e-15
  endloop
endfacet
facet normal 1.7728017499957304e-16 4.985774807210752e-17 -1.0
  outer loop
    vertex 31.475052790508705 -54.35748757264202 -1.4099832412739487e-15
    vertex 16.48185847659916 -56.89072787498196 -2.8199664825478975e-15
    vertex 11.260810787797059 -47.84760800923673 -2.8199664825478975e-15
  endloop
endfacet
facet normal 1.7728017499957304e-16 4.985774807210752e-17 -1.0
  outer loop
    vertex 31.475052790508705 -54.35748757264202 -1.4099832412739487e-15
    vertex 11.260810787797059 -47.84760800923673 -2.8199664825478975e-15
    vertex 26.39877523023955 -49.281210012372924 -1.4099832412739487e-15
  endloop
endfacet
facet normal 1.7728017499957304e-16 4.985774807210752e-17 -1.0
  outer loop
    vertex 26.39877523023955 -49.281210012372924 -1.4099832412739487e-15
    vertex 11.260810787797059 -47.84760800923673 -2.8199664825478975e-15
    vertex 22.809304944188135 -43.06406510467314 -2.8199664825478975e-15
  endloop
endfacet
facet normal 1.7728017499957304e-16 4.985774807210752e-17 -1.0
  outer loop
    vertex 22.809304944188135 -43.06406510467314 -2.8199664825478975e-15
    vertex 11.260810787797059 -47.84760800923673 -2.8199664825478975e-15
    vertex 8.558197633296125 -37.7613184034352 -4.229949723821846e-15
  endloop
endfacet
facet normal 1.7728017499957304e-16 4.985774807210752e-17 -1.0
  outer loop
    vertex 22.809304944188135 -43.06406510467314 -2.8199664825478975e-15
    vertex 8.558197633296125 -37.7613184034352 -4.229949723821846e-15
    vertex 20.95125840046872 -36.12974100068454 -2.8199664825478975e-15
  endloop
endfacet
facet normal 1.7728017499957304e-16 4.985774807210752e-17 -1.0
  outer loop
    vertex 20.95125840046872 -36.12974100068454 -2.8199664825478975e-15
    vertex 8.558197633296125 -37.7613184034352 -4.229949723821846e-15
    vertex 8.558197633296102 -27.31922302583108 -2.8199664825478975e-15
  endloop
endfacet
facet normal 1.7728017499957304e-16 4.985774807210752e-17 -1.0
  outer loop
    vertex 20.95125840046872 -36.12974100068454 -2.8199664825478975e-15
    vertex 8.558197633296102 -27.31922302583108 -2.8199664825478975e-15
    vertex 20.95125840046872 -28.950800428581708 -2.8199664825478975e-15
  endloop
endfacet
facet normal 1.7728017499957304e-16 4.985774807210752e-17 -1.0
  outer loop
    vertex 20.95125840046872 -28.950800428581708 -2.8199664825478975e-15
    vertex 8.558197633296102 -27.31922302583108 -2.8199664825478975e-15
    vertex 22.809304944188124 -22.016476324593167 -1.4099832412739487e-15
  endloop
endfacet
facet normal 1.7728017499957304e-16 4.985774807210752e-17 -1.0
  outer loop
    vertex 22.809304944188124 -22.016476324593167 -1.4099832412739487e-15
    vertex 8.558197633296102 -27.31922302583108 -2.8199664825478975e-15
    vertex 11.260810787797041 -17.232933420029557 -2.8199664825478975e-15
  endloop
endfacet
facet normal 1.7728017499957304e-16 4.985774807210752e-17 -1.0
  outer loop
    vertex 22.809304944188124 -22.016476324593167 -1.4099832412739487e-15
    vertex 11.260810787797041 -17.232933420029557 -2.8199664825478975e-15
    vertex 26.398775230239544 -15.799331416893303 -1.4099832412739487e-15
  endloop
endfacet
facet normal 1.7728017499957304e-16 4.985774807210752e-17 -1.0
  outer loop
    vertex 26.398775230239544 -15.799331416893303 -1.4099832412739487e-15
    vertex 11.260810787797041 -17.232933420029557 -2.8199664825478975e-15
    vertex 31.47505279050866 -10.723053856624166 7.049916206369744e-15
  endloop
endfacet
facet normal 1.7728017499957304e-16 4.985774807210752e-17 -1.0
  outer loop
    vertex 31.47505279050866 -10.723053856624166 7.049916206369744e-15
    vertex 11.260810787797041 -17.232933420029557 -2.8199664825478975e-15
    vertex 16.48185847659911 -8.189813554284305 -2.8199664825478975e-15
  endloop
endfacet
facet normal 1.7728017499957304e-16 4.985774807210752e-17 -1.0
  outer loop
    vertex 31.47505279050866 -10.723053856624166 7.049916206369744e-15
    vertex 16.48185847659911 -8.189813554284305 -2.8199664825478975e-15
    vertex 37.692197698208524 -7.1335835705727435 0.0
  endloop
endfacet
facet normal 1.7728017499957304e-16 4.985774807210752e-17 -1.0
  outer loop
    vertex 37.692197698208524 -7.1335835705727435 0.0
    vertex 16.48185847659911 -8.189813554284305 -2.8199664825478975e-15
    vertex 44.6265218021971 -5.275537026853331 1.4099832412739487e-15
  endloop
endfacet
facet normal 1.7728017499957304e-16 4.985774807210752e-17 -1.0
  outer loop
    vertex 44.6265218021971 -5.275537026853331 1.4099832412739487e-15
    vertex 51.20712657258313 -5.2024517435562805 1.2689849171465539e-14
    vertex 51.00959198191301 -5.257116926936634 1.2689849171465539e-14
  endloop
endfacet
facet normal 1.7728017499957304e-16 4.985774807210752e-17 -1.0
  outer loop
    vertex 51.20712657258313 -5.2024517435562805 1.2689849171465539e-14
    vertex 44.6265218021971 -5.275537026853331 1.4099832412739487e-15
    vertex 51.391684201096496 -5.113307598808918 1.2689849171465539e-14
  endloop
endfacet
facet normal 1.7728017499957304e-16 4.985774807210752e-17 -1.0
  outer loop
    vertex 51.391684201096496 -5.113307598808918 1.2689849171465539e-14
    vertex 44.6265218021971 -5.275537026853331 1.4099832412739487e-15
    vertex 51.5573021817789 -4.992564560666322 1.2689849171465539e-14
  endloop
endfacet
facet normal 1.7728017499957304e-16 4.985774807210752e-17 -1.0
  outer loop
    vertex 51.5573021817789 -4.992564560666322 1.2689849171465539e-14
    vertex 44.6265218021971 -5.275537026853331 1.4099832412739487e-15
    vertex 51.69862973087368 -4.844123593773489 1.2689849171465539e-14
  endloop
endfacet
facet normal 1.7728017499957304e-16 4.985774807210752e-17 -1.0
  outer loop
    vertex 51.69862973087368 -4.844123593773489 1.2689849171465539e-14
    vertex 44.6265218021971 -5.275537026853331 1.4099832412739487e-15
    vertex 51.81110083960002 -4.672780527129158 1.2689849171465539e-14
  endloop
endfacet
facet normal 1.7728017499957304e-16 4.985774807210752e-17 -1.0
  outer loop
    vertex 51.81110083960002 -4.672780527129158 1.2689849171465539e-14
    vertex 44.6265218021971 -5.275537026853331 1.4099832412739487e-15
    vertex 51.89108179271045 -4.484071110499341 1.2689849171465539e-14
  endloop
endfacet
facet normal 1.7728017499957304e-16 4.985774807210752e-17 -1.0
  outer loop
    vertex 51.89108179271045 -4.484071110499341 1.2689849171465539e-14
    vertex 44.6265218021971 -5.275537026853331 1.4099832412739487e-15
    vertex 53.437039777050636 7.117523740319279 1.4099832412739487e-15
  endloop
endfacet
facet normal 1.7728017499957304e-16 4.985774807210752e-17 -1.0
  outer loop
    vertex 53.437039777050636 7.117523740319279 1.4099832412739487e-15
    vertex 44.6265218021971 -5.275537026853331 1.4099832412739487e-15
    vertex 16.48185847659911 -8.189813554284305 -2.8199664825478975e-15
  endloop
endfacet
facet normal 1.7728017499957304e-16 4.985774807210752e-17 -1.0
  outer loop
    vertex 53.437039777050636 7.117523740319279 1.4099832412739487e-15
    vertex 16.48185847659911 -8.189813554284305 -2.8199664825478975e-15
    vertex 23.865534927899684 -0.8061371029837293 -1.4099832412739487e-15
  endloop
endfacet
facet normal 1.7728017499957304e-16 4.985774807210752e-17 -1.0
  outer loop
    vertex 53.437039777050636 7.117523740319279 1.4099832412739487e-15
    vertex 23.865534927899684 -0.8061371029837293 -1.4099832412739487e-15
    vertex 32.90865479364493 4.414910585818323 8.459899447643692e-15
  endloop
endfacet
facet normal 1.7728017499957304e-16 4.985774807210752e-17 -1.0
  outer loop
    vertex 53.437039777050636 7.117523740319279 1.4099832412739487e-15
    vertex 32.90865479364493 4.414910585818323 8.459899447643692e-15
    vertex 42.99494439944645 7.117523740319273 1.4099832412739487e-15
  endloop
endfacet
facet normal 1.7728017499957304e-16 4.985774807210752e-17 -1.0
  outer loop
    vertex 51.80546237429994 -59.8050044024129 1.4099832412739487e-15
    vertex 63.52332931831986 -57.946957831963395 4.229949723821846e-15
    vertex 64.93631681261694 -58.762746522271954 4.229949723821846e-15
  endloop
endfacet
facet normal 1.7728017499957304e-16 4.985774807210752e-17 -1.0
  outer loop
    vertex 63.52332931831986 -57.946957831963395 4.229949723821846e-15
    vertex 51.80546237429994 -59.8050044024129 1.4099832412739487e-15
    vertex 58.739786478288494 -57.94695785869351 9.86988268891764e-15
  endloop
endfacet
facet normal 1.7728017499957304e-16 4.985774807210752e-17 -1.0
  outer loop
    vertex 63.52332931831986 -57.946957831963395 4.229949723821846e-15
    vertex 58.739786478288494 -57.94695785869351 9.86988268891764e-15
    vertex 61.94734655499939 -57.52467454317258 4.229949723821846e-15
  endloop
endfacet
facet normal 1.7728017499957304e-16 4.985774807210752e-17 -1.0
  outer loop
    vertex 61.94734655499939 -57.52467454317258 4.229949723821846e-15
    vertex 58.739786478288494 -57.94695785869351 9.86988268891764e-15
    vertex 60.315769144554096 -57.524674564445945 7.049916206369744e-15
  endloop
endfacet
facet normal 0.608761429993878 -0.7933533395352975 -7.561737351455128e-19
  outer loop
    vertex 64.93631686803204 -68.67966330898464 4.229949723821846e-15
    vertex 63.52332938285211 -69.49545201508457 10.000000000000004
    vertex 63.52332938285211 -69.49545201508457 1.4099832412739487e-15
  endloop
endfacet
facet normal 0.5000000005376952 -0.8660254034740001 -1.4994091279091583e-18
  outer loop
    vertex 63.52332938285211 -69.49545201508457 10.000000000000004
    vertex 64.93631686803204 -68.67966330898464 4.229949723821846e-15
    vertex 64.93631686803207 -68.67966330898463 10.000000000000004
  endloop
endfacet
facet normal 0.7933533418031105 -0.6087614270384065 1.2325951644078312e-32
  outer loop
    vertex 66.09001631683972 -67.52596385587907 4.229949723821846e-15
    vertex 64.93631686803207 -68.67966330898463 10.000000000000004
    vertex 64.93631686803204 -68.67966330898464 4.229949723821846e-15
  endloop
endfacet
facet normal 0.6087614299938781 -0.7933533395352973 -7.561737351455188e-19
  outer loop
    vertex 64.93631686803207 -68.67966330898463 10.000000000000004
    vertex 66.09001631683972 -67.52596385587907 4.229949723821846e-15
    vertex 66.09001631683972 -67.52596385587907 10.000000000000004
  endloop
endfacet
facet normal 0.7933533418031105 -0.6087614270384065 1.2325951644078312e-32
  outer loop
    vertex 66.09001631683972 -67.52596385587907 4.229949723821846e-15
    vertex 66.90580501767589 -66.11297636766008 10.000000000000004
    vertex 66.09001631683972 -67.52596385587907 10.000000000000004
  endloop
endfacet
facet normal 0.9238795339368926 -0.38268342892337315 1.2325951644078312e-32
  outer loop
    vertex 66.90580501767589 -66.11297636766008 10.000000000000004
    vertex 66.09001631683972 -67.52596385587907 4.229949723821846e-15
    vertex 66.90580501767587 -66.11297636766008 4.229949723821846e-15
  endloop
endfacet
facet normal 0.9238795339368924 -0.38268342892337326 1.232595164407831e-32
  outer loop
    vertex 66.90580501767587 -66.11297636766008 4.229949723821846e-15
    vertex 67.32808831820867 -64.53699360748587 10.000000000000004
    vertex 66.90580501767589 -66.11297636766008 10.000000000000004
  endloop
endfacet
facet normal 0.9914448620221412 -0.13052618729549026 -1.232595164407831e-32
  outer loop
    vertex 67.32808831820867 -64.53699360748587 10.000000000000004
    vertex 66.90580501767587 -66.11297636766008 4.229949723821846e-15
    vertex 67.32808831820867 -64.53699360748587 4.229949723821846e-15
  endloop
endfacet
facet normal 0.9914448620221412 -0.13052618729549031 0.0
  outer loop
    vertex 67.32808831820867 -64.53699360748587 4.229949723821846e-15
    vertex 67.32808830909153 -62.9054161970406 10.000000000000004
    vertex 67.32808831820867 -64.53699360748587 10.000000000000004
  endloop
endfacet
facet normal 0.991444860563397 0.13052619837575252 1.232595164407831e-32
  outer loop
    vertex 67.32808830909153 -62.9054161970406 10.000000000000004
    vertex 67.32808831820867 -64.53699360748587 4.229949723821846e-15
    vertex 67.3280883090915 -62.905416197040594 4.229949723821846e-15
  endloop
endfacet
facet normal 0.991444860563397 0.13052619837575272 1.232595164407831e-32
  outer loop
    vertex 67.3280883090915 -62.905416197040594 4.229949723821846e-15
    vertex 66.90580499094575 -61.32943344158574 10.000000000000004
    vertex 67.32808830909153 -62.9054161970406 10.000000000000004
  endloop
endfacet
facet normal 0.9238795296600734 0.38268343924852766 1.232595164407831e-32
  outer loop
    vertex 66.90580499094575 -61.32943344158574 10.000000000000004
    vertex 67.3280883090915 -62.905416197040594 4.229949723821846e-15
    vertex 66.90580499094575 -61.32943344158574 4.229949723821846e-15
  endloop
endfacet
facet normal 0.9238795296600734 0.38268343924852766 1.232595164407831e-32
  outer loop
    vertex 66.90580499094575 -61.32943344158574 4.229949723821846e-15
    vertex 66.09001627431824 -59.91644596248392 10.000000000000004
    vertex 66.90580499094575 -61.32943344158574 10.000000000000004
  endloop
endfacet
facet normal 0.7933533349996715 0.6087614359048207 2.465190328815662e-32
  outer loop
    vertex 66.09001627431824 -59.91644596248392 10.000000000000004
    vertex 66.90580499094575 -61.32943344158574 4.229949723821846e-15
    vertex 66.09001627431824 -59.91644596248392 4.229949723821846e-15
  endloop
endfacet
facet normal 0.7933533349996715 0.6087614359048207 2.465190328815662e-32
  outer loop
    vertex 66.09001627431824 -59.91644596248392 4.229949723821846e-15
    vertex 64.93631681261694 -58.762746522271954 10.000000000000004
    vertex 66.09001627431824 -59.91644596248392 10.000000000000004
  endloop
endfacet
facet normal 0.6087614211274641 0.7933533463387361 1.2325951644078312e-32
  outer loop
    vertex 64.93631681261694 -58.762746522271954 10.000000000000004
    vertex 66.09001627431824 -59.91644596248392 4.229949723821846e-15
    vertex 64.93631681261694 -58.762746522271954 4.229949723821846e-15
  endloop
endfacet
facet normal 0.6087614211274641 0.7933533463387361 1.2325951644078312e-32
  outer loop
    vertex 64.93631681261694 -58.762746522271954 10.000000000000004
    vertex 63.52332931831986 -57.946957831963395 4.229949723821846e-15
    vertex 63.523329318319874 -57.946957831963395 10.000000000000004
  endloop
endfacet
facet normal 0.38268342203993466 0.9238795367881061 6.162975822039156e-33
  outer loop
    vertex 63.52332931831986 -57.946957831963395 4.229949723821846e-15
    vertex 64.93631681261694 -58.762746522271954 10.000000000000004
    vertex 64.93631681261694 -58.762746522271954 4.229949723821846e-15
  endloop
endfacet
facet normal 0.38268342203993466 0.9238795367881061 6.162975822039156e-33
  outer loop
    vertex 63.523329318319874 -57.946957831963395 10.000000000000004
    vertex 61.94734655499939 -57.52467454317258 4.229949723821846e-15
    vertex 61.94734655499939 -57.52467454317258 10.000000000000004
  endloop
endfacet
facet normal 0.13052617990865237 0.9914448629946369 6.162975822039155e-33
  outer loop
    vertex 61.94734655499939 -57.52467454317258 4.229949723821846e-15
    vertex 63.523329318319874 -57.946957831963395 10.000000000000004
    vertex 63.52332931831986 -57.946957831963395 4.229949723821846e-15
  endloop
endfacet
facet normal 0.13052617990865237 0.9914448629946369 3.0814879110195774e-33
  outer loop
    vertex 61.94734655499939 -57.52467454317258 10.000000000000004
    vertex 60.315769144554096 -57.524674564445945 7.049916206369744e-15
    vertex 60.315769144554096 -57.524674564445945 10.000000000000004
  endloop
endfacet
facet normal -0.1305262020691707 0.9914448600771494 -1.9571224139877384e-19
  outer loop
    vertex 60.315769144554096 -57.524674564445945 7.049916206369744e-15
    vertex 61.94734655499939 -57.52467454317258 10.000000000000004
    vertex 61.94734655499939 -57.52467454317258 4.229949723821846e-15
  endloop
endfacet
facet normal -0.13052620206917082 0.9914448600771494 -1.9571224139877394e-19
  outer loop
    vertex 60.315769144554096 -57.524674564445945 10.000000000000004
    vertex 58.739786478288494 -57.94695785869351 9.86988268891764e-15
    vertex 58.739786478288494 -57.94695785869351 10.000000000000004
  endloop
endfacet
facet normal -0.25881905169949915 0.9659258245214134 -3.880757922441419e-19
  outer loop
    vertex 58.739786478288494 -57.94695785869351 9.86988268891764e-15
    vertex 60.315769144554096 -57.524674564445945 10.000000000000004
    vertex 60.315769144554096 -57.524674564445945 7.049916206369744e-15
  endloop
endfacet
facet normal 0.266712757474902 -0.963776065795439 3.0814879110195774e-33
  outer loop
    vertex 51.00959198191301 -5.257116926936634 1.2689849171465539e-14
    vertex 51.20712657258312 -5.2024517435562805 40.000000000000014
    vertex 51.009591981913005 -5.257116926936634 40.000000000000014
  endloop
endfacet
facet normal 0.266712757474902 -0.963776065795439 3.0814879110195774e-33
  outer loop
    vertex 51.20712657258312 -5.2024517435562805 40.000000000000014
    vertex 51.00959198191301 -5.257116926936634 1.2689849171465539e-14
    vertex 51.20712657258313 -5.2024517435562805 1.2689849171465539e-14
  endloop
endfacet
facet normal 0.9207178272982397 -0.39022901288244705 -1.232595164407831e-32
  outer loop
    vertex 51.81110083960002 -4.672780527129158 1.2689849171465539e-14
    vertex 51.89108179271045 -4.4840711104993405 40.000000000000014
    vertex 51.811100839600016 -4.672780527129158 40.000000000000014
  endloop
endfacet
facet normal 0.9207178272982397 -0.39022901288244705 -1.232595164407831e-32
  outer loop
    vertex 51.89108179271045 -4.4840711104993405 40.000000000000014
    vertex 51.81110083960002 -4.672780527129158 1.2689849171465539e-14
    vertex 51.89108179271045 -4.484071110499341 1.2689849171465539e-14
  endloop
endfacet
facet normal 0.8359869839079486 -0.5487492712856132 0.0
  outer loop
    vertex 51.69862973087368 -4.844123593773489 1.2689849171465539e-14
    vertex 51.811100839600016 -4.672780527129158 40.000000000000014
    vertex 51.69862973087368 -4.84412359377349 40.000000000000014
  endloop
endfacet
facet normal 0.8359869839079486 -0.5487492712856132 0.0
  outer loop
    vertex 51.811100839600016 -4.672780527129158 40.000000000000014
    vertex 51.69862973087368 -4.844123593773489 1.2689849171465539e-14
    vertex 51.81110083960002 -4.672780527129158 1.2689849171465539e-14
  endloop
endfacet
facet normal 0.7242470829514817 -0.6895405447370515 1.232595164407831e-32
  outer loop
    vertex 51.5573021817789 -4.992564560666322 1.2689849171465539e-14
    vertex 51.69862973087368 -4.84412359377349 40.000000000000014
    vertex 51.55730218177889 -4.992564560666322 40.000000000000014
  endloop
endfacet
facet normal 0.7242470829514817 -0.6895405447370515 1.232595164407831e-32
  outer loop
    vertex 51.69862973087368 -4.84412359377349 40.000000000000014
    vertex 51.5573021817789 -4.992564560666322 1.2689849171465539e-14
    vertex 51.69862973087368 -4.844123593773489 1.2689849171465539e-14
  endloop
endfacet
facet normal 0.5891082158243075 -0.8080541504430885 6.162975822039156e-33
  outer loop
    vertex 51.391684201096496 -5.113307598808918 1.2689849171465539e-14
    vertex 51.55730218177889 -4.992564560666322 40.000000000000014
    vertex 51.391684201096496 -5.113307598808919 40.000000000000014
  endloop
endfacet
facet normal 0.5891082158243075 -0.8080541504430885 6.162975822039156e-33
  outer loop
    vertex 51.55730218177889 -4.992564560666322 40.000000000000014
    vertex 51.391684201096496 -5.113307598808918 1.2689849171465539e-14
    vertex 51.5573021817789 -4.992564560666322 1.2689849171465539e-14
  endloop
endfacet
facet normal 0.4349364474437299 -0.9004611522353576 -3.081487911019578e-33
  outer loop
    vertex 51.20712657258313 -5.2024517435562805 1.2689849171465539e-14
    vertex 51.391684201096496 -5.113307598808919 40.000000000000014
    vertex 51.20712657258312 -5.2024517435562805 40.000000000000014
  endloop
endfacet
facet normal 0.4349364474437299 -0.9004611522353576 -3.081487911019578e-33
  outer loop
    vertex 51.391684201096496 -5.113307598808919 40.000000000000014
    vertex 51.20712657258313 -5.2024517435562805 1.2689849171465539e-14
    vertex 51.391684201096496 -5.113307598808918 1.2689849171465539e-14
  endloop
endfacet
endsolid breadboard_holder
