solid breadboard holder
facet normal 0.0 0.0 -1.0
  outer loop
    vertex -38.63703305156272 10.352761804100838 0.0
    vertex -38.637033051562724 -10.352761804100812 0.0
    vertex -39.999999999999986 4.898587196589412e-15 0.0
  endloop
endfacet
facet normal 0.0 0.0 -1.0
  outer loop
    vertex -38.637033051562724 -10.352761804100812 0.0
    vertex -38.63703305156272 10.352761804100838 0.0
    vertex -34.64101615137754 -19.999999999999986 0.0
  endloop
endfacet
facet normal 0.0 0.0 -1.0
  outer loop
    vertex -34.64101615137754 -19.999999999999986 0.0
    vertex -38.63703305156272 10.352761804100838 0.0
    vertex -26.562960222949375 7.117523740319328 0.0
  endloop
endfacet
facet normal 0.0 0.0 -1.0
  outer loop
    vertex -34.64101615137754 -19.999999999999986 0.0
    vertex -26.562960222949375 7.117523740319328 0.0
    vertex -27.5 3.3677786976552213e-15 0.0
  endloop
endfacet
facet normal 0.0 0.0 -1.0
  outer loop
    vertex -34.64101615137754 -19.999999999999986 0.0
    vertex -27.5 3.3677786976552213e-15 0.0
    vertex -28.284271247461906 -28.28427124746188 0.0
  endloop
endfacet
facet normal 0.0 0.0 -1.0
  outer loop
    vertex 38.63703305156272 10.352761804100828 0.0
    vertex 27.5 0.0 0.0
    vertex 26.56296022294938 7.117523740319321 0.0
  endloop
endfacet
facet normal 0.0 0.0 -1.0
  outer loop
    vertex 27.5 0.0 0.0
    vertex 38.63703305156272 10.352761804100828 0.0
    vertex 28.284271247461888 -28.284271247461906 0.0
  endloop
endfacet
facet normal 0.0 0.0 -1.0
  outer loop
    vertex 28.284271247461888 -28.284271247461906 0.0
    vertex 38.63703305156272 10.352761804100828 0.0
    vertex 34.64101615137752 -20.000000000000014 0.0
  endloop
endfacet
facet normal 0.0 0.0 -1.0
  outer loop
    vertex 34.64101615137752 -20.000000000000014 0.0
    vertex 38.63703305156272 10.352761804100828 0.0
    vertex 38.63703305156271 -10.352761804100862 0.0
  endloop
endfacet
facet normal 0.0 0.0 -1.0
  outer loop
    vertex 38.63703305156271 -10.352761804100862 0.0
    vertex 38.63703305156272 10.352761804100828 0.0
    vertex 39.999999999999986 0.0 0.0
  endloop
endfacet
facet normal 0.0 0.0 -1.0
  outer loop
    vertex -28.284271247461906 -28.28427124746188 0.0
    vertex -26.56296022294938 -7.11752374031931 0.0
    vertex -20.00000000000001 -34.64101615137753 0.0
  endloop
endfacet
facet normal 0.0 0.0 -1.0
  outer loop
    vertex -26.56296022294938 -7.11752374031931 0.0
    vertex -28.284271247461906 -28.28427124746188 0.0
    vertex -27.5 3.3677786976552213e-15 0.0
  endloop
endfacet
facet normal 0.0 0.0 -1.0
  outer loop
    vertex -20.00000000000001 -34.64101615137753 0.0
    vertex -26.56296022294938 -7.11752374031931 0.0
    vertex -23.815698604072068 -13.749999999999991 0.0
  endloop
endfacet
facet normal 0.0 0.0 -1.0
  outer loop
    vertex -20.00000000000001 -34.64101615137753 0.0
    vertex -23.815698604072068 -13.749999999999991 0.0
    vertex -19.44543648263007 -19.445436482630047 0.0
  endloop
endfacet
facet normal 0.0 0.0 -1.0
  outer loop
    vertex -20.00000000000001 -34.64101615137753 0.0
    vertex -19.44543648263007 -19.445436482630047 0.0
    vertex -10.352761804100858 -38.63703305156272 0.0
  endloop
endfacet
facet normal 0.0 0.0 -1.0
  outer loop
    vertex -10.352761804100858 -38.63703305156272 0.0
    vertex -19.44543648263007 -19.445436482630047 0.0
    vertex -13.75000000000001 -23.815698604072054 0.0
  endloop
endfacet
facet normal 0.0 0.0 -1.0
  outer loop
    vertex -10.352761804100858 -38.63703305156272 0.0
    vertex -13.75000000000001 -23.815698604072054 0.0
    vertex -7.117523740319342 -26.562960222949375 0.0
  endloop
endfacet
facet normal 0.0 0.0 -1.0
  outer loop
    vertex -10.352761804100858 -38.63703305156272 0.0
    vertex -7.117523740319342 -26.562960222949375 0.0
    vertex -7.347880794884117e-15 -39.99999999999999 0.0
  endloop
endfacet
facet normal 0.0 0.0 -1.0
  outer loop
    vertex -7.347880794884117e-15 -39.99999999999999 0.0
    vertex -7.117523740319342 -26.562960222949375 0.0
    vertex -5.051668046482832e-15 -27.5 0.0
  endloop
endfacet
facet normal 0.0 0.0 -1.0
  outer loop
    vertex -7.347880794884117e-15 -39.99999999999999 0.0
    vertex -5.051668046482832e-15 -27.5 0.0
    vertex 10.35276180410081 -38.63703305156273 0.0
  endloop
endfacet
facet normal 0.0 0.0 -1.0
  outer loop
    vertex 10.35276180410081 -38.63703305156273 0.0
    vertex -5.051668046482832e-15 -27.5 0.0
    vertex 7.117523740319308 -26.56296022294938 0.0
  endloop
endfacet
facet normal 0.0 0.0 -1.0
  outer loop
    vertex 10.35276180410081 -38.63703305156273 0.0
    vertex 7.117523740319308 -26.56296022294938 0.0
    vertex 13.74999999999998 -23.815698604072075 0.0
  endloop
endfacet
facet normal 0.0 0.0 -1.0
  outer loop
    vertex 10.35276180410081 -38.63703305156273 0.0
    vertex 13.74999999999998 -23.815698604072075 0.0
    vertex 19.999999999999964 -34.641016151377556 0.0
  endloop
endfacet
facet normal 0.0 0.0 -1.0
  outer loop
    vertex 19.999999999999964 -34.641016151377556 0.0
    vertex 13.74999999999998 -23.815698604072075 0.0
    vertex 19.44543648263005 -19.44543648263006 0.0
  endloop
endfacet
facet normal 0.0 0.0 -1.0
  outer loop
    vertex 19.999999999999964 -34.641016151377556 0.0
    vertex 19.44543648263005 -19.44543648263006 0.0
    vertex 23.815698604072054 -13.75000000000001 0.0
  endloop
endfacet
facet normal 0.0 0.0 -1.0
  outer loop
    vertex 19.999999999999964 -34.641016151377556 0.0
    vertex 23.815698604072054 -13.75000000000001 0.0
    vertex 28.284271247461888 -28.284271247461906 0.0
  endloop
endfacet
facet normal 0.0 0.0 -1.0
  outer loop
    vertex 28.284271247461888 -28.284271247461906 0.0
    vertex 23.815698604072054 -13.75000000000001 0.0
    vertex 26.562960222949375 -7.117523740319344 0.0
  endloop
endfacet
facet normal 0.0 0.0 -1.0
  outer loop
    vertex 28.284271247461888 -28.284271247461906 0.0
    vertex 26.562960222949375 -7.117523740319344 0.0
    vertex 27.5 0.0 0.0
  endloop
endfacet
facet normal -0.9914448613738105 -0.13052619222005135 -0.0
  outer loop
    vertex 26.56296022294938 7.117523740319321 65.0
    vertex 27.5 0.0 10.0
    vertex 27.5 0.0 65.0
  endloop
endfacet
facet normal -0.999038478558539 -0.0438419702960477 0.0
  outer loop
    vertex 27.5 0.0 10.0
    vertex 26.56296022294938 7.117523740319321 65.0
    vertex 27.5 0.0 0.0
  endloop
endfacet
facet normal -1.0 1.6931108801729119e-16 0.0
  outer loop
    vertex 27.5 0.0 0.0
    vertex 26.56296022294938 7.117523740319321 65.0
    vertex 26.56296022294938 7.117523740319321 0.0
  endloop
endfacet
facet normal -0.2588190451025208 0.9659258262890682 0.0
  outer loop
    vertex 26.56296022294938 7.117523740319321 65.0
    vertex 38.63703305156272 10.352761804100828 0.0
    vertex 26.56296022294938 7.117523740319321 0.0
  endloop
endfacet
facet normal -0.2588190451025208 0.9659258262890682 0.0
  outer loop
    vertex 38.63703305156272 10.352761804100828 0.0
    vertex 26.56296022294938 7.117523740319321 65.0
    vertex 38.63703305156272 10.352761804100828 65.0
  endloop
endfacet
facet normal 0.9914448613738104 0.13052619222005177 0.0
  outer loop
    vertex 38.63703305156272 10.352761804100828 0.0
    vertex 39.999999999999986 0.0 10.0
    vertex 39.999999999999986 0.0 0.0
  endloop
endfacet
facet normal 0.999038478558539 0.043841970296047916 0.0
  outer loop
    vertex 39.999999999999986 0.0 10.0
    vertex 38.63703305156272 10.352761804100828 0.0
    vertex 39.999999999999986 0.0 65.0
  endloop
endfacet
facet normal 0.9914448613738104 0.13052619222005177 0.0
  outer loop
    vertex 39.999999999999986 0.0 65.0
    vertex 38.63703305156272 10.352761804100828 0.0
    vertex 38.63703305156272 10.352761804100828 65.0
  endloop
endfacet
facet normal 1.0 -5.346665937388143e-17 0.0
  outer loop
    vertex 39.999999999999986 0.0 0.0
    vertex 38.63703305156271 -10.352761804100862 10.0
    vertex 38.63703305156271 -10.352761804100862 0.0
  endloop
endfacet
facet normal 0.965925826289068 -0.2588190451025214 0.0
  outer loop
    vertex 38.63703305156271 -10.352761804100862 10.0
    vertex 39.999999999999986 0.0 0.0
    vertex 39.999999999999986 0.0 10.0
  endloop
endfacet
facet normal 0.965925826289068 -0.2588190451025214 0.0
  outer loop
    vertex 38.63703305156271 -10.352761804100862 0.0
    vertex 34.64101615137752 -20.000000000000014 10.0
    vertex 34.64101615137752 -20.000000000000014 0.0
  endloop
endfacet
facet normal 0.8660254037844384 -0.5000000000000004 0.0
  outer loop
    vertex 34.64101615137752 -20.000000000000014 10.0
    vertex 38.63703305156271 -10.352761804100862 0.0
    vertex 38.63703305156271 -10.352761804100862 10.0
  endloop
endfacet
facet normal 0.8660254037844384 -0.5000000000000004 0.0
  outer loop
    vertex 34.64101615137752 -20.000000000000014 0.0
    vertex 28.284271247461888 -28.284271247461906 10.0
    vertex 28.284271247461888 -28.284271247461906 0.0
  endloop
endfacet
facet normal 0.7071067811865475 -0.7071067811865477 0.0
  outer loop
    vertex 28.284271247461888 -28.284271247461906 10.0
    vertex 34.64101615137752 -20.000000000000014 0.0
    vertex 34.64101615137752 -20.000000000000014 10.0
  endloop
endfacet
facet normal 0.7071067811865475 -0.7071067811865477 0.0
  outer loop
    vertex 28.284271247461888 -28.284271247461906 10.0
    vertex 19.999999999999964 -34.641016151377556 0.0
    vertex 28.284271247461888 -28.284271247461906 0.0
  endloop
endfacet
facet normal 0.49999999999999956 -0.8660254037844389 0.0
  outer loop
    vertex 19.999999999999964 -34.641016151377556 0.0
    vertex 28.284271247461888 -28.284271247461906 10.0
    vertex 19.999999999999964 -34.641016151377556 10.0
  endloop
endfacet
facet normal 0.49999999999999956 -0.8660254037844389 0.0
  outer loop
    vertex 19.999999999999964 -34.641016151377556 10.0
    vertex 10.35276180410081 -38.63703305156273 0.0
    vertex 19.999999999999964 -34.641016151377556 0.0
  endloop
endfacet
facet normal 0.2588190451025204 -0.9659258262890684 0.0
  outer loop
    vertex 10.35276180410081 -38.63703305156273 0.0
    vertex 19.999999999999964 -34.641016151377556 10.0
    vertex 10.35276180410081 -38.63703305156273 10.0
  endloop
endfacet
facet normal 0.2588190451025204 -0.9659258262890684 0.0
  outer loop
    vertex 10.35276180410081 -38.63703305156273 10.0
    vertex -7.347880794884117e-15 -39.99999999999999 0.0
    vertex 10.35276180410081 -38.63703305156273 0.0
  endloop
endfacet
facet normal -3.1188884634764164e-16 -1.0 0.0
  outer loop
    vertex -7.347880794884117e-15 -39.99999999999999 0.0
    vertex 10.35276180410081 -38.63703305156273 10.0
    vertex -7.347880794884117e-15 -39.99999999999999 10.0
  endloop
endfacet
facet normal -3.1188884634764164e-16 -1.0 0.0
  outer loop
    vertex -7.347880794884117e-15 -39.99999999999999 10.0
    vertex -10.352761804100858 -38.63703305156272 0.0
    vertex -7.347880794884117e-15 -39.99999999999999 0.0
  endloop
endfacet
facet normal -0.25881904510252146 -0.965925826289068 0.0
  outer loop
    vertex -10.352761804100858 -38.63703305156272 0.0
    vertex -7.347880794884117e-15 -39.99999999999999 10.0
    vertex -10.352761804100858 -38.63703305156272 10.0
  endloop
endfacet
facet normal -0.25881904510252146 -0.965925826289068 0.0
  outer loop
    vertex -10.352761804100858 -38.63703305156272 10.0
    vertex -20.00000000000001 -34.64101615137753 0.0
    vertex -10.352761804100858 -38.63703305156272 0.0
  endloop
endfacet
facet normal -0.5000000000000006 -0.8660254037844383 0.0
  outer loop
    vertex -20.00000000000001 -34.64101615137753 0.0
    vertex -10.352761804100858 -38.63703305156272 10.0
    vertex -20.00000000000001 -34.64101615137753 10.0
  endloop
endfacet
facet normal -0.5000000000000006 -0.8660254037844383 0.0
  outer loop
    vertex -20.00000000000001 -34.64101615137753 10.0
    vertex -28.284271247461906 -28.28427124746188 0.0
    vertex -20.00000000000001 -34.64101615137753 0.0
  endloop
endfacet
facet normal -0.7071067811865477 -0.7071067811865472 0.0
  outer loop
    vertex -28.284271247461906 -28.28427124746188 0.0
    vertex -20.00000000000001 -34.64101615137753 10.0
    vertex -28.284271247461906 -28.28427124746188 10.0
  endloop
endfacet
facet normal -0.8660254037844389 -0.4999999999999997 0.0
  outer loop
    vertex -34.64101615137754 -19.999999999999986 10.0
    vertex -28.284271247461906 -28.28427124746188 0.0
    vertex -28.284271247461906 -28.28427124746188 10.0
  endloop
endfacet
facet normal -0.7071067811865477 -0.7071067811865472 0.0
  outer loop
    vertex -28.284271247461906 -28.28427124746188 0.0
    vertex -34.64101615137754 -19.999999999999986 10.0
    vertex -34.64101615137754 -19.999999999999986 0.0
  endloop
endfacet
facet normal -0.9659258262890684 -0.25881904510252035 0.0
  outer loop
    vertex -38.637033051562724 -10.352761804100812 10.0
    vertex -34.64101615137754 -19.999999999999986 0.0
    vertex -34.64101615137754 -19.999999999999986 10.0
  endloop
endfacet
facet normal -0.8660254037844389 -0.4999999999999997 0.0
  outer loop
    vertex -34.64101615137754 -19.999999999999986 0.0
    vertex -38.637033051562724 -10.352761804100812 10.0
    vertex -38.637033051562724 -10.352761804100812 0.0
  endloop
endfacet
facet normal -1.0 1.4257775833035045e-16 0.0
  outer loop
    vertex -39.999999999999986 4.898587196589412e-15 10.0
    vertex -38.637033051562724 -10.352761804100812 0.0
    vertex -38.637033051562724 -10.352761804100812 10.0
  endloop
endfacet
facet normal -0.9659258262890684 -0.25881904510252035 0.0
  outer loop
    vertex -38.637033051562724 -10.352761804100812 0.0
    vertex -39.999999999999986 4.898587196589412e-15 10.0
    vertex -39.999999999999986 4.898587196589412e-15 0.0
  endloop
endfacet
facet normal -0.9914448613738104 0.13052619222005168 0.0
  outer loop
    vertex -38.63703305156272 10.352761804100838 10.0
    vertex -39.999999999999986 4.898587196589412e-15 0.0
    vertex -39.999999999999986 4.898587196589412e-15 10.0
  endloop
endfacet
facet normal -1.0 1.4257775833035045e-16 0.0
  outer loop
    vertex -39.999999999999986 4.898587196589412e-15 0.0
    vertex -38.63703305156272 10.352761804100838 10.0
    vertex -38.63703305156272 10.352761804100838 0.0
  endloop
endfacet
facet normal 0.258819045102521 0.9659258262890682 0.0
  outer loop
    vertex -38.63703305156272 10.352761804100838 10.0
    vertex -26.562960222949375 7.117523740319328 0.0
    vertex -38.63703305156272 10.352761804100838 0.0
  endloop
endfacet
facet normal 0.258819045102521 0.9659258262890682 0.0
  outer loop
    vertex -26.562960222949375 7.117523740319328 0.0
    vertex -38.63703305156272 10.352761804100838 10.0
    vertex -26.562960222949375 7.117523740319328 10.0
  endloop
endfacet
facet normal 0.9914448613738105 -0.13052619222005205 0.0
  outer loop
    vertex -26.562960222949375 7.117523740319328 0.0
    vertex -27.5 3.3677786976552213e-15 10.0
    vertex -27.5 3.3677786976552213e-15 0.0
  endloop
endfacet
facet normal 1.0 -2.7624440676505406e-16 0.0
  outer loop
    vertex -27.5 3.3677786976552213e-15 10.0
    vertex -26.562960222949375 7.117523740319328 0.0
    vertex -26.562960222949375 7.117523740319328 10.0
  endloop
endfacet
facet normal 1.0 -2.7624440676505406e-16 0.0
  outer loop
    vertex -27.5 3.3677786976552213e-15 0.0
    vertex -26.56296022294938 -7.11752374031931 10.0
    vertex -26.56296022294938 -7.11752374031931 0.0
  endloop
endfacet
facet normal 0.9659258262890683 0.25881904510252035 0.0
  outer loop
    vertex -26.56296022294938 -7.11752374031931 10.0
    vertex -27.5 3.3677786976552213e-15 0.0
    vertex -27.5 3.3677786976552213e-15 10.0
  endloop
endfacet
facet normal 0.9659258262890683 0.25881904510252035 0.0
  outer loop
    vertex -26.56296022294938 -7.11752374031931 0.0
    vertex -23.815698604072068 -13.749999999999991 10.0
    vertex -23.815698604072068 -13.749999999999991 0.0
  endloop
endfacet
facet normal 0.8660254037844389 0.49999999999999956 0.0
  outer loop
    vertex -23.815698604072068 -13.749999999999991 10.0
    vertex -26.56296022294938 -7.11752374031931 0.0
    vertex -26.56296022294938 -7.11752374031931 10.0
  endloop
endfacet
facet normal 0.8660254037844389 0.49999999999999956 0.0
  outer loop
    vertex -23.815698604072068 -13.749999999999991 0.0
    vertex -19.44543648263007 -19.445436482630047 10.0
    vertex -19.44543648263007 -19.445436482630047 0.0
  endloop
endfacet
facet normal 0.7071067811865477 0.7071067811865474 0.0
  outer loop
    vertex -19.44543648263007 -19.445436482630047 10.0
    vertex -23.815698604072068 -13.749999999999991 0.0
    vertex -23.815698604072068 -13.749999999999991 10.0
  endloop
endfacet
facet normal 0.7071067811865477 0.7071067811865474 0.0
  outer loop
    vertex -19.44543648263007 -19.445436482630047 10.0
    vertex -13.75000000000001 -23.815698604072054 0.0
    vertex -19.44543648263007 -19.445436482630047 0.0
  endloop
endfacet
facet normal 0.5000000000000006 0.8660254037844384 0.0
  outer loop
    vertex -13.75000000000001 -23.815698604072054 0.0
    vertex -19.44543648263007 -19.445436482630047 10.0
    vertex -13.75000000000001 -23.815698604072054 10.0
  endloop
endfacet
facet normal 0.5000000000000006 0.8660254037844384 0.0
  outer loop
    vertex -13.75000000000001 -23.815698604072054 10.0
    vertex -7.117523740319342 -26.562960222949375 0.0
    vertex -13.75000000000001 -23.815698604072054 0.0
  endloop
endfacet
facet normal 0.2588190451025214 0.965925826289068 0.0
  outer loop
    vertex -7.117523740319342 -26.562960222949375 0.0
    vertex -13.75000000000001 -23.815698604072054 10.0
    vertex -7.117523740319342 -26.562960222949375 10.0
  endloop
endfacet
facet normal 0.2588190451025214 0.965925826289068 0.0
  outer loop
    vertex -7.117523740319342 -26.562960222949375 10.0
    vertex -5.051668046482832e-15 -27.5 0.0
    vertex -7.117523740319342 -26.562960222949375 0.0
  endloop
endfacet
facet normal 1.7822219791293813e-16 1.0 0.0
  outer loop
    vertex -5.051668046482832e-15 -27.5 0.0
    vertex -7.117523740319342 -26.562960222949375 10.0
    vertex -5.051668046482832e-15 -27.5 10.0
  endloop
endfacet
facet normal 1.7822219791293813e-16 1.0 0.0
  outer loop
    vertex -5.051668046482832e-15 -27.5 10.0
    vertex 7.117523740319308 -26.56296022294938 0.0
    vertex -5.051668046482832e-15 -27.5 0.0
  endloop
endfacet
facet normal -0.2588190451025203 0.9659258262890684 0.0
  outer loop
    vertex 7.117523740319308 -26.56296022294938 0.0
    vertex -5.051668046482832e-15 -27.5 10.0
    vertex 7.117523740319308 -26.56296022294938 10.0
  endloop
endfacet
facet normal -0.2588190451025203 0.9659258262890684 0.0
  outer loop
    vertex 7.117523740319308 -26.56296022294938 10.0
    vertex 13.74999999999998 -23.815698604072075 0.0
    vertex 7.117523740319308 -26.56296022294938 0.0
  endloop
endfacet
facet normal -0.49999999999999956 0.8660254037844389 0.0
  outer loop
    vertex 13.74999999999998 -23.815698604072075 0.0
    vertex 7.117523740319308 -26.56296022294938 10.0
    vertex 13.74999999999998 -23.815698604072075 10.0
  endloop
endfacet
facet normal -0.49999999999999956 0.8660254037844389 0.0
  outer loop
    vertex 13.74999999999998 -23.815698604072075 10.0
    vertex 19.44543648263005 -19.44543648263006 0.0
    vertex 13.74999999999998 -23.815698604072075 0.0
  endloop
endfacet
facet normal -0.7071067811865472 0.7071067811865477 0.0
  outer loop
    vertex 19.44543648263005 -19.44543648263006 0.0
    vertex 13.74999999999998 -23.815698604072075 10.0
    vertex 19.44543648263005 -19.44543648263006 10.0
  endloop
endfacet
facet normal -0.8660254037844383 0.5000000000000006 0.0
  outer loop
    vertex 23.815698604072054 -13.75000000000001 10.0
    vertex 19.44543648263005 -19.44543648263006 0.0
    vertex 19.44543648263005 -19.44543648263006 10.0
  endloop
endfacet
facet normal -0.7071067811865472 0.7071067811865477 0.0
  outer loop
    vertex 19.44543648263005 -19.44543648263006 0.0
    vertex 23.815698604072054 -13.75000000000001 10.0
    vertex 23.815698604072054 -13.75000000000001 0.0
  endloop
endfacet
facet normal -0.9659258262890681 0.25881904510252135 0.0
  outer loop
    vertex 26.562960222949375 -7.117523740319344 10.0
    vertex 23.815698604072054 -13.75000000000001 0.0
    vertex 23.815698604072054 -13.75000000000001 10.0
  endloop
endfacet
facet normal -0.8660254037844383 0.5000000000000006 0.0
  outer loop
    vertex 23.815698604072054 -13.75000000000001 0.0
    vertex 26.562960222949375 -7.117523740319344 10.0
    vertex 26.562960222949375 -7.117523740319344 0.0
  endloop
endfacet
facet normal -0.999038478558539 -0.0438419702960477 0.0
  outer loop
    vertex 27.5 0.0 10.0
    vertex 26.562960222949375 -7.117523740319344 0.0
    vertex 26.562960222949375 -7.117523740319344 10.0
  endloop
endfacet
facet normal -0.9659258262890681 0.25881904510252135 0.0
  outer loop
    vertex 26.562960222949375 -7.117523740319344 0.0
    vertex 27.5 0.0 10.0
    vertex 27.5 0.0 0.0
  endloop
endfacet
facet normal -0.0 -0.0 1.0
  outer loop
    vertex -28.284271247461906 -28.28427124746188 10.0
    vertex -26.56296022294938 -7.11752374031931 10.0
    vertex -27.5 3.3677786976552213e-15 10.0
  endloop
endfacet
facet normal -0.0 -0.0 1.0
  outer loop
    vertex -26.56296022294938 -7.11752374031931 10.0
    vertex -28.284271247461906 -28.28427124746188 10.0
    vertex -20.00000000000001 -34.64101615137753 10.0
  endloop
endfacet
facet normal -0.0 -0.0 1.0
  outer loop
    vertex -26.56296022294938 -7.11752374031931 10.0
    vertex -20.00000000000001 -34.64101615137753 10.0
    vertex -23.815698604072068 -13.749999999999991 10.0
  endloop
endfacet
facet normal -0.0 -0.0 1.0
  outer loop
    vertex -23.815698604072068 -13.749999999999991 10.0
    vertex -20.00000000000001 -34.64101615137753 10.0
    vertex -19.44543648263007 -19.445436482630047 10.0
  endloop
endfacet
facet normal -0.0 -0.0 1.0
  outer loop
    vertex -19.44543648263007 -19.445436482630047 10.0
    vertex -20.00000000000001 -34.64101615137753 10.0
    vertex -10.352761804100858 -38.63703305156272 10.0
  endloop
endfacet
facet normal -0.0 -0.0 1.0
  outer loop
    vertex -19.44543648263007 -19.445436482630047 10.0
    vertex -10.352761804100858 -38.63703305156272 10.0
    vertex -13.75000000000001 -23.815698604072054 10.0
  endloop
endfacet
facet normal -0.0 -0.0 1.0
  outer loop
    vertex -13.75000000000001 -23.815698604072054 10.0
    vertex -10.352761804100858 -38.63703305156272 10.0
    vertex -7.117523740319342 -26.562960222949375 10.0
  endloop
endfacet
facet normal -0.0 -0.0 1.0
  outer loop
    vertex -7.117523740319342 -26.562960222949375 10.0
    vertex -10.352761804100858 -38.63703305156272 10.0
    vertex -7.347880794884117e-15 -39.99999999999999 10.0
  endloop
endfacet
facet normal -0.0 -0.0 1.0
  outer loop
    vertex -7.117523740319342 -26.562960222949375 10.0
    vertex -7.347880794884117e-15 -39.99999999999999 10.0
    vertex -5.051668046482832e-15 -27.5 10.0
  endloop
endfacet
facet normal -0.0 -0.0 1.0
  outer loop
    vertex -5.051668046482832e-15 -27.5 10.0
    vertex -7.347880794884117e-15 -39.99999999999999 10.0
    vertex 10.35276180410081 -38.63703305156273 10.0
  endloop
endfacet
facet normal -0.0 -0.0 1.0
  outer loop
    vertex -5.051668046482832e-15 -27.5 10.0
    vertex 10.35276180410081 -38.63703305156273 10.0
    vertex 7.117523740319308 -26.56296022294938 10.0
  endloop
endfacet
facet normal -0.0 -0.0 1.0
  outer loop
    vertex 7.117523740319308 -26.56296022294938 10.0
    vertex 10.35276180410081 -38.63703305156273 10.0
    vertex 13.74999999999998 -23.815698604072075 10.0
  endloop
endfacet
facet normal -0.0 -0.0 1.0
  outer loop
    vertex 13.74999999999998 -23.815698604072075 10.0
    vertex 10.35276180410081 -38.63703305156273 10.0
    vertex 19.999999999999964 -34.641016151377556 10.0
  endloop
endfacet
facet normal -0.0 -0.0 1.0
  outer loop
    vertex 13.74999999999998 -23.815698604072075 10.0
    vertex 19.999999999999964 -34.641016151377556 10.0
    vertex 19.44543648263005 -19.44543648263006 10.0
  endloop
endfacet
facet normal -0.0 -0.0 1.0
  outer loop
    vertex 19.44543648263005 -19.44543648263006 10.0
    vertex 19.999999999999964 -34.641016151377556 10.0
    vertex 23.815698604072054 -13.75000000000001 10.0
  endloop
endfacet
facet normal -0.0 -0.0 1.0
  outer loop
    vertex 23.815698604072054 -13.75000000000001 10.0
    vertex 19.999999999999964 -34.641016151377556 10.0
    vertex 28.284271247461888 -28.284271247461906 10.0
  endloop
endfacet
facet normal -0.0 -0.0 1.0
  outer loop
    vertex 23.815698604072054 -13.75000000000001 10.0
    vertex 28.284271247461888 -28.284271247461906 10.0
    vertex 26.562960222949375 -7.117523740319344 10.0
  endloop
endfacet
facet normal -0.0 -0.0 1.0
  outer loop
    vertex 26.562960222949375 -7.117523740319344 10.0
    vertex 28.284271247461888 -28.284271247461906 10.0
    vertex 27.5 0.0 10.0
  endloop
endfacet
facet normal -0.0 -0.0 1.0
  outer loop
    vertex 27.5 0.0 10.0
    vertex 28.284271247461888 -28.284271247461906 10.0
    vertex 39.999999999999986 0.0 10.0
  endloop
endfacet
facet normal -0.0 -0.0 1.0
  outer loop
    vertex 39.999999999999986 0.0 10.0
    vertex 28.284271247461888 -28.284271247461906 10.0
    vertex 34.64101615137752 -20.000000000000014 10.0
  endloop
endfacet
facet normal -0.0 -0.0 1.0
  outer loop
    vertex 39.999999999999986 0.0 10.0
    vertex 34.64101615137752 -20.000000000000014 10.0
    vertex 38.63703305156271 -10.352761804100862 10.0
  endloop
endfacet
facet normal -0.0 -0.0 1.0
  outer loop
    vertex -38.637033051562724 -10.352761804100812 10.0
    vertex -38.63703305156272 10.352761804100838 10.0
    vertex -39.999999999999986 4.898587196589412e-15 10.0
  endloop
endfacet
facet normal -0.0 -0.0 1.0
  outer loop
    vertex -38.63703305156272 10.352761804100838 10.0
    vertex -38.637033051562724 -10.352761804100812 10.0
    vertex -34.64101615137754 -19.999999999999986 10.0
  endloop
endfacet
facet normal -0.0 -0.0 1.0
  outer loop
    vertex -38.63703305156272 10.352761804100838 10.0
    vertex -34.64101615137754 -19.999999999999986 10.0
    vertex -26.562960222949375 7.117523740319328 10.0
  endloop
endfacet
facet normal -0.0 -0.0 1.0
  outer loop
    vertex -26.562960222949375 7.117523740319328 10.0
    vertex -34.64101615137754 -19.999999999999986 10.0
    vertex -27.5 3.3677786976552213e-15 10.0
  endloop
endfacet
facet normal -0.0 -0.0 1.0
  outer loop
    vertex -27.5 3.3677786976552213e-15 10.0
    vertex -34.64101615137754 -19.999999999999986 10.0
    vertex -28.284271247461906 -28.28427124746188 10.0
  endloop
endfacet
facet normal 0.0 0.0 1.0
  outer loop
    vertex 27.5 0.0 65.0
    vertex 38.63703305156272 10.352761804100828 65.0
    vertex 26.56296022294938 7.117523740319321 65.0
  endloop
endfacet
facet normal 0.0 0.0 1.0
  outer loop
    vertex 38.63703305156272 10.352761804100828 65.0
    vertex 27.5 0.0 65.0
    vertex 39.999999999999986 0.0 65.0
  endloop
endfacet
facet normal 0.0 -1.0 0.0
  outer loop
    vertex 39.999999999999986 0.0 65.0
    vertex 27.5 0.0 10.0
    vertex 39.999999999999986 0.0 10.0
  endloop
endfacet
facet normal 0.0 -1.0 0.0
  outer loop
    vertex 27.5 0.0 10.0
    vertex 39.999999999999986 0.0 65.0
    vertex 27.5 0.0 65.0
  endloop
endfacet
endsolid breadboard holder
