solid breadboard_holder
facet normal 0.0 -0.2902846772544611 0.9569403357322093
  outer loop
    vertex -15.080579314678875 -35.40362094229681 -63.98078528040323
    vertex -23.58057931467888 -35.21602783194785 -63.923879532511286
    vertex -23.58057931467888 -35.40362094229681 -63.98078528040323
  endloop
endfacet
facet normal 0.0 -0.2902846772544611 0.9569403357322093
  outer loop
    vertex -23.58057931467888 -35.21602783194785 -63.923879532511286
    vertex -15.080579314678875 -35.40362094229681 -63.98078528040323
    vertex -15.080579314678875 -35.21602783194785 -63.923879532511286
  endloop
endfacet
facet normal 0.0006389817072513708 -0.0017134573177779461 0.999998327881801
  outer loop
    vertex -15.080579314678875 -43.59871126431294 -63.99999999999999
    vertex -23.58057931467888 -35.40362094229681 -63.98078528040323
    vertex -23.58057931467888 -43.59871126431294 -63.99999999999999
  endloop
endfacet
facet normal 0.0006389817072513708 -0.0017134573177779461 0.999998327881801
  outer loop
    vertex -23.58057931467888 -35.40362094229681 -63.98078528040323
    vertex -15.080579314678875 -43.59871126431294 -63.99999999999999
    vertex -15.080579314678875 -35.40362094229681 -63.98078528040323
  endloop
endfacet
facet normal -2.353904997493346e-16 -0.7730104533627444 -0.6343932841636367
  outer loop
    vertex -15.08057931467887 -34.89160448312639 -44.29289321881344
    vertex -23.58057931467887 -34.7672416520104 -44.444429766980384
    vertex -15.08057931467887 -34.7672416520104 -44.44442976698039
  endloop
endfacet
facet normal -2.353904997493346e-16 -0.7730104533627444 -0.6343932841636367
  outer loop
    vertex -23.58057931467887 -34.7672416520104 -44.444429766980384
    vertex -15.08057931467887 -34.89160448312639 -44.29289321881344
    vertex -23.58057931467887 -34.89160448312639 -44.29289321881343
  endloop
endfacet
facet normal 2.92742963564091e-17 -1.0 0.0
  outer loop
    vertex -15.080579314678873 -53.498711264312945 -25.5
    vertex -23.58057931467887 -53.498711264312945 -28.499999999999993
    vertex -15.080579314678873 -53.498711264312945 -28.499999999999993
  endloop
endfacet
facet normal 2.92742963564091e-17 -1.0 0.0
  outer loop
    vertex -23.58057931467887 -53.498711264312945 -28.499999999999993
    vertex -15.080579314678873 -53.498711264312945 -25.5
    vertex -23.58057931467887 -53.498711264312945 -25.5
  endloop
endfacet
facet normal -3.2723531654060854e-16 -0.4713967368260027 -0.8819212643483524
  outer loop
    vertex -15.08057931467887 -35.04314103129334 -44.16853038769745
    vertex -23.58057931467887 -35.21602783194785 -44.0761204674887
    vertex -23.58057931467887 -35.04314103129334 -44.168530387697444
  endloop
endfacet
facet normal -3.2723531654060854e-16 -0.4713967368260027 -0.8819212643483524
  outer loop
    vertex -23.58057931467887 -35.21602783194785 -44.0761204674887
    vertex -15.08057931467887 -35.04314103129334 -44.16853038769745
    vertex -15.08057931467887 -35.21602783194785 -44.07612046748871
  endloop
endfacet
facet normal -1.9279158898010536e-16 -0.9569403357322085 -0.2902846772544637
  outer loop
    vertex -15.08057931467887 -34.67483173180165 -44.6173165676349
    vertex -23.58057931467887 -34.61792598390971 -44.80490967798386
    vertex -15.08057931467887 -34.61792598390971 -44.804909677983865
  endloop
endfacet
facet normal -1.9279158898010536e-16 -0.9569403357322085 -0.2902846772544637
  outer loop
    vertex -23.58057931467887 -34.61792598390971 -44.80490967798386
    vertex -15.08057931467887 -34.67483173180165 -44.6173165676349
    vertex -23.58057931467887 -34.67483173180165 -44.617316567634894
  endloop
endfacet
facet normal 0.0 0.0 -1.0
  outer loop
    vertex -15.080579314678873 -43.59871126431294 -28.499999999999993
    vertex -23.58057931467887 -53.498711264312945 -28.499999999999993
    vertex -23.58057931467887 -43.59871126431294 -28.499999999999993
  endloop
endfacet
facet normal 0.0 0.0 -1.0
  outer loop
    vertex -23.58057931467887 -53.498711264312945 -28.499999999999993
    vertex -15.080579314678873 -43.59871126431294 -28.499999999999993
    vertex -15.080579314678873 -53.498711264312945 -28.499999999999993
  endloop
endfacet
facet normal 0.0 0.0 1.0
  outer loop
    vertex -15.080579314678875 -43.59871126431294 0.0
    vertex -23.58057931467888 -41.09871126431294 0.0
    vertex -23.58057931467888 -43.59871126431294 0.0
  endloop
endfacet
facet normal 0.0 0.0 1.0
  outer loop
    vertex -23.58057931467888 -41.09871126431294 0.0
    vertex -15.080579314678875 -43.59871126431294 0.0
    vertex -15.080579314678875 -41.09871126431294 0.0
  endloop
endfacet
facet normal 0.0 -0.7730104533627444 0.6343932841636367
  outer loop
    vertex -15.080579314678875 -34.7672416520104 -63.5555702330196
    vertex -23.58057931467888 -34.89160448312639 -63.707106781186546
    vertex -15.080579314678875 -34.89160448312639 -63.707106781186546
  endloop
endfacet
facet normal 0.0 -0.7730104533627444 0.6343932841636367
  outer loop
    vertex -23.58057931467888 -34.89160448312639 -63.707106781186546
    vertex -15.080579314678875 -34.7672416520104 -63.5555702330196
    vertex -23.58057931467888 -34.7672416520104 -63.5555702330196
  endloop
endfacet
facet normal 1.0 -5.866415330702194e-17 -4.174307018661167e-17
  outer loop
    vertex -15.080579314678873 -43.59871126431294 -28.499999999999993
    vertex -15.080579314678873 -53.498711264312945 -25.5
    vertex -15.080579314678873 -53.498711264312945 -28.499999999999993
  endloop
endfacet
facet normal 1.0 -5.866415330702194e-17 -4.174307018661167e-17
  outer loop
    vertex -15.080579314678873 -53.498711264312945 -25.5
    vertex -15.080579314678873 -43.59871126431294 -28.499999999999993
    vertex -15.080579314678875 -43.59871126431294 -20.60359322521395
  endloop
endfacet
facet normal 1.0 -5.866415330702194e-17 -4.174307018661167e-17
  outer loop
    vertex -15.080579314678875 -41.09871126431294 -88.0
    vertex -15.080579314678875 -43.59871126431294 -63.99999999999999
    vertex -15.080579314678875 -43.59871126431294 -88.0
  endloop
endfacet
facet normal 1.0 -5.866415330702194e-17 -4.174307018661167e-17
  outer loop
    vertex -15.080579314678875 -43.59871126431294 -63.99999999999999
    vertex -15.080579314678875 -41.09871126431294 -88.0
    vertex -15.080579314678875 -41.09871126431294 -83.99999999999999
  endloop
endfacet
facet normal 1.0 -5.866415330702194e-17 -4.174307018661167e-17
  outer loop
    vertex -15.080579314678875 -43.59871126431294 -63.99999999999999
    vertex -15.080579314678875 -41.09871126431294 -83.99999999999999
    vertex -15.080579314678875 -35.40362094229681 -63.98078528040323
  endloop
endfacet
facet normal 1.0 -5.866415330702194e-17 -4.174307018661167e-17
  outer loop
    vertex -15.080579314678875 -35.40362094229681 -63.98078528040323
    vertex -15.080579314678875 -41.09871126431294 -83.99999999999999
    vertex -15.080579314678875 -31.09871126431294 -68.99999999999999
  endloop
endfacet
facet normal 1.0 -5.866415330702194e-17 -4.174307018661167e-17
  outer loop
    vertex -15.080579314678875 -35.40362094229681 -63.98078528040323
    vertex -15.080579314678875 -31.09871126431294 -68.99999999999999
    vertex -15.080579314678875 -35.21602783194785 -63.923879532511286
  endloop
endfacet
facet normal 1.0 -5.866415330702194e-17 -4.174307018661167e-17
  outer loop
    vertex -15.080579314678875 -35.21602783194785 -63.923879532511286
    vertex -15.080579314678875 -31.09871126431294 -68.99999999999999
    vertex -15.080579314678875 -35.04314103129334 -63.83146961230254
  endloop
endfacet
facet normal 1.0 -5.866415330702194e-17 -4.174307018661167e-17
  outer loop
    vertex -15.080579314678875 -35.04314103129334 -63.83146961230254
    vertex -15.080579314678875 -31.09871126431294 -68.99999999999999
    vertex -15.080579314678875 -34.89160448312639 -63.707106781186546
  endloop
endfacet
facet normal 1.0 -5.866415330702194e-17 -4.174307018661167e-17
  outer loop
    vertex -15.080579314678875 -34.89160448312639 -63.707106781186546
    vertex -15.080579314678875 -31.09871126431294 -68.99999999999999
    vertex -15.080579314678875 -34.7672416520104 -63.5555702330196
  endloop
endfacet
facet normal 1.0 -5.866415330702194e-17 -4.174307018661167e-17
  outer loop
    vertex -15.080579314678875 -34.7672416520104 -63.5555702330196
    vertex -15.080579314678875 -31.09871126431294 -68.99999999999999
    vertex -15.080579314678875 -34.67483173180165 -63.382683432365084
  endloop
endfacet
facet normal 1.0 -5.866415330702194e-17 -4.174307018661167e-17
  outer loop
    vertex -15.080579314678875 -34.67483173180165 -63.382683432365084
    vertex -15.080579314678875 -31.09871126431294 -68.99999999999999
    vertex -15.080579314678875 -34.61792598390971 -63.19509032201613
  endloop
endfacet
facet normal 1.0 -5.866415330702194e-17 -4.174307018661167e-17
  outer loop
    vertex -15.080579314678875 -34.61792598390971 -63.19509032201613
    vertex -15.080579314678875 -31.09871126431294 -68.99999999999999
    vertex -15.080579314678875 -34.59871126431294 -63.0
  endloop
endfacet
facet normal 1.0 -5.866415330702194e-17 -4.174307018661167e-17
  outer loop
    vertex -15.080579314678875 -34.59871126431294 -63.0
    vertex -15.080579314678875 -31.09871126431294 -68.99999999999999
    vertex -15.08057931467887 -34.59871126431294 -44.99999999999999
  endloop
endfacet
facet normal 1.0 -5.866415330702194e-17 -4.174307018661167e-17
  outer loop
    vertex -15.08057931467887 -35.40362094229681 -44.01921471959676
    vertex -15.080579314678873 -43.59871126431294 -28.499999999999993
    vertex -15.08057931467887 -43.59871126431294 -43.99999999999999
  endloop
endfacet
facet normal 1.0 -5.866415330702194e-17 -4.174307018661167e-17
  outer loop
    vertex -15.080579314678873 -43.59871126431294 -28.499999999999993
    vertex -15.08057931467887 -35.40362094229681 -44.01921471959676
    vertex -15.080579314678875 -43.59871126431294 -20.60359322521395
  endloop
endfacet
facet normal 1.0 -5.866415330702194e-17 -4.174307018661167e-17
  outer loop
    vertex -15.080579314678875 -43.59871126431294 -20.60359322521395
    vertex -15.08057931467887 -35.40362094229681 -44.01921471959676
    vertex -15.080579314678875 -43.59871126431294 0.0
  endloop
endfacet
facet normal 1.0 -5.866415330702194e-17 -4.174307018661167e-17
  outer loop
    vertex -15.080579314678875 -43.59871126431294 0.0
    vertex -15.08057931467887 -35.40362094229681 -44.01921471959676
    vertex -15.080579314678875 -41.09871126431294 -4.0000000000000036
  endloop
endfacet
facet normal 1.0 -5.866415330702194e-17 -4.174307018661167e-17
  outer loop
    vertex -15.080579314678875 -41.09871126431294 -4.0000000000000036
    vertex -15.08057931467887 -35.40362094229681 -44.01921471959676
    vertex -15.080579314678875 -31.09871126431294 -38.99999999999999
  endloop
endfacet
facet normal 1.0 -5.866415330702194e-17 -4.174307018661167e-17
  outer loop
    vertex -15.080579314678875 -31.09871126431294 -38.99999999999999
    vertex -15.08057931467887 -35.40362094229681 -44.01921471959676
    vertex -15.08057931467887 -35.21602783194785 -44.07612046748871
  endloop
endfacet
facet normal 1.0 -5.866415330702194e-17 -4.174307018661167e-17
  outer loop
    vertex -15.080579314678875 -31.09871126431294 -38.99999999999999
    vertex -15.08057931467887 -35.21602783194785 -44.07612046748871
    vertex -15.08057931467887 -35.04314103129334 -44.16853038769745
  endloop
endfacet
facet normal 1.0 -5.866415330702194e-17 -4.174307018661167e-17
  outer loop
    vertex -15.080579314678875 -31.09871126431294 -38.99999999999999
    vertex -15.08057931467887 -35.04314103129334 -44.16853038769745
    vertex -15.08057931467887 -34.89160448312639 -44.29289321881344
  endloop
endfacet
facet normal 1.0 -5.866415330702194e-17 -4.174307018661167e-17
  outer loop
    vertex -15.080579314678875 -31.09871126431294 -38.99999999999999
    vertex -15.08057931467887 -34.89160448312639 -44.29289321881344
    vertex -15.08057931467887 -34.7672416520104 -44.44442976698039
  endloop
endfacet
facet normal 1.0 -5.866415330702194e-17 -4.174307018661167e-17
  outer loop
    vertex -15.080579314678875 -31.09871126431294 -38.99999999999999
    vertex -15.08057931467887 -34.7672416520104 -44.44442976698039
    vertex -15.08057931467887 -34.67483173180165 -44.6173165676349
  endloop
endfacet
facet normal 1.0 -5.866415330702194e-17 -4.174307018661167e-17
  outer loop
    vertex -15.080579314678875 -31.09871126431294 -38.99999999999999
    vertex -15.08057931467887 -34.67483173180165 -44.6173165676349
    vertex -15.08057931467887 -34.61792598390971 -44.804909677983865
  endloop
endfacet
facet normal 1.0 -5.866415330702194e-17 -4.174307018661167e-17
  outer loop
    vertex -15.080579314678875 -31.09871126431294 -38.99999999999999
    vertex -15.08057931467887 -34.61792598390971 -44.804909677983865
    vertex -15.08057931467887 -34.59871126431294 -44.99999999999999
  endloop
endfacet
facet normal 1.0 -5.866415330702194e-17 -4.174307018661167e-17
  outer loop
    vertex -15.080579314678875 -31.09871126431294 -38.99999999999999
    vertex -15.08057931467887 -34.59871126431294 -44.99999999999999
    vertex -15.080579314678875 -31.09871126431294 -68.99999999999999
  endloop
endfacet
facet normal 1.0 -5.866415330702194e-17 -4.174307018661167e-17
  outer loop
    vertex -15.080579314678875 -41.09871126431294 0.0
    vertex -15.080579314678875 -43.59871126431294 0.0
    vertex -15.080579314678875 -41.09871126431294 -4.0000000000000036
  endloop
endfacet
facet normal 0.0 1.0 0.0
  outer loop
    vertex -23.58057931467888 -41.09871126431294 -83.99999999999999
    vertex -15.080579314678875 -41.09871126431294 -88.0
    vertex -23.58057931467888 -41.09871126431294 -88.0
  endloop
endfacet
facet normal 0.0 1.0 0.0
  outer loop
    vertex -15.080579314678875 -41.09871126431294 -88.0
    vertex -23.58057931467888 -41.09871126431294 -83.99999999999999
    vertex -15.080579314678875 -41.09871126431294 -83.99999999999999
  endloop
endfacet
facet normal 0.0 0.0 -1.0
  outer loop
    vertex -15.080579314678875 -41.09871126431294 -88.0
    vertex -23.58057931467888 -43.59871126431294 -88.0
    vertex -23.58057931467888 -41.09871126431294 -88.0
  endloop
endfacet
facet normal 0.0 0.0 -1.0
  outer loop
    vertex -23.58057931467888 -43.59871126431294 -88.0
    vertex -15.080579314678875 -41.09871126431294 -88.0
    vertex -15.080579314678875 -43.59871126431294 -88.0
  endloop
endfacet
facet normal 0.0 -0.6343932841636308 0.7730104533627492
  outer loop
    vertex -15.080579314678875 -35.04314103129334 -63.83146961230254
    vertex -23.58057931467888 -34.89160448312639 -63.707106781186546
    vertex -23.58057931467888 -35.04314103129334 -63.83146961230254
  endloop
endfacet
facet normal 0.0 -0.6343932841636308 0.7730104533627492
  outer loop
    vertex -23.58057931467888 -34.89160448312639 -63.707106781186546
    vertex -15.080579314678875 -35.04314103129334 -63.83146961230254
    vertex -15.080579314678875 -34.89160448312639 -63.707106781186546
  endloop
endfacet
facet normal -6.348538533986235e-16 -0.2902846772544611 -0.9569403357322093
  outer loop
    vertex -15.08057931467887 -35.21602783194785 -44.07612046748871
    vertex -23.58057931467887 -35.40362094229681 -44.01921471959676
    vertex -23.58057931467887 -35.21602783194785 -44.0761204674887
  endloop
endfacet
facet normal -6.348538533986235e-16 -0.2902846772544611 -0.9569403357322093
  outer loop
    vertex -23.58057931467887 -35.40362094229681 -44.01921471959676
    vertex -15.08057931467887 -35.21602783194785 -44.07612046748871
    vertex -15.08057931467887 -35.40362094229681 -44.01921471959676
  endloop
endfacet
facet normal -1.0 0.0 0.0
  outer loop
    vertex -21.280579314678874 -34.43204459764627 -73.99999999999999
    vertex -21.280579314678874 -38.59871126431294 -80.25
    vertex -21.280579314678874 -38.59871126431294 -73.99999999999999
  endloop
endfacet
facet normal 0.0 0.0 -1.0
  outer loop
    vertex -21.280579314678874 -34.43204459764627 -73.99999999999999
    vertex -23.58057931467888 -38.59871126431294 -73.99999999999999
    vertex -23.58057931467888 -34.43204459764627 -73.99999999999999
  endloop
endfacet
facet normal 0.0 0.0 -1.0
  outer loop
    vertex -23.58057931467888 -38.59871126431294 -73.99999999999999
    vertex -21.280579314678874 -34.43204459764627 -73.99999999999999
    vertex -21.280579314678874 -38.59871126431294 -73.99999999999999
  endloop
endfacet
facet normal 0.001130276901359715 -0.9999993612368593 5.151137671495082e-17
  outer loop
    vertex -15.080579314678875 -34.59871126431294 -63.0
    vertex -23.58057931467888 -34.61792598390971 -63.19509032201613
    vertex -15.080579314678875 -34.61792598390971 -63.19509032201613
  endloop
endfacet
facet normal 0.001130276901359715 -0.9999993612368593 5.151137671495082e-17
  outer loop
    vertex -23.58057931467888 -34.61792598390971 -63.19509032201613
    vertex -15.080579314678875 -34.59871126431294 -63.0
    vertex -23.58057931467887 -34.61792598390971 -44.80490967798386
  endloop
endfacet
facet normal 0.001130276901359715 -0.9999993612368593 5.151137671495082e-17
  outer loop
    vertex -23.58057931467887 -34.61792598390971 -44.80490967798386
    vertex -15.080579314678875 -34.59871126431294 -63.0
    vertex -15.08057931467887 -34.59871126431294 -44.99999999999999
  endloop
endfacet
facet normal 0.001130276901359715 -0.9999993612368593 5.151137671495082e-17
  outer loop
    vertex -23.58057931467887 -34.61792598390971 -44.80490967798386
    vertex -15.08057931467887 -34.59871126431294 -44.99999999999999
    vertex -15.08057931467887 -34.61792598390971 -44.804909677983865
  endloop
endfacet
facet normal 0.0 1.0 -1.127986593019157e-16
  outer loop
    vertex -23.58057931467888 -38.59871126431294 -73.99999999999999
    vertex -21.280579314678874 -38.59871126431294 -80.25
    vertex -23.58057931467888 -38.59871126431294 -80.25
  endloop
endfacet
facet normal 0.0 1.0 -1.127986593019157e-16
  outer loop
    vertex -21.280579314678874 -38.59871126431294 -80.25
    vertex -23.58057931467888 -38.59871126431294 -73.99999999999999
    vertex -21.280579314678874 -38.59871126431294 -73.99999999999999
  endloop
endfacet
facet normal -2.8682415383448955e-16 -0.6343932841636273 -0.773010453362752
  outer loop
    vertex -15.08057931467887 -34.89160448312639 -44.29289321881344
    vertex -23.58057931467887 -35.04314103129334 -44.168530387697444
    vertex -23.58057931467887 -34.89160448312639 -44.29289321881343
  endloop
endfacet
facet normal -2.8682415383448955e-16 -0.6343932841636273 -0.773010453362752
  outer loop
    vertex -23.58057931467887 -35.04314103129334 -44.168530387697444
    vertex -15.08057931467887 -34.89160448312639 -44.29289321881344
    vertex -15.08057931467887 -35.04314103129334 -44.16853038769745
  endloop
endfacet
facet normal 0.0 1.0 0.0
  outer loop
    vertex -23.58057931467888 -41.09871126431294 0.0
    vertex -15.080579314678875 -41.09871126431294 -4.0000000000000036
    vertex -23.58057931467888 -41.09871126431294 -4.0000000000000036
  endloop
endfacet
facet normal 0.0 1.0 0.0
  outer loop
    vertex -15.080579314678875 -41.09871126431294 -4.0000000000000036
    vertex -23.58057931467888 -41.09871126431294 0.0
    vertex -15.080579314678875 -41.09871126431294 0.0
  endloop
endfacet
facet normal 0.0 -0.47139673682602506 0.8819212643483404
  outer loop
    vertex -15.080579314678875 -35.21602783194785 -63.923879532511286
    vertex -23.58057931467888 -35.04314103129334 -63.83146961230254
    vertex -23.58057931467888 -35.21602783194785 -63.923879532511286
  endloop
endfacet
facet normal 0.0 -0.47139673682602506 0.8819212643483404
  outer loop
    vertex -23.58057931467888 -35.04314103129334 -63.83146961230254
    vertex -15.080579314678875 -35.21602783194785 -63.923879532511286
    vertex -15.080579314678875 -35.04314103129334 -63.83146961230254
  endloop
endfacet
facet normal 0.000638981707251753 -0.0017134573177775521 -0.999998327881801
  outer loop
    vertex -15.08057931467887 -35.40362094229681 -44.01921471959676
    vertex -23.58057931467887 -43.59871126431294 -44.00000000000001
    vertex -23.58057931467887 -35.40362094229681 -44.01921471959676
  endloop
endfacet
facet normal 0.000638981707251753 -0.0017134573177775521 -0.999998327881801
  outer loop
    vertex -23.58057931467887 -43.59871126431294 -44.00000000000001
    vertex -15.08057931467887 -35.40362094229681 -44.01921471959676
    vertex -15.08057931467887 -43.59871126431294 -43.99999999999999
  endloop
endfacet
facet normal -2.6867780266806078e-17 -0.44332745952792735 0.89635972891943
  outer loop
    vertex -23.58057931467887 -53.498711264312945 -25.5
    vertex -15.080579314678875 -43.59871126431294 -20.60359322521395
    vertex -23.580579314678875 -43.59871126431294 -20.60359322521395
  endloop
endfacet
facet normal -2.6867780266806078e-17 -0.44332745952792735 0.89635972891943
  outer loop
    vertex -15.080579314678875 -43.59871126431294 -20.60359322521395
    vertex -23.58057931467887 -53.498711264312945 -25.5
    vertex -15.080579314678873 -53.498711264312945 -25.5
  endloop
endfacet
facet normal 3.796695993963629e-16 0.8320502943378437 -0.554700196225229
  outer loop
    vertex -23.58057931467888 -31.09871126431294 -69.0
    vertex -21.280579314678874 -34.43204459764627 -73.99999999999999
    vertex -23.58057931467888 -34.43204459764627 -73.99999999999999
  endloop
endfacet
facet normal 3.796695993963629e-16 0.8320502943378437 -0.554700196225229
  outer loop
    vertex -23.58057931467888 -38.59871126431294 -80.25
    vertex -15.080579314678875 -41.09871126431294 -83.99999999999999
    vertex -23.58057931467888 -41.09871126431294 -83.99999999999999
  endloop
endfacet
facet normal 3.796695993963629e-16 0.8320502943378437 -0.554700196225229
  outer loop
    vertex -15.080579314678875 -41.09871126431294 -83.99999999999999
    vertex -23.58057931467888 -38.59871126431294 -80.25
    vertex -21.280579314678874 -38.59871126431294 -80.25
  endloop
endfacet
facet normal 3.796695993963629e-16 0.8320502943378437 -0.554700196225229
  outer loop
    vertex -15.080579314678875 -41.09871126431294 -83.99999999999999
    vertex -21.280579314678874 -38.59871126431294 -80.25
    vertex -15.080579314678875 -31.09871126431294 -68.99999999999999
  endloop
endfacet
facet normal 3.796695993963629e-16 0.8320502943378437 -0.554700196225229
  outer loop
    vertex -15.080579314678875 -31.09871126431294 -68.99999999999999
    vertex -21.280579314678874 -38.59871126431294 -80.25
    vertex -21.280579314678874 -34.43204459764627 -73.99999999999999
  endloop
endfacet
facet normal 3.796695993963629e-16 0.8320502943378437 -0.554700196225229
  outer loop
    vertex -15.080579314678875 -31.09871126431294 -68.99999999999999
    vertex -21.280579314678874 -34.43204459764627 -73.99999999999999
    vertex -23.58057931467888 -31.09871126431294 -69.0
  endloop
endfacet
facet normal -1.0 4.7215432208965426e-17 4.4556832422172697e-17
  outer loop
    vertex -23.580579314678875 -43.59871126431294 -20.60359322521395
    vertex -23.58057931467887 -53.498711264312945 -28.499999999999993
    vertex -23.58057931467887 -53.498711264312945 -25.5
  endloop
endfacet
facet normal -1.0 4.7215432208965426e-17 4.4556832422172697e-17
  outer loop
    vertex -23.58057931467887 -53.498711264312945 -28.499999999999993
    vertex -23.580579314678875 -43.59871126431294 -20.60359322521395
    vertex -23.58057931467887 -43.59871126431294 -28.499999999999993
  endloop
endfacet
facet normal -1.0 4.7215432208965426e-17 4.4556832422172697e-17
  outer loop
    vertex -23.58057931467888 -41.09871126431294 0.0
    vertex -23.580579314678875 -43.59871126431294 -20.60359322521395
    vertex -23.58057931467888 -43.59871126431294 0.0
  endloop
endfacet
facet normal -1.0 4.7215432208965426e-17 4.4556832422172697e-17
  outer loop
    vertex -23.580579314678875 -43.59871126431294 -20.60359322521395
    vertex -23.58057931467888 -41.09871126431294 0.0
    vertex -23.58057931467887 -43.59871126431294 -28.499999999999993
  endloop
endfacet
facet normal -1.0 4.7215432208965426e-17 4.4556832422172697e-17
  outer loop
    vertex -23.58057931467887 -43.59871126431294 -28.499999999999993
    vertex -23.58057931467888 -41.09871126431294 0.0
    vertex -23.58057931467887 -43.59871126431294 -44.00000000000001
  endloop
endfacet
facet normal -1.0 4.7215432208965426e-17 4.4556832422172697e-17
  outer loop
    vertex -23.58057931467887 -43.59871126431294 -44.00000000000001
    vertex -23.58057931467888 -41.09871126431294 0.0
    vertex -23.58057931467888 -41.09871126431294 -4.0000000000000036
  endloop
endfacet
facet normal -1.0 4.7215432208965426e-17 4.4556832422172697e-17
  outer loop
    vertex -23.58057931467887 -43.59871126431294 -44.00000000000001
    vertex -23.58057931467888 -41.09871126431294 -4.0000000000000036
    vertex -23.58057931467887 -35.40362094229681 -44.01921471959676
  endloop
endfacet
facet normal -1.0 4.7215432208965426e-17 4.4556832422172697e-17
  outer loop
    vertex -23.58057931467887 -35.40362094229681 -44.01921471959676
    vertex -23.58057931467888 -41.09871126431294 -4.0000000000000036
    vertex -23.58057931467888 -31.09871126431294 -38.99999999999999
  endloop
endfacet
facet normal -1.0 4.7215432208965426e-17 4.4556832422172697e-17
  outer loop
    vertex -23.58057931467887 -35.40362094229681 -44.01921471959676
    vertex -23.58057931467888 -31.09871126431294 -38.99999999999999
    vertex -23.58057931467887 -35.21602783194785 -44.0761204674887
  endloop
endfacet
facet normal -1.0 4.7215432208965426e-17 4.4556832422172697e-17
  outer loop
    vertex -23.58057931467887 -35.21602783194785 -44.0761204674887
    vertex -23.58057931467888 -31.09871126431294 -38.99999999999999
    vertex -23.58057931467887 -35.04314103129334 -44.168530387697444
  endloop
endfacet
facet normal -1.0 4.7215432208965426e-17 4.4556832422172697e-17
  outer loop
    vertex -23.58057931467887 -35.04314103129334 -44.168530387697444
    vertex -23.58057931467888 -31.09871126431294 -38.99999999999999
    vertex -23.58057931467887 -34.89160448312639 -44.29289321881343
  endloop
endfacet
facet normal -1.0 4.7215432208965426e-17 4.4556832422172697e-17
  outer loop
    vertex -23.58057931467887 -34.89160448312639 -44.29289321881343
    vertex -23.58057931467888 -31.09871126431294 -38.99999999999999
    vertex -23.58057931467887 -34.7672416520104 -44.444429766980384
  endloop
endfacet
facet normal -1.0 4.7215432208965426e-17 4.4556832422172697e-17
  outer loop
    vertex -23.58057931467887 -34.7672416520104 -44.444429766980384
    vertex -23.58057931467888 -31.09871126431294 -38.99999999999999
    vertex -23.58057931467887 -34.67483173180165 -44.617316567634894
  endloop
endfacet
facet normal -1.0 4.7215432208965426e-17 4.4556832422172697e-17
  outer loop
    vertex -23.58057931467887 -34.67483173180165 -44.617316567634894
    vertex -23.58057931467888 -31.09871126431294 -38.99999999999999
    vertex -23.58057931467887 -34.61792598390971 -44.80490967798386
  endloop
endfacet
facet normal -1.0 4.7215432208965426e-17 4.4556832422172697e-17
  outer loop
    vertex -23.58057931467887 -34.61792598390971 -44.80490967798386
    vertex -23.58057931467888 -31.09871126431294 -38.99999999999999
    vertex -23.58057931467888 -34.61792598390971 -63.19509032201613
  endloop
endfacet
facet normal -1.0 4.7215432208965426e-17 4.4556832422172697e-17
  outer loop
    vertex -23.58057931467888 -34.61792598390971 -63.19509032201613
    vertex -23.58057931467888 -31.09871126431294 -38.99999999999999
    vertex -23.58057931467888 -34.43204459764627 -73.99999999999999
  endloop
endfacet
facet normal -1.0 4.7215432208965426e-17 4.4556832422172697e-17
  outer loop
    vertex -23.58057931467888 -34.43204459764627 -73.99999999999999
    vertex -23.58057931467888 -31.09871126431294 -38.99999999999999
    vertex -23.58057931467888 -31.09871126431294 -69.0
  endloop
endfacet
facet normal -1.0 4.7215432208965426e-17 4.4556832422172697e-17
  outer loop
    vertex -23.58057931467888 -35.40362094229681 -63.98078528040323
    vertex -23.58057931467888 -43.59871126431294 -88.0
    vertex -23.58057931467888 -43.59871126431294 -63.99999999999999
  endloop
endfacet
facet normal -1.0 4.7215432208965426e-17 4.4556832422172697e-17
  outer loop
    vertex -23.58057931467888 -43.59871126431294 -88.0
    vertex -23.58057931467888 -35.40362094229681 -63.98078528040323
    vertex -23.58057931467888 -38.59871126431294 -73.99999999999999
  endloop
endfacet
facet normal -1.0 4.7215432208965426e-17 4.4556832422172697e-17
  outer loop
    vertex -23.58057931467888 -43.59871126431294 -88.0
    vertex -23.58057931467888 -38.59871126431294 -73.99999999999999
    vertex -23.58057931467888 -41.09871126431294 -83.99999999999999
  endloop
endfacet
facet normal -1.0 4.7215432208965426e-17 4.4556832422172697e-17
  outer loop
    vertex -23.58057931467888 -38.59871126431294 -73.99999999999999
    vertex -23.58057931467888 -35.40362094229681 -63.98078528040323
    vertex -23.58057931467888 -34.43204459764627 -73.99999999999999
  endloop
endfacet
facet normal -1.0 4.7215432208965426e-17 4.4556832422172697e-17
  outer loop
    vertex -23.58057931467888 -34.43204459764627 -73.99999999999999
    vertex -23.58057931467888 -35.40362094229681 -63.98078528040323
    vertex -23.58057931467888 -35.21602783194785 -63.923879532511286
  endloop
endfacet
facet normal -1.0 4.7215432208965426e-17 4.4556832422172697e-17
  outer loop
    vertex -23.58057931467888 -34.43204459764627 -73.99999999999999
    vertex -23.58057931467888 -35.21602783194785 -63.923879532511286
    vertex -23.58057931467888 -35.04314103129334 -63.83146961230254
  endloop
endfacet
facet normal -1.0 4.7215432208965426e-17 4.4556832422172697e-17
  outer loop
    vertex -23.58057931467888 -34.43204459764627 -73.99999999999999
    vertex -23.58057931467888 -35.04314103129334 -63.83146961230254
    vertex -23.58057931467888 -34.89160448312639 -63.707106781186546
  endloop
endfacet
facet normal -1.0 4.7215432208965426e-17 4.4556832422172697e-17
  outer loop
    vertex -23.58057931467888 -34.43204459764627 -73.99999999999999
    vertex -23.58057931467888 -34.89160448312639 -63.707106781186546
    vertex -23.58057931467888 -34.7672416520104 -63.5555702330196
  endloop
endfacet
facet normal -1.0 4.7215432208965426e-17 4.4556832422172697e-17
  outer loop
    vertex -23.58057931467888 -34.43204459764627 -73.99999999999999
    vertex -23.58057931467888 -34.7672416520104 -63.5555702330196
    vertex -23.58057931467888 -34.67483173180165 -63.382683432365084
  endloop
endfacet
facet normal -1.0 4.7215432208965426e-17 4.4556832422172697e-17
  outer loop
    vertex -23.58057931467888 -34.43204459764627 -73.99999999999999
    vertex -23.58057931467888 -34.67483173180165 -63.382683432365084
    vertex -23.58057931467888 -34.61792598390971 -63.19509032201613
  endloop
endfacet
facet normal -1.0 4.7215432208965426e-17 4.4556832422172697e-17
  outer loop
    vertex -23.58057931467888 -38.59871126431294 -80.25
    vertex -23.58057931467888 -41.09871126431294 -83.99999999999999
    vertex -23.58057931467888 -38.59871126431294 -73.99999999999999
  endloop
endfacet
facet normal -1.0 4.7215432208965426e-17 4.4556832422172697e-17
  outer loop
    vertex -23.58057931467888 -41.09871126431294 -88.0
    vertex -23.58057931467888 -43.59871126431294 -88.0
    vertex -23.58057931467888 -41.09871126431294 -83.99999999999999
  endloop
endfacet
facet normal 0.0 1.0 0.0
  outer loop
    vertex -23.58057931467888 -31.09871126431294 -38.99999999999999
    vertex -15.080579314678875 -31.09871126431294 -68.99999999999999
    vertex -23.58057931467888 -31.09871126431294 -69.0
  endloop
endfacet
facet normal 0.0 1.0 0.0
  outer loop
    vertex -15.080579314678875 -31.09871126431294 -68.99999999999999
    vertex -23.58057931467888 -31.09871126431294 -38.99999999999999
    vertex -15.080579314678875 -31.09871126431294 -38.99999999999999
  endloop
endfacet
facet normal 0.0 -0.9569403357322056 0.29028467725447316
  outer loop
    vertex -15.080579314678875 -34.61792598390971 -63.19509032201613
    vertex -23.58057931467888 -34.67483173180165 -63.382683432365084
    vertex -15.080579314678875 -34.67483173180165 -63.382683432365084
  endloop
endfacet
facet normal 0.0 -0.9569403357322056 0.29028467725447316
  outer loop
    vertex -23.58057931467888 -34.67483173180165 -63.382683432365084
    vertex -15.080579314678875 -34.61792598390971 -63.19509032201613
    vertex -23.58057931467888 -34.61792598390971 -63.19509032201613
  endloop
endfacet
facet normal 0.0 -0.8819212643483573 0.4713967368259938
  outer loop
    vertex -15.080579314678875 -34.67483173180165 -63.382683432365084
    vertex -23.58057931467888 -34.7672416520104 -63.5555702330196
    vertex -15.080579314678875 -34.7672416520104 -63.5555702330196
  endloop
endfacet
facet normal 0.0 -0.8819212643483573 0.4713967368259938
  outer loop
    vertex -23.58057931467888 -34.7672416520104 -63.5555702330196
    vertex -15.080579314678875 -34.67483173180165 -63.382683432365084
    vertex -23.58057931467888 -34.67483173180165 -63.382683432365084
  endloop
endfacet
facet normal -1.7491092076733863e-16 -0.8819212643483537 -0.4713967368260001
  outer loop
    vertex -15.08057931467887 -34.7672416520104 -44.44442976698039
    vertex -23.58057931467887 -34.67483173180165 -44.617316567634894
    vertex -15.08057931467887 -34.67483173180165 -44.6173165676349
  endloop
endfacet
facet normal -1.7491092076733863e-16 -0.8819212643483537 -0.4713967368260001
  outer loop
    vertex -23.58057931467887 -34.67483173180165 -44.617316567634894
    vertex -15.08057931467887 -34.7672416520104 -44.44442976698039
    vertex -23.58057931467887 -34.7672416520104 -44.444429766980384
  endloop
endfacet
facet normal 1.463714817820455e-17 -1.0 6.038546682356507e-18
  outer loop
    vertex -15.080579314678875 -43.59871126431294 0.0
    vertex -23.580579314678875 -43.59871126431294 -20.60359322521395
    vertex -15.080579314678875 -43.59871126431294 -20.60359322521395
  endloop
endfacet
facet normal 1.463714817820455e-17 -1.0 6.038546682356507e-18
  outer loop
    vertex -23.580579314678875 -43.59871126431294 -20.60359322521395
    vertex -15.080579314678875 -43.59871126431294 0.0
    vertex -23.58057931467888 -43.59871126431294 0.0
  endloop
endfacet
facet normal 0.0 0.9615239476408232 0.2747211278973781
  outer loop
    vertex -23.58057931467888 -41.09871126431294 -4.0000000000000036
    vertex -15.080579314678875 -31.09871126431294 -38.99999999999999
    vertex -23.58057931467888 -31.09871126431294 -38.99999999999999
  endloop
endfacet
facet normal 0.0 0.9615239476408232 0.2747211278973781
  outer loop
    vertex -15.080579314678875 -31.09871126431294 -38.99999999999999
    vertex -23.58057931467888 -41.09871126431294 -4.0000000000000036
    vertex -15.080579314678875 -41.09871126431294 -4.0000000000000036
  endloop
endfacet
facet normal 1.4637148178204552e-17 -1.0 -8.026823194499265e-18
  outer loop
    vertex -15.08057931467887 -43.59871126431294 -43.99999999999999
    vertex -23.58057931467887 -43.59871126431294 -28.499999999999993
    vertex -23.58057931467887 -43.59871126431294 -44.00000000000001
  endloop
endfacet
facet normal 1.4637148178204552e-17 -1.0 -8.026823194499265e-18
  outer loop
    vertex -23.58057931467887 -43.59871126431294 -28.499999999999993
    vertex -15.08057931467887 -43.59871126431294 -43.99999999999999
    vertex -15.080579314678873 -43.59871126431294 -28.499999999999993
  endloop
endfacet
facet normal 0.0 -1.0 0.0
  outer loop
    vertex -15.080579314678875 -43.59871126431294 -63.99999999999999
    vertex -23.58057931467888 -43.59871126431294 -88.0
    vertex -15.080579314678875 -43.59871126431294 -88.0
  endloop
endfacet
facet normal 0.0 -1.0 0.0
  outer loop
    vertex -23.58057931467888 -43.59871126431294 -88.0
    vertex -15.080579314678875 -43.59871126431294 -63.99999999999999
    vertex -23.58057931467888 -43.59871126431294 -63.99999999999999
  endloop
endfacet
endsolid breadboard_holder
