solid breadboard_holder
facet normal 0.0 1.0 0.0
  outer loop
    vertex -8.5 2.5 -83.99999999999999
    vertex 0.0 2.5 -88.0
    vertex -8.5 2.5 -88.0
  endloop
endfacet
facet normal 0.0 1.0 0.0
  outer loop
    vertex 0.0 2.5 -88.0
    vertex -8.5 2.5 -83.99999999999999
    vertex 0.0 2.5 -83.99999999999999
  endloop
endfacet
facet normal 0.0 -0.8819212643483573 0.4713967368259938
  outer loop
    vertex 0.0 8.923879532511286 -63.382683432365084
    vertex -8.5 8.831469612302543 -63.5555702330196
    vertex 0.0 8.831469612302543 -63.5555702330196
  endloop
endfacet
facet normal 0.0 -0.8819212643483573 0.4713967368259938
  outer loop
    vertex -8.5 8.831469612302543 -63.5555702330196
    vertex 0.0 8.923879532511286 -63.382683432365084
    vertex -8.5 8.923879532511286 -63.382683432365084
  endloop
endfacet
facet normal 3.7806879547082854e-16 0.8320502943378437 -0.554700196225229
  outer loop
    vertex -8.5 12.5 -69.0
    vertex 0.0 2.5 -83.99999999999999
    vertex -8.5 2.5 -83.99999999999999
  endloop
endfacet
facet normal 3.7806879547082854e-16 0.8320502943378437 -0.554700196225229
  outer loop
    vertex 0.0 2.5 -83.99999999999999
    vertex -8.5 12.5 -69.0
    vertex 0.0 12.5 -68.99999999999999
  endloop
endfacet
facet normal 0.0 -0.47139673682602506 0.8819212643483404
  outer loop
    vertex 0.0 8.38268343236509 -63.923879532511286
    vertex -8.5 8.555570233019603 -63.83146961230254
    vertex -8.5 8.38268343236509 -63.923879532511286
  endloop
endfacet
facet normal 0.0 -0.47139673682602506 0.8819212643483404
  outer loop
    vertex -8.5 8.555570233019603 -63.83146961230254
    vertex 0.0 8.38268343236509 -63.923879532511286
    vertex 0.0 8.555570233019603 -63.83146961230254
  endloop
endfacet
facet normal 0.0 -0.7730104533627444 0.6343932841636367
  outer loop
    vertex 0.0 8.831469612302543 -63.5555702330196
    vertex -8.5 8.707106781186548 -63.707106781186546
    vertex 0.0 8.707106781186548 -63.707106781186546
  endloop
endfacet
facet normal 0.0 -0.7730104533627444 0.6343932841636367
  outer loop
    vertex -8.5 8.707106781186548 -63.707106781186546
    vertex 0.0 8.831469612302543 -63.5555702330196
    vertex -8.5 8.831469612302543 -63.5555702330196
  endloop
endfacet
facet normal 0.0 -0.9569403357322056 0.29028467725447316
  outer loop
    vertex 0.0 8.98078528040323 -63.19509032201613
    vertex -8.5 8.923879532511286 -63.382683432365084
    vertex 0.0 8.923879532511286 -63.382683432365084
  endloop
endfacet
facet normal 0.0 -0.9569403357322056 0.29028467725447316
  outer loop
    vertex -8.5 8.923879532511286 -63.382683432365084
    vertex 0.0 8.98078528040323 -63.19509032201613
    vertex -8.5 8.98078528040323 -63.19509032201613
  endloop
endfacet
facet normal -1.0 4.4916350799350274e-17 3.771819470607099e-17
  outer loop
    vertex -8.499999999999996 -2.4883151902947726e-16 -20.60359322521395
    vertex -8.499999999999996 -9.9 -28.499999999999993
    vertex -8.499999999999996 -9.9 -25.5
  endloop
endfacet
facet normal -1.0 4.4916350799350274e-17 3.771819470607099e-17
  outer loop
    vertex -8.499999999999996 -9.9 -28.499999999999993
    vertex -8.499999999999996 -2.4883151902947726e-16 -20.60359322521395
    vertex -8.499999999999996 -2.4883151902947726e-16 -28.499999999999993
  endloop
endfacet
facet normal -1.0 4.4916350799350274e-17 3.771819470607099e-17
  outer loop
    vertex -8.499999999999996 -2.4883151902947726e-16 -28.499999999999993
    vertex -8.499999999999996 -2.4883151902947726e-16 -20.60359322521395
    vertex -8.5 0.0 0.0
  endloop
endfacet
facet normal -1.0 4.4916350799350274e-17 3.771819470607099e-17
  outer loop
    vertex -8.499999999999996 -2.4883151902947726e-16 -28.499999999999993
    vertex -8.5 0.0 0.0
    vertex -8.499999999999993 0.0 -44.00000000000001
  endloop
endfacet
facet normal -1.0 4.4916350799350274e-17 3.771819470607099e-17
  outer loop
    vertex -8.499999999999993 0.0 -44.00000000000001
    vertex -8.5 0.0 0.0
    vertex -8.5 2.5 0.0
  endloop
endfacet
facet normal -1.0 4.4916350799350274e-17 3.771819470607099e-17
  outer loop
    vertex -8.499999999999993 0.0 -44.00000000000001
    vertex -8.5 2.5 0.0
    vertex -8.5 2.5 -4.0000000000000036
  endloop
endfacet
facet normal -1.0 4.4916350799350274e-17 3.771819470607099e-17
  outer loop
    vertex -8.499999999999993 0.0 -44.00000000000001
    vertex -8.5 2.5 -4.0000000000000036
    vertex -8.499999999999993 8.19509032201613 -44.01921471959676
  endloop
endfacet
facet normal -1.0 4.4916350799350274e-17 3.771819470607099e-17
  outer loop
    vertex -8.499999999999993 8.19509032201613 -44.01921471959676
    vertex -8.5 2.5 -4.0000000000000036
    vertex -8.5 12.5 -38.99999999999999
  endloop
endfacet
facet normal -1.0 4.4916350799350274e-17 3.771819470607099e-17
  outer loop
    vertex -8.499999999999993 8.19509032201613 -44.01921471959676
    vertex -8.5 12.5 -38.99999999999999
    vertex -8.499999999999993 8.38268343236509 -44.0761204674887
  endloop
endfacet
facet normal -1.0 4.4916350799350274e-17 3.771819470607099e-17
  outer loop
    vertex -8.499999999999993 8.38268343236509 -44.0761204674887
    vertex -8.5 12.5 -38.99999999999999
    vertex -8.499999999999993 8.555570233019603 -44.168530387697444
  endloop
endfacet
facet normal -1.0 4.4916350799350274e-17 3.771819470607099e-17
  outer loop
    vertex -8.499999999999993 8.555570233019603 -44.168530387697444
    vertex -8.5 12.5 -38.99999999999999
    vertex -8.499999999999993 8.707106781186548 -44.29289321881343
  endloop
endfacet
facet normal -1.0 4.4916350799350274e-17 3.771819470607099e-17
  outer loop
    vertex -8.499999999999993 8.707106781186548 -44.29289321881343
    vertex -8.5 12.5 -38.99999999999999
    vertex -8.499999999999993 8.831469612302545 -44.444429766980384
  endloop
endfacet
facet normal -1.0 4.4916350799350274e-17 3.771819470607099e-17
  outer loop
    vertex -8.499999999999993 8.831469612302545 -44.444429766980384
    vertex -8.5 12.5 -38.99999999999999
    vertex -8.499999999999993 8.923879532511286 -44.617316567634894
  endloop
endfacet
facet normal -1.0 4.4916350799350274e-17 3.771819470607099e-17
  outer loop
    vertex -8.499999999999993 8.923879532511286 -44.617316567634894
    vertex -8.5 12.5 -38.99999999999999
    vertex -8.499999999999993 8.980785280403232 -44.80490967798386
  endloop
endfacet
facet normal -1.0 4.4916350799350274e-17 3.771819470607099e-17
  outer loop
    vertex -8.5 8.19509032201613 -63.98078528040323
    vertex -8.5 0.0 -88.0
    vertex -8.5 0.0 -63.99999999999999
  endloop
endfacet
facet normal -1.0 4.4916350799350274e-17 3.771819470607099e-17
  outer loop
    vertex -8.5 0.0 -88.0
    vertex -8.5 8.19509032201613 -63.98078528040323
    vertex -8.5 2.5 -83.99999999999999
  endloop
endfacet
facet normal -1.0 4.4916350799350274e-17 3.771819470607099e-17
  outer loop
    vertex -8.5 2.5 -83.99999999999999
    vertex -8.5 8.19509032201613 -63.98078528040323
    vertex -8.5 12.5 -69.0
  endloop
endfacet
facet normal -1.0 4.4916350799350274e-17 3.771819470607099e-17
  outer loop
    vertex -8.5 12.5 -69.0
    vertex -8.5 8.19509032201613 -63.98078528040323
    vertex -8.5 8.38268343236509 -63.923879532511286
  endloop
endfacet
facet normal -1.0 4.4916350799350274e-17 3.771819470607099e-17
  outer loop
    vertex -8.5 12.5 -69.0
    vertex -8.5 8.38268343236509 -63.923879532511286
    vertex -8.5 8.555570233019603 -63.83146961230254
  endloop
endfacet
facet normal -1.0 4.4916350799350274e-17 3.771819470607099e-17
  outer loop
    vertex -8.5 12.5 -69.0
    vertex -8.5 8.555570233019603 -63.83146961230254
    vertex -8.5 8.707106781186548 -63.707106781186546
  endloop
endfacet
facet normal -1.0 4.4916350799350274e-17 3.771819470607099e-17
  outer loop
    vertex -8.5 12.5 -69.0
    vertex -8.5 8.707106781186548 -63.707106781186546
    vertex -8.5 8.831469612302543 -63.5555702330196
  endloop
endfacet
facet normal -1.0 4.4916350799350274e-17 3.771819470607099e-17
  outer loop
    vertex -8.5 12.5 -69.0
    vertex -8.5 8.831469612302543 -63.5555702330196
    vertex -8.5 8.923879532511286 -63.382683432365084
  endloop
endfacet
facet normal -1.0 4.4916350799350274e-17 3.771819470607099e-17
  outer loop
    vertex -8.5 12.5 -69.0
    vertex -8.5 8.923879532511286 -63.382683432365084
    vertex -8.5 8.98078528040323 -63.19509032201613
  endloop
endfacet
facet normal -1.0 4.4916350799350274e-17 3.771819470607099e-17
  outer loop
    vertex -8.5 12.5 -69.0
    vertex -8.5 8.98078528040323 -63.19509032201613
    vertex -8.499999999999993 8.980785280403232 -44.80490967798386
  endloop
endfacet
facet normal -1.0 4.4916350799350274e-17 3.771819470607099e-17
  outer loop
    vertex -8.5 12.5 -69.0
    vertex -8.499999999999993 8.980785280403232 -44.80490967798386
    vertex -8.5 12.5 -38.99999999999999
  endloop
endfacet
facet normal -1.0 4.4916350799350274e-17 3.771819470607099e-17
  outer loop
    vertex -8.5 2.5 -88.0
    vertex -8.5 0.0 -88.0
    vertex -8.5 2.5 -83.99999999999999
  endloop
endfacet
facet normal 0.0 -0.6343932841636308 0.7730104533627492
  outer loop
    vertex 0.0 8.555570233019603 -63.83146961230254
    vertex -8.5 8.707106781186548 -63.707106781186546
    vertex -8.5 8.555570233019603 -63.83146961230254
  endloop
endfacet
facet normal 0.0 -0.6343932841636308 0.7730104533627492
  outer loop
    vertex -8.5 8.707106781186548 -63.707106781186546
    vertex 0.0 8.555570233019603 -63.83146961230254
    vertex 0.0 8.707106781186548 -63.707106781186546
  endloop
endfacet
facet normal 0.001130276901359715 -0.9999993612368593 5.151137671495082e-17
  outer loop
    vertex 0.0 9.0 -63.0
    vertex -8.5 8.98078528040323 -63.19509032201613
    vertex 0.0 8.98078528040323 -63.19509032201613
  endloop
endfacet
facet normal 0.001130276901359715 -0.9999993612368593 5.151137671495082e-17
  outer loop
    vertex -8.5 8.98078528040323 -63.19509032201613
    vertex 0.0 9.0 -63.0
    vertex -8.499999999999993 8.980785280403232 -44.80490967798386
  endloop
endfacet
facet normal 0.001130276901359715 -0.9999993612368593 5.151137671495082e-17
  outer loop
    vertex -8.499999999999993 8.980785280403232 -44.80490967798386
    vertex 0.0 9.0 -63.0
    vertex 7.049916206369744e-15 9.0 -44.99999999999999
  endloop
endfacet
facet normal 0.001130276901359715 -0.9999993612368593 5.151137671495082e-17
  outer loop
    vertex -8.499999999999993 8.980785280403232 -44.80490967798386
    vertex 7.049916206369744e-15 9.0 -44.99999999999999
    vertex 7.049916206369744e-15 8.980785280403232 -44.804909677983865
  endloop
endfacet
facet normal 0.0 -1.0 0.0
  outer loop
    vertex 0.0 0.0 -63.99999999999999
    vertex -8.5 0.0 -88.0
    vertex 0.0 0.0 -88.0
  endloop
endfacet
facet normal 0.0 -1.0 0.0
  outer loop
    vertex -8.5 0.0 -88.0
    vertex 0.0 0.0 -63.99999999999999
    vertex -8.5 0.0 -63.99999999999999
  endloop
endfacet
facet normal 0.0 0.9615239476408232 0.2747211278973781
  outer loop
    vertex -8.5 2.5 -4.0000000000000036
    vertex 0.0 12.5 -38.99999999999999
    vertex -8.5 12.5 -38.99999999999999
  endloop
endfacet
facet normal 0.0 0.9615239476408232 0.2747211278973781
  outer loop
    vertex 0.0 12.5 -38.99999999999999
    vertex -8.5 2.5 -4.0000000000000036
    vertex 0.0 2.5 -4.0000000000000036
  endloop
endfacet
facet normal 1.0 -6.981862831117424e-17 -4.587942493854031e-17
  outer loop
    vertex 4.229949723821846e-15 0.0 -28.499999999999993
    vertex 4.229949723821846e-15 -9.9 -25.5
    vertex 4.229949723821846e-15 -9.9 -28.499999999999993
  endloop
endfacet
facet normal 1.0 -6.981862831117424e-17 -4.587942493854031e-17
  outer loop
    vertex 4.229949723821846e-15 -9.9 -25.5
    vertex 4.229949723821846e-15 0.0 -28.499999999999993
    vertex 2.8199664825478975e-15 0.0 -20.60359322521395
  endloop
endfacet
facet normal 1.0 -6.981862831117424e-17 -4.587942493854031e-17
  outer loop
    vertex 0.0 2.5 -88.0
    vertex 0.0 0.0 -63.99999999999999
    vertex 0.0 0.0 -88.0
  endloop
endfacet
facet normal 1.0 -6.981862831117424e-17 -4.587942493854031e-17
  outer loop
    vertex 0.0 0.0 -63.99999999999999
    vertex 0.0 2.5 -88.0
    vertex 0.0 2.5 -83.99999999999999
  endloop
endfacet
facet normal 1.0 -6.981862831117424e-17 -4.587942493854031e-17
  outer loop
    vertex 0.0 0.0 -63.99999999999999
    vertex 0.0 2.5 -83.99999999999999
    vertex 0.0 8.0 -63.99999999999999
  endloop
endfacet
facet normal 1.0 -6.981862831117424e-17 -4.587942493854031e-17
  outer loop
    vertex 0.0 8.0 -63.99999999999999
    vertex 0.0 2.5 -83.99999999999999
    vertex 0.0 12.5 -68.99999999999999
  endloop
endfacet
facet normal 1.0 -6.981862831117424e-17 -4.587942493854031e-17
  outer loop
    vertex 0.0 8.0 -63.99999999999999
    vertex 0.0 12.5 -68.99999999999999
    vertex 0.0 8.19509032201613 -63.98078528040323
  endloop
endfacet
facet normal 1.0 -6.981862831117424e-17 -4.587942493854031e-17
  outer loop
    vertex 0.0 8.19509032201613 -63.98078528040323
    vertex 0.0 12.5 -68.99999999999999
    vertex 0.0 8.38268343236509 -63.923879532511286
  endloop
endfacet
facet normal 1.0 -6.981862831117424e-17 -4.587942493854031e-17
  outer loop
    vertex 0.0 8.38268343236509 -63.923879532511286
    vertex 0.0 12.5 -68.99999999999999
    vertex 0.0 8.555570233019603 -63.83146961230254
  endloop
endfacet
facet normal 1.0 -6.981862831117424e-17 -4.587942493854031e-17
  outer loop
    vertex 0.0 8.555570233019603 -63.83146961230254
    vertex 0.0 12.5 -68.99999999999999
    vertex 0.0 8.707106781186548 -63.707106781186546
  endloop
endfacet
facet normal 1.0 -6.981862831117424e-17 -4.587942493854031e-17
  outer loop
    vertex 0.0 8.707106781186548 -63.707106781186546
    vertex 0.0 12.5 -68.99999999999999
    vertex 0.0 8.831469612302543 -63.5555702330196
  endloop
endfacet
facet normal 1.0 -6.981862831117424e-17 -4.587942493854031e-17
  outer loop
    vertex 0.0 8.831469612302543 -63.5555702330196
    vertex 0.0 12.5 -68.99999999999999
    vertex 0.0 8.923879532511286 -63.382683432365084
  endloop
endfacet
facet normal 1.0 -6.981862831117424e-17 -4.587942493854031e-17
  outer loop
    vertex 0.0 8.923879532511286 -63.382683432365084
    vertex 0.0 12.5 -68.99999999999999
    vertex 0.0 8.98078528040323 -63.19509032201613
  endloop
endfacet
facet normal 1.0 -6.981862831117424e-17 -4.587942493854031e-17
  outer loop
    vertex 0.0 8.98078528040323 -63.19509032201613
    vertex 0.0 12.5 -68.99999999999999
    vertex 0.0 9.0 -63.0
  endloop
endfacet
facet normal 1.0 -6.981862831117424e-17 -4.587942493854031e-17
  outer loop
    vertex 0.0 9.0 -63.0
    vertex 0.0 12.5 -68.99999999999999
    vertex 7.049916206369744e-15 9.0 -44.99999999999999
  endloop
endfacet
facet normal 1.0 -6.981862831117424e-17 -4.587942493854031e-17
  outer loop
    vertex 7.049916206369744e-15 8.0 -43.99999999999999
    vertex 4.229949723821846e-15 0.0 -28.499999999999993
    vertex 7.049916206369744e-15 0.0 -43.99999999999999
  endloop
endfacet
facet normal 1.0 -6.981862831117424e-17 -4.587942493854031e-17
  outer loop
    vertex 4.229949723821846e-15 0.0 -28.499999999999993
    vertex 7.049916206369744e-15 8.0 -43.99999999999999
    vertex 2.8199664825478975e-15 0.0 -20.60359322521395
  endloop
endfacet
facet normal 1.0 -6.981862831117424e-17 -4.587942493854031e-17
  outer loop
    vertex 2.8199664825478975e-15 0.0 -20.60359322521395
    vertex 7.049916206369744e-15 8.0 -43.99999999999999
    vertex 0.0 0.0 0.0
  endloop
endfacet
facet normal 1.0 -6.981862831117424e-17 -4.587942493854031e-17
  outer loop
    vertex 0.0 0.0 0.0
    vertex 7.049916206369744e-15 8.0 -43.99999999999999
    vertex 0.0 2.5 -4.0000000000000036
  endloop
endfacet
facet normal 1.0 -6.981862831117424e-17 -4.587942493854031e-17
  outer loop
    vertex 0.0 2.5 -4.0000000000000036
    vertex 7.049916206369744e-15 8.0 -43.99999999999999
    vertex 0.0 12.5 -38.99999999999999
  endloop
endfacet
facet normal 1.0 -6.981862831117424e-17 -4.587942493854031e-17
  outer loop
    vertex 0.0 12.5 -38.99999999999999
    vertex 7.049916206369744e-15 8.0 -43.99999999999999
    vertex 7.049916206369744e-15 8.19509032201613 -44.01921471959676
  endloop
endfacet
facet normal 1.0 -6.981862831117424e-17 -4.587942493854031e-17
  outer loop
    vertex 0.0 12.5 -38.99999999999999
    vertex 7.049916206369744e-15 8.19509032201613 -44.01921471959676
    vertex 7.049916206369744e-15 8.38268343236509 -44.07612046748871
  endloop
endfacet
facet normal 1.0 -6.981862831117424e-17 -4.587942493854031e-17
  outer loop
    vertex 0.0 12.5 -38.99999999999999
    vertex 7.049916206369744e-15 8.38268343236509 -44.07612046748871
    vertex 7.049916206369744e-15 8.555570233019603 -44.16853038769745
  endloop
endfacet
facet normal 1.0 -6.981862831117424e-17 -4.587942493854031e-17
  outer loop
    vertex 0.0 12.5 -38.99999999999999
    vertex 7.049916206369744e-15 8.555570233019603 -44.16853038769745
    vertex 7.049916206369744e-15 8.707106781186548 -44.29289321881344
  endloop
endfacet
facet normal 1.0 -6.981862831117424e-17 -4.587942493854031e-17
  outer loop
    vertex 0.0 12.5 -38.99999999999999
    vertex 7.049916206369744e-15 8.707106781186548 -44.29289321881344
    vertex 7.049916206369744e-15 8.831469612302545 -44.44442976698039
  endloop
endfacet
facet normal 1.0 -6.981862831117424e-17 -4.587942493854031e-17
  outer loop
    vertex 0.0 12.5 -38.99999999999999
    vertex 7.049916206369744e-15 8.831469612302545 -44.44442976698039
    vertex 7.049916206369744e-15 8.923879532511286 -44.6173165676349
  endloop
endfacet
facet normal 1.0 -6.981862831117424e-17 -4.587942493854031e-17
  outer loop
    vertex 0.0 12.5 -38.99999999999999
    vertex 7.049916206369744e-15 8.923879532511286 -44.6173165676349
    vertex 7.049916206369744e-15 8.980785280403232 -44.804909677983865
  endloop
endfacet
facet normal 1.0 -6.981862831117424e-17 -4.587942493854031e-17
  outer loop
    vertex 0.0 12.5 -38.99999999999999
    vertex 7.049916206369744e-15 8.980785280403232 -44.804909677983865
    vertex 7.049916206369744e-15 9.0 -44.99999999999999
  endloop
endfacet
facet normal 1.0 -6.981862831117424e-17 -4.587942493854031e-17
  outer loop
    vertex 0.0 12.5 -38.99999999999999
    vertex 7.049916206369744e-15 9.0 -44.99999999999999
    vertex 0.0 12.5 -68.99999999999999
  endloop
endfacet
facet normal 1.0 -6.981862831117424e-17 -4.587942493854031e-17
  outer loop
    vertex 0.0 2.5 0.0
    vertex 0.0 0.0 0.0
    vertex 0.0 2.5 -4.0000000000000036
  endloop
endfacet
facet normal 0.0006389817072513708 -0.0017134573177779461 0.999998327881801
  outer loop
    vertex 0.0 0.0 -63.99999999999999
    vertex -8.5 8.19509032201613 -63.98078528040323
    vertex -8.5 0.0 -63.99999999999999
  endloop
endfacet
facet normal 0.0006389817072513708 -0.0017134573177779461 0.999998327881801
  outer loop
    vertex -8.5 8.19509032201613 -63.98078528040323
    vertex 0.0 0.0 -63.99999999999999
    vertex 0.0 8.19509032201613 -63.98078528040323
  endloop
endfacet
facet normal 0.0006389817072513708 -0.0017134573177779461 0.999998327881801
  outer loop
    vertex 0.0 8.19509032201613 -63.98078528040323
    vertex 0.0 0.0 -63.99999999999999
    vertex 0.0 8.0 -63.99999999999999
  endloop
endfacet
facet normal -2.8682415383448955e-16 -0.6343932841636273 -0.773010453362752
  outer loop
    vertex 7.049916206369744e-15 8.707106781186548 -44.29289321881344
    vertex -8.499999999999993 8.555570233019603 -44.168530387697444
    vertex -8.499999999999993 8.707106781186548 -44.29289321881343
  endloop
endfacet
facet normal -2.8682415383448955e-16 -0.6343932841636273 -0.773010453362752
  outer loop
    vertex -8.499999999999993 8.555570233019603 -44.168530387697444
    vertex 7.049916206369744e-15 8.707106781186548 -44.29289321881344
    vertex 7.049916206369744e-15 8.555570233019603 -44.16853038769745
  endloop
endfacet
facet normal 0.0 0.0 -1.0
  outer loop
    vertex 0.0 2.5 -88.0
    vertex -8.5 0.0 -88.0
    vertex -8.5 2.5 -88.0
  endloop
endfacet
facet normal 0.0 0.0 -1.0
  outer loop
    vertex -8.5 0.0 -88.0
    vertex 0.0 2.5 -88.0
    vertex 0.0 0.0 -88.0
  endloop
endfacet
facet normal 0.0 -0.2902846772544611 0.9569403357322093
  outer loop
    vertex 0.0 8.19509032201613 -63.98078528040323
    vertex -8.5 8.38268343236509 -63.923879532511286
    vertex -8.5 8.19509032201613 -63.98078528040323
  endloop
endfacet
facet normal 0.0 -0.2902846772544611 0.9569403357322093
  outer loop
    vertex -8.5 8.38268343236509 -63.923879532511286
    vertex 0.0 8.19509032201613 -63.98078528040323
    vertex 0.0 8.38268343236509 -63.923879532511286
  endloop
endfacet
facet normal -3.2723531654060854e-16 -0.4713967368260027 -0.8819212643483524
  outer loop
    vertex 7.049916206369744e-15 8.555570233019603 -44.16853038769745
    vertex -8.499999999999993 8.38268343236509 -44.0761204674887
    vertex -8.499999999999993 8.555570233019603 -44.168530387697444
  endloop
endfacet
facet normal -3.2723531654060854e-16 -0.4713967368260027 -0.8819212643483524
  outer loop
    vertex -8.499999999999993 8.38268343236509 -44.0761204674887
    vertex 7.049916206369744e-15 8.555570233019603 -44.16853038769745
    vertex 7.049916206369744e-15 8.38268343236509 -44.07612046748871
  endloop
endfacet
facet normal -6.348538533986235e-16 -0.2902846772544611 -0.9569403357322093
  outer loop
    vertex 7.049916206369744e-15 8.38268343236509 -44.07612046748871
    vertex -8.499999999999993 8.19509032201613 -44.01921471959676
    vertex -8.499999999999993 8.38268343236509 -44.0761204674887
  endloop
endfacet
facet normal -6.348538533986235e-16 -0.2902846772544611 -0.9569403357322093
  outer loop
    vertex -8.499999999999993 8.19509032201613 -44.01921471959676
    vertex 7.049916206369744e-15 8.38268343236509 -44.07612046748871
    vertex 7.049916206369744e-15 8.19509032201613 -44.01921471959676
  endloop
endfacet
facet normal 0.0 1.0 0.0
  outer loop
    vertex -8.5 12.5 -38.99999999999999
    vertex 0.0 12.5 -68.99999999999999
    vertex -8.5 12.5 -69.0
  endloop
endfacet
facet normal 0.0 1.0 0.0
  outer loop
    vertex 0.0 12.5 -68.99999999999999
    vertex -8.5 12.5 -38.99999999999999
    vertex 0.0 12.5 -38.99999999999999
  endloop
endfacet
facet normal -1.9279158898010536e-16 -0.9569403357322085 -0.2902846772544637
  outer loop
    vertex 7.049916206369744e-15 8.923879532511286 -44.6173165676349
    vertex -8.499999999999993 8.980785280403232 -44.80490967798386
    vertex 7.049916206369744e-15 8.980785280403232 -44.804909677983865
  endloop
endfacet
facet normal -1.9279158898010536e-16 -0.9569403357322085 -0.2902846772544637
  outer loop
    vertex -8.499999999999993 8.980785280403232 -44.80490967798386
    vertex 7.049916206369744e-15 8.923879532511286 -44.6173165676349
    vertex -8.499999999999993 8.923879532511286 -44.617316567634894
  endloop
endfacet
facet normal 1.4637148178204552e-17 -1.0 -8.026823194499265e-18
  outer loop
    vertex 7.049916206369744e-15 0.0 -43.99999999999999
    vertex -8.499999999999996 -2.4883151902947726e-16 -28.499999999999993
    vertex -8.499999999999993 0.0 -44.00000000000001
  endloop
endfacet
facet normal 1.4637148178204552e-17 -1.0 -8.026823194499265e-18
  outer loop
    vertex -8.499999999999996 -2.4883151902947726e-16 -28.499999999999993
    vertex 7.049916206369744e-15 0.0 -43.99999999999999
    vertex 4.229949723821846e-15 0.0 -28.499999999999993
  endloop
endfacet
facet normal 0.0 1.0 0.0
  outer loop
    vertex -8.5 2.5 0.0
    vertex 0.0 2.5 -4.0000000000000036
    vertex -8.5 2.5 -4.0000000000000036
  endloop
endfacet
facet normal 0.0 1.0 0.0
  outer loop
    vertex 0.0 2.5 -4.0000000000000036
    vertex -8.5 2.5 0.0
    vertex 0.0 2.5 0.0
  endloop
endfacet
facet normal 0.0 0.0 1.0
  outer loop
    vertex 0.0 0.0 0.0
    vertex -8.5 2.5 0.0
    vertex -8.5 0.0 0.0
  endloop
endfacet
facet normal 0.0 0.0 1.0
  outer loop
    vertex -8.5 2.5 0.0
    vertex 0.0 0.0 0.0
    vertex 0.0 2.5 0.0
  endloop
endfacet
facet normal -1.7491092076733863e-16 -0.8819212643483537 -0.4713967368260001
  outer loop
    vertex 7.049916206369744e-15 8.831469612302545 -44.44442976698039
    vertex -8.499999999999993 8.923879532511286 -44.617316567634894
    vertex 7.049916206369744e-15 8.923879532511286 -44.6173165676349
  endloop
endfacet
facet normal -1.7491092076733863e-16 -0.8819212643483537 -0.4713967368260001
  outer loop
    vertex -8.499999999999993 8.923879532511286 -44.617316567634894
    vertex 7.049916206369744e-15 8.831469612302545 -44.44442976698039
    vertex -8.499999999999993 8.831469612302545 -44.444429766980384
  endloop
endfacet
facet normal 0.000638981707251753 -0.0017134573177775521 -0.999998327881801
  outer loop
    vertex 7.049916206369744e-15 8.19509032201613 -44.01921471959676
    vertex -8.499999999999993 0.0 -44.00000000000001
    vertex -8.499999999999993 8.19509032201613 -44.01921471959676
  endloop
endfacet
facet normal 0.000638981707251753 -0.0017134573177775521 -0.999998327881801
  outer loop
    vertex -8.499999999999993 0.0 -44.00000000000001
    vertex 7.049916206369744e-15 8.19509032201613 -44.01921471959676
    vertex 7.049916206369744e-15 0.0 -43.99999999999999
  endloop
endfacet
facet normal 0.000638981707251753 -0.0017134573177775521 -0.999998327881801
  outer loop
    vertex 7.049916206369744e-15 0.0 -43.99999999999999
    vertex 7.049916206369744e-15 8.19509032201613 -44.01921471959676
    vertex 7.049916206369744e-15 8.0 -43.99999999999999
  endloop
endfacet
facet normal -2.353904997493346e-16 -0.7730104533627444 -0.6343932841636367
  outer loop
    vertex 7.049916206369744e-15 8.707106781186548 -44.29289321881344
    vertex -8.499999999999993 8.831469612302545 -44.444429766980384
    vertex 7.049916206369744e-15 8.831469612302545 -44.44442976698039
  endloop
endfacet
facet normal -2.353904997493346e-16 -0.7730104533627444 -0.6343932841636367
  outer loop
    vertex -8.499999999999993 8.831469612302545 -44.444429766980384
    vertex 7.049916206369744e-15 8.707106781186548 -44.29289321881344
    vertex -8.499999999999993 8.707106781186548 -44.29289321881343
  endloop
endfacet
facet normal 1.463714817820455e-17 -1.0 6.038546682356507e-18
  outer loop
    vertex 0.0 0.0 0.0
    vertex -8.499999999999996 -2.4883151902947726e-16 -20.60359322521395
    vertex 2.8199664825478975e-15 0.0 -20.60359322521395
  endloop
endfacet
facet normal 1.463714817820455e-17 -1.0 6.038546682356507e-18
  outer loop
    vertex -8.499999999999996 -2.4883151902947726e-16 -20.60359322521395
    vertex 0.0 0.0 0.0
    vertex -8.5 0.0 0.0
  endloop
endfacet
facet normal 2.92742963564091e-17 -1.0 0.0
  outer loop
    vertex 4.229949723821846e-15 -9.9 -25.5
    vertex -8.499999999999996 -9.9 -28.499999999999993
    vertex 4.229949723821846e-15 -9.9 -28.499999999999993
  endloop
endfacet
facet normal 2.92742963564091e-17 -1.0 0.0
  outer loop
    vertex -8.499999999999996 -9.9 -28.499999999999993
    vertex 4.229949723821846e-15 -9.9 -25.5
    vertex -8.499999999999996 -9.9 -25.5
  endloop
endfacet
facet normal 0.0 0.0 -1.0
  outer loop
    vertex 4.229949723821846e-15 0.0 -28.499999999999993
    vertex -8.499999999999996 -9.9 -28.499999999999993
    vertex -8.499999999999996 -2.4883151902947726e-16 -28.499999999999993
  endloop
endfacet
facet normal 0.0 0.0 -1.0
  outer loop
    vertex -8.499999999999996 -9.9 -28.499999999999993
    vertex 4.229949723821846e-15 0.0 -28.499999999999993
    vertex 4.229949723821846e-15 -9.9 -28.499999999999993
  endloop
endfacet
facet normal -2.6867780266806078e-17 -0.44332745952792735 0.89635972891943
  outer loop
    vertex -8.499999999999996 -9.9 -25.5
    vertex 2.8199664825478975e-15 0.0 -20.60359322521395
    vertex -8.499999999999996 -2.4883151902947726e-16 -20.60359322521395
  endloop
endfacet
facet normal -2.6867780266806078e-17 -0.44332745952792735 0.89635972891943
  outer loop
    vertex 2.8199664825478975e-15 0.0 -20.60359322521395
    vertex -8.499999999999996 -9.9 -25.5
    vertex 4.229949723821846e-15 -9.9 -25.5
  endloop
endfacet
endsolid breadboard_holder
