solid heartrate_sensor_holder
facet normal -0.9659258262890681 -0.25881904510252146 0.0
  outer loop
    vertex 15.312592044589875 45.42350474806387 0.0
    vertex 15.5 44.0 -1.9999999999999998
    vertex 15.5 44.0 0.0
  endloop
endfacet
facet normal -1.0 -7.128887916517523e-16 0.0
  outer loop
    vertex 15.5 44.0 -1.9999999999999998
    vertex 15.312592044589875 45.42350474806387 0.0
    vertex 15.312592044589875 45.42350474806387 -1.9999999999999998
  endloop
endfacet
facet normal -1.0 -7.128887916517523e-16 0.0
  outer loop
    vertex 15.5 44.0 0.0
    vertex 15.312592044589877 42.57649525193614 -1.9999999999999998
    vertex 15.312592044589877 42.57649525193614 0.0
  endloop
endfacet
facet normal -0.9659258262890686 0.2588190451025199 0.0
  outer loop
    vertex 15.312592044589877 42.57649525193614 -1.9999999999999998
    vertex 15.5 44.0 0.0
    vertex 15.5 44.0 -1.9999999999999998
  endloop
endfacet
facet normal -0.7071067811865476 0.7071067811865476 0.0
  outer loop
    vertex 2.9289321881345254 47.071067811865476 0.9999999999999999
    vertex 6.173165676349102 49.23879532511287 -1.9999999999999998
    vertex 2.9289321881345254 47.071067811865476 -1.9999999999999998
  endloop
endfacet
facet normal -0.3826834323650896 0.9238795325112868 0.0
  outer loop
    vertex 6.173165676349102 49.23879532511287 -1.9999999999999998
    vertex 2.9289321881345254 47.071067811865476 0.9999999999999999
    vertex 6.173165676349102 49.23879532511287 0.9999999999999999
  endloop
endfacet
facet normal -0.9238795325112866 0.38268343236508967 0.0
  outer loop
    vertex 0.7612046748871337 43.8268343236509 0.9999999999999999
    vertex 0.0 40.0 -1.9999999999999998
    vertex 0.0 40.0 0.9999999999999999
  endloop
endfacet
facet normal -0.9807852804032304 0.19509032201612853 0.0
  outer loop
    vertex 0.0 40.0 -1.9999999999999998
    vertex 0.7612046748871337 43.8268343236509 0.9999999999999999
    vertex 0.7612046748871337 43.8268343236509 -1.9999999999999998
  endloop
endfacet
facet normal -0.3826834323650896 0.9238795325112868 0.0
  outer loop
    vertex 6.173165676349102 49.23879532511287 0.9999999999999999
    vertex 10.0 50.0 -1.9999999999999998
    vertex 6.173165676349102 49.23879532511287 -1.9999999999999998
  endloop
endfacet
facet normal 3.6031838126869735e-17 1.0 0.0
  outer loop
    vertex 10.0 50.0 -1.9999999999999998
    vertex 6.173165676349102 49.23879532511287 0.9999999999999999
    vertex 10.0 50.0 0.9999999999999999
  endloop
endfacet
facet normal 0.9659258262890683 -0.2588190451025206 0.0
  outer loop
    vertex 4.687407955410124 45.42350474806386 -1.9999999999999998
    vertex 4.499999999999999 44.0 0.0
    vertex 4.499999999999999 44.0 -1.9999999999999998
  endloop
endfacet
facet normal 1.0 0.0 0.0
  outer loop
    vertex 4.499999999999999 44.0 0.0
    vertex 4.687407955410124 45.42350474806386 -1.9999999999999998
    vertex 4.687407955410124 45.42350474806386 0.0
  endloop
endfacet
facet normal -0.25881904510252096 -0.9659258262890683 0.0
  outer loop
    vertex 11.423504748063863 49.31259204458988 0.0
    vertex 10.0 49.5 -1.9999999999999998
    vertex 11.423504748063863 49.31259204458988 -1.9999999999999998
  endloop
endfacet
facet normal -1.2475553853905664e-16 -1.0 0.0
  outer loop
    vertex 10.0 49.5 -1.9999999999999998
    vertex 11.423504748063863 49.31259204458988 0.0
    vertex 10.0 49.5 0.0
  endloop
endfacet
facet normal -0.7071067811865472 -0.7071067811865478 0.0
  outer loop
    vertex 13.889087296526009 47.889087296526014 0.0
    vertex 14.763139720814412 46.75 -1.9999999999999998
    vertex 14.763139720814412 46.75 0.0
  endloop
endfacet
facet normal -0.8660254037844384 -0.5000000000000006 0.0
  outer loop
    vertex 14.763139720814412 46.75 -1.9999999999999998
    vertex 13.889087296526009 47.889087296526014 0.0
    vertex 13.889087296526009 47.889087296526014 -1.9999999999999998
  endloop
endfacet
facet normal -0.8660254037844384 -0.5000000000000006 0.0
  outer loop
    vertex 14.763139720814412 46.75 0.0
    vertex 15.312592044589875 45.42350474806387 -1.9999999999999998
    vertex 15.312592044589875 45.42350474806387 0.0
  endloop
endfacet
facet normal -0.9659258262890681 -0.25881904510252146 0.0
  outer loop
    vertex 15.312592044589875 45.42350474806387 -1.9999999999999998
    vertex 14.763139720814412 46.75 0.0
    vertex 14.763139720814412 46.75 -1.9999999999999998
  endloop
endfacet
facet normal 0.7071067811865475 0.7071067811865475 0.0
  outer loop
    vertex 17.071067811865476 47.071067811865476 -1.9999999999999998
    vertex 19.238795325112864 43.8268343236509 0.9999999999999999
    vertex 19.238795325112864 43.8268343236509 -1.9999999999999998
  endloop
endfacet
facet normal 0.9238795325112866 0.38268343236508967 0.0
  outer loop
    vertex 19.238795325112864 43.8268343236509 0.9999999999999999
    vertex 17.071067811865476 47.071067811865476 -1.9999999999999998
    vertex 17.071067811865476 47.071067811865476 0.9999999999999999
  endloop
endfacet
facet normal -0.25881904510252124 0.9659258262890682 0.0
  outer loop
    vertex 11.423504748063868 38.68740795541012 0.0
    vertex 12.750000000000002 39.236860279185585 -1.9999999999999998
    vertex 11.423504748063868 38.68740795541012 -1.9999999999999998
  endloop
endfacet
facet normal -0.4999999999999999 0.8660254037844388 0.0
  outer loop
    vertex 12.750000000000002 39.236860279185585 -1.9999999999999998
    vertex 11.423504748063868 38.68740795541012 0.0
    vertex 12.750000000000002 39.236860279185585 0.0
  endloop
endfacet
facet normal -1.75548864944244e-15 1.0 0.0
  outer loop
    vertex 10.0 38.5 0.0
    vertex 11.423504748063868 38.68740795541012 -1.9999999999999998
    vertex 10.0 38.5 -1.9999999999999998
  endloop
endfacet
facet normal -0.25881904510252124 0.9659258262890682 0.0
  outer loop
    vertex 11.423504748063868 38.68740795541012 -1.9999999999999998
    vertex 10.0 38.5 0.0
    vertex 11.423504748063868 38.68740795541012 0.0
  endloop
endfacet
facet normal 5.2051674256156074e-33 -3.713544818145482e-17 -1.0
  outer loop
    vertex 2.9289321881345254 47.071067811865476 -1.9999999999999998
    vertex 4.687407955410124 45.42350474806386 -1.9999999999999998
    vertex 4.499999999999999 44.0 -1.9999999999999998
  endloop
endfacet
facet normal 5.2051674256156074e-33 -3.713544818145482e-17 -1.0
  outer loop
    vertex 4.687407955410124 45.42350474806386 -1.9999999999999998
    vertex 2.9289321881345254 47.071067811865476 -1.9999999999999998
    vertex 6.173165676349102 49.23879532511287 -1.9999999999999998
  endloop
endfacet
facet normal 5.2051674256156074e-33 -3.713544818145482e-17 -1.0
  outer loop
    vertex 4.687407955410124 45.42350474806386 -1.9999999999999998
    vertex 6.173165676349102 49.23879532511287 -1.9999999999999998
    vertex 5.236860279185586 46.75 -1.9999999999999998
  endloop
endfacet
facet normal 5.2051674256156074e-33 -3.713544818145482e-17 -1.0
  outer loop
    vertex 5.236860279185586 46.75 -1.9999999999999998
    vertex 6.173165676349102 49.23879532511287 -1.9999999999999998
    vertex 6.110912703473987 47.88908729652601 -1.9999999999999998
  endloop
endfacet
facet normal 5.2051674256156074e-33 -3.713544818145482e-17 -1.0
  outer loop
    vertex 6.110912703473987 47.88908729652601 -1.9999999999999998
    vertex 6.173165676349102 49.23879532511287 -1.9999999999999998
    vertex 7.249999999999998 48.76313972081441 -1.9999999999999998
  endloop
endfacet
facet normal 5.2051674256156074e-33 -3.713544818145482e-17 -1.0
  outer loop
    vertex 7.249999999999998 48.76313972081441 -1.9999999999999998
    vertex 6.173165676349102 49.23879532511287 -1.9999999999999998
    vertex 10.0 50.0 -1.9999999999999998
  endloop
endfacet
facet normal 5.2051674256156074e-33 -3.713544818145482e-17 -1.0
  outer loop
    vertex 7.249999999999998 48.76313972081441 -1.9999999999999998
    vertex 10.0 50.0 -1.9999999999999998
    vertex 8.576495251936135 49.31259204458988 -1.9999999999999998
  endloop
endfacet
facet normal 5.2051674256156074e-33 -3.713544818145482e-17 -1.0
  outer loop
    vertex 8.576495251936135 49.31259204458988 -1.9999999999999998
    vertex 10.0 50.0 -1.9999999999999998
    vertex 10.0 49.5 -1.9999999999999998
  endloop
endfacet
facet normal 5.2051674256156074e-33 -3.713544818145482e-17 -1.0
  outer loop
    vertex 10.0 49.5 -1.9999999999999998
    vertex 10.0 50.0 -1.9999999999999998
    vertex 13.826834323650896 49.23879532511287 -1.9999999999999998
  endloop
endfacet
facet normal 5.2051674256156074e-33 -3.713544818145482e-17 -1.0
  outer loop
    vertex 10.0 49.5 -1.9999999999999998
    vertex 13.826834323650896 49.23879532511287 -1.9999999999999998
    vertex 11.423504748063863 49.31259204458988 -1.9999999999999998
  endloop
endfacet
facet normal 5.2051674256156074e-33 -3.713544818145482e-17 -1.0
  outer loop
    vertex 11.423504748063863 49.31259204458988 -1.9999999999999998
    vertex 13.826834323650896 49.23879532511287 -1.9999999999999998
    vertex 12.75 48.76313972081441 -1.9999999999999998
  endloop
endfacet
facet normal 5.2051674256156074e-33 -3.713544818145482e-17 -1.0
  outer loop
    vertex 12.75 48.76313972081441 -1.9999999999999998
    vertex 13.826834323650896 49.23879532511287 -1.9999999999999998
    vertex 13.889087296526009 47.889087296526014 -1.9999999999999998
  endloop
endfacet
facet normal 5.2051674256156074e-33 -3.713544818145482e-17 -1.0
  outer loop
    vertex 13.889087296526009 47.889087296526014 -1.9999999999999998
    vertex 13.826834323650896 49.23879532511287 -1.9999999999999998
    vertex 17.071067811865476 47.071067811865476 -1.9999999999999998
  endloop
endfacet
facet normal 5.2051674256156074e-33 -3.713544818145482e-17 -1.0
  outer loop
    vertex 13.889087296526009 47.889087296526014 -1.9999999999999998
    vertex 17.071067811865476 47.071067811865476 -1.9999999999999998
    vertex 14.763139720814412 46.75 -1.9999999999999998
  endloop
endfacet
facet normal 5.2051674256156074e-33 -3.713544818145482e-17 -1.0
  outer loop
    vertex 14.763139720814412 46.75 -1.9999999999999998
    vertex 17.071067811865476 47.071067811865476 -1.9999999999999998
    vertex 15.312592044589875 45.42350474806387 -1.9999999999999998
  endloop
endfacet
facet normal 5.2051674256156074e-33 -3.713544818145482e-17 -1.0
  outer loop
    vertex 15.312592044589875 45.42350474806387 -1.9999999999999998
    vertex 17.071067811865476 47.071067811865476 -1.9999999999999998
    vertex 15.5 44.0 -1.9999999999999998
  endloop
endfacet
facet normal 5.2051674256156074e-33 -3.713544818145482e-17 -1.0
  outer loop
    vertex 0.7612046748871337 43.8268343236509 -1.9999999999999998
    vertex 0.0 30.0 -1.9999999999999998
    vertex 0.0 40.0 -1.9999999999999998
  endloop
endfacet
facet normal 5.2051674256156074e-33 -3.713544818145482e-17 -1.0
  outer loop
    vertex 0.0 30.0 -1.9999999999999998
    vertex 0.7612046748871337 43.8268343236509 -1.9999999999999998
    vertex 10.0 30.0 -1.9999999999999978
  endloop
endfacet
facet normal 5.2051674256156074e-33 -3.713544818145482e-17 -1.0
  outer loop
    vertex 10.0 30.0 -1.9999999999999978
    vertex 0.7612046748871337 43.8268343236509 -1.9999999999999998
    vertex 5.236860279185587 41.25 -1.9999999999999998
  endloop
endfacet
facet normal 5.2051674256156074e-33 -3.713544818145482e-17 -1.0
  outer loop
    vertex 5.236860279185587 41.25 -1.9999999999999998
    vertex 0.7612046748871337 43.8268343236509 -1.9999999999999998
    vertex 4.687407955410124 42.57649525193614 -1.9999999999999998
  endloop
endfacet
facet normal 5.2051674256156074e-33 -3.713544818145482e-17 -1.0
  outer loop
    vertex 4.687407955410124 42.57649525193614 -1.9999999999999998
    vertex 0.7612046748871337 43.8268343236509 -1.9999999999999998
    vertex 2.9289321881345254 47.071067811865476 -1.9999999999999998
  endloop
endfacet
facet normal 5.2051674256156074e-33 -3.713544818145482e-17 -1.0
  outer loop
    vertex 4.687407955410124 42.57649525193614 -1.9999999999999998
    vertex 2.9289321881345254 47.071067811865476 -1.9999999999999998
    vertex 4.499999999999999 44.0 -1.9999999999999998
  endloop
endfacet
facet normal 5.2051674256156074e-33 -3.713544818145482e-17 -1.0
  outer loop
    vertex 10.0 30.0 -1.9999999999999978
    vertex 5.236860279185587 41.25 -1.9999999999999998
    vertex 6.110912703473988 40.110912703473986 -1.9999999999999998
  endloop
endfacet
facet normal 5.2051674256156074e-33 -3.713544818145482e-17 -1.0
  outer loop
    vertex 10.0 30.0 -1.9999999999999978
    vertex 6.110912703473988 40.110912703473986 -1.9999999999999998
    vertex 6.255456952811702 40.0 -1.9999999999999998
  endloop
endfacet
facet normal 5.2051674256156074e-33 -3.713544818145482e-17 -1.0
  outer loop
    vertex 10.0 30.0 -1.9999999999999978
    vertex 6.255456952811702 40.0 -1.9999999999999998
    vertex 7.249999999999999 39.236860279185585 -1.9999999999999998
  endloop
endfacet
facet normal 5.2051674256156074e-33 -3.713544818145482e-17 -1.0
  outer loop
    vertex 10.0 30.0 -1.9999999999999978
    vertex 7.249999999999999 39.236860279185585 -1.9999999999999998
    vertex 8.576495251936135 38.687407955410116 -1.9999999999999998
  endloop
endfacet
facet normal 5.2051674256156074e-33 -3.713544818145482e-17 -1.0
  outer loop
    vertex 10.0 30.0 -1.9999999999999978
    vertex 8.576495251936135 38.687407955410116 -1.9999999999999998
    vertex 10.0 38.5 -1.9999999999999998
  endloop
endfacet
facet normal 5.2051674256156074e-33 -3.713544818145482e-17 -1.0
  outer loop
    vertex 10.0 30.0 -1.9999999999999978
    vertex 10.0 38.5 -1.9999999999999998
    vertex 11.423504748063868 38.68740795541012 -1.9999999999999998
  endloop
endfacet
facet normal 5.2051674256156074e-33 -3.713544818145482e-17 -1.0
  outer loop
    vertex 10.0 30.0 -1.9999999999999978
    vertex 11.423504748063868 38.68740795541012 -1.9999999999999998
    vertex 20.0 30.0 -1.9999999999999998
  endloop
endfacet
facet normal 5.2051674256156074e-33 -3.713544818145482e-17 -1.0
  outer loop
    vertex 20.0 30.0 -1.9999999999999998
    vertex 11.423504748063868 38.68740795541012 -1.9999999999999998
    vertex 12.750000000000002 39.236860279185585 -1.9999999999999998
  endloop
endfacet
facet normal 5.2051674256156074e-33 -3.713544818145482e-17 -1.0
  outer loop
    vertex 20.0 30.0 -1.9999999999999998
    vertex 12.750000000000002 39.236860279185585 -1.9999999999999998
    vertex 13.744543047188301 40.0 -1.9999999999999998
  endloop
endfacet
facet normal 5.2051674256156074e-33 -3.713544818145482e-17 -1.0
  outer loop
    vertex 20.0 30.0 -1.9999999999999998
    vertex 13.744543047188301 40.0 -1.9999999999999998
    vertex 13.889087296526014 40.110912703473986 -1.9999999999999998
  endloop
endfacet
facet normal 5.2051674256156074e-33 -3.713544818145482e-17 -1.0
  outer loop
    vertex 20.0 30.0 -1.9999999999999998
    vertex 13.889087296526014 40.110912703473986 -1.9999999999999998
    vertex 14.763139720814417 41.25 -1.9999999999999998
  endloop
endfacet
facet normal 5.2051674256156074e-33 -3.713544818145482e-17 -1.0
  outer loop
    vertex 20.0 30.0 -1.9999999999999998
    vertex 14.763139720814417 41.25 -1.9999999999999998
    vertex 15.312592044589877 42.57649525193614 -1.9999999999999998
  endloop
endfacet
facet normal 5.2051674256156074e-33 -3.713544818145482e-17 -1.0
  outer loop
    vertex 20.0 30.0 -1.9999999999999998
    vertex 15.312592044589877 42.57649525193614 -1.9999999999999998
    vertex 15.5 44.0 -1.9999999999999998
  endloop
endfacet
facet normal 5.2051674256156074e-33 -3.713544818145482e-17 -1.0
  outer loop
    vertex 20.0 30.0 -1.9999999999999998
    vertex 15.5 44.0 -1.9999999999999998
    vertex 17.071067811865476 47.071067811865476 -1.9999999999999998
  endloop
endfacet
facet normal 5.2051674256156074e-33 -3.713544818145482e-17 -1.0
  outer loop
    vertex 20.0 30.0 -1.9999999999999998
    vertex 17.071067811865476 47.071067811865476 -1.9999999999999998
    vertex 19.238795325112864 43.8268343236509 -1.9999999999999998
  endloop
endfacet
facet normal 5.2051674256156074e-33 -3.713544818145482e-17 -1.0
  outer loop
    vertex 20.0 30.0 -1.9999999999999998
    vertex 19.238795325112864 43.8268343236509 -1.9999999999999998
    vertex 20.0 40.0 -1.9999999999999998
  endloop
endfacet
facet normal 0.2588190451025209 0.9659258262890683 0.0
  outer loop
    vertex 8.576495251936135 38.687407955410116 0.0
    vertex 10.0 38.5 -1.9999999999999998
    vertex 8.576495251936135 38.687407955410116 -1.9999999999999998
  endloop
endfacet
facet normal -1.75548864944244e-15 1.0 0.0
  outer loop
    vertex 10.0 38.5 -1.9999999999999998
    vertex 8.576495251936135 38.687407955410116 0.0
    vertex 10.0 38.5 0.0
  endloop
endfacet
facet normal 0.5000000000000011 0.8660254037844379 -4.664386704874735e-18
  outer loop
    vertex 7.249999999999999 39.236860279185585 0.0
    vertex 8.576495251936135 38.687407955410116 -1.9999999999999998
    vertex 7.249999999999999 39.236860279185585 -1.9999999999999998
  endloop
endfacet
facet normal 0.2588190451025209 0.9659258262890683 0.0
  outer loop
    vertex 8.576495251936135 38.687407955410116 -1.9999999999999998
    vertex 7.249999999999999 39.236860279185585 0.0
    vertex 8.576495251936135 38.687407955410116 0.0
  endloop
endfacet
facet normal 0.7071067811865475 0.7071067811865476 -4.664386704874735e-18
  outer loop
    vertex 6.110912703473988 40.110912703473986 0.0
    vertex 6.255456952811702 40.0 -1.9999999999999998
    vertex 6.110912703473988 40.110912703473986 -1.9999999999999998
  endloop
endfacet
facet normal 0.6087614290087212 0.7933533402912347 -9.248964460016753e-18
  outer loop
    vertex 6.255456952811702 40.0 -1.9999999999999998
    vertex 6.110912703473988 40.110912703473986 0.0
    vertex 7.249999999999999 39.236860279185585 -1.9999999999999998
  endloop
endfacet
facet normal 0.5000000000000011 0.8660254037844379 -4.664386704874735e-18
  outer loop
    vertex 7.249999999999999 39.236860279185585 -1.9999999999999998
    vertex 6.110912703473988 40.110912703473986 0.0
    vertex 7.249999999999999 39.236860279185585 0.0
  endloop
endfacet
facet normal 0.5000000000000011 0.8660254037844379 -4.664386704874735e-18
  outer loop
    vertex 7.249999999999999 39.236860279185585 0.0
    vertex 6.110912703473988 40.110912703473986 0.0
    vertex 6.255456952811702 40.0 0.0
  endloop
endfacet
facet normal -0.25881904510252235 -0.9659258262890679 0.0
  outer loop
    vertex 10.659988565011426 46.46311085703712 0.9999999999999999
    vertex 10.0 46.55 0.0
    vertex 10.659988565011426 46.46311085703712 0.0
  endloop
endfacet
facet normal -2.940666265563479e-16 -1.0 0.0
  outer loop
    vertex 10.0 46.55 0.0
    vertex 10.659988565011426 46.46311085703712 0.9999999999999999
    vertex 10.0 46.55 0.9999999999999999
  endloop
endfacet
facet normal -2.940666265563479e-16 -1.0 0.0
  outer loop
    vertex 10.0 46.55 0.9999999999999999
    vertex 9.34001143498857 46.46311085703712 0.0
    vertex 10.0 46.55 0.0
  endloop
endfacet
facet normal 0.258819045102522 -0.9659258262890679 0.0
  outer loop
    vertex 9.34001143498857 46.46311085703712 0.0
    vertex 10.0 46.55 0.9999999999999999
    vertex 9.34001143498857 46.46311085703712 0.9999999999999999
  endloop
endfacet
facet normal -0.7071067811865476 0.7071067811865476 0.0
  outer loop
    vertex 2.9289321881345254 47.071067811865476 0.9999999999999999
    vertex 0.7612046748871337 43.8268343236509 -1.9999999999999998
    vertex 0.7612046748871337 43.8268343236509 0.9999999999999999
  endloop
endfacet
facet normal -0.9238795325112866 0.38268343236508967 0.0
  outer loop
    vertex 0.7612046748871337 43.8268343236509 -1.9999999999999998
    vertex 2.9289321881345254 47.071067811865476 0.9999999999999999
    vertex 2.9289321881345254 47.071067811865476 -1.9999999999999998
  endloop
endfacet
facet normal -0.5000000000000003 -0.8660254037844384 0.0
  outer loop
    vertex 12.75 48.76313972081441 0.0
    vertex 11.423504748063863 49.31259204458988 -1.9999999999999998
    vertex 12.75 48.76313972081441 -1.9999999999999998
  endloop
endfacet
facet normal -0.25881904510252096 -0.9659258262890683 0.0
  outer loop
    vertex 11.423504748063863 49.31259204458988 -1.9999999999999998
    vertex 12.75 48.76313972081441 0.0
    vertex 11.423504748063863 49.31259204458988 0.0
  endloop
endfacet
facet normal 0.258819045102522 -0.9659258262890679 0.0
  outer loop
    vertex 9.34001143498857 46.46311085703712 0.9999999999999999
    vertex 8.725 46.20836477965032 0.0
    vertex 9.34001143498857 46.46311085703712 0.0
  endloop
endfacet
facet normal 0.5 -0.8660254037844388 0.0
  outer loop
    vertex 8.725 46.20836477965032 0.0
    vertex 9.34001143498857 46.46311085703712 0.9999999999999999
    vertex 8.725 46.20836477965032 0.9999999999999999
  endloop
endfacet
facet normal 0.5 -0.8660254037844388 0.0
  outer loop
    vertex 8.725 46.20836477965032 0.9999999999999999
    vertex 8.196877707974302 45.8031222920257 0.0
    vertex 8.725 46.20836477965032 0.0
  endloop
endfacet
facet normal 0.707106781186548 -0.7071067811865472 0.0
  outer loop
    vertex 8.196877707974302 45.8031222920257 0.0
    vertex 8.725 46.20836477965032 0.9999999999999999
    vertex 8.196877707974302 45.8031222920257 0.9999999999999999
  endloop
endfacet
facet normal 0.707106781186548 -0.7071067811865472 0.0
  outer loop
    vertex 8.196877707974302 45.8031222920257 0.0
    vertex 7.791635220349681 45.275 0.9999999999999999
    vertex 7.791635220349681 45.275 0.0
  endloop
endfacet
facet normal 0.8660254037844394 -0.49999999999999906 0.0
  outer loop
    vertex 7.791635220349681 45.275 0.9999999999999999
    vertex 8.196877707974302 45.8031222920257 0.0
    vertex 8.196877707974302 45.8031222920257 0.9999999999999999
  endloop
endfacet
facet normal 0.8660254037844394 -0.49999999999999906 0.0
  outer loop
    vertex 7.791635220349681 45.275 0.0
    vertex 7.536889142962876 44.659988565011425 0.9999999999999999
    vertex 7.536889142962876 44.659988565011425 0.0
  endloop
endfacet
facet normal 0.9659258262890682 -0.2588190451025206 0.0
  outer loop
    vertex 7.536889142962876 44.659988565011425 0.9999999999999999
    vertex 7.791635220349681 45.275 0.0
    vertex 7.791635220349681 45.275 0.9999999999999999
  endloop
endfacet
facet normal 0.9659258262890682 -0.2588190451025206 0.0
  outer loop
    vertex 7.536889142962876 44.659988565011425 0.0
    vertex 7.45 44.0 0.9999999999999999
    vertex 7.45 44.0 0.0
  endloop
endfacet
facet normal 1.0 1.0604220775819816e-15 0.0
  outer loop
    vertex 7.45 44.0 0.9999999999999999
    vertex 7.536889142962876 44.659988565011425 0.0
    vertex 7.536889142962876 44.659988565011425 0.9999999999999999
  endloop
endfacet
facet normal 0.5000000000000016 -0.8660254037844378 0.0
  outer loop
    vertex 7.249999999999998 48.76313972081441 0.0
    vertex 6.110912703473987 47.88908729652601 -1.9999999999999998
    vertex 7.249999999999998 48.76313972081441 -1.9999999999999998
  endloop
endfacet
facet normal 0.7071067811865477 -0.7071067811865476 0.0
  outer loop
    vertex 6.110912703473987 47.88908729652601 -1.9999999999999998
    vertex 7.249999999999998 48.76313972081441 0.0
    vertex 6.110912703473987 47.88908729652601 0.0
  endloop
endfacet
facet normal 0.9238795325112866 0.38268343236508967 0.0
  outer loop
    vertex 19.238795325112864 43.8268343236509 -1.9999999999999998
    vertex 20.0 40.0 0.9999999999999999
    vertex 20.0 40.0 -1.9999999999999998
  endloop
endfacet
facet normal 0.9807852804032304 0.19509032201612894 -0.0
  outer loop
    vertex 20.0 40.0 0.9999999999999999
    vertex 19.238795325112864 43.8268343236509 -1.9999999999999998
    vertex 19.238795325112864 43.8268343236509 0.9999999999999999
  endloop
endfacet
facet normal 0.9659258262890683 0.2588190451025208 0.0
  outer loop
    vertex 4.687407955410124 42.57649525193614 -1.9999999999999998
    vertex 5.236860279185587 41.25 0.0
    vertex 5.236860279185587 41.25 -1.9999999999999998
  endloop
endfacet
facet normal 0.8660254037844384 0.5000000000000003 0.0
  outer loop
    vertex 5.236860279185587 41.25 0.0
    vertex 4.687407955410124 42.57649525193614 -1.9999999999999998
    vertex 4.687407955410124 42.57649525193614 0.0
  endloop
endfacet
facet normal 1.0 0.0 0.0
  outer loop
    vertex 4.499999999999999 44.0 -1.9999999999999998
    vertex 4.687407955410124 42.57649525193614 0.0
    vertex 4.687407955410124 42.57649525193614 -1.9999999999999998
  endloop
endfacet
facet normal 0.9659258262890683 0.2588190451025208 0.0
  outer loop
    vertex 4.687407955410124 42.57649525193614 0.0
    vertex 4.499999999999999 44.0 -1.9999999999999998
    vertex 4.499999999999999 44.0 0.0
  endloop
endfacet
facet normal -0.0 -0.0 1.0
  outer loop
    vertex 20.0 0.0 0.9999999999999999
    vertex 0.0 40.0 0.9999999999999999
    vertex 0.0 0.0 0.9999999999999999
  endloop
endfacet
facet normal -0.0 -0.0 1.0
  outer loop
    vertex 0.0 40.0 0.9999999999999999
    vertex 20.0 0.0 0.9999999999999999
    vertex 0.7612046748871337 43.8268343236509 0.9999999999999999
  endloop
endfacet
facet normal -0.0 -0.0 1.0
  outer loop
    vertex 0.7612046748871337 43.8268343236509 0.9999999999999999
    vertex 20.0 0.0 0.9999999999999999
    vertex 2.9289321881345254 47.071067811865476 0.9999999999999999
  endloop
endfacet
facet normal -0.0 -0.0 1.0
  outer loop
    vertex 2.9289321881345254 47.071067811865476 0.9999999999999999
    vertex 20.0 0.0 0.9999999999999999
    vertex 7.5368891429628775 43.34001143498857 0.9999999999999999
  endloop
endfacet
facet normal -0.0 -0.0 1.0
  outer loop
    vertex 2.9289321881345254 47.071067811865476 0.9999999999999999
    vertex 7.5368891429628775 43.34001143498857 0.9999999999999999
    vertex 6.173165676349102 49.23879532511287 0.9999999999999999
  endloop
endfacet
facet normal -0.0 -0.0 1.0
  outer loop
    vertex 6.173165676349102 49.23879532511287 0.9999999999999999
    vertex 7.5368891429628775 43.34001143498857 0.9999999999999999
    vertex 7.45 44.0 0.9999999999999999
  endloop
endfacet
facet normal -0.0 -0.0 1.0
  outer loop
    vertex 7.5368891429628775 43.34001143498857 0.9999999999999999
    vertex 20.0 0.0 0.9999999999999999
    vertex 7.791635220349682 42.724999999999994 0.9999999999999999
  endloop
endfacet
facet normal -0.0 -0.0 1.0
  outer loop
    vertex 7.791635220349682 42.724999999999994 0.9999999999999999
    vertex 20.0 0.0 0.9999999999999999
    vertex 8.196877707974304 42.1968777079743 0.9999999999999999
  endloop
endfacet
facet normal -0.0 -0.0 1.0
  outer loop
    vertex 8.196877707974304 42.1968777079743 0.9999999999999999
    vertex 20.0 0.0 0.9999999999999999
    vertex 8.725000000000001 41.79163522034968 0.9999999999999999
  endloop
endfacet
facet normal -0.0 -0.0 1.0
  outer loop
    vertex 8.725000000000001 41.79163522034968 0.9999999999999999
    vertex 20.0 0.0 0.9999999999999999
    vertex 9.340011434988572 41.53688914296288 0.9999999999999999
  endloop
endfacet
facet normal -0.0 -0.0 1.0
  outer loop
    vertex 9.340011434988572 41.53688914296288 0.9999999999999999
    vertex 20.0 0.0 0.9999999999999999
    vertex 10.0 41.449999999999996 0.9999999999999999
  endloop
endfacet
facet normal -0.0 -0.0 1.0
  outer loop
    vertex 10.0 41.449999999999996 0.9999999999999999
    vertex 20.0 0.0 0.9999999999999999
    vertex 10.659988565011428 41.53688914296288 0.9999999999999999
  endloop
endfacet
facet normal -0.0 -0.0 1.0
  outer loop
    vertex 10.659988565011428 41.53688914296288 0.9999999999999999
    vertex 20.0 0.0 0.9999999999999999
    vertex 11.275 41.79163522034968 0.9999999999999999
  endloop
endfacet
facet normal -0.0 -0.0 1.0
  outer loop
    vertex 11.275 41.79163522034968 0.9999999999999999
    vertex 20.0 0.0 0.9999999999999999
    vertex 11.803122292025696 42.1968777079743 0.9999999999999999
  endloop
endfacet
facet normal -0.0 -0.0 1.0
  outer loop
    vertex 11.803122292025696 42.1968777079743 0.9999999999999999
    vertex 20.0 0.0 0.9999999999999999
    vertex 12.208364779650317 42.725 0.9999999999999999
  endloop
endfacet
facet normal -0.0 -0.0 1.0
  outer loop
    vertex 12.208364779650317 42.725 0.9999999999999999
    vertex 20.0 0.0 0.9999999999999999
    vertex 12.463110857037124 43.34001143498857 0.9999999999999999
  endloop
endfacet
facet normal -0.0 -0.0 1.0
  outer loop
    vertex 12.463110857037124 43.34001143498857 0.9999999999999999
    vertex 20.0 0.0 0.9999999999999999
    vertex 12.549999999999999 44.0 0.9999999999999999
  endloop
endfacet
facet normal -0.0 -0.0 1.0
  outer loop
    vertex 12.549999999999999 44.0 0.9999999999999999
    vertex 20.0 0.0 0.9999999999999999
    vertex 13.826834323650896 49.23879532511287 0.9999999999999999
  endloop
endfacet
facet normal -0.0 -0.0 1.0
  outer loop
    vertex 13.826834323650896 49.23879532511287 0.9999999999999999
    vertex 20.0 0.0 0.9999999999999999
    vertex 17.071067811865476 47.071067811865476 0.9999999999999999
  endloop
endfacet
facet normal -0.0 -0.0 1.0
  outer loop
    vertex 17.071067811865476 47.071067811865476 0.9999999999999999
    vertex 20.0 0.0 0.9999999999999999
    vertex 19.238795325112864 43.8268343236509 0.9999999999999999
  endloop
endfacet
facet normal -0.0 -0.0 1.0
  outer loop
    vertex 19.238795325112864 43.8268343236509 0.9999999999999999
    vertex 20.0 0.0 0.9999999999999999
    vertex 20.0 40.0 0.9999999999999999
  endloop
endfacet
facet normal -0.0 -0.0 1.0
  outer loop
    vertex 6.173165676349102 49.23879532511287 0.9999999999999999
    vertex 7.791635220349681 45.275 0.9999999999999999
    vertex 10.0 50.0 0.9999999999999999
  endloop
endfacet
facet normal -0.0 -0.0 1.0
  outer loop
    vertex 7.791635220349681 45.275 0.9999999999999999
    vertex 6.173165676349102 49.23879532511287 0.9999999999999999
    vertex 7.536889142962876 44.659988565011425 0.9999999999999999
  endloop
endfacet
facet normal -0.0 -0.0 1.0
  outer loop
    vertex 7.536889142962876 44.659988565011425 0.9999999999999999
    vertex 6.173165676349102 49.23879532511287 0.9999999999999999
    vertex 7.45 44.0 0.9999999999999999
  endloop
endfacet
facet normal -0.0 -0.0 1.0
  outer loop
    vertex 10.0 50.0 0.9999999999999999
    vertex 7.791635220349681 45.275 0.9999999999999999
    vertex 8.196877707974302 45.8031222920257 0.9999999999999999
  endloop
endfacet
facet normal -0.0 -0.0 1.0
  outer loop
    vertex 10.0 50.0 0.9999999999999999
    vertex 8.196877707974302 45.8031222920257 0.9999999999999999
    vertex 8.725 46.20836477965032 0.9999999999999999
  endloop
endfacet
facet normal -0.0 -0.0 1.0
  outer loop
    vertex 10.0 50.0 0.9999999999999999
    vertex 8.725 46.20836477965032 0.9999999999999999
    vertex 9.34001143498857 46.46311085703712 0.9999999999999999
  endloop
endfacet
facet normal -0.0 -0.0 1.0
  outer loop
    vertex 10.0 50.0 0.9999999999999999
    vertex 9.34001143498857 46.46311085703712 0.9999999999999999
    vertex 10.0 46.55 0.9999999999999999
  endloop
endfacet
facet normal -0.0 -0.0 1.0
  outer loop
    vertex 10.0 50.0 0.9999999999999999
    vertex 10.0 46.55 0.9999999999999999
    vertex 10.659988565011426 46.46311085703712 0.9999999999999999
  endloop
endfacet
facet normal -0.0 -0.0 1.0
  outer loop
    vertex 10.0 50.0 0.9999999999999999
    vertex 10.659988565011426 46.46311085703712 0.9999999999999999
    vertex 13.826834323650896 49.23879532511287 0.9999999999999999
  endloop
endfacet
facet normal -0.0 -0.0 1.0
  outer loop
    vertex 13.826834323650896 49.23879532511287 0.9999999999999999
    vertex 10.659988565011426 46.46311085703712 0.9999999999999999
    vertex 11.274999999999997 46.20836477965032 0.9999999999999999
  endloop
endfacet
facet normal -0.0 -0.0 1.0
  outer loop
    vertex 13.826834323650896 49.23879532511287 0.9999999999999999
    vertex 11.274999999999997 46.20836477965032 0.9999999999999999
    vertex 11.803122292025694 45.8031222920257 0.9999999999999999
  endloop
endfacet
facet normal -0.0 -0.0 1.0
  outer loop
    vertex 13.826834323650896 49.23879532511287 0.9999999999999999
    vertex 11.803122292025694 45.8031222920257 0.9999999999999999
    vertex 12.208364779650317 45.275 0.9999999999999999
  endloop
endfacet
facet normal -0.0 -0.0 1.0
  outer loop
    vertex 13.826834323650896 49.23879532511287 0.9999999999999999
    vertex 12.208364779650317 45.275 0.9999999999999999
    vertex 12.463110857037123 44.659988565011425 0.9999999999999999
  endloop
endfacet
facet normal -0.0 -0.0 1.0
  outer loop
    vertex 13.826834323650896 49.23879532511287 0.9999999999999999
    vertex 12.463110857037123 44.659988565011425 0.9999999999999999
    vertex 12.549999999999999 44.0 0.9999999999999999
  endloop
endfacet
facet normal 0.0 0.0 -1.0
  outer loop
    vertex 4.687407955410124 45.42350474806386 0.0
    vertex 4.687407955410124 42.57649525193614 0.0
    vertex 4.499999999999999 44.0 0.0
  endloop
endfacet
facet normal 0.0 0.0 -1.0
  outer loop
    vertex 4.687407955410124 42.57649525193614 0.0
    vertex 4.687407955410124 45.42350474806386 0.0
    vertex 5.236860279185586 46.75 0.0
  endloop
endfacet
facet normal 0.0 0.0 -1.0
  outer loop
    vertex 4.687407955410124 42.57649525193614 0.0
    vertex 5.236860279185586 46.75 0.0
    vertex 5.236860279185587 41.25 0.0
  endloop
endfacet
facet normal 0.0 0.0 -1.0
  outer loop
    vertex 5.236860279185587 41.25 0.0
    vertex 5.236860279185586 46.75 0.0
    vertex 6.110912703473987 47.88908729652601 0.0
  endloop
endfacet
facet normal 0.0 0.0 -1.0
  outer loop
    vertex 5.236860279185587 41.25 0.0
    vertex 6.110912703473987 47.88908729652601 0.0
    vertex 6.110912703473988 40.110912703473986 0.0
  endloop
endfacet
facet normal 0.0 0.0 -1.0
  outer loop
    vertex 6.110912703473988 40.110912703473986 0.0
    vertex 6.110912703473987 47.88908729652601 0.0
    vertex 7.249999999999998 48.76313972081441 0.0
  endloop
endfacet
facet normal 0.0 0.0 -1.0
  outer loop
    vertex 6.110912703473988 40.110912703473986 0.0
    vertex 7.249999999999998 48.76313972081441 0.0
    vertex 6.255456952811702 40.0 0.0
  endloop
endfacet
facet normal 0.0 0.0 -1.0
  outer loop
    vertex 6.255456952811702 40.0 0.0
    vertex 7.249999999999998 48.76313972081441 0.0
    vertex 7.249999999999999 39.236860279185585 0.0
  endloop
endfacet
facet normal 0.0 0.0 -1.0
  outer loop
    vertex 7.249999999999999 39.236860279185585 0.0
    vertex 7.249999999999998 48.76313972081441 0.0
    vertex 7.45 44.0 0.0
  endloop
endfacet
facet normal 0.0 0.0 -1.0
  outer loop
    vertex 7.45 44.0 0.0
    vertex 7.249999999999998 48.76313972081441 0.0
    vertex 7.536889142962876 44.659988565011425 0.0
  endloop
endfacet
facet normal 0.0 0.0 -1.0
  outer loop
    vertex 7.536889142962876 44.659988565011425 0.0
    vertex 7.249999999999998 48.76313972081441 0.0
    vertex 8.576495251936135 49.31259204458988 0.0
  endloop
endfacet
facet normal 0.0 0.0 -1.0
  outer loop
    vertex 7.536889142962876 44.659988565011425 0.0
    vertex 8.576495251936135 49.31259204458988 0.0
    vertex 7.791635220349681 45.275 0.0
  endloop
endfacet
facet normal 0.0 0.0 -1.0
  outer loop
    vertex 7.791635220349681 45.275 0.0
    vertex 8.576495251936135 49.31259204458988 0.0
    vertex 8.196877707974302 45.8031222920257 0.0
  endloop
endfacet
facet normal 0.0 0.0 -1.0
  outer loop
    vertex 8.196877707974302 45.8031222920257 0.0
    vertex 8.576495251936135 49.31259204458988 0.0
    vertex 8.725 46.20836477965032 0.0
  endloop
endfacet
facet normal 0.0 0.0 -1.0
  outer loop
    vertex 8.725 46.20836477965032 0.0
    vertex 8.576495251936135 49.31259204458988 0.0
    vertex 10.0 49.5 0.0
  endloop
endfacet
facet normal 0.0 0.0 -1.0
  outer loop
    vertex 8.725 46.20836477965032 0.0
    vertex 10.0 49.5 0.0
    vertex 9.34001143498857 46.46311085703712 0.0
  endloop
endfacet
facet normal 0.0 0.0 -1.0
  outer loop
    vertex 9.34001143498857 46.46311085703712 0.0
    vertex 10.0 49.5 0.0
    vertex 10.0 46.55 0.0
  endloop
endfacet
facet normal 0.0 0.0 -1.0
  outer loop
    vertex 10.0 46.55 0.0
    vertex 10.0 49.5 0.0
    vertex 11.423504748063863 49.31259204458988 0.0
  endloop
endfacet
facet normal 0.0 0.0 -1.0
  outer loop
    vertex 10.0 46.55 0.0
    vertex 11.423504748063863 49.31259204458988 0.0
    vertex 10.659988565011426 46.46311085703712 0.0
  endloop
endfacet
facet normal 0.0 0.0 -1.0
  outer loop
    vertex 10.659988565011426 46.46311085703712 0.0
    vertex 11.423504748063863 49.31259204458988 0.0
    vertex 11.274999999999997 46.20836477965032 0.0
  endloop
endfacet
facet normal 0.0 0.0 -1.0
  outer loop
    vertex 11.274999999999997 46.20836477965032 0.0
    vertex 11.423504748063863 49.31259204458988 0.0
    vertex 11.803122292025694 45.8031222920257 0.0
  endloop
endfacet
facet normal 0.0 0.0 -1.0
  outer loop
    vertex 11.803122292025694 45.8031222920257 0.0
    vertex 11.423504748063863 49.31259204458988 0.0
    vertex 12.75 48.76313972081441 0.0
  endloop
endfacet
facet normal 0.0 0.0 -1.0
  outer loop
    vertex 11.803122292025694 45.8031222920257 0.0
    vertex 12.75 48.76313972081441 0.0
    vertex 12.208364779650317 45.275 0.0
  endloop
endfacet
facet normal 0.0 0.0 -1.0
  outer loop
    vertex 12.208364779650317 45.275 0.0
    vertex 12.75 48.76313972081441 0.0
    vertex 12.463110857037123 44.659988565011425 0.0
  endloop
endfacet
facet normal 0.0 0.0 -1.0
  outer loop
    vertex 12.463110857037123 44.659988565011425 0.0
    vertex 12.75 48.76313972081441 0.0
    vertex 12.549999999999999 44.0 0.0
  endloop
endfacet
facet normal 0.0 0.0 -1.0
  outer loop
    vertex 7.249999999999999 39.236860279185585 0.0
    vertex 7.5368891429628775 43.34001143498857 0.0
    vertex 8.576495251936135 38.687407955410116 0.0
  endloop
endfacet
facet normal 0.0 0.0 -1.0
  outer loop
    vertex 7.5368891429628775 43.34001143498857 0.0
    vertex 7.249999999999999 39.236860279185585 0.0
    vertex 7.45 44.0 0.0
  endloop
endfacet
facet normal 0.0 0.0 -1.0
  outer loop
    vertex 8.576495251936135 38.687407955410116 0.0
    vertex 7.5368891429628775 43.34001143498857 0.0
    vertex 7.791635220349682 42.724999999999994 0.0
  endloop
endfacet
facet normal 0.0 0.0 -1.0
  outer loop
    vertex 8.576495251936135 38.687407955410116 0.0
    vertex 7.791635220349682 42.724999999999994 0.0
    vertex 8.196877707974304 42.1968777079743 0.0
  endloop
endfacet
facet normal 0.0 0.0 -1.0
  outer loop
    vertex 8.576495251936135 38.687407955410116 0.0
    vertex 8.196877707974304 42.1968777079743 0.0
    vertex 8.725000000000001 41.79163522034968 0.0
  endloop
endfacet
facet normal 0.0 0.0 -1.0
  outer loop
    vertex 8.576495251936135 38.687407955410116 0.0
    vertex 8.725000000000001 41.79163522034968 0.0
    vertex 10.0 38.5 0.0
  endloop
endfacet
facet normal 0.0 0.0 -1.0
  outer loop
    vertex 10.0 38.5 0.0
    vertex 8.725000000000001 41.79163522034968 0.0
    vertex 9.340011434988572 41.53688914296288 0.0
  endloop
endfacet
facet normal 0.0 0.0 -1.0
  outer loop
    vertex 10.0 38.5 0.0
    vertex 9.340011434988572 41.53688914296288 0.0
    vertex 10.0 41.449999999999996 0.0
  endloop
endfacet
facet normal 0.0 0.0 -1.0
  outer loop
    vertex 10.0 38.5 0.0
    vertex 10.0 41.449999999999996 0.0
    vertex 10.659988565011428 41.53688914296288 0.0
  endloop
endfacet
facet normal 0.0 0.0 -1.0
  outer loop
    vertex 10.0 38.5 0.0
    vertex 10.659988565011428 41.53688914296288 0.0
    vertex 11.423504748063868 38.68740795541012 0.0
  endloop
endfacet
facet normal 0.0 0.0 -1.0
  outer loop
    vertex 11.423504748063868 38.68740795541012 0.0
    vertex 10.659988565011428 41.53688914296288 0.0
    vertex 11.275 41.79163522034968 0.0
  endloop
endfacet
facet normal 0.0 0.0 -1.0
  outer loop
    vertex 11.423504748063868 38.68740795541012 0.0
    vertex 11.275 41.79163522034968 0.0
    vertex 11.803122292025696 42.1968777079743 0.0
  endloop
endfacet
facet normal 0.0 0.0 -1.0
  outer loop
    vertex 11.423504748063868 38.68740795541012 0.0
    vertex 11.803122292025696 42.1968777079743 0.0
    vertex 12.750000000000002 39.236860279185585 0.0
  endloop
endfacet
facet normal 0.0 0.0 -1.0
  outer loop
    vertex 12.750000000000002 39.236860279185585 0.0
    vertex 11.803122292025696 42.1968777079743 0.0
    vertex 12.208364779650317 42.725 0.0
  endloop
endfacet
facet normal 0.0 0.0 -1.0
  outer loop
    vertex 12.750000000000002 39.236860279185585 0.0
    vertex 12.208364779650317 42.725 0.0
    vertex 12.463110857037124 43.34001143498857 0.0
  endloop
endfacet
facet normal 0.0 0.0 -1.0
  outer loop
    vertex 12.750000000000002 39.236860279185585 0.0
    vertex 12.463110857037124 43.34001143498857 0.0
    vertex 12.549999999999999 44.0 0.0
  endloop
endfacet
facet normal 0.0 0.0 -1.0
  outer loop
    vertex 12.750000000000002 39.236860279185585 0.0
    vertex 12.549999999999999 44.0 0.0
    vertex 12.75 48.76313972081441 0.0
  endloop
endfacet
facet normal 0.0 0.0 -1.0
  outer loop
    vertex 12.750000000000002 39.236860279185585 0.0
    vertex 12.75 48.76313972081441 0.0
    vertex 13.889087296526009 47.889087296526014 0.0
  endloop
endfacet
facet normal 0.0 0.0 -1.0
  outer loop
    vertex 12.750000000000002 39.236860279185585 0.0
    vertex 13.889087296526009 47.889087296526014 0.0
    vertex 13.744543047188301 40.0 0.0
  endloop
endfacet
facet normal 0.0 0.0 -1.0
  outer loop
    vertex 13.744543047188301 40.0 0.0
    vertex 13.889087296526009 47.889087296526014 0.0
    vertex 13.889087296526014 40.110912703473986 0.0
  endloop
endfacet
facet normal 0.0 0.0 -1.0
  outer loop
    vertex 13.889087296526014 40.110912703473986 0.0
    vertex 13.889087296526009 47.889087296526014 0.0
    vertex 14.763139720814412 46.75 0.0
  endloop
endfacet
facet normal 0.0 0.0 -1.0
  outer loop
    vertex 13.889087296526014 40.110912703473986 0.0
    vertex 14.763139720814412 46.75 0.0
    vertex 14.763139720814417 41.25 0.0
  endloop
endfacet
facet normal 0.0 0.0 -1.0
  outer loop
    vertex 14.763139720814417 41.25 0.0
    vertex 14.763139720814412 46.75 0.0
    vertex 15.312592044589875 45.42350474806387 0.0
  endloop
endfacet
facet normal 0.0 0.0 -1.0
  outer loop
    vertex 14.763139720814417 41.25 0.0
    vertex 15.312592044589875 45.42350474806387 0.0
    vertex 15.312592044589877 42.57649525193614 0.0
  endloop
endfacet
facet normal 0.0 0.0 -1.0
  outer loop
    vertex 15.312592044589877 42.57649525193614 0.0
    vertex 15.312592044589875 45.42350474806387 0.0
    vertex 15.5 44.0 0.0
  endloop
endfacet
facet normal -0.8660254037844388 0.4999999999999998 0.0
  outer loop
    vertex 14.763139720814417 41.25 0.0
    vertex 13.889087296526014 40.110912703473986 -1.9999999999999998
    vertex 13.889087296526014 40.110912703473986 0.0
  endloop
endfacet
facet normal -0.7071067811865479 0.7071067811865471 0.0
  outer loop
    vertex 13.889087296526014 40.110912703473986 -1.9999999999999998
    vertex 14.763139720814417 41.25 0.0
    vertex 14.763139720814417 41.25 -1.9999999999999998
  endloop
endfacet
facet normal 0.0 -1.0 0.0
  outer loop
    vertex 20.0 0.0 0.9999999999999999
    vertex 17.75 0.0 -9.749999999999998
    vertex 20.0 0.0 -9.749999999999998
  endloop
endfacet
facet normal 0.0 -1.0 0.0
  outer loop
    vertex 17.75 0.0 -9.749999999999998
    vertex 20.0 0.0 0.9999999999999999
    vertex 17.160066376962472 0.0 -6.784203399170549
  endloop
endfacet
facet normal 0.0 -1.0 0.0
  outer loop
    vertex 17.160066376962472 0.0 -6.784203399170549
    vertex 20.0 0.0 0.9999999999999999
    vertex 15.480077554195745 0.0 -4.269922445804253
  endloop
endfacet
facet normal 0.0 -1.0 0.0
  outer loop
    vertex 15.480077554195745 0.0 -4.269922445804253
    vertex 20.0 0.0 0.9999999999999999
    vertex 12.965796600829446 0.0 -2.5899336230375254
  endloop
endfacet
facet normal 0.0 -1.0 0.0
  outer loop
    vertex 12.965796600829446 0.0 -2.5899336230375254
    vertex 20.0 0.0 0.9999999999999999
    vertex 10.0 0.0 -1.9999999999999978
  endloop
endfacet
facet normal 0.0 -1.0 0.0
  outer loop
    vertex 2.8399336230375307 0.0 -6.784203399170553
    vertex 0.0 0.0 -9.749999999999998
    vertex 2.25 0.0 -9.749999999999998
  endloop
endfacet
facet normal 0.0 -1.0 0.0
  outer loop
    vertex 0.0 0.0 -9.749999999999998
    vertex 2.8399336230375307 0.0 -6.784203399170553
    vertex 0.0 0.0 0.9999999999999999
  endloop
endfacet
facet normal 0.0 -1.0 0.0
  outer loop
    vertex 0.0 0.0 0.9999999999999999
    vertex 2.8399336230375307 0.0 -6.784203399170553
    vertex 4.519922445804258 0.0 -4.269922445804255
  endloop
endfacet
facet normal 0.0 -1.0 0.0
  outer loop
    vertex 0.0 0.0 0.9999999999999999
    vertex 4.519922445804258 0.0 -4.269922445804255
    vertex 7.034203399170554 0.0 -2.5899336230375254
  endloop
endfacet
facet normal 0.0 -1.0 0.0
  outer loop
    vertex 0.0 0.0 0.9999999999999999
    vertex 7.034203399170554 0.0 -2.5899336230375254
    vertex 10.0 0.0 -1.9999999999999978
  endloop
endfacet
facet normal 0.0 -1.0 0.0
  outer loop
    vertex 0.0 0.0 0.9999999999999999
    vertex 10.0 0.0 -1.9999999999999978
    vertex 20.0 0.0 0.9999999999999999
  endloop
endfacet
facet normal -1.2475553853905664e-16 -1.0 0.0
  outer loop
    vertex 10.0 49.5 0.0
    vertex 8.576495251936135 49.31259204458988 -1.9999999999999998
    vertex 10.0 49.5 -1.9999999999999998
  endloop
endfacet
facet normal 0.25881904510252085 -0.9659258262890683 0.0
  outer loop
    vertex 8.576495251936135 49.31259204458988 -1.9999999999999998
    vertex 10.0 49.5 0.0
    vertex 8.576495251936135 49.31259204458988 0.0
  endloop
endfacet
facet normal -0.9659258262890686 0.2588190451025199 0.0
  outer loop
    vertex 15.312592044589877 42.57649525193614 0.0
    vertex 14.763139720814417 41.25 -1.9999999999999998
    vertex 14.763139720814417 41.25 0.0
  endloop
endfacet
facet normal -0.8660254037844388 0.4999999999999998 0.0
  outer loop
    vertex 14.763139720814417 41.25 -1.9999999999999998
    vertex 15.312592044589877 42.57649525193614 0.0
    vertex 15.312592044589877 42.57649525193614 -1.9999999999999998
  endloop
endfacet
facet normal -0.4999999999999999 0.8660254037844388 0.0
  outer loop
    vertex 12.750000000000002 39.236860279185585 0.0
    vertex 13.744543047188301 40.0 -1.9999999999999998
    vertex 12.750000000000002 39.236860279185585 -1.9999999999999998
  endloop
endfacet
facet normal -0.608761429008721 0.7933533402912349 -0.0
  outer loop
    vertex 13.744543047188301 40.0 -1.9999999999999998
    vertex 12.750000000000002 39.236860279185585 0.0
    vertex 13.889087296526014 40.110912703473986 -1.9999999999999998
  endloop
endfacet
facet normal -0.7071067811865479 0.7071067811865471 0.0
  outer loop
    vertex 13.889087296526014 40.110912703473986 -1.9999999999999998
    vertex 12.750000000000002 39.236860279185585 0.0
    vertex 13.889087296526014 40.110912703473986 0.0
  endloop
endfacet
facet normal -0.7071067811865479 0.7071067811865471 0.0
  outer loop
    vertex 13.889087296526014 40.110912703473986 0.0
    vertex 12.750000000000002 39.236860279185585 0.0
    vertex 13.744543047188301 40.0 0.0
  endloop
endfacet
facet normal 3.6031838126869735e-17 1.0 0.0
  outer loop
    vertex 10.0 50.0 0.9999999999999999
    vertex 13.826834323650896 49.23879532511287 -1.9999999999999998
    vertex 10.0 50.0 -1.9999999999999998
  endloop
endfacet
facet normal 0.38268343236508945 0.9238795325112868 0.0
  outer loop
    vertex 13.826834323650896 49.23879532511287 -1.9999999999999998
    vertex 10.0 50.0 0.9999999999999999
    vertex 13.826834323650896 49.23879532511287 0.9999999999999999
  endloop
endfacet
facet normal 1.0 -0.0 -0.0
  outer loop
    vertex 20.0 30.0 -9.749999999999998
    vertex 20.0 0.0 0.9999999999999999
    vertex 20.0 0.0 -9.749999999999998
  endloop
endfacet
facet normal 1.0 -0.0 -0.0
  outer loop
    vertex 20.0 0.0 0.9999999999999999
    vertex 20.0 30.0 -9.749999999999998
    vertex 20.0 30.0 -1.9999999999999998
  endloop
endfacet
facet normal 1.0 -0.0 -0.0
  outer loop
    vertex 20.0 0.0 0.9999999999999999
    vertex 20.0 30.0 -1.9999999999999998
    vertex 20.0 40.0 0.9999999999999999
  endloop
endfacet
facet normal 1.0 -0.0 -0.0
  outer loop
    vertex 20.0 40.0 0.9999999999999999
    vertex 20.0 30.0 -1.9999999999999998
    vertex 20.0 40.0 -1.9999999999999998
  endloop
endfacet
facet normal 0.38268343236508945 0.9238795325112868 0.0
  outer loop
    vertex 13.826834323650896 49.23879532511287 0.9999999999999999
    vertex 17.071067811865476 47.071067811865476 -1.9999999999999998
    vertex 13.826834323650896 49.23879532511287 -1.9999999999999998
  endloop
endfacet
facet normal 0.7071067811865475 0.7071067811865475 0.0
  outer loop
    vertex 17.071067811865476 47.071067811865476 -1.9999999999999998
    vertex 13.826834323650896 49.23879532511287 0.9999999999999999
    vertex 17.071067811865476 47.071067811865476 0.9999999999999999
  endloop
endfacet
facet normal 0.8660254037844384 0.5000000000000003 0.0
  outer loop
    vertex 5.236860279185587 41.25 -1.9999999999999998
    vertex 6.110912703473988 40.110912703473986 0.0
    vertex 6.110912703473988 40.110912703473986 -1.9999999999999998
  endloop
endfacet
facet normal 0.7071067811865475 0.7071067811865476 -4.664386704874735e-18
  outer loop
    vertex 6.110912703473988 40.110912703473986 0.0
    vertex 5.236860279185587 41.25 -1.9999999999999998
    vertex 5.236860279185587 41.25 0.0
  endloop
endfacet
facet normal 0.8660254037844386 -0.5000000000000001 0.0
  outer loop
    vertex 5.236860279185586 46.75 -1.9999999999999998
    vertex 4.687407955410124 45.42350474806386 0.0
    vertex 4.687407955410124 45.42350474806386 -1.9999999999999998
  endloop
endfacet
facet normal 0.9659258262890683 -0.2588190451025206 0.0
  outer loop
    vertex 4.687407955410124 45.42350474806386 0.0
    vertex 5.236860279185586 46.75 -1.9999999999999998
    vertex 5.236860279185586 46.75 0.0
  endloop
endfacet
facet normal 0.7071067811865477 -0.7071067811865476 0.0
  outer loop
    vertex 6.110912703473987 47.88908729652601 -1.9999999999999998
    vertex 5.236860279185586 46.75 0.0
    vertex 5.236860279185586 46.75 -1.9999999999999998
  endloop
endfacet
facet normal 0.8660254037844386 -0.5000000000000001 0.0
  outer loop
    vertex 5.236860279185586 46.75 0.0
    vertex 6.110912703473987 47.88908729652601 -1.9999999999999998
    vertex 6.110912703473987 47.88908729652601 0.0
  endloop
endfacet
facet normal 0.25881904510252085 -0.9659258262890683 0.0
  outer loop
    vertex 8.576495251936135 49.31259204458988 0.0
    vertex 7.249999999999998 48.76313972081441 -1.9999999999999998
    vertex 8.576495251936135 49.31259204458988 -1.9999999999999998
  endloop
endfacet
facet normal 0.5000000000000016 -0.8660254037844378 0.0
  outer loop
    vertex 7.249999999999998 48.76313972081441 -1.9999999999999998
    vertex 8.576495251936135 49.31259204458988 0.0
    vertex 7.249999999999998 48.76313972081441 0.0
  endloop
endfacet
facet normal -0.7071067811865472 -0.7071067811865478 0.0
  outer loop
    vertex 13.889087296526009 47.889087296526014 0.0
    vertex 12.75 48.76313972081441 -1.9999999999999998
    vertex 13.889087296526009 47.889087296526014 -1.9999999999999998
  endloop
endfacet
facet normal -0.5000000000000003 -0.8660254037844384 0.0
  outer loop
    vertex 12.75 48.76313972081441 -1.9999999999999998
    vertex 13.889087296526009 47.889087296526014 0.0
    vertex 12.75 48.76313972081441 0.0
  endloop
endfacet
facet normal 0.9238795325112867 0.0 -0.3826834323650899
  outer loop
    vertex 2.8399336230375307 30.0 -6.784203399170553
    vertex 4.519922445804258 0.0 -4.269922445804255
    vertex 2.8399336230375307 0.0 -6.784203399170553
  endloop
endfacet
facet normal 0.7071067811865479 0.0 -0.7071067811865471
  outer loop
    vertex 4.519922445804258 0.0 -4.269922445804255
    vertex 2.8399336230375307 30.0 -6.784203399170553
    vertex 4.519922445804258 30.0 -4.269922445804255
  endloop
endfacet
facet normal 0.0 0.0 -1.0
  outer loop
    vertex 2.25 30.0 -9.749999999999998
    vertex 0.0 0.0 -9.749999999999998
    vertex 0.0 30.0 -9.749999999999998
  endloop
endfacet
facet normal 0.0 0.0 -1.0
  outer loop
    vertex 0.0 0.0 -9.749999999999998
    vertex 2.25 30.0 -9.749999999999998
    vertex 2.25 0.0 -9.749999999999998
  endloop
endfacet
facet normal -0.38268343236508945 0.0 -0.9238795325112867
  outer loop
    vertex 12.965796600829446 30.0 -2.5899336230375254
    vertex 10.0 0.0 -1.9999999999999978
    vertex 10.0 30.0 -1.9999999999999978
  endloop
endfacet
facet normal -0.19509032201612822 0.0 -0.9807852804032304
  outer loop
    vertex 10.0 0.0 -1.9999999999999978
    vertex 12.965796600829446 30.0 -2.5899336230375254
    vertex 12.965796600829446 0.0 -2.5899336230375254
  endloop
endfacet
facet normal -0.0 1.0 -0.0
  outer loop
    vertex 17.160066376962472 30.0 -6.784203399170549
    vertex 20.0 30.0 -9.749999999999998
    vertex 17.75 30.0 -9.749999999999998
  endloop
endfacet
facet normal -0.0 1.0 -0.0
  outer loop
    vertex 20.0 30.0 -9.749999999999998
    vertex 17.160066376962472 30.0 -6.784203399170549
    vertex 20.0 30.0 -1.9999999999999998
  endloop
endfacet
facet normal -0.0 1.0 -0.0
  outer loop
    vertex 20.0 30.0 -1.9999999999999998
    vertex 17.160066376962472 30.0 -6.784203399170549
    vertex 15.480077554195745 30.0 -4.269922445804253
  endloop
endfacet
facet normal -0.0 1.0 -0.0
  outer loop
    vertex 20.0 30.0 -1.9999999999999998
    vertex 15.480077554195745 30.0 -4.269922445804253
    vertex 12.965796600829446 30.0 -2.5899336230375254
  endloop
endfacet
facet normal -0.0 1.0 -0.0
  outer loop
    vertex 20.0 30.0 -1.9999999999999998
    vertex 12.965796600829446 30.0 -2.5899336230375254
    vertex 10.0 30.0 -1.9999999999999978
  endloop
endfacet
facet normal -0.7071067811865456 -0.7071067811865495 0.0
  outer loop
    vertex 11.803122292025694 45.8031222920257 0.9999999999999999
    vertex 11.274999999999997 46.20836477965032 0.0
    vertex 11.803122292025694 45.8031222920257 0.0
  endloop
endfacet
facet normal -0.5 -0.8660254037844388 0.0
  outer loop
    vertex 11.274999999999997 46.20836477965032 0.0
    vertex 11.803122292025694 45.8031222920257 0.9999999999999999
    vertex 11.274999999999997 46.20836477965032 0.9999999999999999
  endloop
endfacet
facet normal 1.0 1.0604220775819816e-15 0.0
  outer loop
    vertex 7.45 44.0 0.0
    vertex 7.5368891429628775 43.34001143498857 0.9999999999999999
    vertex 7.5368891429628775 43.34001143498857 0.0
  endloop
endfacet
facet normal 0.9659258262890685 0.2588190451025201 0.0
  outer loop
    vertex 7.5368891429628775 43.34001143498857 0.9999999999999999
    vertex 7.45 44.0 0.0
    vertex 7.45 44.0 0.9999999999999999
  endloop
endfacet
facet normal -0.2588190451025217 0.965925826289068 0.0
  outer loop
    vertex 10.659988565011428 41.53688914296288 0.9999999999999999
    vertex 11.275 41.79163522034968 0.0
    vertex 10.659988565011428 41.53688914296288 0.0
  endloop
endfacet
facet normal -0.5000000000000001 0.8660254037844387 0.0
  outer loop
    vertex 11.275 41.79163522034968 0.0
    vertex 10.659988565011428 41.53688914296288 0.9999999999999999
    vertex 11.275 41.79163522034968 0.9999999999999999
  endloop
endfacet
facet normal -0.7071067811865475 0.0 -0.7071067811865476
  outer loop
    vertex 15.480077554195745 30.0 -4.269922445804253
    vertex 17.160066376962472 0.0 -6.784203399170549
    vertex 15.480077554195745 0.0 -4.269922445804253
  endloop
endfacet
facet normal -0.9238795325112867 0.0 -0.3826834323650899
  outer loop
    vertex 17.160066376962472 0.0 -6.784203399170549
    vertex 15.480077554195745 30.0 -4.269922445804253
    vertex 17.160066376962472 30.0 -6.784203399170549
  endloop
endfacet
facet normal -0.5000000000000001 0.8660254037844387 0.0
  outer loop
    vertex 11.275 41.79163522034968 0.9999999999999999
    vertex 11.803122292025696 42.1968777079743 0.0
    vertex 11.275 41.79163522034968 0.0
  endloop
endfacet
facet normal -0.7071067811865485 0.7071067811865468 0.0
  outer loop
    vertex 11.803122292025696 42.1968777079743 0.0
    vertex 11.275 41.79163522034968 0.9999999999999999
    vertex 11.803122292025696 42.1968777079743 0.9999999999999999
  endloop
endfacet
facet normal -0.9659258262890681 0.25881904510252157 0.0
  outer loop
    vertex 12.463110857037124 43.34001143498857 0.9999999999999999
    vertex 12.208364779650317 42.725 0.0
    vertex 12.208364779650317 42.725 0.9999999999999999
  endloop
endfacet
facet normal -0.8660254037844389 0.49999999999999983 0.0
  outer loop
    vertex 12.208364779650317 42.725 0.0
    vertex 12.463110857037124 43.34001143498857 0.9999999999999999
    vertex 12.463110857037124 43.34001143498857 0.0
  endloop
endfacet
facet normal -0.5 -0.8660254037844388 0.0
  outer loop
    vertex 11.274999999999997 46.20836477965032 0.9999999999999999
    vertex 10.659988565011426 46.46311085703712 0.0
    vertex 11.274999999999997 46.20836477965032 0.0
  endloop
endfacet
facet normal -0.25881904510252235 -0.9659258262890679 0.0
  outer loop
    vertex 10.659988565011426 46.46311085703712 0.0
    vertex 11.274999999999997 46.20836477965032 0.9999999999999999
    vertex 10.659988565011426 46.46311085703712 0.9999999999999999
  endloop
endfacet
facet normal 0.0 0.0 -1.0
  outer loop
    vertex 20.0 30.0 -9.749999999999998
    vertex 17.75 0.0 -9.749999999999998
    vertex 17.75 30.0 -9.749999999999998
  endloop
endfacet
facet normal 0.0 0.0 -1.0
  outer loop
    vertex 17.75 0.0 -9.749999999999998
    vertex 20.0 30.0 -9.749999999999998
    vertex 20.0 0.0 -9.749999999999998
  endloop
endfacet
facet normal -0.8660254037844383 -0.5000000000000004 0.0
  outer loop
    vertex 12.208364779650317 45.275 0.9999999999999999
    vertex 12.463110857037123 44.659988565011425 0.0
    vertex 12.463110857037123 44.659988565011425 0.9999999999999999
  endloop
endfacet
facet normal -0.9659258262890685 -0.2588190451025201 0.0
  outer loop
    vertex 12.463110857037123 44.659988565011425 0.0
    vertex 12.208364779650317 45.275 0.9999999999999999
    vertex 12.208364779650317 45.275 0.0
  endloop
endfacet
facet normal 0.2588190451025222 0.9659258262890679 0.0
  outer loop
    vertex 9.340011434988572 41.53688914296288 0.9999999999999999
    vertex 10.0 41.449999999999996 0.0
    vertex 9.340011434988572 41.53688914296288 0.0
  endloop
endfacet
facet normal 0.0 1.0 0.0
  outer loop
    vertex 10.0 41.449999999999996 0.0
    vertex 9.340011434988572 41.53688914296288 0.9999999999999999
    vertex 10.0 41.449999999999996 0.9999999999999999
  endloop
endfacet
facet normal -0.9659258262890685 -0.2588190451025201 0.0
  outer loop
    vertex 12.463110857037123 44.659988565011425 0.9999999999999999
    vertex 12.549999999999999 44.0 0.0
    vertex 12.549999999999999 44.0 0.9999999999999999
  endloop
endfacet
facet normal -1.0 -1.0604220775819816e-15 0.0
  outer loop
    vertex 12.549999999999999 44.0 0.0
    vertex 12.463110857037123 44.659988565011425 0.9999999999999999
    vertex 12.463110857037123 44.659988565011425 0.0
  endloop
endfacet
facet normal -1.0 0.0 0.0
  outer loop
    vertex 0.0 40.0 0.9999999999999999
    vertex 0.0 0.0 -9.749999999999998
    vertex 0.0 0.0 0.9999999999999999
  endloop
endfacet
facet normal -1.0 0.0 0.0
  outer loop
    vertex 0.0 0.0 -9.749999999999998
    vertex 0.0 40.0 0.9999999999999999
    vertex 0.0 30.0 -1.9999999999999998
  endloop
endfacet
facet normal -1.0 0.0 0.0
  outer loop
    vertex 0.0 30.0 -1.9999999999999998
    vertex 0.0 40.0 0.9999999999999999
    vertex 0.0 40.0 -1.9999999999999998
  endloop
endfacet
facet normal -1.0 0.0 0.0
  outer loop
    vertex 0.0 30.0 -9.749999999999998
    vertex 0.0 0.0 -9.749999999999998
    vertex 0.0 30.0 -1.9999999999999998
  endloop
endfacet
facet normal -0.0 1.0 -0.0
  outer loop
    vertex 0.0 30.0 -1.9999999999999998
    vertex 2.25 30.0 -9.749999999999998
    vertex 0.0 30.0 -9.749999999999998
  endloop
endfacet
facet normal -0.0 1.0 -0.0
  outer loop
    vertex 2.25 30.0 -9.749999999999998
    vertex 0.0 30.0 -1.9999999999999998
    vertex 2.8399336230375307 30.0 -6.784203399170553
  endloop
endfacet
facet normal -0.0 1.0 -0.0
  outer loop
    vertex 2.8399336230375307 30.0 -6.784203399170553
    vertex 0.0 30.0 -1.9999999999999998
    vertex 4.519922445804258 30.0 -4.269922445804255
  endloop
endfacet
facet normal -0.0 1.0 -0.0
  outer loop
    vertex 4.519922445804258 30.0 -4.269922445804255
    vertex 0.0 30.0 -1.9999999999999998
    vertex 7.034203399170554 30.0 -2.5899336230375254
  endloop
endfacet
facet normal -0.0 1.0 -0.0
  outer loop
    vertex 7.034203399170554 30.0 -2.5899336230375254
    vertex 0.0 30.0 -1.9999999999999998
    vertex 10.0 30.0 -1.9999999999999978
  endloop
endfacet
facet normal 0.0 1.0 0.0
  outer loop
    vertex 10.0 41.449999999999996 0.9999999999999999
    vertex 10.659988565011428 41.53688914296288 0.0
    vertex 10.0 41.449999999999996 0.0
  endloop
endfacet
facet normal -0.2588190451025217 0.965925826289068 0.0
  outer loop
    vertex 10.659988565011428 41.53688914296288 0.0
    vertex 10.0 41.449999999999996 0.9999999999999999
    vertex 10.659988565011428 41.53688914296288 0.9999999999999999
  endloop
endfacet
facet normal 0.9659258262890685 0.2588190451025201 0.0
  outer loop
    vertex 7.5368891429628775 43.34001143498857 0.0
    vertex 7.791635220349682 42.724999999999994 0.9999999999999999
    vertex 7.791635220349682 42.724999999999994 0.0
  endloop
endfacet
facet normal 0.8660254037844387 0.4999999999999997 0.0
  outer loop
    vertex 7.791635220349682 42.724999999999994 0.9999999999999999
    vertex 7.5368891429628775 43.34001143498857 0.0
    vertex 7.5368891429628775 43.34001143498857 0.9999999999999999
  endloop
endfacet
facet normal 0.9807852804032303 0.0 -0.19509032201612916
  outer loop
    vertex 2.25 30.0 -9.749999999999998
    vertex 2.8399336230375307 0.0 -6.784203399170553
    vertex 2.25 0.0 -9.749999999999998
  endloop
endfacet
facet normal 0.9238795325112867 0.0 -0.3826834323650899
  outer loop
    vertex 2.8399336230375307 0.0 -6.784203399170553
    vertex 2.25 30.0 -9.749999999999998
    vertex 2.8399336230375307 30.0 -6.784203399170553
  endloop
endfacet
facet normal 0.19509032201612825 0.0 -0.9807852804032304
  outer loop
    vertex 10.0 30.0 -1.9999999999999978
    vertex 7.034203399170554 0.0 -2.5899336230375254
    vertex 7.034203399170554 30.0 -2.5899336230375254
  endloop
endfacet
facet normal 0.3826834323650899 0.0 -0.9238795325112865
  outer loop
    vertex 7.034203399170554 0.0 -2.5899336230375254
    vertex 10.0 30.0 -1.9999999999999978
    vertex 10.0 0.0 -1.9999999999999978
  endloop
endfacet
facet normal -0.8660254037844389 0.49999999999999983 0.0
  outer loop
    vertex 12.208364779650317 42.725 0.9999999999999999
    vertex 11.803122292025696 42.1968777079743 0.0
    vertex 11.803122292025696 42.1968777079743 0.9999999999999999
  endloop
endfacet
facet normal -0.7071067811865485 0.7071067811865468 0.0
  outer loop
    vertex 11.803122292025696 42.1968777079743 0.0
    vertex 12.208364779650317 42.725 0.9999999999999999
    vertex 12.208364779650317 42.725 0.0
  endloop
endfacet
facet normal -0.9238795325112867 0.0 -0.3826834323650899
  outer loop
    vertex 17.160066376962472 30.0 -6.784203399170549
    vertex 17.75 0.0 -9.749999999999998
    vertex 17.160066376962472 0.0 -6.784203399170549
  endloop
endfacet
facet normal -0.9807852804032304 -0.0 -0.19509032201612891
  outer loop
    vertex 17.75 0.0 -9.749999999999998
    vertex 17.160066376962472 30.0 -6.784203399170549
    vertex 17.75 30.0 -9.749999999999998
  endloop
endfacet
facet normal -0.7071067811865475 0.0 -0.7071067811865476
  outer loop
    vertex 15.480077554195745 30.0 -4.269922445804253
    vertex 12.965796600829446 0.0 -2.5899336230375254
    vertex 12.965796600829446 30.0 -2.5899336230375254
  endloop
endfacet
facet normal -0.38268343236508945 0.0 -0.9238795325112867
  outer loop
    vertex 12.965796600829446 0.0 -2.5899336230375254
    vertex 15.480077554195745 30.0 -4.269922445804253
    vertex 15.480077554195745 0.0 -4.269922445804253
  endloop
endfacet
facet normal -0.7071067811865456 -0.7071067811865495 0.0
  outer loop
    vertex 11.803122292025694 45.8031222920257 0.9999999999999999
    vertex 12.208364779650317 45.275 0.0
    vertex 12.208364779650317 45.275 0.9999999999999999
  endloop
endfacet
facet normal -0.8660254037844383 -0.5000000000000004 0.0
  outer loop
    vertex 12.208364779650317 45.275 0.0
    vertex 11.803122292025694 45.8031222920257 0.9999999999999999
    vertex 11.803122292025694 45.8031222920257 0.0
  endloop
endfacet
facet normal 0.3826834323650899 0.0 -0.9238795325112865
  outer loop
    vertex 7.034203399170554 30.0 -2.5899336230375254
    vertex 4.519922445804258 0.0 -4.269922445804255
    vertex 4.519922445804258 30.0 -4.269922445804255
  endloop
endfacet
facet normal 0.7071067811865479 0.0 -0.7071067811865471
  outer loop
    vertex 4.519922445804258 0.0 -4.269922445804255
    vertex 7.034203399170554 30.0 -2.5899336230375254
    vertex 7.034203399170554 0.0 -2.5899336230375254
  endloop
endfacet
facet normal -1.0 -1.0604220775819816e-15 0.0
  outer loop
    vertex 12.549999999999999 44.0 0.9999999999999999
    vertex 12.463110857037124 43.34001143498857 0.0
    vertex 12.463110857037124 43.34001143498857 0.9999999999999999
  endloop
endfacet
facet normal -0.9659258262890681 0.25881904510252157 0.0
  outer loop
    vertex 12.463110857037124 43.34001143498857 0.0
    vertex 12.549999999999999 44.0 0.9999999999999999
    vertex 12.549999999999999 44.0 0.0
  endloop
endfacet
facet normal 0.8660254037844387 0.4999999999999997 0.0
  outer loop
    vertex 7.791635220349682 42.724999999999994 0.0
    vertex 8.196877707974304 42.1968777079743 0.9999999999999999
    vertex 8.196877707974304 42.1968777079743 0.0
  endloop
endfacet
facet normal 0.7071067811865461 0.7071067811865489 0.0
  outer loop
    vertex 8.196877707974304 42.1968777079743 0.9999999999999999
    vertex 7.791635220349682 42.724999999999994 0.0
    vertex 7.791635220349682 42.724999999999994 0.9999999999999999
  endloop
endfacet
facet normal 0.7071067811865461 0.7071067811865489 0.0
  outer loop
    vertex 8.196877707974304 42.1968777079743 0.9999999999999999
    vertex 8.725000000000001 41.79163522034968 0.0
    vertex 8.196877707974304 42.1968777079743 0.0
  endloop
endfacet
facet normal 0.5 0.8660254037844388 0.0
  outer loop
    vertex 8.725000000000001 41.79163522034968 0.0
    vertex 8.196877707974304 42.1968777079743 0.9999999999999999
    vertex 8.725000000000001 41.79163522034968 0.9999999999999999
  endloop
endfacet
facet normal 0.5 0.8660254037844388 0.0
  outer loop
    vertex 8.725000000000001 41.79163522034968 0.9999999999999999
    vertex 9.340011434988572 41.53688914296288 0.0
    vertex 8.725000000000001 41.79163522034968 0.0
  endloop
endfacet
facet normal 0.2588190451025222 0.9659258262890679 0.0
  outer loop
    vertex 9.340011434988572 41.53688914296288 0.0
    vertex 8.725000000000001 41.79163522034968 0.9999999999999999
    vertex 9.340011434988572 41.53688914296288 0.9999999999999999
  endloop
endfacet
endsolid heartrate_sensor_holder
